{
  "asset": {
    "generator": "glTF-Transform v4.2.1",
    "version": "2.0"
  },
  "accessors": [
    {
      "type": "SCALAR",
      "componentType": 5123,
      "count": 36,
      "bufferView": 0,
      "byteOffset": 0
    },
    {
      "type": "SCALAR",
      "componentType": 5123,
      "count": 30,
      "bufferView": 0,
      "byteOffset": 72
    },
    {
      "type": "SCALAR",
      "componentType": 5123,
      "count": 30,
      "bufferView": 0,
      "byteOffset": 132
    },
    {
      "type": "SCALAR",
      "componentType": 5123,
      "count": 30,
      "bufferView": 0,
      "byteOffset": 192
    },
    {
      "type": "VEC3",
      "componentType": 5126,
      "count": 24,
      "max": [
        0.25,
        0.1875,
        0.375
      ],
      "min": [
        -0.25,
        -0.0625,
        -0.375
      ],
      "bufferView": 1,
      "byteOffset": 0
    },
    {
      "type": "VEC3",
      "componentType": 5126,
      "count": 24,
      "bufferView": 1,
      "byteOffset": 12
    },
    {
      "type": "VEC2",
      "componentType": 5126,
      "count": 24,
      "bufferView": 1,
      "byteOffset": 24
    },
    {
      "type": "VEC3",
      "componentType": 5126,
      "count": 24,
      "max": [
        0.0625,
        0.125,
        0.09375
      ],
      "min": [
        -0.0625,
        -0.125,
        -0.09375
      ],
      "bufferView": 2,
      "byteOffset": 0
    },
    {
      "type": "VEC2",
      "componentType": 5126,
      "count": 24,
      "bufferView": 2,
      "byteOffset": 12
    },
    {
      "type": "VEC3",
      "componentType": 5126,
      "count": 24,
      "max": [
        0.25,
        0.09375,
        -0.0625
      ],
      "min": [
        0,
        0.03125,
        -0.25
      ],
      "bufferView": 3,
      "byteOffset": 0
    },
    {
      "type": "VEC2",
      "componentType": 5126,
      "count": 24,
      "bufferView": 3,
      "byteOffset": 12
    },
    {
      "type": "VEC3",
      "componentType": 5126,
      "count": 24,
      "max": [
        0,
        0.09375,
        -0.0625
      ],
      "min": [
        -0.25,
        0.03125,
        -0.25
      ],
      "bufferView": 4,
      "byteOffset": 0
    },
    {
      "type": "VEC2",
      "componentType": 5126,
      "count": 24,
      "bufferView": 4,
      "byteOffset": 12
    },
    {
      "type": "VEC3",
      "componentType": 5126,
      "count": 16,
      "max": [
        0.03125,
        0,
        0.25
      ],
      "min": [
        -0.15625,
        0,
        -0.25
      ],
      "bufferView": 5,
      "byteOffset": 0
    },
    {
      "type": "VEC3",
      "componentType": 5126,
      "count": 16,
      "bufferView": 5,
      "byteOffset": 12
    },
    {
      "type": "VEC2",
      "componentType": 5126,
      "count": 16,
      "bufferView": 5,
      "byteOffset": 24
    },
    {
      "type": "VEC3",
      "componentType": 5126,
      "count": 16,
      "max": [
        0.09375,
        0,
        0.25
      ],
      "min": [
        -0.09375,
        0,
        -0.25
      ],
      "bufferView": 6,
      "byteOffset": 0
    },
    {
      "type": "VEC2",
      "componentType": 5126,
      "count": 16,
      "bufferView": 6,
      "byteOffset": 12
    },
    {
      "type": "VEC3",
      "componentType": 5126,
      "count": 24,
      "max": [
        0.125,
        0.15625,
        -0.125
      ],
      "min": [
        -0.125,
        -0.03125,
        -0.375
      ],
      "bufferView": 7,
      "byteOffset": 0
    },
    {
      "type": "VEC2",
      "componentType": 5126,
      "count": 24,
      "bufferView": 7,
      "byteOffset": 12
    },
    {
      "type": "VEC3",
      "componentType": 5126,
      "count": 16,
      "max": [
        0,
        0.34375,
        0.125
      ],
      "min": [
        0,
        -0.21875,
        -0.375
      ],
      "bufferView": 8,
      "byteOffset": 0
    },
    {
      "type": "VEC3",
      "componentType": 5126,
      "count": 16,
      "bufferView": 8,
      "byteOffset": 12
    },
    {
      "type": "VEC2",
      "componentType": 5126,
      "count": 16,
      "bufferView": 8,
      "byteOffset": 24
    },
    {
      "type": "SCALAR",
      "componentType": 5126,
      "count": 44,
      "max": [
        2
      ],
      "min": [
        0
      ],
      "bufferView": 9,
      "byteOffset": 0
    },
    {
      "type": "VEC4",
      "componentType": 5126,
      "count": 44,
      "bufferView": 9,
      "byteOffset": 176
    },
    {
      "type": "SCALAR",
      "componentType": 5126,
      "count": 51,
      "max": [
        2
      ],
      "min": [
        0
      ],
      "bufferView": 9,
      "byteOffset": 880
    },
    {
      "type": "VEC3",
      "componentType": 5126,
      "count": 51,
      "bufferView": 9,
      "byteOffset": 1084
    },
    {
      "type": "SCALAR",
      "componentType": 5126,
      "count": 73,
      "max": [
        2
      ],
      "min": [
        0
      ],
      "bufferView": 9,
      "byteOffset": 1696
    },
    {
      "type": "VEC4",
      "componentType": 5126,
      "count": 73,
      "bufferView": 9,
      "byteOffset": 1988
    },
    {
      "type": "VEC4",
      "componentType": 5126,
      "count": 73,
      "bufferView": 9,
      "byteOffset": 3156
    },
    {
      "type": "SCALAR",
      "componentType": 5126,
      "count": 71,
      "max": [
        2
      ],
      "min": [
        0
      ],
      "bufferView": 9,
      "byteOffset": 4324
    },
    {
      "type": "VEC4",
      "componentType": 5126,
      "count": 71,
      "bufferView": 9,
      "byteOffset": 4608
    },
    {
      "type": "SCALAR",
      "componentType": 5126,
      "count": 59,
      "max": [
        2
      ],
      "min": [
        0
      ],
      "bufferView": 9,
      "byteOffset": 5744
    },
    {
      "type": "VEC4",
      "componentType": 5126,
      "count": 59,
      "bufferView": 9,
      "byteOffset": 5980
    },
    {
      "type": "SCALAR",
      "componentType": 5126,
      "count": 60,
      "max": [
        2
      ],
      "min": [
        0
      ],
      "bufferView": 9,
      "byteOffset": 6924
    },
    {
      "type": "VEC4",
      "componentType": 5126,
      "count": 60,
      "bufferView": 9,
      "byteOffset": 7164
    },
    {
      "type": "SCALAR",
      "componentType": 5126,
      "count": 43,
      "max": [
        1
      ],
      "min": [
        0
      ],
      "bufferView": 9,
      "byteOffset": 8124
    },
    {
      "type": "VEC4",
      "componentType": 5126,
      "count": 43,
      "bufferView": 9,
      "byteOffset": 8296
    },
    {
      "type": "SCALAR",
      "componentType": 5126,
      "count": 43,
      "max": [
        1
      ],
      "min": [
        0
      ],
      "bufferView": 9,
      "byteOffset": 8984
    },
    {
      "type": "VEC3",
      "componentType": 5126,
      "count": 43,
      "bufferView": 9,
      "byteOffset": 9156
    },
    {
      "type": "SCALAR",
      "componentType": 5126,
      "count": 43,
      "max": [
        1
      ],
      "min": [
        0
      ],
      "bufferView": 9,
      "byteOffset": 9672
    },
    {
      "type": "VEC4",
      "componentType": 5126,
      "count": 43,
      "bufferView": 9,
      "byteOffset": 9844
    },
    {
      "type": "VEC4",
      "componentType": 5126,
      "count": 43,
      "bufferView": 9,
      "byteOffset": 10532
    },
    {
      "type": "SCALAR",
      "componentType": 5126,
      "count": 44,
      "max": [
        1
      ],
      "min": [
        0
      ],
      "bufferView": 9,
      "byteOffset": 11220
    },
    {
      "type": "VEC4",
      "componentType": 5126,
      "count": 44,
      "bufferView": 9,
      "byteOffset": 11396
    }
  ],
  "bufferViews": [
    {
      "buffer": 0,
      "byteOffset": 0,
      "byteLength": 252,
      "target": 34963
    },
    {
      "buffer": 0,
      "byteOffset": 252,
      "byteLength": 768,
      "byteStride": 32,
      "target": 34962
    },
    {
      "buffer": 0,
      "byteOffset": 1020,
      "byteLength": 480,
      "byteStride": 20,
      "target": 34962
    },
    {
      "buffer": 0,
      "byteOffset": 1500,
      "byteLength": 480,
      "byteStride": 20,
      "target": 34962
    },
    {
      "buffer": 0,
      "byteOffset": 1980,
      "byteLength": 480,
      "byteStride": 20,
      "target": 34962
    },
    {
      "buffer": 0,
      "byteOffset": 2460,
      "byteLength": 512,
      "byteStride": 32,
      "target": 34962
    },
    {
      "buffer": 0,
      "byteOffset": 2972,
      "byteLength": 320,
      "byteStride": 20,
      "target": 34962
    },
    {
      "buffer": 0,
      "byteOffset": 3292,
      "byteLength": 480,
      "byteStride": 20,
      "target": 34962
    },
    {
      "buffer": 0,
      "byteOffset": 3772,
      "byteLength": 512,
      "byteStride": 32,
      "target": 34962
    },
    {
      "buffer": 0,
      "byteOffset": 4284,
      "byteLength": 12100
    }
  ],
  "samplers": [
    {
      "magFilter": 9728,
      "minFilter": 9728,
      "wrapS": 33071,
      "wrapT": 33071
    }
  ],
  "textures": [
    {
      "source": 0,
      "sampler": 0
    }
  ],
  "images": [
    {
      "mimeType": "image/png",
      "uri": "baseColor.png"
    }
  ],
  "buffers": [
    {
      "uri": "catfish-named-nodes.bin",
      "byteLength": 16384
    }
  ],
  "materials": [
    {
      "alphaMode": "MASK",
      "alphaCutoff": 0.05,
      "doubleSided": true,
      "pbrMetallicRoughness": {
        "metallicFactor": 0,
        "baseColorTexture": {
          "index": 0
        }
      }
    }
  ],
  "meshes": [
    {
      "primitives": [
        {
          "attributes": {
            "POSITION": 4,
            "NORMAL": 5,
            "TEXCOORD_0": 6
          },
          "mode": 4,
          "material": 0,
          "indices": 0
        }
      ]
    },
    {
      "primitives": [
        {
          "attributes": {
            "POSITION": 7,
            "TEXCOORD_0": 8,
            "NORMAL": 5
          },
          "mode": 4,
          "material": 0,
          "indices": 0
        }
      ]
    },
    {
      "primitives": [
        {
          "attributes": {
            "POSITION": 9,
            "TEXCOORD_0": 10,
            "NORMAL": 5
          },
          "mode": 4,
          "material": 0,
          "indices": 0
        }
      ]
    },
    {
      "primitives": [
        {
          "attributes": {
            "POSITION": 11,
            "TEXCOORD_0": 12,
            "NORMAL": 5
          },
          "mode": 4,
          "material": 0,
          "indices": 0
        }
      ]
    },
    {
      "primitives": [
        {
          "attributes": {
            "POSITION": 13,
            "NORMAL": 14,
            "TEXCOORD_0": 15
          },
          "mode": 4,
          "material": 0,
          "indices": 1
        }
      ]
    },
    {
      "primitives": [
        {
          "attributes": {
            "POSITION": 16,
            "TEXCOORD_0": 17,
            "NORMAL": 14
          },
          "mode": 4,
          "material": 0,
          "indices": 2
        }
      ]
    },
    {
      "primitives": [
        {
          "attributes": {
            "POSITION": 18,
            "TEXCOORD_0": 19,
            "NORMAL": 5
          },
          "mode": 4,
          "material": 0,
          "indices": 0
        }
      ]
    },
    {
      "primitives": [
        {
          "attributes": {
            "POSITION": 20,
            "NORMAL": 21,
            "TEXCOORD_0": 22
          },
          "mode": 4,
          "material": 0,
          "indices": 3
        }
      ]
    }
  ],
  "nodes": [
    {
      "name": "cube",
      "translation": [
        0,
        -0.0625,
        0
      ],
      "mesh": 0
    },
    {
      "name": "cube",
      "translation": [
        0,
        0.1875,
        0.03125
      ],
      "rotation": [
        0.19509032201612825,
        0,
        0,
        0.9807852804032304
      ],
      "mesh": 1
    },
    {
      "name": "cube",
      "translation": [
        -0.25,
        -0.0625,
        0.15625
      ],
      "mesh": 2
    },
    {
      "name": "fin",
      "translation": [
        -0.25,
        -0.09375,
        -0.15625
      ],
      "children": [
        2
      ]
    },
    {
      "name": "cube",
      "translation": [
        0.25,
        -0.0625,
        0.15625
      ],
      "mesh": 3
    },
    {
      "name": "fin2",
      "translation": [
        0.25,
        -0.09375,
        -0.15625
      ],
      "children": [
        4
      ]
    },
    {
      "name": "cube",
      "rotation": [
        0,
        0,
        0.19509032201612825,
        0.9807852804032304
      ],
      "mesh": 4
    },
    {
      "name": "wisker",
      "translation": [
        -0.21875,
        -0.09375,
        -0.3125
      ],
      "children": [
        6
      ]
    },
    {
      "name": "cube",
      "translation": [
        0.0625,
        0,
        0.0625
      ],
      "mesh": 5
    },
    {
      "name": "wisker2",
      "translation": [
        0.21875,
        -0.09375,
        -0.375
      ],
      "rotation": [
        0,
        0,
        -0.19509032201612825,
        0.9807852804032304
      ],
      "children": [
        8
      ]
    },
    {
      "name": "cube",
      "translation": [
        0,
        -0.0625,
        0.375
      ],
      "mesh": 6
    },
    {
      "name": "cube",
      "translation": [
        0,
        -0.0625,
        0.375
      ],
      "mesh": 7
    },
    {
      "name": "tail",
      "translation": [
        0,
        0,
        0.375
      ],
      "children": [
        10,
        11
      ]
    },
    {
      "name": "catfish",
      "translation": [
        0,
        0.25,
        -0.0625
      ],
      "children": [
        0,
        1,
        3,
        5,
        7,
        9,
        12
      ]
    },
    {
      "children": [
        13
      ]
    }
  ],
  "animations": [
    {
      "name": "idle",
      "samplers": [
        {
          "input": 23,
          "output": 24,
          "interpolation": "LINEAR"
        },
        {
          "input": 25,
          "output": 26,
          "interpolation": "LINEAR"
        },
        {
          "input": 27,
          "output": 28,
          "interpolation": "LINEAR"
        },
        {
          "input": 27,
          "output": 29,
          "interpolation": "LINEAR"
        },
        {
          "input": 30,
          "output": 31,
          "interpolation": "LINEAR"
        },
        {
          "input": 32,
          "output": 33,
          "interpolation": "LINEAR"
        },
        {
          "input": 34,
          "output": 35,
          "interpolation": "LINEAR"
        }
      ],
      "channels": [
        {
          "sampler": 0,
          "target": {
            "node": 13,
            "path": "rotation"
          }
        },
        {
          "sampler": 1,
          "target": {
            "node": 13,
            "path": "translation"
          }
        },
        {
          "sampler": 2,
          "target": {
            "node": 3,
            "path": "rotation"
          }
        },
        {
          "sampler": 3,
          "target": {
            "node": 5,
            "path": "rotation"
          }
        },
        {
          "sampler": 4,
          "target": {
            "node": 12,
            "path": "rotation"
          }
        },
        {
          "sampler": 5,
          "target": {
            "node": 9,
            "path": "rotation"
          }
        },
        {
          "sampler": 6,
          "target": {
            "node": 7,
            "path": "rotation"
          }
        }
      ]
    },
    {
      "name": "walk",
      "samplers": [
        {
          "input": 36,
          "output": 37,
          "interpolation": "LINEAR"
        },
        {
          "input": 38,
          "output": 39,
          "interpolation": "LINEAR"
        },
        {
          "input": 40,
          "output": 41,
          "interpolation": "LINEAR"
        },
        {
          "input": 40,
          "output": 42,
          "interpolation": "LINEAR"
        },
        {
          "input": 43,
          "output": 44,
          "interpolation": "LINEAR"
        }
      ],
      "channels": [
        {
          "sampler": 0,
          "target": {
            "node": 13,
            "path": "rotation"
          }
        },
        {
          "sampler": 1,
          "target": {
            "node": 13,
            "path": "translation"
          }
        },
        {
          "sampler": 2,
          "target": {
            "node": 3,
            "path": "rotation"
          }
        },
        {
          "sampler": 3,
          "target": {
            "node": 5,
            "path": "rotation"
          }
        },
        {
          "sampler": 4,
          "target": {
            "node": 12,
            "path": "rotation"
          }
        }
      ]
    }
  ],
  "scenes": [
    {
      "name": "blockbench_export",
      "nodes": [
        14
      ]
    }
  ],
  "scene": 0
}