{"asset":{"version":"2.0","generator":"Blockbench 4.11.2 glTF exporter"},"scenes":[{"nodes":[5],"name":"blockbench_export"}],"scene":0,"nodes":[{"translation":[-0.012499999999999997,0,0],"name":"boarder","mesh":0},{"rotation":[0,0,0.7071067811865475,0.7071067811865476],"translation":[-0.00625,0,0],"name":"empty","mesh":1},{"translation":[0,0.0625,0],"name":"healthbar_background","children":[0,1]},{"translation":[0,0.0625,-0.625],"name":"full","mesh":2},{"translation":[0,0,0.625],"name":"healthbar_green","children":[3]},{"children":[2,4]}],"bufferViews":[{"buffer":0,"byteOffset":0,"byteLength":48,"target":34962,"byteStride":12},{"buffer":0,"byteOffset":48,"byteLength":48,"target":34962,"byteStride":12},{"buffer":0,"byteOffset":96,"byteLength":32,"target":34962,"byteStride":8},{"buffer":0,"byteOffset":128,"byteLength":12,"target":34963},{"buffer":0,"byteOffset":140,"byteLength":48,"target":34962,"byteStride":12},{"buffer":0,"byteOffset":188,"byteLength":48,"target":34962,"byteStride":12},{"buffer":0,"byteOffset":236,"byteLength":32,"target":34962,"byteStride":8},{"buffer":0,"byteOffset":268,"byteLength":12,"target":34963},{"buffer":0,"byteOffset":280,"byteLength":48,"target":34962,"byteStride":12},{"buffer":0,"byteOffset":328,"byteLength":48,"target":34962,"byteStride":12},{"buffer":0,"byteOffset":376,"byteLength":32,"target":34962,"byteStride":8},{"buffer":0,"byteOffset":408,"byteLength":12,"target":34963},{"buffer":0,"byteOffset":420,"byteLength":8},{"buffer":0,"byteOffset":428,"byteLength":32},{"buffer":0,"byteOffset":460,"byteLength":8},{"buffer":0,"byteOffset":468,"byteLength":24},{"buffer":0,"byteOffset":492,"byteLength":8},{"buffer":0,"byteOffset":500,"byteLength":24}],"buffers":[{"byteLength":524,"uri":"data:application/octet-stream;base64,"}],"accessors":[{"bufferView":0,"componentType":5126,"count":4,"max":[1.3877787807814457e-17,0.09375,0.65625],"min":[-1.3877787807814457e-17,-0.09375,-0.65625],"type":"VEC3"},{"bufferView":1,"componentType":5126,"count":4,"max":[-1,1.4802974102831747e-16,0],"min":[-1,1.4802974102831747e-16,0],"type":"VEC3"},{"bufferView":2,"componentType":5126,"count":4,"max":[0.1875,0.625],"min":[0.125,0],"type":"VEC2"},{"bufferView":3,"componentType":5123,"count":6,"max":[3],"min":[0],"type":"SCALAR"},{"bufferView":4,"componentType":5126,"count":4,"max":[0.0625,0,0.625],"min":[-0.0625,0,-0.625],"type":"VEC3"},{"bufferView":5,"componentType":5126,"count":4,"max":[0,1,0],"min":[0,1,0],"type":"VEC3"},{"bufferView":6,"componentType":5126,"count":4,"max":[0.0625,0.625],"min":[0,0],"type":"VEC2"},{"bufferView":7,"componentType":5123,"count":6,"max":[3],"min":[0],"type":"SCALAR"},{"bufferView":8,"componentType":5126,"count":4,"max":[1.3877787807814457e-17,0.06406249850988388,0.628125011920929],"min":[-1.3877787807814457e-17,-0.06406249850988388,-0.628125011920929],"type":"VEC3"},{"bufferView":9,"componentType":5126,"count":4,"max":[-1,2.1662888801852413e-16,0],"min":[-1,2.1662888801852413e-16,0],"type":"VEC3"},{"bufferView":10,"componentType":5126,"count":4,"max":[0.125,0.625],"min":[0.0625,0],"type":"VEC2"},{"bufferView":11,"componentType":5123,"count":6,"max":[3],"min":[0],"type":"SCALAR"},{"bufferView":12,"componentType":5126,"count":2,"max":[4.166666507720947],"min":[0],"type":"SCALAR"},{"bufferView":13,"componentType":5126,"count":2,"max":[0,0,0,1],"min":[0,0,0,1],"type":"VEC4"},{"bufferView":14,"componentType":5126,"count":2,"max":[4.166666507720947],"min":[0],"type":"SCALAR"},{"bufferView":15,"componentType":5126,"count":2,"max":[0,0,0.625],"min":[0,0,0.625],"type":"VEC3"},{"bufferView":16,"componentType":5126,"count":2,"max":[4.166666507720947],"min":[0],"type":"SCALAR"},{"bufferView":17,"componentType":5126,"count":2,"max":[1,1,1],"min":[1,1,0],"type":"VEC3"}],"materials":[{"pbrMetallicRoughness":{"metallicFactor":0,"roughnessFactor":1,"baseColorTexture":{"index":0}},"alphaMode":"MASK","alphaCutoff":0.05,"doubleSided":true}],"textures":[{"sampler":0,"source":0,"name":"health_bar_texture"}],"samplers":[{"magFilter":9728,"minFilter":9728,"wrapS":33071,"wrapT":33071}],"images":[{"mimeType":"image/png","uri":"data:image/png;base64,"}],"meshes":[{"primitives":[{"mode":4,"attributes":{"POSITION":0,"NORMAL":1,"TEXCOORD_0":2},"indices":3,"material":0}]},{"primitives":[{"mode":4,"attributes":{"POSITION":4,"NORMAL":5,"TEXCOORD_0":6},"indices":7,"material":0}]},{"primitives":[{"mode":4,"attributes":{"POSITION":8,"NORMAL":9,"TEXCOORD_0":10},"indices":11,"material":0}]}],"animations":[{"name":"progress","samplers":[{"input":12,"output":13,"interpolation":"LINEAR"},{"input":14,"output":15,"interpolation":"LINEAR"},{"input":16,"output":17,"interpolation":"LINEAR"}],"channels":[{"sampler":0,"target":{"node":4,"path":"rotation"}},{"sampler":1,"target":{"node":4,"path":"translation"}},{"sampler":2,"target":{"node":4,"path":"scale"}}]}]}