{
  "asset": {
    "generator": "glTF-Transform v4.2.1",
    "version": "2.0"
  },
  "accessors": [
    {
      "type": "SCALAR",
      "componentType": 5123,
      "count": 66,
      "bufferView": 0,
      "byteOffset": 0
    },
    {
      "type": "SCALAR",
      "componentType": 5123,
      "count": 36,
      "bufferView": 0,
      "byteOffset": 132
    },
    {
      "type": "VEC3",
      "componentType": 5126,
      "count": 40,
      "max": [
        0.09375,
        0.375,
        0.5
      ],
      "min": [
        -0.09375,
        0,
        -0.125
      ],
      "bufferView": 1,
      "byteOffset": 0
    },
    {
      "type": "VEC3",
      "componentType": 5126,
      "count": 40,
      "bufferView": 1,
      "byteOffset": 12
    },
    {
      "type": "VEC2",
      "componentType": 5126,
      "count": 40,
      "bufferView": 1,
      "byteOffset": 24
    },
    {
      "type": "VEC3",
      "componentType": 5126,
      "count": 24,
      "max": [
        0.0625,
        0.1875,
        0.0625
      ],
      "min": [
        -0.0625,
        0,
        -0.125
      ],
      "bufferView": 2,
      "byteOffset": 0
    },
    {
      "type": "VEC2",
      "componentType": 5126,
      "count": 24,
      "bufferView": 2,
      "byteOffset": 12
    },
    {
      "type": "VEC3",
      "componentType": 5126,
      "count": 24,
      "bufferView": 2,
      "byteOffset": 20
    },
    {
      "type": "VEC3",
      "componentType": 5126,
      "count": 40,
      "max": [
        0.078125,
        0.3125,
        0.25
      ],
      "min": [
        -0.078125,
        0,
        -0.125
      ],
      "bufferView": 3,
      "byteOffset": 0
    },
    {
      "type": "VEC2",
      "componentType": 5126,
      "count": 40,
      "bufferView": 3,
      "byteOffset": 12
    },
    {
      "type": "SCALAR",
      "componentType": 5126,
      "count": 72,
      "max": [
        4
      ],
      "min": [
        0
      ],
      "bufferView": 4,
      "byteOffset": 0
    },
    {
      "type": "VEC4",
      "componentType": 5126,
      "count": 72,
      "bufferView": 4,
      "byteOffset": 288
    },
    {
      "type": "SCALAR",
      "componentType": 5126,
      "count": 43,
      "max": [
        4
      ],
      "min": [
        0
      ],
      "bufferView": 4,
      "byteOffset": 1440
    },
    {
      "type": "VEC3",
      "componentType": 5126,
      "count": 43,
      "bufferView": 4,
      "byteOffset": 1612
    },
    {
      "type": "SCALAR",
      "componentType": 5126,
      "count": 126,
      "max": [
        4
      ],
      "min": [
        0
      ],
      "bufferView": 4,
      "byteOffset": 2128
    },
    {
      "type": "VEC4",
      "componentType": 5126,
      "count": 126,
      "bufferView": 4,
      "byteOffset": 2632
    },
    {
      "type": "SCALAR",
      "componentType": 5126,
      "count": 74,
      "max": [
        4
      ],
      "min": [
        0
      ],
      "bufferView": 4,
      "byteOffset": 4648
    },
    {
      "type": "VEC4",
      "componentType": 5126,
      "count": 74,
      "bufferView": 4,
      "byteOffset": 4944
    },
    {
      "type": "SCALAR",
      "componentType": 5126,
      "count": 56,
      "max": [
        2
      ],
      "min": [
        0
      ],
      "bufferView": 4,
      "byteOffset": 6128
    },
    {
      "type": "VEC4",
      "componentType": 5126,
      "count": 56,
      "bufferView": 4,
      "byteOffset": 6352
    },
    {
      "type": "SCALAR",
      "componentType": 5126,
      "count": 51,
      "max": [
        2
      ],
      "min": [
        0
      ],
      "bufferView": 4,
      "byteOffset": 7248
    },
    {
      "type": "VEC3",
      "componentType": 5126,
      "count": 51,
      "bufferView": 4,
      "byteOffset": 7452
    },
    {
      "type": "SCALAR",
      "componentType": 5126,
      "count": 76,
      "max": [
        2
      ],
      "min": [
        0
      ],
      "bufferView": 4,
      "byteOffset": 8064
    },
    {
      "type": "VEC4",
      "componentType": 5126,
      "count": 76,
      "bufferView": 4,
      "byteOffset": 8368
    },
    {
      "type": "SCALAR",
      "componentType": 5126,
      "count": 62,
      "max": [
        2
      ],
      "min": [
        0
      ],
      "bufferView": 4,
      "byteOffset": 9584
    },
    {
      "type": "VEC4",
      "componentType": 5126,
      "count": 62,
      "bufferView": 4,
      "byteOffset": 9832
    }
  ],
  "bufferViews": [
    {
      "buffer": 0,
      "byteOffset": 0,
      "byteLength": 204,
      "target": 34963
    },
    {
      "buffer": 0,
      "byteOffset": 204,
      "byteLength": 1280,
      "byteStride": 32,
      "target": 34962
    },
    {
      "buffer": 0,
      "byteOffset": 1484,
      "byteLength": 768,
      "byteStride": 32,
      "target": 34962
    },
    {
      "buffer": 0,
      "byteOffset": 2252,
      "byteLength": 800,
      "byteStride": 20,
      "target": 34962
    },
    {
      "buffer": 0,
      "byteOffset": 3052,
      "byteLength": 10824
    }
  ],
  "samplers": [
    {
      "magFilter": 9728,
      "minFilter": 9728,
      "wrapS": 33071,
      "wrapT": 33071
    }
  ],
  "textures": [
    {
      "source": 0,
      "sampler": 0
    }
  ],
  "images": [
    {
      "mimeType": "image/png",
      "uri": "baseColor.png"
    }
  ],
  "buffers": [
    {
      "uri": "moray-eel.bin",
      "byteLength": 13876
    }
  ],
  "materials": [
    {
      "alphaMode": "MASK",
      "alphaCutoff": 0.05,
      "doubleSided": true,
      "pbrMetallicRoughness": {
        "metallicFactor": 0,
        "baseColorTexture": {
          "index": 0
        }
      }
    }
  ],
  "meshes": [
    {
      "primitives": [
        {
          "attributes": {
            "POSITION": 2,
            "NORMAL": 3,
            "TEXCOORD_0": 4
          },
          "mode": 4,
          "material": 0,
          "indices": 0
        }
      ]
    },
    {
      "primitives": [
        {
          "attributes": {
            "POSITION": 5,
            "TEXCOORD_0": 6,
            "NORMAL": 7
          },
          "mode": 4,
          "material": 0,
          "indices": 1
        }
      ]
    },
    {
      "primitives": [
        {
          "attributes": {
            "POSITION": 8,
            "TEXCOORD_0": 9,
            "NORMAL": 3
          },
          "mode": 4,
          "material": 0,
          "indices": 0
        }
      ]
    }
  ],
  "nodes": [
    {
      "name": "cube",
      "translation": [
        0,
        -0.125,
        -0.0625
      ],
      "mesh": 0
    },
    {
      "name": "cube",
      "translation": [
        0,
        -0.09375,
        -0.0625
      ],
      "mesh": 1
    },
    {
      "name": "head",
      "translation": [
        0,
        -0.03125,
        -0.1875
      ],
      "children": [
        1
      ]
    },
    {
      "name": "cube",
      "translation": [
        0,
        -0.1875,
        0.125
      ],
      "mesh": 2
    },
    {
      "name": "tail",
      "translation": [
        0,
        0.0625,
        0.4375
      ],
      "children": [
        3
      ]
    },
    {
      "name": "moray_eel",
      "translation": [
        0,
        0.4375,
        -0.125
      ],
      "children": [
        0,
        2,
        4
      ]
    },
    {
      "children": [
        5
      ]
    }
  ],
  "animations": [
    {
      "name": "idle",
      "samplers": [
        {
          "input": 10,
          "output": 11,
          "interpolation": "LINEAR"
        },
        {
          "input": 12,
          "output": 13,
          "interpolation": "LINEAR"
        },
        {
          "input": 14,
          "output": 15,
          "interpolation": "LINEAR"
        },
        {
          "input": 16,
          "output": 17,
          "interpolation": "LINEAR"
        }
      ],
      "channels": [
        {
          "sampler": 0,
          "target": {
            "node": 5,
            "path": "rotation"
          }
        },
        {
          "sampler": 1,
          "target": {
            "node": 5,
            "path": "translation"
          }
        },
        {
          "sampler": 2,
          "target": {
            "node": 2,
            "path": "rotation"
          }
        },
        {
          "sampler": 3,
          "target": {
            "node": 4,
            "path": "rotation"
          }
        }
      ]
    },
    {
      "name": "walk",
      "samplers": [
        {
          "input": 18,
          "output": 19,
          "interpolation": "LINEAR"
        },
        {
          "input": 20,
          "output": 21,
          "interpolation": "LINEAR"
        },
        {
          "input": 22,
          "output": 23,
          "interpolation": "LINEAR"
        },
        {
          "input": 24,
          "output": 25,
          "interpolation": "LINEAR"
        }
      ],
      "channels": [
        {
          "sampler": 0,
          "target": {
            "node": 5,
            "path": "rotation"
          }
        },
        {
          "sampler": 1,
          "target": {
            "node": 5,
            "path": "translation"
          }
        },
        {
          "sampler": 2,
          "target": {
            "node": 2,
            "path": "rotation"
          }
        },
        {
          "sampler": 3,
          "target": {
            "node": 4,
            "path": "rotation"
          }
        }
      ]
    }
  ],
  "scenes": [
    {
      "name": "blockbench_export",
      "nodes": [
        6
      ]
    }
  ],
  "scene": 0
}