{
  "asset": {
    "generator": "glTF-Transform v4.2.1",
    "version": "2.0"
  },
  "accessors": [
    {
      "type": "SCALAR",
      "componentType": 5123,
      "count": 180,
      "bufferView": 0,
      "byteOffset": 0
    },
    {
      "type": "VEC3",
      "componentType": 5126,
      "count": 120,
      "max": [
        0.171875,
        0.90625,
        0.125
      ],
      "min": [
        -0.578125,
        -0.0625,
        -0.125
      ],
      "bufferView": 1,
      "byteOffset": 0
    },
    {
      "type": "VEC3",
      "componentType": 5126,
      "count": 120,
      "bufferView": 1,
      "byteOffset": 12
    },
    {
      "type": "VEC2",
      "componentType": 5126,
      "count": 120,
      "bufferView": 1,
      "byteOffset": 24
    },
    {
      "type": "SCALAR",
      "componentType": 5126,
      "count": 79,
      "max": [
        3.25
      ],
      "min": [
        0
      ],
      "bufferView": 2,
      "byteOffset": 0
    },
    {
      "type": "VEC3",
      "componentType": 5126,
      "count": 79,
      "bufferView": 2,
      "byteOffset": 316
    }
  ],
  "bufferViews": [
    {
      "buffer": 0,
      "byteOffset": 0,
      "byteLength": 360,
      "target": 34963
    },
    {
      "buffer": 0,
      "byteOffset": 360,
      "byteLength": 3840,
      "byteStride": 32,
      "target": 34962
    },
    {
      "buffer": 0,
      "byteOffset": 4200,
      "byteLength": 1264
    }
  ],
  "samplers": [
    {
      "magFilter": 9728,
      "minFilter": 9728,
      "wrapS": 33071,
      "wrapT": 33071
    }
  ],
  "textures": [
    {
      "source": 0,
      "sampler": 0
    }
  ],
  "images": [
    {
      "mimeType": "image/png",
      "uri": "baseColor.png"
    }
  ],
  "buffers": [
    {
      "uri": "speech-bubble.bin",
      "byteLength": 5464
    }
  ],
  "materials": [
    {
      "alphaMode": "MASK",
      "alphaCutoff": 0.05,
      "doubleSided": true,
      "pbrMetallicRoughness": {
        "metallicFactor": 0,
        "baseColorTexture": {
          "index": 0
        }
      }
    }
  ],
  "meshes": [
    {
      "primitives": [
        {
          "attributes": {
            "POSITION": 1,
            "NORMAL": 2,
            "TEXCOORD_0": 3
          },
          "mode": 4,
          "material": 0,
          "indices": 0
        }
      ]
    }
  ],
  "nodes": [
    {
      "name": "cube",
      "mesh": 0
    },
    {
      "name": "bone",
      "translation": [
        -0.0625,
        0.0625,
        0
      ],
      "children": [
        0
      ]
    },
    {
      "name": "speech_bubble",
      "translation": [
        0,
        0.4375,
        0
      ],
      "children": [
        1
      ]
    }
  ],
  "animations": [
    {
      "name": "idle",
      "samplers": [
        {
          "input": 4,
          "output": 5,
          "interpolation": "LINEAR"
        }
      ],
      "channels": [
        {
          "sampler": 0,
          "target": {
            "node": 1,
            "path": "translation"
          }
        }
      ]
    }
  ],
  "scenes": [
    {
      "name": "blockbench_export",
      "nodes": [
        2
      ]
    }
  ],
  "scene": 0
}