{"asset":{"version":"2.0","generator":"Blockbench 4.11.1 glTF exporter"},"scenes":[{"nodes":[2],"name":"hytopia-gltf-splitter"}],"scene":0,"nodes":[{"name":"back_cosmetic","children":[1],"translation":[0,-1.5,-0.25]},{"translation":[0,0.875,0],"name":"myobibackpack","mesh":0},{"children":[0]}],"bufferViews":[{"buffer":0,"byteOffset":0,"byteLength":2016,"target":34962,"byteStride":12},{"buffer":1,"byteOffset":0,"byteLength":2016,"target":34962,"byteStride":12},{"buffer":2,"byteOffset":0,"byteLength":1344,"target":34962,"byteStride":8},{"buffer":3,"byteOffset":0,"byteLength":504,"target":34963}],"buffers":[{"byteLength":2016,"uri":"data:application/octet-stream;base64,"},{"byteLength":2016,"uri":"data:application/octet-stream;base64,"},{"byteLength":1344,"uri":"data:application/octet-stream;base64,"},{"byteLength":504,"uri":"data:application/octet-stream;base64,"}],"accessors":[{"bufferView":0,"componentType":5126,"count":168,"max":[0.328125,1.1418750286102295,0.6887500286102295],"min":[-0.328125,0.171875,0.2331250011920929],"type":"VEC3"},{"bufferView":1,"componentType":5126,"count":168,"max":[1,1,1],"min":[-1,-1,-1],"type":"VEC3"},{"bufferView":2,"componentType":5126,"count":168,"max":[0.609375,0.5625],"min":[0,0],"type":"VEC2"},{"bufferView":3,"componentType":5123,"count":252,"max":[167],"min":[0],"type":"SCALAR"}],"materials":[{"pbrMetallicRoughness":{"metallicFactor":0,"roughnessFactor":1},"alphaMode":"MASK","alphaCutoff":0.05,"doubleSided":true},{"pbrMetallicRoughness":{"metallicFactor":0,"roughnessFactor":1,"baseColorTexture":{"index":0}},"alphaMode":"MASK","alphaCutoff":0.05,"doubleSided":true},{"pbrMetallicRoughness":{"metallicFactor":0,"roughnessFactor":1,"baseColorTexture":{"index":1}},"alphaMode":"MASK","alphaCutoff":0.05,"doubleSided":true}],"meshes":[{"primitives":[{"mode":4,"attributes":{"POSITION":0,"NORMAL":1,"TEXCOORD_0":2},"indices":3,"material":2}]}],"textures":[{"sampler":0,"source":0,"name":"pasted.png"},{"sampler":1,"source":1}],"samplers":[{"magFilter":9728,"minFilter":9728,"wrapS":33071,"wrapT":33071},{"magFilter":9728,"minFilter":9728,"wrapS":33071,"wrapT":33071}],"images":[{"mimeType":"image/png","uri":"data:image/png;base64,"},{"mimeType":"image/png","uri":"data:image/png;base64,"}]}