{
  "asset": {
    "generator": "glTF-Transform v4.2.1",
    "version": "2.0"
  },
  "accessors": [
    {
      "type": "SCALAR",
      "componentType": 5126,
      "count": 56,
      "max": [
        1.3333300352096558
      ],
      "min": [
        0
      ],
      "bufferView": 0,
      "byteOffset": 0
    },
    {
      "type": "SCALAR",
      "componentType": 5126,
      "count": 56,
      "max": [
        1.3333300352096558
      ],
      "min": [
        0
      ],
      "bufferView": 0,
      "byteOffset": 224
    },
    {
      "type": "VEC4",
      "componentType": 5126,
      "count": 56,
      "bufferView": 0,
      "byteOffset": 448
    },
    {
      "type": "VEC4",
      "componentType": 5126,
      "count": 56,
      "bufferView": 0,
      "byteOffset": 1344
    },
    {
      "type": "VEC4",
      "componentType": 5126,
      "count": 56,
      "bufferView": 0,
      "byteOffset": 2240
    },
    {
      "type": "SCALAR",
      "componentType": 5126,
      "count": 57,
      "max": [
        2
      ],
      "min": [
        0
      ],
      "bufferView": 0,
      "byteOffset": 3136
    },
    {
      "type": "VEC4",
      "componentType": 5126,
      "count": 57,
      "bufferView": 0,
      "byteOffset": 3364
    },
    {
      "type": "SCALAR",
      "componentType": 5126,
      "count": 35,
      "max": [
        2
      ],
      "min": [
        0
      ],
      "bufferView": 0,
      "byteOffset": 4276
    },
    {
      "type": "VEC3",
      "componentType": 5126,
      "count": 35,
      "bufferView": 0,
      "byteOffset": 4416
    },
    {
      "type": "SCALAR",
      "componentType": 5126,
      "count": 74,
      "max": [
        2
      ],
      "min": [
        0
      ],
      "bufferView": 0,
      "byteOffset": 4836
    },
    {
      "type": "VEC4",
      "componentType": 5126,
      "count": 74,
      "bufferView": 0,
      "byteOffset": 5132
    },
    {
      "type": "VEC4",
      "componentType": 5126,
      "count": 74,
      "bufferView": 0,
      "byteOffset": 6316
    },
    {
      "type": "SCALAR",
      "componentType": 5126,
      "count": 74,
      "max": [
        2
      ],
      "min": [
        0
      ],
      "bufferView": 0,
      "byteOffset": 7500
    },
    {
      "type": "VEC4",
      "componentType": 5126,
      "count": 74,
      "bufferView": 0,
      "byteOffset": 7796
    },
    {
      "type": "SCALAR",
      "componentType": 5126,
      "count": 29,
      "max": [
        2
      ],
      "min": [
        0
      ],
      "bufferView": 0,
      "byteOffset": 8980
    },
    {
      "type": "VEC4",
      "componentType": 5126,
      "count": 29,
      "bufferView": 0,
      "byteOffset": 9096
    },
    {
      "type": "SCALAR",
      "componentType": 5126,
      "count": 37,
      "max": [
        2
      ],
      "min": [
        0
      ],
      "bufferView": 0,
      "byteOffset": 9560
    },
    {
      "type": "VEC4",
      "componentType": 5126,
      "count": 37,
      "bufferView": 0,
      "byteOffset": 9708
    },
    {
      "type": "VEC4",
      "componentType": 5126,
      "count": 37,
      "bufferView": 0,
      "byteOffset": 10300
    },
    {
      "type": "SCALAR",
      "componentType": 5126,
      "count": 50,
      "max": [
        1.3333300352096558
      ],
      "min": [
        0
      ],
      "bufferView": 0,
      "byteOffset": 10892
    },
    {
      "type": "VEC4",
      "componentType": 5126,
      "count": 50,
      "bufferView": 0,
      "byteOffset": 11092
    },
    {
      "type": "SCALAR",
      "componentType": 5126,
      "count": 46,
      "max": [
        1.3333300352096558
      ],
      "min": [
        0
      ],
      "bufferView": 0,
      "byteOffset": 11892
    },
    {
      "type": "VEC3",
      "componentType": 5126,
      "count": 46,
      "bufferView": 0,
      "byteOffset": 12076
    },
    {
      "type": "SCALAR",
      "componentType": 5126,
      "count": 55,
      "max": [
        1.3333300352096558
      ],
      "min": [
        0
      ],
      "bufferView": 0,
      "byteOffset": 12628
    },
    {
      "type": "VEC4",
      "componentType": 5126,
      "count": 55,
      "bufferView": 0,
      "byteOffset": 12848
    },
    {
      "type": "SCALAR",
      "componentType": 5126,
      "count": 48,
      "max": [
        1.3333300352096558
      ],
      "min": [
        0
      ],
      "bufferView": 0,
      "byteOffset": 13728
    },
    {
      "type": "VEC4",
      "componentType": 5126,
      "count": 48,
      "bufferView": 0,
      "byteOffset": 13920
    },
    {
      "type": "VEC4",
      "componentType": 5126,
      "count": 48,
      "bufferView": 0,
      "byteOffset": 14688
    },
    {
      "type": "SCALAR",
      "componentType": 5123,
      "count": 36,
      "bufferView": 1,
      "byteOffset": 0
    },
    {
      "type": "SCALAR",
      "componentType": 5123,
      "count": 30,
      "bufferView": 1,
      "byteOffset": 72
    },
    {
      "type": "VEC3",
      "componentType": 5126,
      "count": 24,
      "max": [
        0.125,
        0.1875,
        0.5
      ],
      "min": [
        -0.125,
        -0.0625,
        -0.375
      ],
      "bufferView": 2,
      "byteOffset": 0
    },
    {
      "type": "VEC3",
      "componentType": 5126,
      "count": 24,
      "bufferView": 2,
      "byteOffset": 12
    },
    {
      "type": "VEC2",
      "componentType": 5126,
      "count": 24,
      "bufferView": 2,
      "byteOffset": 24
    },
    {
      "type": "VEC3",
      "componentType": 5126,
      "count": 24,
      "max": [
        -0.125,
        0.09375,
        -0.125
      ],
      "min": [
        -0.375,
        0.03125,
        -0.3125
      ],
      "bufferView": 3,
      "byteOffset": 0
    },
    {
      "type": "VEC2",
      "componentType": 5126,
      "count": 24,
      "bufferView": 3,
      "byteOffset": 12
    },
    {
      "type": "VEC3",
      "componentType": 5126,
      "count": 24,
      "max": [
        0.375,
        0.09375,
        -0.125
      ],
      "min": [
        0.125,
        0.03125,
        -0.3125
      ],
      "bufferView": 4,
      "byteOffset": 0
    },
    {
      "type": "VEC2",
      "componentType": 5126,
      "count": 24,
      "bufferView": 4,
      "byteOffset": 12
    },
    {
      "type": "VEC3",
      "componentType": 5126,
      "count": 24,
      "max": [
        0.0625,
        0.0625,
        -0.0625
      ],
      "min": [
        -0.0625,
        -0.25,
        -0.25
      ],
      "bufferView": 5,
      "byteOffset": 0
    },
    {
      "type": "VEC2",
      "componentType": 5126,
      "count": 24,
      "bufferView": 5,
      "byteOffset": 12
    },
    {
      "type": "VEC3",
      "componentType": 5126,
      "count": 24,
      "max": [
        0.0625,
        0.15625,
        -0.3125
      ],
      "min": [
        -0.0625,
        -0.03125,
        -0.5
      ],
      "bufferView": 6,
      "byteOffset": 0
    },
    {
      "type": "VEC2",
      "componentType": 5126,
      "count": 24,
      "bufferView": 6,
      "byteOffset": 12
    },
    {
      "type": "VEC3",
      "componentType": 5126,
      "count": 16,
      "max": [
        0,
        0.15625,
        0.15625
      ],
      "min": [
        0,
        -0.15625,
        0.09375
      ],
      "bufferView": 7,
      "byteOffset": 0
    },
    {
      "type": "VEC3",
      "componentType": 5126,
      "count": 16,
      "bufferView": 7,
      "byteOffset": 12
    },
    {
      "type": "VEC2",
      "componentType": 5126,
      "count": 16,
      "bufferView": 7,
      "byteOffset": 24
    },
    {
      "type": "VEC3",
      "componentType": 5126,
      "count": 24,
      "max": [
        0.03125,
        0.15625,
        0.09375
      ],
      "min": [
        -0.03125,
        -0.15625,
        -0.09375
      ],
      "bufferView": 8,
      "byteOffset": 0
    },
    {
      "type": "VEC2",
      "componentType": 5126,
      "count": 24,
      "bufferView": 8,
      "byteOffset": 12
    },
    {
      "type": "VEC2",
      "componentType": 5126,
      "count": 24,
      "bufferView": 9,
      "byteOffset": 0
    },
    {
      "type": "VEC3",
      "componentType": 5126,
      "count": 16,
      "max": [
        0,
        0.15625,
        0.15625
      ],
      "min": [
        0,
        -0.15625,
        0.09375
      ],
      "bufferView": 10,
      "byteOffset": 0
    },
    {
      "type": "VEC2",
      "componentType": 5126,
      "count": 16,
      "bufferView": 10,
      "byteOffset": 12
    },
    {
      "type": "VEC3",
      "componentType": 5126,
      "count": 24,
      "max": [
        0.09531249850988388,
        0.09531249850988388,
        0.3765625059604645
      ],
      "min": [
        -0.09531249850988388,
        -0.12656250596046448,
        0.24843749403953552
      ],
      "bufferView": 11,
      "byteOffset": 0
    },
    {
      "type": "VEC2",
      "componentType": 5126,
      "count": 24,
      "bufferView": 11,
      "byteOffset": 12
    },
    {
      "type": "VEC3",
      "componentType": 5126,
      "count": 24,
      "max": [
        0.09375,
        0.0625,
        0.5
      ],
      "min": [
        -0.09375,
        0,
        0.25
      ],
      "bufferView": 12,
      "byteOffset": 0
    },
    {
      "type": "VEC2",
      "componentType": 5126,
      "count": 24,
      "bufferView": 12,
      "byteOffset": 12
    },
    {
      "type": "VEC3",
      "componentType": 5126,
      "count": 24,
      "max": [
        0.125,
        0.0625,
        0.5
      ],
      "min": [
        -0.125,
        -0.0625,
        0.25
      ],
      "bufferView": 13,
      "byteOffset": 0
    },
    {
      "type": "VEC2",
      "componentType": 5126,
      "count": 24,
      "bufferView": 13,
      "byteOffset": 12
    }
  ],
  "bufferViews": [
    {
      "buffer": 0,
      "byteOffset": 0,
      "byteLength": 15456
    },
    {
      "buffer": 0,
      "byteOffset": 15456,
      "byteLength": 132,
      "target": 34963
    },
    {
      "buffer": 0,
      "byteOffset": 15588,
      "byteLength": 768,
      "byteStride": 32,
      "target": 34962
    },
    {
      "buffer": 0,
      "byteOffset": 16356,
      "byteLength": 480,
      "byteStride": 20,
      "target": 34962
    },
    {
      "buffer": 0,
      "byteOffset": 16836,
      "byteLength": 480,
      "byteStride": 20,
      "target": 34962
    },
    {
      "buffer": 0,
      "byteOffset": 17316,
      "byteLength": 480,
      "byteStride": 20,
      "target": 34962
    },
    {
      "buffer": 0,
      "byteOffset": 17796,
      "byteLength": 480,
      "byteStride": 20,
      "target": 34962
    },
    {
      "buffer": 0,
      "byteOffset": 18276,
      "byteLength": 512,
      "byteStride": 32,
      "target": 34962
    },
    {
      "buffer": 0,
      "byteOffset": 18788,
      "byteLength": 480,
      "byteStride": 20,
      "target": 34962
    },
    {
      "buffer": 0,
      "byteOffset": 19268,
      "byteLength": 192,
      "byteStride": 8,
      "target": 34962
    },
    {
      "buffer": 0,
      "byteOffset": 19460,
      "byteLength": 320,
      "byteStride": 20,
      "target": 34962
    },
    {
      "buffer": 0,
      "byteOffset": 19780,
      "byteLength": 480,
      "byteStride": 20,
      "target": 34962
    },
    {
      "buffer": 0,
      "byteOffset": 20260,
      "byteLength": 480,
      "byteStride": 20,
      "target": 34962
    },
    {
      "buffer": 0,
      "byteOffset": 20740,
      "byteLength": 480,
      "byteStride": 20,
      "target": 34962
    }
  ],
  "samplers": [
    {
      "magFilter": 9728,
      "minFilter": 9728,
      "wrapS": 33071,
      "wrapT": 33071
    }
  ],
  "textures": [
    {
      "source": 0,
      "sampler": 0
    }
  ],
  "images": [
    {
      "mimeType": "image/png",
      "uri": "baseColor.png"
    }
  ],
  "buffers": [
    {
      "uri": "barracuda-named-nodes.bin",
      "byteLength": 21220
    }
  ],
  "materials": [
    {
      "alphaMode": "MASK",
      "alphaCutoff": 0.05,
      "doubleSided": true,
      "pbrMetallicRoughness": {
        "metallicFactor": 0,
        "baseColorTexture": {
          "index": 0
        }
      }
    }
  ],
  "meshes": [
    {
      "primitives": [
        {
          "attributes": {
            "POSITION": 30,
            "NORMAL": 31,
            "TEXCOORD_0": 32
          },
          "mode": 4,
          "material": 0,
          "indices": 28
        }
      ]
    },
    {
      "primitives": [
        {
          "attributes": {
            "POSITION": 33,
            "TEXCOORD_0": 34,
            "NORMAL": 31
          },
          "mode": 4,
          "material": 0,
          "indices": 28
        }
      ]
    },
    {
      "primitives": [
        {
          "attributes": {
            "POSITION": 35,
            "TEXCOORD_0": 36,
            "NORMAL": 31
          },
          "mode": 4,
          "material": 0,
          "indices": 28
        }
      ]
    },
    {
      "primitives": [
        {
          "attributes": {
            "POSITION": 37,
            "TEXCOORD_0": 38,
            "NORMAL": 31
          },
          "mode": 4,
          "material": 0,
          "indices": 28
        }
      ]
    },
    {
      "primitives": [
        {
          "attributes": {
            "POSITION": 39,
            "TEXCOORD_0": 40,
            "NORMAL": 31
          },
          "mode": 4,
          "material": 0,
          "indices": 28
        }
      ]
    },
    {
      "primitives": [
        {
          "attributes": {
            "POSITION": 41,
            "NORMAL": 42,
            "TEXCOORD_0": 43
          },
          "mode": 4,
          "material": 0,
          "indices": 29
        }
      ]
    },
    {
      "primitives": [
        {
          "attributes": {
            "POSITION": 44,
            "TEXCOORD_0": 45,
            "NORMAL": 31
          },
          "mode": 4,
          "material": 0,
          "indices": 28
        }
      ]
    },
    {
      "primitives": [
        {
          "attributes": {
            "TEXCOORD_0": 46,
            "POSITION": 44,
            "NORMAL": 31
          },
          "mode": 4,
          "material": 0,
          "indices": 28
        }
      ]
    },
    {
      "primitives": [
        {
          "attributes": {
            "POSITION": 47,
            "TEXCOORD_0": 48,
            "NORMAL": 42
          },
          "mode": 4,
          "material": 0,
          "indices": 29
        }
      ]
    },
    {
      "primitives": [
        {
          "attributes": {
            "POSITION": 49,
            "TEXCOORD_0": 50,
            "NORMAL": 31
          },
          "mode": 4,
          "material": 0,
          "indices": 28
        }
      ]
    },
    {
      "primitives": [
        {
          "attributes": {
            "POSITION": 51,
            "TEXCOORD_0": 52,
            "NORMAL": 31
          },
          "mode": 4,
          "material": 0,
          "indices": 28
        }
      ]
    },
    {
      "primitives": [
        {
          "attributes": {
            "POSITION": 53,
            "TEXCOORD_0": 54,
            "NORMAL": 31
          },
          "mode": 4,
          "material": 0,
          "indices": 28
        }
      ]
    }
  ],
  "nodes": [
    {
      "name": "cube",
      "translation": [
        0,
        -0.0625,
        0.0653925
      ],
      "mesh": 0
    },
    {
      "name": "cube",
      "translation": [
        0.125,
        -0.0625,
        0.21875
      ],
      "mesh": 1
    },
    {
      "name": "fin",
      "translation": [
        -0.125,
        0,
        -0.15335749999999998
      ],
      "children": [
        1
      ]
    },
    {
      "name": "cube",
      "translation": [
        -0.125,
        -0.0625,
        0.21875
      ],
      "mesh": 2
    },
    {
      "name": "fin2",
      "translation": [
        0.125,
        0,
        -0.15335749999999998
      ],
      "children": [
        3
      ]
    },
    {
      "name": "cube",
      "rotation": [
        0.21643961393810288,
        0,
        0,
        0.9762960071199334
      ],
      "mesh": 3
    },
    {
      "name": "bone",
      "translation": [
        0,
        0.1875,
        0.4403925
      ],
      "children": [
        5
      ]
    },
    {
      "name": "cube",
      "translation": [
        0,
        -0.0625,
        0.5015806249999999
      ],
      "mesh": 4
    },
    {
      "name": "cube",
      "translation": [
        0,
        -0.15625,
        0.15783062499999995
      ],
      "rotation": [
        -0.2798290140309921,
        0,
        0,
        0.9600498543859287
      ],
      "mesh": 5
    },
    {
      "name": "cube",
      "translation": [
        0,
        -0.15625,
        0.15783062499999995
      ],
      "rotation": [
        -0.2798290140309921,
        0,
        0,
        0.9600498543859287
      ],
      "mesh": 6
    },
    {
      "name": "cube",
      "translation": [
        0,
        0.15625,
        0.15783062499999995
      ],
      "rotation": [
        0.2798290140309921,
        0,
        0,
        0.9600498543859287
      ],
      "mesh": 7
    },
    {
      "name": "cube",
      "translation": [
        0,
        0.15625,
        0.15783062499999995
      ],
      "rotation": [
        0.2798290140309921,
        0,
        0,
        0.9600498543859287
      ],
      "mesh": 8
    },
    {
      "name": "tail",
      "translation": [
        0,
        0,
        0.5638118750000001
      ],
      "children": [
        7,
        8,
        9,
        10,
        11
      ]
    },
    {
      "name": "cube",
      "translation": [
        0,
        0.015625,
        -0.37500000000000006
      ],
      "mesh": 9
    },
    {
      "name": "cube",
      "translation": [
        0,
        0,
        -0.5
      ],
      "mesh": 10
    },
    {
      "name": "top_gaw",
      "translation": [
        0,
        0.015625,
        -0.12500000000000006
      ],
      "children": [
        14
      ]
    },
    {
      "name": "cube",
      "translation": [
        0,
        0.03125,
        -0.5
      ],
      "mesh": 11
    },
    {
      "name": "bottom_gaw",
      "translation": [
        0,
        -0.078125,
        -0.12500000000000006
      ],
      "children": [
        16
      ]
    },
    {
      "name": "head",
      "translation": [
        0,
        0.015625,
        -0.3096075
      ],
      "children": [
        13,
        15,
        17
      ]
    },
    {
      "name": "barracuda",
      "translation": [
        0,
        0.375,
        -0.140625
      ],
      "children": [
        0,
        2,
        4,
        6,
        12,
        18
      ]
    },
    {
      "children": [
        19
      ]
    }
  ],
  "animations": [
    {
      "name": "idle",
      "samplers": [
        {
          "input": 5,
          "output": 6,
          "interpolation": "LINEAR"
        },
        {
          "input": 7,
          "output": 8,
          "interpolation": "LINEAR"
        },
        {
          "input": 9,
          "output": 10,
          "interpolation": "LINEAR"
        },
        {
          "input": 9,
          "output": 11,
          "interpolation": "LINEAR"
        },
        {
          "input": 12,
          "output": 13,
          "interpolation": "LINEAR"
        },
        {
          "input": 14,
          "output": 15,
          "interpolation": "LINEAR"
        },
        {
          "input": 16,
          "output": 17,
          "interpolation": "LINEAR"
        },
        {
          "input": 16,
          "output": 18,
          "interpolation": "LINEAR"
        }
      ],
      "channels": [
        {
          "sampler": 0,
          "target": {
            "node": 19,
            "path": "rotation"
          }
        },
        {
          "sampler": 1,
          "target": {
            "node": 19,
            "path": "translation"
          }
        },
        {
          "sampler": 2,
          "target": {
            "node": 2,
            "path": "rotation"
          }
        },
        {
          "sampler": 3,
          "target": {
            "node": 4,
            "path": "rotation"
          }
        },
        {
          "sampler": 4,
          "target": {
            "node": 12,
            "path": "rotation"
          }
        },
        {
          "sampler": 5,
          "target": {
            "node": 18,
            "path": "rotation"
          }
        },
        {
          "sampler": 6,
          "target": {
            "node": 15,
            "path": "rotation"
          }
        },
        {
          "sampler": 7,
          "target": {
            "node": 17,
            "path": "rotation"
          }
        }
      ]
    },
    {
      "name": "walk",
      "samplers": [
        {
          "input": 19,
          "output": 20,
          "interpolation": "LINEAR"
        },
        {
          "input": 21,
          "output": 22,
          "interpolation": "LINEAR"
        },
        {
          "input": 1,
          "output": 2,
          "interpolation": "LINEAR"
        },
        {
          "input": 1,
          "output": 3,
          "interpolation": "LINEAR"
        },
        {
          "input": 23,
          "output": 24,
          "interpolation": "LINEAR"
        },
        {
          "input": 0,
          "output": 4,
          "interpolation": "LINEAR"
        },
        {
          "input": 25,
          "output": 26,
          "interpolation": "LINEAR"
        },
        {
          "input": 25,
          "output": 27,
          "interpolation": "LINEAR"
        }
      ],
      "channels": [
        {
          "sampler": 0,
          "target": {
            "node": 19,
            "path": "rotation"
          }
        },
        {
          "sampler": 1,
          "target": {
            "node": 19,
            "path": "translation"
          }
        },
        {
          "sampler": 2,
          "target": {
            "node": 2,
            "path": "rotation"
          }
        },
        {
          "sampler": 3,
          "target": {
            "node": 4,
            "path": "rotation"
          }
        },
        {
          "sampler": 4,
          "target": {
            "node": 12,
            "path": "rotation"
          }
        },
        {
          "sampler": 5,
          "target": {
            "node": 18,
            "path": "rotation"
          }
        },
        {
          "sampler": 6,
          "target": {
            "node": 15,
            "path": "rotation"
          }
        },
        {
          "sampler": 7,
          "target": {
            "node": 17,
            "path": "rotation"
          }
        }
      ]
    }
  ],
  "scenes": [
    {
      "name": "blockbench_export",
      "nodes": [
        20
      ]
    }
  ],
  "scene": 0
}