{"asset":{"version":"2.0","generator":"Blockbench 4.11.1 glTF exporter"},"scenes":[{"nodes":[2],"name":"hytopia-gltf-splitter"}],"scene":0,"nodes":[{"name":"foot_right_cosmetic","children":[1],"translation":[-0.1875,0.0625,0]},{"rotation":[0,-1,0,6.123233995736766e-17],"translation":[0.18124999999999988,0.1812499999999998,-0.08124999999999998],"name":"arcaneboot","mesh":0},{"children":[0]}],"bufferViews":[{"buffer":0,"byteOffset":0,"byteLength":720,"target":34962,"byteStride":12},{"buffer":1,"byteOffset":0,"byteLength":720,"target":34962,"byteStride":12},{"buffer":2,"byteOffset":0,"byteLength":480,"target":34962,"byteStride":8},{"buffer":3,"byteOffset":0,"byteLength":180,"target":34963}],"buffers":[{"byteLength":720,"uri":"data:application/octet-stream;base64,"},{"byteLength":720,"uri":"data:application/octet-stream;base64,"},{"byteLength":480,"uri":"data:application/octet-stream;base64,"},{"byteLength":180,"uri":"data:application/octet-stream;base64,"}],"accessors":[{"bufferView":0,"componentType":5126,"count":60,"max":[0.19062499701976776,0.18437500298023224,0.30937498807907104],"min":[-0.21562500298023224,-0.18437500298023224,-0.30937498807907104],"type":"VEC3"},{"bufferView":1,"componentType":5126,"count":60,"max":[1,1,1],"min":[-1,-1,-1],"type":"VEC3"},{"bufferView":2,"componentType":5126,"count":60,"max":[0.8125,0.6875],"min":[0,0],"type":"VEC2"},{"bufferView":3,"componentType":5123,"count":90,"max":[59],"min":[0],"type":"SCALAR"}],"materials":[{"pbrMetallicRoughness":{"metallicFactor":0,"roughnessFactor":1},"alphaMode":"MASK","alphaCutoff":0.05,"doubleSided":true},{"pbrMetallicRoughness":{"metallicFactor":0,"roughnessFactor":1,"baseColorTexture":{"index":0}},"alphaMode":"MASK","alphaCutoff":0.05,"doubleSided":true},{"pbrMetallicRoughness":{"metallicFactor":0,"roughnessFactor":1,"baseColorTexture":{"index":1}},"alphaMode":"MASK","alphaCutoff":0.05,"doubleSided":true},{"pbrMetallicRoughness":{"metallicFactor":0,"roughnessFactor":1,"baseColorTexture":{"index":2}},"alphaMode":"MASK","alphaCutoff":0.05,"doubleSided":true},{"pbrMetallicRoughness":{"metallicFactor":0,"roughnessFactor":1,"baseColorTexture":{"index":3}},"alphaMode":"MASK","alphaCutoff":0.05,"doubleSided":true}],"meshes":[{"primitives":[{"mode":4,"attributes":{"POSITION":0,"NORMAL":1,"TEXCOORD_0":2},"indices":3,"material":4}]}],"textures":[{"sampler":0,"source":0,"name":"cool_pumkin_head.png"},{"sampler":1,"source":1},{"sampler":2,"source":2},{"sampler":3,"source":3,"name":"texturearcane.png"}],"samplers":[{"magFilter":9728,"minFilter":9728,"wrapS":33071,"wrapT":33071},{"magFilter":9728,"minFilter":9728,"wrapS":33071,"wrapT":33071},{"magFilter":9728,"minFilter":9728,"wrapS":33071,"wrapT":33071},{"magFilter":9728,"minFilter":9728,"wrapS":33071,"wrapT":33071}],"images":[{"mimeType":"image/png","uri":"data:image/png;base64,"},{"mimeType":"image/png","uri":"data:image/png;base64,"},{"mimeType":"image/png","uri":"data:image/png;base64,"},{"mimeType":"image/png","uri":"data:image/png;base64,"}]}