{"asset":{"version":"2.0","generator":"Blockbench 4.12.6 glTF exporter"},"scenes":[{"nodes":[18],"name":"blockbench_export"}],"scene":0,"nodes":[{"translation":[-0.375,-0.0625,0],"name":"cube","mesh":0},{"translation":[-0.375,0.0625,-0.125],"name":"left_arm","children":[0]},{"translation":[0.375,-0.0625,0],"name":"cube","mesh":1},{"translation":[0.375,0.0625,-0.125],"name":"right_arm","children":[2]},{"name":"cube","mesh":2},{"translation":[0,0.75,0],"name":"cube","mesh":3},{"rotation":[-0.19509032201612825,0,0,0.9807852804032304],"translation":[0.015625,0.4952185530662966,-0.3989754569963427],"name":"cube","mesh":4},{"translation":[0,-0.625,0],"name":"cube","mesh":5},{"rotation":[0.19509032201612825,0,0,0.9807852804032304],"translation":[0.015625,-0.3702185530662966,-0.3989754569963427],"name":"cube","mesh":6},{"rotation":[0,-0.19509032201612825,0,0.9807852804032304],"translation":[-0.4327424707819554,0.046875,-0.3989177145228181],"name":"cube","mesh":7},{"translation":[-0.6875239177156588,0.03125,0.000057742473524580173],"name":"cube","mesh":8},{"rotation":[0,0.19509032201612825,0,0.9807852804032304],"translation":[0.4327424707819554,0.046875,-0.3989177145228181],"name":"cube","mesh":9},{"translation":[0.6875239177156588,0.03125,0.000057742473524580173],"name":"cube","mesh":10},{"rotation":[0,-0.19509032201612825,0,0.9807852804032304],"translation":[0.4327424707819554,0.046875,0.3989177145228181],"name":"cube","mesh":11},{"rotation":[-0.19509032201612825,0,0,0.9807852804032304],"translation":[0.015625,-0.3702185530662966,0.3989754569963427],"name":"cube","mesh":12},{"rotation":[0,0.19509032201612825,0,0.9807852804032304],"translation":[-0.4327424707819554,0.046875,0.3989177145228181],"name":"cube","mesh":13},{"rotation":[0.19509032201612825,0,0,0.9807852804032304],"translation":[0.015625,0.4952185530662966,0.3989754569963427],"name":"cube","mesh":14},{"translation":[0,0.375,0],"name":"pufferfish","children":[1,3,4,5,6,7,8,9,10,11,12,13,14,15,16]},{"children":[17]}],"bufferViews":[{"buffer":0,"byteOffset":0,"byteLength":288,"target":34962,"byteStride":12},{"buffer":0,"byteOffset":288,"byteLength":288,"target":34962,"byteStride":12},{"buffer":0,"byteOffset":576,"byteLength":192,"target":34962,"byteStride":8},{"buffer":0,"byteOffset":768,"byteLength":72,"target":34963},{"buffer":0,"byteOffset":840,"byteLength":288,"target":34962,"byteStride":12},{"buffer":0,"byteOffset":1128,"byteLength":288,"target":34962,"byteStride":12},{"buffer":0,"byteOffset":1416,"byteLength":192,"target":34962,"byteStride":8},{"buffer":0,"byteOffset":1608,"byteLength":72,"target":34963},{"buffer":0,"byteOffset":1680,"byteLength":288,"target":34962,"byteStride":12},{"buffer":0,"byteOffset":1968,"byteLength":288,"target":34962,"byteStride":12},{"buffer":0,"byteOffset":2256,"byteLength":192,"target":34962,"byteStride":8},{"buffer":0,"byteOffset":2448,"byteLength":72,"target":34963},{"buffer":0,"byteOffset":2520,"byteLength":240,"target":34962,"byteStride":12},{"buffer":0,"byteOffset":2760,"byteLength":240,"target":34962,"byteStride":12},{"buffer":0,"byteOffset":3000,"byteLength":160,"target":34962,"byteStride":8},{"buffer":0,"byteOffset":3160,"byteLength":60,"target":34963},{"buffer":0,"byteOffset":3220,"byteLength":240,"target":34962,"byteStride":12},{"buffer":0,"byteOffset":3460,"byteLength":240,"target":34962,"byteStride":12},{"buffer":0,"byteOffset":3700,"byteLength":160,"target":34962,"byteStride":8},{"buffer":0,"byteOffset":3860,"byteLength":60,"target":34963},{"buffer":0,"byteOffset":3920,"byteLength":240,"target":34962,"byteStride":12},{"buffer":0,"byteOffset":4160,"byteLength":240,"target":34962,"byteStride":12},{"buffer":0,"byteOffset":4400,"byteLength":160,"target":34962,"byteStride":8},{"buffer":0,"byteOffset":4560,"byteLength":60,"target":34963},{"buffer":0,"byteOffset":4620,"byteLength":240,"target":34962,"byteStride":12},{"buffer":0,"byteOffset":4860,"byteLength":240,"target":34962,"byteStride":12},{"buffer":0,"byteOffset":5100,"byteLength":160,"target":34962,"byteStride":8},{"buffer":0,"byteOffset":5260,"byteLength":60,"target":34963},{"buffer":0,"byteOffset":5320,"byteLength":240,"target":34962,"byteStride":12},{"buffer":0,"byteOffset":5560,"byteLength":240,"target":34962,"byteStride":12},{"buffer":0,"byteOffset":5800,"byteLength":160,"target":34962,"byteStride":8},{"buffer":0,"byteOffset":5960,"byteLength":60,"target":34963},{"buffer":0,"byteOffset":6020,"byteLength":240,"target":34962,"byteStride":12},{"buffer":0,"byteOffset":6260,"byteLength":240,"target":34962,"byteStride":12},{"buffer":0,"byteOffset":6500,"byteLength":160,"target":34962,"byteStride":8},{"buffer":0,"byteOffset":6660,"byteLength":60,"target":34963},{"buffer":0,"byteOffset":6720,"byteLength":240,"target":34962,"byteStride":12},{"buffer":0,"byteOffset":6960,"byteLength":240,"target":34962,"byteStride":12},{"buffer":0,"byteOffset":7200,"byteLength":160,"target":34962,"byteStride":8},{"buffer":0,"byteOffset":7360,"byteLength":60,"target":34963},{"buffer":0,"byteOffset":7420,"byteLength":240,"target":34962,"byteStride":12},{"buffer":0,"byteOffset":7660,"byteLength":240,"target":34962,"byteStride":12},{"buffer":0,"byteOffset":7900,"byteLength":160,"target":34962,"byteStride":8},{"buffer":0,"byteOffset":8060,"byteLength":60,"target":34963},{"buffer":0,"byteOffset":8120,"byteLength":240,"target":34962,"byteStride":12},{"buffer":0,"byteOffset":8360,"byteLength":240,"target":34962,"byteStride":12},{"buffer":0,"byteOffset":8600,"byteLength":160,"target":34962,"byteStride":8},{"buffer":0,"byteOffset":8760,"byteLength":60,"target":34963},{"buffer":0,"byteOffset":8820,"byteLength":240,"target":34962,"byteStride":12},{"buffer":0,"byteOffset":9060,"byteLength":240,"target":34962,"byteStride":12},{"buffer":0,"byteOffset":9300,"byteLength":160,"target":34962,"byteStride":8},{"buffer":0,"byteOffset":9460,"byteLength":60,"target":34963},{"buffer":0,"byteOffset":9520,"byteLength":240,"target":34962,"byteStride":12},{"buffer":0,"byteOffset":9760,"byteLength":240,"target":34962,"byteStride":12},{"buffer":0,"byteOffset":10000,"byteLength":160,"target":34962,"byteStride":8},{"buffer":0,"byteOffset":10160,"byteLength":60,"target":34963},{"buffer":0,"byteOffset":10220,"byteLength":240,"target":34962,"byteStride":12},{"buffer":0,"byteOffset":10460,"byteLength":240,"target":34962,"byteStride":12},{"buffer":0,"byteOffset":10700,"byteLength":160,"target":34962,"byteStride":8},{"buffer":0,"byteOffset":10860,"byteLength":60,"target":34963}],"buffers":[{"byteLength":10920,"uri":"data:application/octet-stream;base64,"}],"accessors":[{"bufferView":0,"componentType":5126,"count":24,"max":[0.375,0.1875,0.0625],"min":[0.0625,-0.0625,-0.0625],"type":"VEC3"},{"bufferView":1,"componentType":5126,"count":24,"max":[1,1,1],"min":[-1,-1,-1],"type":"VEC3"},{"bufferView":2,"componentType":5126,"count":24,"max":[0.53125,0.5625],"min":[0.296875,0.25],"type":"VEC2"},{"bufferView":3,"componentType":5123,"count":36,"max":[23],"min":[0],"type":"SCALAR"},{"bufferView":4,"componentType":5126,"count":24,"max":[-0.0625,0.1875,0.0625],"min":[-0.375,-0.0625,-0.0625],"type":"VEC3"},{"bufferView":5,"componentType":5126,"count":24,"max":[1,1,1],"min":[-1,-1,-1],"type":"VEC3"},{"bufferView":6,"componentType":5126,"count":24,"max":[0.5625,0.5625],"min":[0.203125,0.328125],"type":"VEC2"},{"bufferView":7,"componentType":5123,"count":36,"max":[23],"min":[0],"type":"SCALAR"},{"bufferView":8,"componentType":5126,"count":24,"max":[0.375,0.4375,0.375],"min":[-0.375,-0.3125,-0.375],"type":"VEC3"},{"bufferView":9,"componentType":5126,"count":24,"max":[1,1,1],"min":[-1,-1,-1],"type":"VEC3"},{"bufferView":10,"componentType":5126,"count":24,"max":[0.59375,0.59375],"min":[0,0],"type":"VEC2"},{"bufferView":11,"componentType":5123,"count":36,"max":[23],"min":[0],"type":"SCALAR"},{"bufferView":12,"componentType":5126,"count":20,"max":[0.328125,-0.1875,0],"min":[-0.328125,-0.3125,0],"type":"VEC3"},{"bufferView":13,"componentType":5126,"count":20,"max":[1,0,0],"min":[0,0,-1],"type":"VEC3"},{"bufferView":14,"componentType":5126,"count":20,"max":[0.578125,0.234375],"min":[0,0],"type":"VEC2"},{"bufferView":15,"componentType":5123,"count":30,"max":[19],"min":[0],"type":"SCALAR"},{"bufferView":16,"componentType":5126,"count":20,"max":[0.328125,0.0625,0],"min":[-0.328125,-0.0625,0],"type":"VEC3"},{"bufferView":17,"componentType":5126,"count":20,"max":[1,0,0],"min":[0,0,-1],"type":"VEC3"},{"bufferView":18,"componentType":5126,"count":20,"max":[0.578125,0.234375],"min":[0,0],"type":"VEC2"},{"bufferView":19,"componentType":5123,"count":30,"max":[19],"min":[0],"type":"SCALAR"},{"bufferView":20,"componentType":5126,"count":20,"max":[0.328125,0.3125,0],"min":[-0.328125,0.1875,0],"type":"VEC3"},{"bufferView":21,"componentType":5126,"count":20,"max":[1,0,0],"min":[0,0,-1],"type":"VEC3"},{"bufferView":22,"componentType":5126,"count":20,"max":[0.578125,0.234375],"min":[0,0],"type":"VEC2"},{"bufferView":23,"componentType":5123,"count":30,"max":[19],"min":[0],"type":"SCALAR"},{"bufferView":24,"componentType":5126,"count":20,"max":[0.328125,0.0625,0],"min":[-0.328125,-0.0625,0],"type":"VEC3"},{"bufferView":25,"componentType":5126,"count":20,"max":[1,0,0],"min":[0,0,-1],"type":"VEC3"},{"bufferView":26,"componentType":5126,"count":20,"max":[0.578125,0.234375],"min":[0,0],"type":"VEC2"},{"bufferView":27,"componentType":5123,"count":30,"max":[19],"min":[0],"type":"SCALAR"},{"bufferView":28,"componentType":5126,"count":20,"max":[0.0625,0.328125,0],"min":[-0.0625,-0.328125,0],"type":"VEC3"},{"bufferView":29,"componentType":5126,"count":20,"max":[1,0,0],"min":[0,0,-1],"type":"VEC3"},{"bufferView":30,"componentType":5126,"count":20,"max":[0.578125,0.234375],"min":[0,0],"type":"VEC2"},{"bufferView":31,"componentType":5123,"count":30,"max":[19],"min":[0],"type":"SCALAR"},{"bufferView":32,"componentType":5126,"count":20,"max":[0.3125,0.328125,0],"min":[0.1875,-0.328125,0],"type":"VEC3"},{"bufferView":33,"componentType":5126,"count":20,"max":[1,0,0],"min":[0,0,-1],"type":"VEC3"},{"bufferView":34,"componentType":5126,"count":20,"max":[0.578125,0.234375],"min":[0,0],"type":"VEC2"},{"bufferView":35,"componentType":5123,"count":30,"max":[19],"min":[0],"type":"SCALAR"},{"bufferView":36,"componentType":5126,"count":20,"max":[0.0625,0.328125,0],"min":[-0.0625,-0.328125,0],"type":"VEC3"},{"bufferView":37,"componentType":5126,"count":20,"max":[1,0,0],"min":[0,0,-1],"type":"VEC3"},{"bufferView":38,"componentType":5126,"count":20,"max":[0.578125,0.234375],"min":[0,0],"type":"VEC2"},{"bufferView":39,"componentType":5123,"count":30,"max":[19],"min":[0],"type":"SCALAR"},{"bufferView":40,"componentType":5126,"count":20,"max":[-0.1875,0.328125,0],"min":[-0.3125,-0.328125,0],"type":"VEC3"},{"bufferView":41,"componentType":5126,"count":20,"max":[1,0,0],"min":[0,0,-1],"type":"VEC3"},{"bufferView":42,"componentType":5126,"count":20,"max":[0.578125,0.234375],"min":[0,0],"type":"VEC2"},{"bufferView":43,"componentType":5123,"count":30,"max":[19],"min":[0],"type":"SCALAR"},{"bufferView":44,"componentType":5126,"count":20,"max":[0.0625,0.328125,0],"min":[-0.0625,-0.328125,0],"type":"VEC3"},{"bufferView":45,"componentType":5126,"count":20,"max":[1,0,1],"min":[0,0,0],"type":"VEC3"},{"bufferView":46,"componentType":5126,"count":20,"max":[0.578125,0.234375],"min":[0,0],"type":"VEC2"},{"bufferView":47,"componentType":5123,"count":30,"max":[19],"min":[0],"type":"SCALAR"},{"bufferView":48,"componentType":5126,"count":20,"max":[0.328125,0.0625,0],"min":[-0.328125,-0.0625,0],"type":"VEC3"},{"bufferView":49,"componentType":5126,"count":20,"max":[1,0,1],"min":[0,0,0],"type":"VEC3"},{"bufferView":50,"componentType":5126,"count":20,"max":[0.578125,0.234375],"min":[0,0],"type":"VEC2"},{"bufferView":51,"componentType":5123,"count":30,"max":[19],"min":[0],"type":"SCALAR"},{"bufferView":52,"componentType":5126,"count":20,"max":[0.0625,0.328125,0],"min":[-0.0625,-0.328125,0],"type":"VEC3"},{"bufferView":53,"componentType":5126,"count":20,"max":[1,0,1],"min":[0,0,0],"type":"VEC3"},{"bufferView":54,"componentType":5126,"count":20,"max":[0.578125,0.234375],"min":[0,0],"type":"VEC2"},{"bufferView":55,"componentType":5123,"count":30,"max":[19],"min":[0],"type":"SCALAR"},{"bufferView":56,"componentType":5126,"count":20,"max":[0.328125,0.0625,0],"min":[-0.328125,-0.0625,0],"type":"VEC3"},{"bufferView":57,"componentType":5126,"count":20,"max":[1,0,1],"min":[0,0,0],"type":"VEC3"},{"bufferView":58,"componentType":5126,"count":20,"max":[0.578125,0.234375],"min":[0,0],"type":"VEC2"},{"bufferView":59,"componentType":5123,"count":30,"max":[19],"min":[0],"type":"SCALAR"}],"materials":[{"pbrMetallicRoughness":{"metallicFactor":0,"roughnessFactor":1,"baseColorTexture":{"index":0}},"alphaMode":"MASK","alphaCutoff":0.05,"doubleSided":true}],"textures":[{"sampler":0,"source":0,"name":"pufferfish"}],"samplers":[{"magFilter":9728,"minFilter":9728,"wrapS":33071,"wrapT":33071}],"images":[{"mimeType":"image/png","uri":"data:image/png;base64,"}],"meshes":[{"primitives":[{"mode":4,"attributes":{"POSITION":0,"NORMAL":1,"TEXCOORD_0":2},"indices":3,"material":0}]},{"primitives":[{"mode":4,"attributes":{"POSITION":4,"NORMAL":5,"TEXCOORD_0":6},"indices":7,"material":0}]},{"primitives":[{"mode":4,"attributes":{"POSITION":8,"NORMAL":9,"TEXCOORD_0":10},"indices":11,"material":0}]},{"primitives":[{"mode":4,"attributes":{"POSITION":12,"NORMAL":13,"TEXCOORD_0":14},"indices":15,"material":0}]},{"primitives":[{"mode":4,"attributes":{"POSITION":16,"NORMAL":17,"TEXCOORD_0":18},"indices":19,"material":0}]},{"primitives":[{"mode":4,"attributes":{"POSITION":20,"NORMAL":21,"TEXCOORD_0":22},"indices":23,"material":0}]},{"primitives":[{"mode":4,"attributes":{"POSITION":24,"NORMAL":25,"TEXCOORD_0":26},"indices":27,"material":0}]},{"primitives":[{"mode":4,"attributes":{"POSITION":28,"NORMAL":29,"TEXCOORD_0":30},"indices":31,"material":0}]},{"primitives":[{"mode":4,"attributes":{"POSITION":32,"NORMAL":33,"TEXCOORD_0":34},"indices":35,"material":0}]},{"primitives":[{"mode":4,"attributes":{"POSITION":36,"NORMAL":37,"TEXCOORD_0":38},"indices":39,"material":0}]},{"primitives":[{"mode":4,"attributes":{"POSITION":40,"NORMAL":41,"TEXCOORD_0":42},"indices":43,"material":0}]},{"primitives":[{"mode":4,"attributes":{"POSITION":44,"NORMAL":45,"TEXCOORD_0":46},"indices":47,"material":0}]},{"primitives":[{"mode":4,"attributes":{"POSITION":48,"NORMAL":49,"TEXCOORD_0":50},"indices":51,"material":0}]},{"primitives":[{"mode":4,"attributes":{"POSITION":52,"NORMAL":53,"TEXCOORD_0":54},"indices":55,"material":0}]},{"primitives":[{"mode":4,"attributes":{"POSITION":56,"NORMAL":57,"TEXCOORD_0":58},"indices":59,"material":0}]}]}