{
  "asset": {
    "generator": "glTF-Transform v4.2.1",
    "version": "2.0"
  },
  "accessors": [
    {
      "type": "SCALAR",
      "componentType": 5123,
      "count": 30,
      "bufferView": 0,
      "byteOffset": 0
    },
    {
      "type": "SCALAR",
      "componentType": 5123,
      "count": 36,
      "bufferView": 0,
      "byteOffset": 60
    },
    {
      "type": "SCALAR",
      "componentType": 5123,
      "count": 36,
      "bufferView": 0,
      "byteOffset": 132
    },
    {
      "type": "SCALAR",
      "componentType": 5123,
      "count": 36,
      "bufferView": 0,
      "byteOffset": 204
    },
    {
      "type": "SCALAR",
      "componentType": 5123,
      "count": 30,
      "bufferView": 0,
      "byteOffset": 276
    },
    {
      "type": "SCALAR",
      "componentType": 5123,
      "count": 36,
      "bufferView": 0,
      "byteOffset": 336
    },
    {
      "type": "SCALAR",
      "componentType": 5123,
      "count": 36,
      "bufferView": 0,
      "byteOffset": 408
    },
    {
      "type": "SCALAR",
      "componentType": 5123,
      "count": 36,
      "bufferView": 0,
      "byteOffset": 480
    },
    {
      "type": "VEC3",
      "componentType": 5126,
      "count": 15,
      "max": [
        0.25,
        0.59375,
        -0.0625
      ],
      "min": [
        -0.25,
        0.1875,
        -0.0625
      ],
      "bufferView": 1,
      "byteOffset": 0
    },
    {
      "type": "VEC3",
      "componentType": 5126,
      "count": 15,
      "bufferView": 1,
      "byteOffset": 12
    },
    {
      "type": "VEC2",
      "componentType": 5126,
      "count": 15,
      "bufferView": 1,
      "byteOffset": 24
    },
    {
      "type": "VEC3",
      "componentType": 5126,
      "count": 24,
      "max": [
        0.09375,
        0.25,
        0.09375
      ],
      "min": [
        -0.09375,
        0,
        -0.09375
      ],
      "bufferView": 2,
      "byteOffset": 0
    },
    {
      "type": "VEC3",
      "componentType": 5126,
      "count": 24,
      "bufferView": 2,
      "byteOffset": 12
    },
    {
      "type": "VEC2",
      "componentType": 5126,
      "count": 24,
      "bufferView": 2,
      "byteOffset": 24
    },
    {
      "type": "VEC3",
      "componentType": 5126,
      "count": 24,
      "max": [
        0.125,
        0,
        0.125
      ],
      "min": [
        -0.125,
        -0.09375,
        -0.125
      ],
      "bufferView": 3,
      "byteOffset": 0
    },
    {
      "type": "VEC2",
      "componentType": 5126,
      "count": 24,
      "bufferView": 3,
      "byteOffset": 12
    },
    {
      "type": "VEC3",
      "componentType": 5126,
      "count": 24,
      "bufferView": 3,
      "byteOffset": 20
    },
    {
      "type": "VEC3",
      "componentType": 5126,
      "count": 24,
      "max": [
        0.03125,
        -0.09375,
        0.03125
      ],
      "min": [
        -0.03125,
        -0.15625,
        -0.03125
      ],
      "bufferView": 4,
      "byteOffset": 0
    },
    {
      "type": "VEC2",
      "componentType": 5126,
      "count": 24,
      "bufferView": 4,
      "byteOffset": 12
    },
    {
      "type": "VEC3",
      "componentType": 5126,
      "count": 24,
      "bufferView": 4,
      "byteOffset": 20
    },
    {
      "type": "VEC3",
      "componentType": 5126,
      "count": 14,
      "max": [
        0.25,
        0.59375,
        0.0625
      ],
      "min": [
        -0.25,
        0.1875,
        0.0625
      ],
      "bufferView": 5,
      "byteOffset": 0
    },
    {
      "type": "VEC3",
      "componentType": 5126,
      "count": 14,
      "bufferView": 5,
      "byteOffset": 12
    },
    {
      "type": "VEC2",
      "componentType": 5126,
      "count": 14,
      "bufferView": 5,
      "byteOffset": 24
    },
    {
      "type": "VEC2",
      "componentType": 5126,
      "count": 24,
      "bufferView": 6,
      "byteOffset": 0
    },
    {
      "type": "VEC3",
      "componentType": 5126,
      "count": 24,
      "max": [
        0.03125,
        -0.09375,
        0.03125
      ],
      "min": [
        -0.03125,
        -0.15625,
        -0.03125
      ],
      "bufferView": 6,
      "byteOffset": 8
    },
    {
      "type": "VEC3",
      "componentType": 5126,
      "count": 24,
      "bufferView": 6,
      "byteOffset": 20
    },
    {
      "type": "VEC2",
      "componentType": 5126,
      "count": 24,
      "bufferView": 7,
      "byteOffset": 0
    },
    {
      "type": "VEC3",
      "componentType": 5126,
      "count": 24,
      "max": [
        0.125,
        0,
        0.125
      ],
      "min": [
        -0.125,
        -0.09375,
        -0.125
      ],
      "bufferView": 7,
      "byteOffset": 8
    },
    {
      "type": "VEC3",
      "componentType": 5126,
      "count": 24,
      "bufferView": 7,
      "byteOffset": 20
    },
    {
      "type": "VEC2",
      "componentType": 5126,
      "count": 24,
      "bufferView": 8,
      "byteOffset": 0
    },
    {
      "type": "VEC3",
      "componentType": 5126,
      "count": 24,
      "max": [
        0.09375,
        0.25,
        0.09375
      ],
      "min": [
        -0.09375,
        0,
        -0.09375
      ],
      "bufferView": 8,
      "byteOffset": 8
    },
    {
      "type": "VEC3",
      "componentType": 5126,
      "count": 24,
      "bufferView": 8,
      "byteOffset": 20
    }
  ],
  "bufferViews": [
    {
      "buffer": 0,
      "byteOffset": 0,
      "byteLength": 552,
      "target": 34963
    },
    {
      "buffer": 0,
      "byteOffset": 552,
      "byteLength": 480,
      "byteStride": 32,
      "target": 34962
    },
    {
      "buffer": 0,
      "byteOffset": 1032,
      "byteLength": 768,
      "byteStride": 32,
      "target": 34962
    },
    {
      "buffer": 0,
      "byteOffset": 1800,
      "byteLength": 768,
      "byteStride": 32,
      "target": 34962
    },
    {
      "buffer": 0,
      "byteOffset": 2568,
      "byteLength": 768,
      "byteStride": 32,
      "target": 34962
    },
    {
      "buffer": 0,
      "byteOffset": 3336,
      "byteLength": 448,
      "byteStride": 32,
      "target": 34962
    },
    {
      "buffer": 0,
      "byteOffset": 3784,
      "byteLength": 768,
      "byteStride": 32,
      "target": 34962
    },
    {
      "buffer": 0,
      "byteOffset": 4552,
      "byteLength": 768,
      "byteStride": 32,
      "target": 34962
    },
    {
      "buffer": 0,
      "byteOffset": 5320,
      "byteLength": 768,
      "byteStride": 32,
      "target": 34962
    }
  ],
  "samplers": [
    {
      "magFilter": 9728,
      "minFilter": 9728,
      "wrapS": 33071,
      "wrapT": 33071
    }
  ],
  "textures": [
    {
      "source": 0,
      "sampler": 0
    }
  ],
  "images": [
    {
      "mimeType": "image/png",
      "uri": "baseColor.png"
    }
  ],
  "buffers": [
    {
      "uri": "bells-named-nodes.bin",
      "byteLength": 6088
    }
  ],
  "materials": [
    {
      "alphaMode": "MASK",
      "alphaCutoff": 0.05,
      "doubleSided": true,
      "pbrMetallicRoughness": {
        "metallicFactor": 0,
        "baseColorTexture": {
          "index": 0
        }
      }
    }
  ],
  "meshes": [
    {
      "primitives": [
        {
          "attributes": {
            "POSITION": 8,
            "NORMAL": 9,
            "TEXCOORD_0": 10
          },
          "mode": 4,
          "material": 0,
          "indices": 0
        }
      ]
    },
    {
      "primitives": [
        {
          "attributes": {
            "POSITION": 11,
            "NORMAL": 12,
            "TEXCOORD_0": 13
          },
          "mode": 4,
          "material": 0,
          "indices": 1
        }
      ]
    },
    {
      "primitives": [
        {
          "attributes": {
            "POSITION": 14,
            "TEXCOORD_0": 15,
            "NORMAL": 16
          },
          "mode": 4,
          "material": 0,
          "indices": 2
        }
      ]
    },
    {
      "primitives": [
        {
          "attributes": {
            "POSITION": 17,
            "TEXCOORD_0": 18,
            "NORMAL": 19
          },
          "mode": 4,
          "material": 0,
          "indices": 3
        }
      ]
    },
    {
      "primitives": [
        {
          "attributes": {
            "POSITION": 20,
            "NORMAL": 21,
            "TEXCOORD_0": 22
          },
          "mode": 4,
          "material": 0,
          "indices": 4
        }
      ]
    },
    {
      "primitives": [
        {
          "attributes": {
            "TEXCOORD_0": 23,
            "POSITION": 24,
            "NORMAL": 25
          },
          "mode": 4,
          "material": 0,
          "indices": 5
        }
      ]
    },
    {
      "primitives": [
        {
          "attributes": {
            "TEXCOORD_0": 26,
            "POSITION": 27,
            "NORMAL": 28
          },
          "mode": 4,
          "material": 0,
          "indices": 6
        }
      ]
    },
    {
      "primitives": [
        {
          "attributes": {
            "TEXCOORD_0": 29,
            "POSITION": 30,
            "NORMAL": 31
          },
          "mode": 4,
          "material": 0,
          "indices": 7
        }
      ]
    }
  ],
  "nodes": [
    {
      "name": "cube",
      "translation": [
        0,
        0.25,
        0.328125
      ],
      "mesh": 0
    },
    {
      "name": "cube",
      "translation": [
        -0.15258375,
        0.50237875,
        0.375
      ],
      "rotation": [
        0,
        0,
        -0.1088668748519646,
        0.9940563382223196
      ],
      "mesh": 1
    },
    {
      "name": "cube",
      "translation": [
        -0.15258375,
        0.50237875,
        0.375
      ],
      "rotation": [
        0,
        0,
        -0.1088668748519646,
        0.9940563382223196
      ],
      "mesh": 2
    },
    {
      "name": "cube",
      "translation": [
        -0.15258375,
        0.50237875,
        0.375
      ],
      "rotation": [
        0,
        0,
        -0.1088668748519646,
        0.9940563382223196
      ],
      "mesh": 3
    },
    {
      "name": "cube",
      "translation": [
        0,
        0.25,
        0.421875
      ],
      "mesh": 4
    },
    {
      "name": "cube",
      "translation": [
        0.15258375,
        0.50237875,
        0.375
      ],
      "rotation": [
        0,
        0,
        0.1088668748519646,
        0.9940563382223196
      ],
      "mesh": 5
    },
    {
      "name": "cube",
      "translation": [
        0.15258375,
        0.50237875,
        0.375
      ],
      "rotation": [
        0,
        0,
        0.1088668748519646,
        0.9940563382223196
      ],
      "mesh": 6
    },
    {
      "name": "cube",
      "translation": [
        0.15258375,
        0.50237875,
        0.375
      ],
      "rotation": [
        0,
        0,
        0.1088668748519646,
        0.9940563382223196
      ],
      "mesh": 7
    },
    {
      "name": "cube",
      "translation": [
        0,
        0.25,
        0.328125
      ],
      "mesh": 0
    }
  ],
  "scenes": [
    {
      "name": "blockbench_export",
      "nodes": [
        0,
        1,
        2,
        3,
        4,
        5,
        6,
        7,
        8
      ]
    }
  ],
  "scene": 0
}