{
  "asset": {
    "generator": "glTF-Transform v4.2.1",
    "version": "2.0"
  },
  "accessors": [
    {
      "type": "SCALAR",
      "componentType": 5126,
      "count": 2,
      "max": [
        0.583329975605011
      ],
      "min": [
        0
      ],
      "bufferView": 0,
      "byteOffset": 0
    },
    {
      "type": "VEC4",
      "componentType": 5126,
      "count": 2,
      "bufferView": 0,
      "byteOffset": 8
    },
    {
      "type": "SCALAR",
      "componentType": 5126,
      "count": 22,
      "max": [
        0.583329975605011
      ],
      "min": [
        0
      ],
      "bufferView": 0,
      "byteOffset": 40
    },
    {
      "type": "VEC4",
      "componentType": 5126,
      "count": 22,
      "bufferView": 0,
      "byteOffset": 128
    },
    {
      "type": "VEC4",
      "componentType": 5126,
      "count": 22,
      "bufferView": 0,
      "byteOffset": 480
    },
    {
      "type": "VEC4",
      "componentType": 5126,
      "count": 22,
      "bufferView": 0,
      "byteOffset": 832
    },
    {
      "type": "VEC4",
      "componentType": 5126,
      "count": 22,
      "bufferView": 0,
      "byteOffset": 1184
    },
    {
      "type": "SCALAR",
      "componentType": 5126,
      "count": 18,
      "max": [
        1.1764706373214722
      ],
      "min": [
        0
      ],
      "bufferView": 0,
      "byteOffset": 1536
    },
    {
      "type": "VEC3",
      "componentType": 5126,
      "count": 18,
      "bufferView": 0,
      "byteOffset": 1608
    },
    {
      "type": "SCALAR",
      "componentType": 5126,
      "count": 29,
      "max": [
        1.1764706373214722
      ],
      "min": [
        0
      ],
      "bufferView": 0,
      "byteOffset": 1824
    },
    {
      "type": "VEC4",
      "componentType": 5126,
      "count": 29,
      "bufferView": 0,
      "byteOffset": 1940
    },
    {
      "type": "SCALAR",
      "componentType": 5126,
      "count": 20,
      "max": [
        1.1764706373214722
      ],
      "min": [
        0
      ],
      "bufferView": 0,
      "byteOffset": 2404
    },
    {
      "type": "VEC4",
      "componentType": 5126,
      "count": 20,
      "bufferView": 0,
      "byteOffset": 2484
    },
    {
      "type": "VEC4",
      "componentType": 5126,
      "count": 20,
      "bufferView": 0,
      "byteOffset": 2804
    },
    {
      "type": "SCALAR",
      "componentType": 5126,
      "count": 19,
      "max": [
        1.1764706373214722
      ],
      "min": [
        0
      ],
      "bufferView": 0,
      "byteOffset": 3124
    },
    {
      "type": "VEC4",
      "componentType": 5126,
      "count": 19,
      "bufferView": 0,
      "byteOffset": 3200
    },
    {
      "type": "VEC4",
      "componentType": 5126,
      "count": 19,
      "bufferView": 0,
      "byteOffset": 3504
    },
    {
      "type": "SCALAR",
      "componentType": 5126,
      "count": 21,
      "max": [
        0.583329975605011
      ],
      "min": [
        0
      ],
      "bufferView": 0,
      "byteOffset": 3808
    },
    {
      "type": "VEC3",
      "componentType": 5126,
      "count": 21,
      "bufferView": 0,
      "byteOffset": 3892
    },
    {
      "type": "SCALAR",
      "componentType": 5126,
      "count": 20,
      "max": [
        0.583329975605011
      ],
      "min": [
        0
      ],
      "bufferView": 0,
      "byteOffset": 4144
    },
    {
      "type": "VEC4",
      "componentType": 5126,
      "count": 20,
      "bufferView": 0,
      "byteOffset": 4224
    },
    {
      "type": "SCALAR",
      "componentType": 5123,
      "count": 36,
      "bufferView": 1,
      "byteOffset": 0
    },
    {
      "type": "VEC3",
      "componentType": 5126,
      "count": 24,
      "max": [
        0.375,
        0.3125,
        0.625
      ],
      "min": [
        -0.375,
        0,
        -0.25
      ],
      "bufferView": 2,
      "byteOffset": 0
    },
    {
      "type": "VEC3",
      "componentType": 5126,
      "count": 24,
      "bufferView": 2,
      "byteOffset": 12
    },
    {
      "type": "VEC2",
      "componentType": 5126,
      "count": 24,
      "bufferView": 2,
      "byteOffset": 24
    },
    {
      "type": "VEC3",
      "componentType": 5126,
      "count": 24,
      "max": [
        0.125,
        0.25,
        0.375
      ],
      "min": [
        -0.125,
        0,
        0.125
      ],
      "bufferView": 3,
      "byteOffset": 0
    },
    {
      "type": "VEC2",
      "componentType": 5126,
      "count": 24,
      "bufferView": 3,
      "byteOffset": 12
    },
    {
      "type": "VEC3",
      "componentType": 5126,
      "count": 24,
      "max": [
        0.375,
        0.0625,
        0.0625
      ],
      "min": [
        0,
        0,
        -0.1875
      ],
      "bufferView": 4,
      "byteOffset": 0
    },
    {
      "type": "VEC2",
      "componentType": 5126,
      "count": 24,
      "bufferView": 4,
      "byteOffset": 12
    },
    {
      "type": "VEC3",
      "componentType": 5126,
      "count": 24,
      "max": [
        0,
        0.0625,
        0.0625
      ],
      "min": [
        -0.375,
        0,
        -0.1875
      ],
      "bufferView": 5,
      "byteOffset": 0
    },
    {
      "type": "VEC2",
      "componentType": 5126,
      "count": 24,
      "bufferView": 5,
      "byteOffset": 12
    },
    {
      "type": "VEC3",
      "componentType": 5126,
      "count": 24,
      "max": [
        0.125,
        0.03125,
        0.1875
      ],
      "min": [
        -0.125,
        -0.03125,
        -0.1875
      ],
      "bufferView": 6,
      "byteOffset": 0
    },
    {
      "type": "VEC2",
      "componentType": 5126,
      "count": 24,
      "bufferView": 6,
      "byteOffset": 12
    },
    {
      "type": "VEC2",
      "componentType": 5126,
      "count": 24,
      "bufferView": 7,
      "byteOffset": 0
    }
  ],
  "bufferViews": [
    {
      "buffer": 0,
      "byteOffset": 0,
      "byteLength": 4544
    },
    {
      "buffer": 0,
      "byteOffset": 4544,
      "byteLength": 72,
      "target": 34963
    },
    {
      "buffer": 0,
      "byteOffset": 4616,
      "byteLength": 768,
      "byteStride": 32,
      "target": 34962
    },
    {
      "buffer": 0,
      "byteOffset": 5384,
      "byteLength": 480,
      "byteStride": 20,
      "target": 34962
    },
    {
      "buffer": 0,
      "byteOffset": 5864,
      "byteLength": 480,
      "byteStride": 20,
      "target": 34962
    },
    {
      "buffer": 0,
      "byteOffset": 6344,
      "byteLength": 480,
      "byteStride": 20,
      "target": 34962
    },
    {
      "buffer": 0,
      "byteOffset": 6824,
      "byteLength": 480,
      "byteStride": 20,
      "target": 34962
    },
    {
      "buffer": 0,
      "byteOffset": 7304,
      "byteLength": 192,
      "byteStride": 8,
      "target": 34962
    }
  ],
  "samplers": [
    {
      "magFilter": 9728,
      "minFilter": 9728,
      "wrapS": 33071,
      "wrapT": 33071
    }
  ],
  "textures": [
    {
      "source": 0,
      "sampler": 0
    }
  ],
  "images": [
    {
      "mimeType": "image/png",
      "uri": "baseColor.png"
    }
  ],
  "buffers": [
    {
      "uri": "turtle.bin",
      "byteLength": 7496
    }
  ],
  "materials": [
    {
      "alphaMode": "MASK",
      "alphaCutoff": 0.05,
      "doubleSided": true,
      "pbrMetallicRoughness": {
        "metallicFactor": 0,
        "baseColorTexture": {
          "index": 0
        }
      }
    }
  ],
  "meshes": [
    {
      "primitives": [
        {
          "attributes": {
            "POSITION": 22,
            "NORMAL": 23,
            "TEXCOORD_0": 24
          },
          "mode": 4,
          "material": 0,
          "indices": 21
        }
      ]
    },
    {
      "primitives": [
        {
          "attributes": {
            "POSITION": 25,
            "TEXCOORD_0": 26,
            "NORMAL": 23
          },
          "mode": 4,
          "material": 0,
          "indices": 21
        }
      ]
    },
    {
      "primitives": [
        {
          "attributes": {
            "POSITION": 27,
            "TEXCOORD_0": 28,
            "NORMAL": 23
          },
          "mode": 4,
          "material": 0,
          "indices": 21
        }
      ]
    },
    {
      "primitives": [
        {
          "attributes": {
            "POSITION": 29,
            "TEXCOORD_0": 30,
            "NORMAL": 23
          },
          "mode": 4,
          "material": 0,
          "indices": 21
        }
      ]
    },
    {
      "primitives": [
        {
          "attributes": {
            "POSITION": 31,
            "TEXCOORD_0": 32,
            "NORMAL": 23
          },
          "mode": 4,
          "material": 0,
          "indices": 21
        }
      ]
    },
    {
      "primitives": [
        {
          "attributes": {
            "TEXCOORD_0": 33,
            "POSITION": 31,
            "NORMAL": 23
          },
          "mode": 4,
          "material": 0,
          "indices": 21
        }
      ]
    }
  ],
  "nodes": [
    {
      "name": "cube",
      "translation": [
        0,
        0,
        -0.1875
      ],
      "mesh": 0
    },
    {
      "name": "cube",
      "translation": [
        0,
        -0.125,
        -0.375
      ],
      "mesh": 1
    },
    {
      "name": "head",
      "translation": [
        0,
        0.125,
        -0.4375
      ],
      "children": [
        1
      ]
    },
    {
      "name": "cube",
      "translation": [
        -0.375,
        -0.03125,
        0.0625
      ],
      "mesh": 2
    },
    {
      "name": "leftArm",
      "translation": [
        -0.375,
        0.03125,
        -0.25
      ],
      "children": [
        3
      ]
    },
    {
      "name": "cube",
      "translation": [
        0.375,
        -0.03125,
        0.0625
      ],
      "mesh": 3
    },
    {
      "name": "rightArm",
      "translation": [
        0.375,
        0.03125,
        -0.25
      ],
      "children": [
        5
      ]
    },
    {
      "name": "cube",
      "translation": [
        -0.1875,
        0,
        0
      ],
      "rotation": [
        0,
        -0.7071067811865475,
        0,
        0.7071067811865476
      ],
      "mesh": 4
    },
    {
      "name": "leftLeg",
      "translation": [
        -0.375,
        0.03125,
        0.25
      ],
      "children": [
        7
      ]
    },
    {
      "name": "cube",
      "translation": [
        0.1875,
        0,
        0
      ],
      "rotation": [
        0,
        0.7071067811865475,
        0,
        0.7071067811865476
      ],
      "mesh": 5
    },
    {
      "name": "rightLeg",
      "translation": [
        0.375,
        0.03125,
        0.25
      ],
      "children": [
        9
      ]
    },
    {
      "name": "root",
      "children": [
        0,
        2,
        4,
        6,
        8,
        10
      ]
    },
    {
      "children": [
        11
      ]
    }
  ],
  "animations": [
    {
      "name": "idle",
      "samplers": [
        {
          "input": 7,
          "output": 8,
          "interpolation": "LINEAR"
        },
        {
          "input": 9,
          "output": 10,
          "interpolation": "LINEAR"
        },
        {
          "input": 11,
          "output": 12,
          "interpolation": "LINEAR"
        },
        {
          "input": 11,
          "output": 13,
          "interpolation": "LINEAR"
        },
        {
          "input": 14,
          "output": 15,
          "interpolation": "LINEAR"
        },
        {
          "input": 14,
          "output": 16,
          "interpolation": "LINEAR"
        }
      ],
      "channels": [
        {
          "sampler": 0,
          "target": {
            "node": 11,
            "path": "translation"
          }
        },
        {
          "sampler": 1,
          "target": {
            "node": 2,
            "path": "rotation"
          }
        },
        {
          "sampler": 2,
          "target": {
            "node": 4,
            "path": "rotation"
          }
        },
        {
          "sampler": 3,
          "target": {
            "node": 6,
            "path": "rotation"
          }
        },
        {
          "sampler": 4,
          "target": {
            "node": 8,
            "path": "rotation"
          }
        },
        {
          "sampler": 5,
          "target": {
            "node": 10,
            "path": "rotation"
          }
        }
      ]
    },
    {
      "name": "walk",
      "samplers": [
        {
          "input": 0,
          "output": 1,
          "interpolation": "LINEAR"
        },
        {
          "input": 17,
          "output": 18,
          "interpolation": "LINEAR"
        },
        {
          "input": 19,
          "output": 20,
          "interpolation": "LINEAR"
        },
        {
          "input": 2,
          "output": 3,
          "interpolation": "LINEAR"
        },
        {
          "input": 2,
          "output": 4,
          "interpolation": "LINEAR"
        },
        {
          "input": 2,
          "output": 5,
          "interpolation": "LINEAR"
        },
        {
          "input": 2,
          "output": 6,
          "interpolation": "LINEAR"
        }
      ],
      "channels": [
        {
          "sampler": 0,
          "target": {
            "node": 11,
            "path": "rotation"
          }
        },
        {
          "sampler": 1,
          "target": {
            "node": 11,
            "path": "translation"
          }
        },
        {
          "sampler": 2,
          "target": {
            "node": 2,
            "path": "rotation"
          }
        },
        {
          "sampler": 3,
          "target": {
            "node": 4,
            "path": "rotation"
          }
        },
        {
          "sampler": 4,
          "target": {
            "node": 6,
            "path": "rotation"
          }
        },
        {
          "sampler": 5,
          "target": {
            "node": 8,
            "path": "rotation"
          }
        },
        {
          "sampler": 6,
          "target": {
            "node": 10,
            "path": "rotation"
          }
        }
      ]
    }
  ],
  "scenes": [
    {
      "name": "blockbench_export",
      "nodes": [
        12
      ]
    }
  ],
  "scene": 0
}