{
  "asset": {
    "generator": "glTF-Transform v4.1.1",
    "version": "2.0"
  },
  "accessors": [
    {
      "type": "SCALAR",
      "componentType": 5126,
      "count": 4,
      "max": [
        4
      ],
      "min": [
        0
      ],
      "bufferView": 0,
      "byteOffset": 0
    },
    {
      "type": "VEC4",
      "componentType": 5126,
      "count": 4,
      "bufferView": 0,
      "byteOffset": 16
    },
    {
      "type": "VEC4",
      "componentType": 5126,
      "count": 4,
      "bufferView": 0,
      "byteOffset": 80
    },
    {
      "type": "SCALAR",
      "componentType": 5126,
      "count": 2,
      "max": [
        4
      ],
      "min": [
        0
      ],
      "bufferView": 0,
      "byteOffset": 144
    },
    {
      "type": "VEC4",
      "componentType": 5126,
      "count": 2,
      "bufferView": 0,
      "byteOffset": 152
    },
    {
      "type": "SCALAR",
      "componentType": 5126,
      "count": 46,
      "max": [
        4
      ],
      "min": [
        0
      ],
      "bufferView": 0,
      "byteOffset": 184
    },
    {
      "type": "VEC3",
      "componentType": 5126,
      "count": 46,
      "bufferView": 0,
      "byteOffset": 368
    },
    {
      "type": "SCALAR",
      "componentType": 5126,
      "count": 58,
      "max": [
        4
      ],
      "min": [
        0
      ],
      "bufferView": 0,
      "byteOffset": 920
    },
    {
      "type": "VEC3",
      "componentType": 5126,
      "count": 58,
      "bufferView": 0,
      "byteOffset": 1152
    },
    {
      "type": "SCALAR",
      "componentType": 5123,
      "count": 546,
      "bufferView": 1,
      "byteOffset": 0
    },
    {
      "type": "SCALAR",
      "componentType": 5123,
      "count": 1080,
      "bufferView": 1,
      "byteOffset": 1092
    },
    {
      "type": "SCALAR",
      "componentType": 5123,
      "count": 36,
      "bufferView": 1,
      "byteOffset": 3252
    },
    {
      "type": "SCALAR",
      "componentType": 5123,
      "count": 12,
      "bufferView": 1,
      "byteOffset": 3324
    },
    {
      "type": "SCALAR",
      "componentType": 5123,
      "count": 360,
      "bufferView": 1,
      "byteOffset": 3348
    },
    {
      "type": "VEC3",
      "componentType": 5126,
      "count": 360,
      "max": [
        0.35624995827674866,
        2.306537628173828,
        0.3125
      ],
      "min": [
        -0.38900890946388245,
        0,
        -0.3125
      ],
      "bufferView": 2,
      "byteOffset": 0
    },
    {
      "type": "VEC3",
      "componentType": 5126,
      "count": 360,
      "bufferView": 2,
      "byteOffset": 12
    },
    {
      "type": "VEC2",
      "componentType": 5126,
      "count": 360,
      "bufferView": 2,
      "byteOffset": 24
    },
    {
      "type": "VEC3",
      "componentType": 5126,
      "count": 792,
      "max": [
        0.8125,
        1,
        0.09375
      ],
      "min": [
        -0.09375,
        -0.375,
        -0.75
      ],
      "bufferView": 3,
      "byteOffset": 0
    },
    {
      "type": "VEC3",
      "componentType": 5126,
      "count": 792,
      "bufferView": 3,
      "byteOffset": 12
    },
    {
      "type": "VEC2",
      "componentType": 5126,
      "count": 792,
      "bufferView": 3,
      "byteOffset": 24
    },
    {
      "type": "VEC3",
      "componentType": 5126,
      "count": 24,
      "max": [
        0.875,
        1.0625,
        0.1875
      ],
      "min": [
        -0.1875,
        -0.4375,
        -0.8125
      ],
      "bufferView": 4,
      "byteOffset": 0
    },
    {
      "type": "VEC3",
      "componentType": 5126,
      "count": 24,
      "bufferView": 4,
      "byteOffset": 12
    },
    {
      "type": "VEC2",
      "componentType": 5126,
      "count": 24,
      "bufferView": 4,
      "byteOffset": 24
    },
    {
      "type": "VEC3",
      "componentType": 5126,
      "count": 24,
      "max": [
        0.9375,
        0.8125,
        0.5625
      ],
      "min": [
        -0.15625,
        -0.15625,
        -0.1875
      ],
      "bufferView": 5,
      "byteOffset": 0
    },
    {
      "type": "VEC3",
      "componentType": 5126,
      "count": 24,
      "bufferView": 5,
      "byteOffset": 12
    },
    {
      "type": "VEC3",
      "componentType": 5126,
      "count": 792,
      "max": [
        0.875,
        0.75,
        0.5
      ],
      "min": [
        -0.09375,
        -0.09375,
        -0.125
      ],
      "bufferView": 6,
      "byteOffset": 0
    },
    {
      "type": "VEC3",
      "componentType": 5126,
      "count": 792,
      "bufferView": 6,
      "byteOffset": 12
    },
    {
      "type": "VEC2",
      "componentType": 5126,
      "count": 792,
      "bufferView": 6,
      "byteOffset": 24
    },
    {
      "type": "VEC3",
      "componentType": 5126,
      "count": 8,
      "max": [
        0.3125,
        0.3125,
        0.3125
      ],
      "min": [
        -0.3125,
        -0.3125,
        -0.3125
      ],
      "bufferView": 7,
      "byteOffset": 0
    },
    {
      "type": "VEC3",
      "componentType": 5126,
      "count": 8,
      "bufferView": 7,
      "byteOffset": 12
    },
    {
      "type": "VEC2",
      "componentType": 5126,
      "count": 8,
      "bufferView": 7,
      "byteOffset": 24
    },
    {
      "type": "VEC3",
      "componentType": 5126,
      "count": 264,
      "max": [
        0.15625,
        0.15625,
        0.15625
      ],
      "min": [
        -0.15625,
        -0.15625,
        -0.15625
      ],
      "bufferView": 8,
      "byteOffset": 0
    },
    {
      "type": "VEC3",
      "componentType": 5126,
      "count": 264,
      "bufferView": 8,
      "byteOffset": 12
    },
    {
      "type": "VEC2",
      "componentType": 5126,
      "count": 264,
      "bufferView": 8,
      "byteOffset": 24
    }
  ],
  "bufferViews": [
    {
      "buffer": 0,
      "byteOffset": 0,
      "byteLength": 1848
    },
    {
      "buffer": 0,
      "byteOffset": 1848,
      "byteLength": 4068,
      "target": 34963
    },
    {
      "buffer": 0,
      "byteOffset": 5916,
      "byteLength": 11520,
      "byteStride": 32,
      "target": 34962
    },
    {
      "buffer": 0,
      "byteOffset": 17436,
      "byteLength": 25344,
      "byteStride": 32,
      "target": 34962
    },
    {
      "buffer": 0,
      "byteOffset": 42780,
      "byteLength": 768,
      "byteStride": 32,
      "target": 34962
    },
    {
      "buffer": 0,
      "byteOffset": 43548,
      "byteLength": 576,
      "byteStride": 24,
      "target": 34962
    },
    {
      "buffer": 0,
      "byteOffset": 44124,
      "byteLength": 25344,
      "byteStride": 32,
      "target": 34962
    },
    {
      "buffer": 0,
      "byteOffset": 69468,
      "byteLength": 256,
      "byteStride": 32,
      "target": 34962
    },
    {
      "buffer": 0,
      "byteOffset": 69724,
      "byteLength": 8448,
      "byteStride": 32,
      "target": 34962
    }
  ],
  "samplers": [
    {
      "magFilter": 9728,
      "minFilter": 9728,
      "wrapS": 33071,
      "wrapT": 33071
    }
  ],
  "textures": [
    {
      "source": 0,
      "sampler": 0
    },
    {
      "source": 1,
      "sampler": 0
    }
  ],
  "images": [
    {
      "mimeType": "image/png",
      "uri": "baseColor_1.png"
    },
    {
      "mimeType": "image/png",
      "uri": "baseColor_2.png"
    }
  ],
  "buffers": [
    {
      "uri": "energy-tower.bin",
      "byteLength": 78172
    }
  ],
  "materials": [
    {
      "alphaMode": "MASK",
      "alphaCutoff": 0.05,
      "doubleSided": true,
      "pbrMetallicRoughness": {
        "metallicFactor": 0,
        "baseColorTexture": {
          "index": 0
        }
      }
    },
    {
      "alphaMode": "MASK",
      "alphaCutoff": 0.05,
      "doubleSided": true,
      "pbrMetallicRoughness": {
        "baseColorFactor": [
          1,
          0.21586050010324415,
          0.8713671191959567,
          0.5882352941176471
        ],
        "metallicFactor": 0
      }
    },
    {
      "alphaMode": "MASK",
      "alphaCutoff": 0.05,
      "doubleSided": true,
      "pbrMetallicRoughness": {
        "metallicFactor": 0,
        "baseColorTexture": {
          "index": 1
        }
      }
    }
  ],
  "meshes": [
    {
      "primitives": [
        {
          "attributes": {
            "POSITION": 14,
            "NORMAL": 15,
            "TEXCOORD_0": 16
          },
          "mode": 4,
          "material": 0,
          "indices": 9
        }
      ]
    },
    {
      "primitives": [
        {
          "attributes": {
            "POSITION": 17,
            "NORMAL": 18,
            "TEXCOORD_0": 19
          },
          "mode": 4,
          "material": 1,
          "indices": 10
        },
        {
          "attributes": {
            "POSITION": 20,
            "NORMAL": 21,
            "TEXCOORD_0": 22
          },
          "mode": 4,
          "material": 2,
          "indices": 11
        }
      ]
    },
    {
      "primitives": [
        {
          "attributes": {
            "POSITION": 23,
            "NORMAL": 24,
            "TEXCOORD_0": 22
          },
          "mode": 4,
          "material": 2,
          "indices": 11
        },
        {
          "attributes": {
            "POSITION": 25,
            "NORMAL": 26,
            "TEXCOORD_0": 27
          },
          "mode": 4,
          "material": 1,
          "indices": 10
        }
      ]
    },
    {
      "primitives": [
        {
          "attributes": {
            "POSITION": 28,
            "NORMAL": 29,
            "TEXCOORD_0": 30
          },
          "mode": 4,
          "material": 2,
          "indices": 12
        },
        {
          "attributes": {
            "POSITION": 31,
            "NORMAL": 32,
            "TEXCOORD_0": 33
          },
          "mode": 4,
          "material": 1,
          "indices": 13
        }
      ]
    }
  ],
  "nodes": [
    {
      "name": "cube",
      "mesh": 0
    },
    {
      "name": "sphere",
      "translation": [
        -0.25,
        1.375,
        0.4375
      ],
      "mesh": 1
    },
    {
      "name": "orbs_1",
      "children": [
        1
      ]
    },
    {
      "name": "plane",
      "translation": [
        0.25,
        1.5,
        -0.4375
      ],
      "rotation": [
        0.5,
        -0.4999999999999999,
        0.5,
        0.5000000000000001
      ],
      "mesh": 2
    },
    {
      "name": "orbs_2",
      "children": [
        3
      ]
    },
    {
      "name": "plane",
      "rotation": [
        0.5,
        -0.4999999999999999,
        0.5,
        0.5000000000000001
      ],
      "mesh": 3
    },
    {
      "name": "main_orb",
      "translation": [
        0,
        1.8125,
        0
      ],
      "children": [
        5
      ]
    },
    {
      "children": [
        2,
        4,
        6
      ]
    }
  ],
  "animations": [
    {
      "name": "idle",
      "samplers": [
        {
          "input": 0,
          "output": 1,
          "interpolation": "LINEAR"
        },
        {
          "input": 0,
          "output": 2,
          "interpolation": "LINEAR"
        },
        {
          "input": 3,
          "output": 4,
          "interpolation": "LINEAR"
        },
        {
          "input": 5,
          "output": 6,
          "interpolation": "LINEAR"
        },
        {
          "input": 7,
          "output": 8,
          "interpolation": "LINEAR"
        }
      ],
      "channels": [
        {
          "sampler": 0,
          "target": {
            "node": 2,
            "path": "rotation"
          }
        },
        {
          "sampler": 1,
          "target": {
            "node": 4,
            "path": "rotation"
          }
        },
        {
          "sampler": 2,
          "target": {
            "node": 6,
            "path": "rotation"
          }
        },
        {
          "sampler": 3,
          "target": {
            "node": 6,
            "path": "translation"
          }
        },
        {
          "sampler": 4,
          "target": {
            "node": 6,
            "path": "scale"
          }
        }
      ]
    }
  ],
  "scenes": [
    {
      "name": "blockbench_export",
      "nodes": [
        7,
        0
      ]
    }
  ],
  "scene": 0
}