{"asset":{"version":"2.0","generator":"Blockbench 5.0.7 glTF exporter"},"scenes":[{"nodes":[10],"name":"blockbench_export"}],"scene":0,"nodes":[{"translation":[0.25,-1.125,0.0625],"name":"cube","mesh":0},{"translation":[-0.75,1.125,-0.125],"name":"bone8","children":[0]},{"name":"cube","mesh":1},{"translation":[-0.75,1.125,0.125],"name":"bone9","children":[2]},{"translation":[-0.5,0,-0.0625],"name":"cube","mesh":2},{"translation":[-0.5,0,0.1875],"name":"cube","mesh":3},{"translation":[-0.5,0,-0.0625],"name":"cube","mesh":4},{"translation":[-0.5,0,-0.0625],"name":"cube","mesh":5},{"translation":[-0.375,0,-0.0625],"name":"cube","mesh":6},{"translation":[-0.5,0,-0.0625],"name":"cube","mesh":7},{"translation":[0.4375,0,0],"name":"root1","children":[1,3,4,5,6,7,8,9]}],"bufferViews":[{"buffer":0,"byteOffset":0,"byteLength":240,"target":34962,"byteStride":12},{"buffer":0,"byteOffset":240,"byteLength":240,"target":34962,"byteStride":12},{"buffer":0,"byteOffset":480,"byteLength":160,"target":34962,"byteStride":8},{"buffer":0,"byteOffset":640,"byteLength":60,"target":34963},{"buffer":0,"byteOffset":700,"byteLength":240,"target":34962,"byteStride":12},{"buffer":0,"byteOffset":940,"byteLength":240,"target":34962,"byteStride":12},{"buffer":0,"byteOffset":1180,"byteLength":160,"target":34962,"byteStride":8},{"buffer":0,"byteOffset":1340,"byteLength":60,"target":34963},{"buffer":0,"byteOffset":1400,"byteLength":288,"target":34962,"byteStride":12},{"buffer":0,"byteOffset":1688,"byteLength":288,"target":34962,"byteStride":12},{"buffer":0,"byteOffset":1976,"byteLength":192,"target":34962,"byteStride":8},{"buffer":0,"byteOffset":2168,"byteLength":72,"target":34963},{"buffer":0,"byteOffset":2240,"byteLength":288,"target":34962,"byteStride":12},{"buffer":0,"byteOffset":2528,"byteLength":288,"target":34962,"byteStride":12},{"buffer":0,"byteOffset":2816,"byteLength":192,"target":34962,"byteStride":8},{"buffer":0,"byteOffset":3008,"byteLength":72,"target":34963},{"buffer":0,"byteOffset":3080,"byteLength":288,"target":34962,"byteStride":12},{"buffer":0,"byteOffset":3368,"byteLength":288,"target":34962,"byteStride":12},{"buffer":0,"byteOffset":3656,"byteLength":192,"target":34962,"byteStride":8},{"buffer":0,"byteOffset":3848,"byteLength":72,"target":34963},{"buffer":0,"byteOffset":3920,"byteLength":288,"target":34962,"byteStride":12},{"buffer":0,"byteOffset":4208,"byteLength":288,"target":34962,"byteStride":12},{"buffer":0,"byteOffset":4496,"byteLength":192,"target":34962,"byteStride":8},{"buffer":0,"byteOffset":4688,"byteLength":72,"target":34963},{"buffer":0,"byteOffset":4760,"byteLength":240,"target":34962,"byteStride":12},{"buffer":0,"byteOffset":5000,"byteLength":240,"target":34962,"byteStride":12},{"buffer":0,"byteOffset":5240,"byteLength":160,"target":34962,"byteStride":8},{"buffer":0,"byteOffset":5400,"byteLength":60,"target":34963},{"buffer":0,"byteOffset":5460,"byteLength":1152,"target":34962,"byteStride":12},{"buffer":0,"byteOffset":6612,"byteLength":1152,"target":34962,"byteStride":12},{"buffer":0,"byteOffset":7764,"byteLength":768,"target":34962,"byteStride":8},{"buffer":0,"byteOffset":8532,"byteLength":288,"target":34963},{"buffer":0,"byteOffset":8820,"byteLength":4},{"buffer":0,"byteOffset":8824,"byteLength":16},{"buffer":0,"byteOffset":8840,"byteLength":4},{"buffer":0,"byteOffset":8844,"byteLength":16},{"buffer":0,"byteOffset":8860,"byteLength":4},{"buffer":0,"byteOffset":8864,"byteLength":16},{"buffer":0,"byteOffset":8880,"byteLength":4},{"buffer":0,"byteOffset":8884,"byteLength":16},{"buffer":0,"byteOffset":8900,"byteLength":4},{"buffer":0,"byteOffset":8904,"byteLength":16},{"buffer":0,"byteOffset":8920,"byteLength":4},{"buffer":0,"byteOffset":8924,"byteLength":16},{"buffer":0,"byteOffset":8940,"byteLength":16},{"buffer":0,"byteOffset":8956,"byteLength":64},{"buffer":0,"byteOffset":9020,"byteLength":12},{"buffer":0,"byteOffset":9032,"byteLength":48},{"buffer":0,"byteOffset":9080,"byteLength":12},{"buffer":0,"byteOffset":9092,"byteLength":48},{"buffer":0,"byteOffset":9140,"byteLength":16},{"buffer":0,"byteOffset":9156,"byteLength":64},{"buffer":0,"byteOffset":9220,"byteLength":12},{"buffer":0,"byteOffset":9232,"byteLength":48},{"buffer":0,"byteOffset":9280,"byteLength":12},{"buffer":0,"byteOffset":9292,"byteLength":48}],"buffers":[{"byteLength":9340,"uri":"data:application/octet-stream;base64,"}],"accessors":[{"bufferView":0,"componentType":5126,"count":20,"max":[-0.0625,1.1875,-0.0625],"min":[-0.4375,0.8125,-0.0625],"type":"VEC3"},{"bufferView":1,"componentType":5126,"count":20,"max":[1,0,0],"min":[0,0,-1],"type":"VEC3"},{"bufferView":2,"componentType":5126,"count":20,"max":[0.7651249766349792,0.09339642524719238],"min":[0.578125,0],"type":"VEC2"},{"bufferView":3,"componentType":5123,"count":30,"max":[19],"min":[0],"type":"SCALAR"},{"bufferView":4,"componentType":5126,"count":20,"max":[0.1875,0.0625,0],"min":[-0.1875,-0.3125,0],"type":"VEC3"},{"bufferView":5,"componentType":5126,"count":20,"max":[1,0,0],"min":[0,0,-1],"type":"VEC3"},{"bufferView":6,"componentType":5126,"count":20,"max":[0.7651249766349792,0.09339642524719238],"min":[0.578125,0],"type":"VEC2"},{"bufferView":7,"componentType":5123,"count":30,"max":[19],"min":[0],"type":"SCALAR"},{"bufferView":8,"componentType":5126,"count":24,"max":[-0.1875,1.1875,0],"min":[-0.3125,1.0625,-0.125],"type":"VEC3"},{"bufferView":9,"componentType":5126,"count":24,"max":[1,1,1],"min":[-1,-1,-1],"type":"VEC3"},{"bufferView":10,"componentType":5126,"count":24,"max":[0.703125,0.28125],"min":[0.578125,0.21875],"type":"VEC2"},{"bufferView":11,"componentType":5123,"count":36,"max":[23],"min":[0],"type":"SCALAR"},{"bufferView":12,"componentType":5126,"count":24,"max":[-0.1875,1.1875,0],"min":[-0.3125,1.0625,-0.125],"type":"VEC3"},{"bufferView":13,"componentType":5126,"count":24,"max":[1,1,1],"min":[-1,-1,-1],"type":"VEC3"},{"bufferView":14,"componentType":5126,"count":24,"max":[0.703125,0.28125],"min":[0.578125,0.21875],"type":"VEC2"},{"bufferView":15,"componentType":5123,"count":36,"max":[23],"min":[0],"type":"SCALAR"},{"bufferView":16,"componentType":5126,"count":24,"max":[0.59375,1.125,0.171875],"min":[0.375,0.125,-0.046875],"type":"VEC3"},{"bufferView":17,"componentType":5126,"count":24,"max":[1,1,1],"min":[-1,-1,-1],"type":"VEC3"},{"bufferView":18,"componentType":5126,"count":24,"max":[0.1875,0.828125],"min":[0,0.53125],"type":"VEC2"},{"bufferView":19,"componentType":5123,"count":36,"max":[23],"min":[0],"type":"SCALAR"},{"bufferView":20,"componentType":5126,"count":24,"max":[0.59375,1.796875,0.15625],"min":[0.375,1.578125,-0.03125],"type":"VEC3"},{"bufferView":21,"componentType":5126,"count":24,"max":[1,1,1],"min":[-1,-1,-1],"type":"VEC3"},{"bufferView":22,"componentType":5126,"count":24,"max":[0.765625,0.203125],"min":[0.578125,0.109375],"type":"VEC2"},{"bufferView":23,"componentType":5123,"count":36,"max":[23],"min":[0],"type":"SCALAR"},{"bufferView":24,"componentType":5126,"count":20,"max":[0.1875,1.75,0.0625],"min":[-0.3125,1.25,0.0625],"type":"VEC3"},{"bufferView":25,"componentType":5126,"count":20,"max":[1,0,0],"min":[0,0,-1],"type":"VEC3"},{"bufferView":26,"componentType":5126,"count":20,"max":[0.7027714252471924,0.4215214252471924],"min":[0,0],"type":"VEC2"},{"bufferView":27,"componentType":5123,"count":30,"max":[19],"min":[0],"type":"SCALAR"},{"bufferView":28,"componentType":5126,"count":96,"max":[0.5625,2,0.125],"min":[-0.4375,0,0],"type":"VEC3"},{"bufferView":29,"componentType":5126,"count":96,"max":[1,1,1],"min":[-1,-1,-1],"type":"VEC3"},{"bufferView":30,"componentType":5126,"count":96,"max":[0.5935264229774475,0.687052845954895],"min":[0.00004968749999534339,0.00006204843521118164],"type":"VEC2"},{"bufferView":31,"componentType":5123,"count":144,"max":[95],"min":[0],"type":"SCALAR"},{"bufferView":32,"componentType":5126,"count":1,"max":[0],"min":[0],"type":"SCALAR"},{"bufferView":33,"componentType":5126,"count":1,"max":[0,0,0,1],"min":[0,0,0,1],"type":"VEC4"},{"bufferView":34,"componentType":5126,"count":1,"max":[0],"min":[0],"type":"SCALAR"},{"bufferView":35,"componentType":5126,"count":1,"max":[0,0,0,1],"min":[0,0,0,1],"type":"VEC4"},{"bufferView":36,"componentType":5126,"count":1,"max":[0],"min":[0],"type":"SCALAR"},{"bufferView":37,"componentType":5126,"count":1,"max":[0,0,0,1],"min":[0,0,0,1],"type":"VEC4"},{"bufferView":38,"componentType":5126,"count":1,"max":[0],"min":[0],"type":"SCALAR"},{"bufferView":39,"componentType":5126,"count":1,"max":[0,0.7071067690849304,0,0.7071067690849304],"min":[0,0.7071067690849304,0,0.7071067690849304],"type":"VEC4"},{"bufferView":40,"componentType":5126,"count":1,"max":[0],"min":[0],"type":"SCALAR"},{"bufferView":41,"componentType":5126,"count":1,"max":[0,0.7071067690849304,0,0.7071067690849304],"min":[0,0.7071067690849304,0,0.7071067690849304],"type":"VEC4"},{"bufferView":42,"componentType":5126,"count":1,"max":[0],"min":[0],"type":"SCALAR"},{"bufferView":43,"componentType":5126,"count":1,"max":[0,0.7071067690849304,0,0.7071067690849304],"min":[0,0.7071067690849304,0,0.7071067690849304],"type":"VEC4"},{"bufferView":44,"componentType":5126,"count":4,"max":[0.16666999459266663],"min":[0],"type":"SCALAR"},{"bufferView":45,"componentType":5126,"count":4,"max":[0,0.7071067690849304,0,1],"min":[0,0,0,0.7071067690849304],"type":"VEC4"},{"bufferView":46,"componentType":5126,"count":3,"max":[0.25],"min":[0],"type":"SCALAR"},{"bufferView":47,"componentType":5126,"count":3,"max":[0.4617486000061035,0,0,1],"min":[0,0,0,0.8870108127593994],"type":"VEC4"},{"bufferView":48,"componentType":5126,"count":3,"max":[0.25],"min":[0],"type":"SCALAR"},{"bufferView":49,"componentType":5126,"count":3,"max":[0.08715574443340302,0,0,1],"min":[0,0,0,0.9961947202682495],"type":"VEC4"},{"bufferView":50,"componentType":5126,"count":4,"max":[0.16666999459266663],"min":[0],"type":"SCALAR"},{"bufferView":51,"componentType":5126,"count":4,"max":[0,0.7071067690849304,0,1],"min":[0,0,0,0.7071067690849304],"type":"VEC4"},{"bufferView":52,"componentType":5126,"count":3,"max":[0.25],"min":[0],"type":"SCALAR"},{"bufferView":53,"componentType":5126,"count":3,"max":[0,0,0,1],"min":[-0.36243805289268494,0,0,0.9320078492164612],"type":"VEC4"},{"bufferView":54,"componentType":5126,"count":3,"max":[0.25],"min":[0],"type":"SCALAR"},{"bufferView":55,"componentType":5126,"count":3,"max":[0,0,0,1],"min":[-0.06540312618017197,0,0,0.9978589415550232],"type":"VEC4"}],"materials":[{"pbrMetallicRoughness":{"metallicFactor":0,"roughnessFactor":1,"baseColorTexture":{"index":0}},"alphaMode":"MASK","alphaCutoff":0.05,"doubleSided":true}],"textures":[{"sampler":0,"source":0,"name":"oak_door"}],"samplers":[{"magFilter":9728,"minFilter":9728,"wrapS":33071,"wrapT":33071}],"images":[{"mimeType":"image/png","uri":"data:image/png;base64,"}],"meshes":[{"primitives":[{"mode":4,"attributes":{"POSITION":0,"NORMAL":1,"TEXCOORD_0":2},"indices":3,"material":0}]},{"primitives":[{"mode":4,"attributes":{"POSITION":4,"NORMAL":5,"TEXCOORD_0":6},"indices":7,"material":0}]},{"primitives":[{"mode":4,"attributes":{"POSITION":8,"NORMAL":9,"TEXCOORD_0":10},"indices":11,"material":0}]},{"primitives":[{"mode":4,"attributes":{"POSITION":12,"NORMAL":13,"TEXCOORD_0":14},"indices":15,"material":0}]},{"primitives":[{"mode":4,"attributes":{"POSITION":16,"NORMAL":17,"TEXCOORD_0":18},"indices":19,"material":0}]},{"primitives":[{"mode":4,"attributes":{"POSITION":20,"NORMAL":21,"TEXCOORD_0":22},"indices":23,"material":0}]},{"primitives":[{"mode":4,"attributes":{"POSITION":24,"NORMAL":25,"TEXCOORD_0":26},"indices":27,"material":0}]},{"primitives":[{"mode":4,"attributes":{"POSITION":28,"NORMAL":29,"TEXCOORD_0":30},"indices":31,"material":0}]}],"animations":[{"name":"idle","samplers":[{"input":32,"output":33,"interpolation":"LINEAR"},{"input":34,"output":35,"interpolation":"LINEAR"},{"input":36,"output":37,"interpolation":"LINEAR"}],"channels":[{"sampler":0,"target":{"path":"rotation"}},{"sampler":1,"target":{"path":"rotation"}},{"sampler":2,"target":{"node":10,"path":"rotation"}}]},{"name":"idle2","samplers":[{"input":38,"output":39,"interpolation":"LINEAR"},{"input":40,"output":41,"interpolation":"LINEAR"},{"input":42,"output":43,"interpolation":"LINEAR"}],"channels":[{"sampler":0,"target":{"path":"rotation"}},{"sampler":1,"target":{"path":"rotation"}},{"sampler":2,"target":{"node":10,"path":"rotation"}}]}]}