{
  "asset": {
    "generator": "glTF-Transform v4.2.1",
    "version": "2.0"
  },
  "accessors": [
    {
      "type": "SCALAR",
      "componentType": 5123,
      "count": 36,
      "bufferView": 0,
      "byteOffset": 0
    },
    {
      "type": "SCALAR",
      "componentType": 5123,
      "count": 36,
      "bufferView": 0,
      "byteOffset": 72
    },
    {
      "type": "SCALAR",
      "componentType": 5123,
      "count": 36,
      "bufferView": 0,
      "byteOffset": 144
    },
    {
      "type": "SCALAR",
      "componentType": 5123,
      "count": 36,
      "bufferView": 0,
      "byteOffset": 216
    },
    {
      "type": "SCALAR",
      "componentType": 5123,
      "count": 36,
      "bufferView": 0,
      "byteOffset": 288
    },
    {
      "type": "SCALAR",
      "componentType": 5123,
      "count": 30,
      "bufferView": 0,
      "byteOffset": 360
    },
    {
      "type": "VEC3",
      "componentType": 5126,
      "count": 24,
      "max": [
        0.0625,
        1.375,
        0.078125
      ],
      "min": [
        -0.0625,
        0,
        -0.078125
      ],
      "bufferView": 1,
      "byteOffset": 0
    },
    {
      "type": "VEC3",
      "componentType": 5126,
      "count": 24,
      "bufferView": 1,
      "byteOffset": 12
    },
    {
      "type": "VEC2",
      "componentType": 5126,
      "count": 24,
      "bufferView": 1,
      "byteOffset": 24
    },
    {
      "type": "VEC3",
      "componentType": 5126,
      "count": 24,
      "max": [
        0.6875,
        0.71875,
        0.0625
      ],
      "min": [
        -0.6875,
        0.59375,
        -0.0625
      ],
      "bufferView": 2,
      "byteOffset": 0
    },
    {
      "type": "VEC2",
      "componentType": 5126,
      "count": 24,
      "bufferView": 2,
      "byteOffset": 12
    },
    {
      "type": "VEC3",
      "componentType": 5126,
      "count": 24,
      "bufferView": 2,
      "byteOffset": 20
    },
    {
      "type": "VEC3",
      "componentType": 5126,
      "count": 24,
      "max": [
        0.5625,
        0.5,
        0.125
      ],
      "min": [
        -0.5625,
        -0.6875,
        -0.125
      ],
      "bufferView": 3,
      "byteOffset": 0
    },
    {
      "type": "VEC2",
      "componentType": 5126,
      "count": 24,
      "bufferView": 3,
      "byteOffset": 12
    },
    {
      "type": "VEC3",
      "componentType": 5126,
      "count": 24,
      "bufferView": 3,
      "byteOffset": 20
    },
    {
      "type": "VEC3",
      "componentType": 5126,
      "count": 24,
      "max": [
        0.3125,
        0.5625,
        0.3125
      ],
      "min": [
        -0.3125,
        -0.0625,
        -0.3125
      ],
      "bufferView": 4,
      "byteOffset": 0
    },
    {
      "type": "VEC2",
      "componentType": 5126,
      "count": 24,
      "bufferView": 4,
      "byteOffset": 12
    },
    {
      "type": "VEC3",
      "componentType": 5126,
      "count": 24,
      "bufferView": 4,
      "byteOffset": 20
    },
    {
      "type": "VEC3",
      "componentType": 5126,
      "count": 24,
      "max": [
        0.0625,
        0.25,
        0.0625
      ],
      "min": [
        -0.0625,
        0,
        -0.0625
      ],
      "bufferView": 5,
      "byteOffset": 0
    },
    {
      "type": "VEC2",
      "componentType": 5126,
      "count": 24,
      "bufferView": 5,
      "byteOffset": 12
    },
    {
      "type": "VEC3",
      "componentType": 5126,
      "count": 24,
      "bufferView": 5,
      "byteOffset": 20
    },
    {
      "type": "VEC3",
      "componentType": 5126,
      "count": 16,
      "max": [
        0.1875,
        0.25,
        0
      ],
      "min": [
        -0.0625,
        0,
        0
      ],
      "bufferView": 6,
      "byteOffset": 0
    },
    {
      "type": "VEC3",
      "componentType": 5126,
      "count": 16,
      "bufferView": 6,
      "byteOffset": 12
    },
    {
      "type": "VEC2",
      "componentType": 5126,
      "count": 16,
      "bufferView": 6,
      "byteOffset": 24
    }
  ],
  "bufferViews": [
    {
      "buffer": 0,
      "byteOffset": 0,
      "byteLength": 420,
      "target": 34963
    },
    {
      "buffer": 0,
      "byteOffset": 420,
      "byteLength": 768,
      "byteStride": 32,
      "target": 34962
    },
    {
      "buffer": 0,
      "byteOffset": 1188,
      "byteLength": 768,
      "byteStride": 32,
      "target": 34962
    },
    {
      "buffer": 0,
      "byteOffset": 1956,
      "byteLength": 768,
      "byteStride": 32,
      "target": 34962
    },
    {
      "buffer": 0,
      "byteOffset": 2724,
      "byteLength": 768,
      "byteStride": 32,
      "target": 34962
    },
    {
      "buffer": 0,
      "byteOffset": 3492,
      "byteLength": 768,
      "byteStride": 32,
      "target": 34962
    },
    {
      "buffer": 0,
      "byteOffset": 4260,
      "byteLength": 512,
      "byteStride": 32,
      "target": 34962
    }
  ],
  "samplers": [
    {
      "magFilter": 9728,
      "minFilter": 9728,
      "wrapS": 33071,
      "wrapT": 33071
    }
  ],
  "textures": [
    {
      "source": 0,
      "sampler": 0
    }
  ],
  "images": [
    {
      "mimeType": "image/png",
      "uri": "baseColor.png"
    }
  ],
  "buffers": [
    {
      "uri": "scarecrow-pumpkin-named-nodes.bin",
      "byteLength": 4772
    }
  ],
  "materials": [
    {
      "alphaMode": "MASK",
      "alphaCutoff": 0.05,
      "doubleSided": true,
      "pbrMetallicRoughness": {
        "metallicFactor": 0,
        "baseColorTexture": {
          "index": 0
        }
      }
    }
  ],
  "meshes": [
    {
      "primitives": [
        {
          "attributes": {
            "POSITION": 6,
            "NORMAL": 7,
            "TEXCOORD_0": 8
          },
          "mode": 4,
          "material": 0,
          "indices": 0
        }
      ]
    },
    {
      "primitives": [
        {
          "attributes": {
            "POSITION": 9,
            "TEXCOORD_0": 10,
            "NORMAL": 11
          },
          "mode": 4,
          "material": 0,
          "indices": 1
        }
      ]
    },
    {
      "primitives": [
        {
          "attributes": {
            "POSITION": 12,
            "TEXCOORD_0": 13,
            "NORMAL": 14
          },
          "mode": 4,
          "material": 0,
          "indices": 2
        }
      ]
    },
    {
      "primitives": [
        {
          "attributes": {
            "POSITION": 15,
            "TEXCOORD_0": 16,
            "NORMAL": 17
          },
          "mode": 4,
          "material": 0,
          "indices": 3
        }
      ]
    },
    {
      "primitives": [
        {
          "attributes": {
            "POSITION": 18,
            "TEXCOORD_0": 19,
            "NORMAL": 20
          },
          "mode": 4,
          "material": 0,
          "indices": 4
        }
      ]
    },
    {
      "primitives": [
        {
          "attributes": {
            "POSITION": 21,
            "NORMAL": 22,
            "TEXCOORD_0": 23
          },
          "mode": 4,
          "material": 0,
          "indices": 5
        }
      ]
    }
  ],
  "nodes": [
    {
      "name": "cube",
      "mesh": 0
    },
    {
      "name": "cube",
      "translation": [
        0,
        0.59375,
        0
      ],
      "mesh": 1
    },
    {
      "name": "cube",
      "translation": [
        0,
        0.875,
        0
      ],
      "mesh": 2
    },
    {
      "name": "cube",
      "translation": [
        0,
        1.4390625000000008,
        0
      ],
      "mesh": 3
    },
    {
      "name": "cube",
      "translation": [
        0,
        2.0015625000000004,
        0
      ],
      "mesh": 4
    },
    {
      "name": "cube",
      "translation": [
        0.125,
        2.0015625000000004,
        0
      ],
      "mesh": 5
    }
  ],
  "scenes": [
    {
      "name": "blockbench_export",
      "nodes": [
        0,
        1,
        2,
        3,
        4,
        5
      ]
    }
  ],
  "scene": 0
}