{"asset":{"version":"2.0","generator":"Blockbench 4.12.5 glTF exporter"},"scenes":[{"nodes":[8],"name":"blockbench_export"}],"scene":0,"nodes":[{"translation":[0.25,0.421875,-0.003125],"name":"hand-right-anchor","mesh":0},{"name":"bone2"},{"name":"wooden_wand","mesh":1},{"translation":[0,-0.21875,-0.109375],"name":"wooden_wand_selection","mesh":2},{"translation":[0,0.21875,0.109375],"name":"bone2","children":[3]},{"translation":[0.25,0.359375,-0.78125],"name":"bone","children":[1,2,4]},{"name":"mainhand-cosmetic","children":[0,5]},{"name":"cosmetics","children":[6]},{"children":[7]}],"bufferViews":[{"buffer":0,"byteOffset":0,"byteLength":288,"target":34962,"byteStride":12},{"buffer":0,"byteOffset":288,"byteLength":288,"target":34962,"byteStride":12},{"buffer":0,"byteOffset":576,"byteLength":192,"target":34962,"byteStride":8},{"buffer":0,"byteOffset":768,"byteLength":72,"target":34963},{"buffer":0,"byteOffset":840,"byteLength":2016,"target":34962,"byteStride":12},{"buffer":0,"byteOffset":2856,"byteLength":2016,"target":34962,"byteStride":12},{"buffer":0,"byteOffset":4872,"byteLength":1344,"target":34962,"byteStride":8},{"buffer":0,"byteOffset":6216,"byteLength":360,"target":34963},{"buffer":0,"byteOffset":6576,"byteLength":120,"target":34963},{"buffer":0,"byteOffset":6696,"byteLength":24,"target":34963},{"buffer":0,"byteOffset":6720,"byteLength":288,"target":34962,"byteStride":12},{"buffer":0,"byteOffset":7008,"byteLength":288,"target":34962,"byteStride":12},{"buffer":0,"byteOffset":7296,"byteLength":192,"target":34962,"byteStride":8},{"buffer":0,"byteOffset":7488,"byteLength":72,"target":34963},{"buffer":0,"byteOffset":7560,"byteLength":548},{"buffer":0,"byteOffset":8108,"byteLength":2192},{"buffer":0,"byteOffset":10300,"byteLength":544},{"buffer":0,"byteOffset":10844,"byteLength":1632}],"buffers":[{"byteLength":12476,"uri":"data:application/octet-stream;base64,"}],"accessors":[{"bufferView":0,"componentType":5126,"count":24,"max":[0.03125,0.0625,0.03125],"min":[-0.03125,0,-0.03125],"type":"VEC3"},{"bufferView":1,"componentType":5126,"count":24,"max":[1,1,1],"min":[-1,-1,-1],"type":"VEC3"},{"bufferView":2,"componentType":5126,"count":24,"max":[1,1],"min":[0.96875,0.984375],"type":"VEC2"},{"bufferView":3,"componentType":5123,"count":36,"max":[23],"min":[0],"type":"SCALAR"},{"bufferView":4,"componentType":5126,"count":168,"max":[0.03125,0.40625,1.375],"min":[-0.03125,0.15625,-0.15625],"type":"VEC3"},{"bufferView":5,"componentType":5126,"count":168,"max":[1,1,1],"min":[-1,-1,-1],"type":"VEC3"},{"bufferView":6,"componentType":5126,"count":168,"max":[0.9985857605934143,0.7491055727005005],"min":[0.00048809353029355407,0.000498652458190918],"type":"VEC2"},{"bufferView":7,"componentType":5123,"count":180,"max":[119],"min":[0],"type":"SCALAR"},{"bufferView":8,"componentType":5123,"count":60,"max":[159],"min":[120],"type":"SCALAR"},{"bufferView":9,"componentType":5123,"count":12,"max":[167],"min":[160],"type":"SCALAR"},{"bufferView":10,"componentType":5126,"count":24,"max":[0.0625,0.28125,0.171875],"min":[-0.0625,0.15625,0.046875],"type":"VEC3"},{"bufferView":11,"componentType":5126,"count":24,"max":[1,1,1],"min":[-1,-1,-1],"type":"VEC3"},{"bufferView":12,"componentType":5126,"count":24,"max":[0.29652145504951477,0.7808964252471924],"min":[0.047228552401065826,0.6566035747528076],"type":"VEC2"},{"bufferView":13,"componentType":5123,"count":36,"max":[23],"min":[0],"type":"SCALAR"},{"bufferView":14,"componentType":5126,"count":137,"max":[4],"min":[0],"type":"SCALAR"},{"bufferView":15,"componentType":5126,"count":137,"max":[0,0,0.9998661279678345,1],"min":[0,0,0,-1],"type":"VEC4"},{"bufferView":16,"componentType":5126,"count":136,"max":[3.9833333492279053],"min":[0],"type":"SCALAR"},{"bufferView":17,"componentType":5126,"count":136,"max":[0,0.2374935746192932,0.109375],"min":[0,0.2000064253807068,0.109375],"type":"VEC3"}],"materials":[{"pbrMetallicRoughness":{"metallicFactor":0,"roughnessFactor":1,"baseColorTexture":{"index":0}},"alphaMode":"MASK","alphaCutoff":0.05,"doubleSided":true},{"pbrMetallicRoughness":{"metallicFactor":0,"roughnessFactor":1,"baseColorTexture":{"index":1}},"alphaMode":"MASK","alphaCutoff":0.05,"doubleSided":true},{"pbrMetallicRoughness":{"metallicFactor":0,"roughnessFactor":1,"baseColorTexture":{"index":2}},"alphaMode":"MASK","alphaCutoff":0.05,"doubleSided":true}],"textures":[{"sampler":0,"source":0,"name":"player-texture-template.png"},{"sampler":1,"source":1,"name":"wooden_wand"},{"sampler":2,"source":2,"name":"wooden_wand_bottom"}],"samplers":[{"magFilter":9728,"minFilter":9728,"wrapS":33071,"wrapT":33071},{"magFilter":9728,"minFilter":9728,"wrapS":33071,"wrapT":33071},{"magFilter":9728,"minFilter":9728,"wrapS":33071,"wrapT":33071}],"images":[{"mimeType":"image/png","uri":"data:image/png;base64,"},{"mimeType":"image/png","uri":"data:image/png;base64,"},{"mimeType":"image/png","uri":"data:image/png;base64,"}],"meshes":[{"primitives":[{"mode":4,"attributes":{"POSITION":0,"NORMAL":1,"TEXCOORD_0":2},"indices":3,"material":0}]},{"primitives":[{"mode":4,"attributes":{"POSITION":4,"NORMAL":5,"TEXCOORD_0":6},"indices":7,"material":1},{"mode":4,"attributes":{"POSITION":4,"NORMAL":5,"TEXCOORD_0":6},"indices":8,"material":2},{"mode":4,"attributes":{"POSITION":4,"NORMAL":5,"TEXCOORD_0":6},"indices":9,"material":1}]},{"primitives":[{"mode":4,"attributes":{"POSITION":10,"NORMAL":11,"TEXCOORD_0":12},"indices":13,"material":1}]}],"animations":[{"name":"idle","samplers":[{"input":14,"output":15,"interpolation":"LINEAR"},{"input":16,"output":17,"interpolation":"LINEAR"}],"channels":[{"sampler":0,"target":{"node":4,"path":"rotation"}},{"sampler":1,"target":{"node":4,"path":"translation"}}]}]}