{
  "asset": {
    "generator": "glTF-Transform v4.2.1",
    "version": "2.0"
  },
  "accessors": [
    {
      "type": "SCALAR",
      "componentType": 5126,
      "count": 3,
      "max": [
        3.25
      ],
      "min": [
        0
      ],
      "bufferView": 0,
      "byteOffset": 0
    },
    {
      "type": "VEC4",
      "componentType": 5126,
      "count": 3,
      "bufferView": 0,
      "byteOffset": 12
    },
    {
      "type": "VEC3",
      "componentType": 5126,
      "count": 1,
      "bufferView": 0,
      "byteOffset": 60
    },
    {
      "type": "SCALAR",
      "componentType": 5126,
      "count": 79,
      "max": [
        3.25
      ],
      "min": [
        0
      ],
      "bufferView": 0,
      "byteOffset": 72
    },
    {
      "type": "VEC3",
      "componentType": 5126,
      "count": 79,
      "bufferView": 0,
      "byteOffset": 388
    },
    {
      "type": "SCALAR",
      "componentType": 5126,
      "count": 1,
      "max": [
        0
      ],
      "min": [
        0
      ]
    },
    {
      "type": "SCALAR",
      "componentType": 5123,
      "count": 36,
      "bufferView": 1,
      "byteOffset": 0
    },
    {
      "type": "SCALAR",
      "componentType": 5123,
      "count": 36,
      "bufferView": 1,
      "byteOffset": 72
    },
    {
      "type": "VEC3",
      "componentType": 5126,
      "count": 24,
      "max": [
        0.09375,
        0.03750000149011612,
        0.11249999701976776
      ],
      "min": [
        -0.09375,
        -0.03750000149011612,
        -0.07500000298023224
      ],
      "bufferView": 2,
      "byteOffset": 0
    },
    {
      "type": "VEC3",
      "componentType": 5126,
      "count": 24,
      "bufferView": 2,
      "byteOffset": 12
    },
    {
      "type": "VEC2",
      "componentType": 5126,
      "count": 24,
      "bufferView": 2,
      "byteOffset": 24
    },
    {
      "type": "VEC3",
      "componentType": 5126,
      "count": 24,
      "max": [
        0.09375,
        0.03750000149011612,
        0.09375
      ],
      "min": [
        -0.09375,
        -0.03750000149011612,
        -0.09375
      ],
      "bufferView": 3,
      "byteOffset": 0
    },
    {
      "type": "VEC3",
      "componentType": 5126,
      "count": 24,
      "bufferView": 3,
      "byteOffset": 12
    },
    {
      "type": "VEC2",
      "componentType": 5126,
      "count": 24,
      "bufferView": 3,
      "byteOffset": 24
    }
  ],
  "bufferViews": [
    {
      "buffer": 0,
      "byteOffset": 0,
      "byteLength": 1336
    },
    {
      "buffer": 0,
      "byteOffset": 1336,
      "byteLength": 144,
      "target": 34963
    },
    {
      "buffer": 0,
      "byteOffset": 1480,
      "byteLength": 768,
      "byteStride": 32,
      "target": 34962
    },
    {
      "buffer": 0,
      "byteOffset": 2248,
      "byteLength": 768,
      "byteStride": 32,
      "target": 34962
    }
  ],
  "samplers": [
    {
      "magFilter": 9728,
      "minFilter": 9728,
      "wrapS": 33071,
      "wrapT": 33071
    }
  ],
  "textures": [
    {
      "source": 0,
      "sampler": 0
    }
  ],
  "images": [
    {
      "mimeType": "image/png",
      "uri": "baseColor.png"
    }
  ],
  "buffers": [
    {
      "uri": "coin-stack-named-nodes.bin",
      "byteLength": 3016
    }
  ],
  "materials": [
    {
      "alphaMode": "MASK",
      "alphaCutoff": 0.05,
      "doubleSided": true,
      "pbrMetallicRoughness": {
        "metallicFactor": 0,
        "baseColorTexture": {
          "index": 0
        }
      }
    }
  ],
  "meshes": [
    {
      "primitives": [
        {
          "attributes": {
            "POSITION": 8,
            "NORMAL": 9,
            "TEXCOORD_0": 10
          },
          "mode": 4,
          "material": 0,
          "indices": 6
        }
      ]
    },
    {
      "primitives": [
        {
          "attributes": {
            "POSITION": 11,
            "NORMAL": 12,
            "TEXCOORD_0": 13
          },
          "mode": 4,
          "material": 0,
          "indices": 7
        }
      ]
    }
  ],
  "nodes": [
    {
      "name": "cube",
      "translation": [
        0.0375,
        -0.03562499999999999,
        0.0375
      ],
      "mesh": 0
    },
    {
      "name": "cube",
      "translation": [
        0.0375,
        0.114375,
        0.0375
      ],
      "mesh": 0
    },
    {
      "name": "cube",
      "translation": [
        0.0375,
        0.03937500000000002,
        0.0375
      ],
      "mesh": 0
    },
    {
      "name": "cube",
      "translation": [
        -0.15,
        -0.03562499999999999,
        0.0375
      ],
      "mesh": 0
    },
    {
      "name": "cube",
      "translation": [
        0.0375,
        -0.03562499999999999,
        -0.15
      ],
      "mesh": 0
    },
    {
      "name": "cube",
      "translation": [
        0.0375,
        0.03937500000000002,
        -0.15
      ],
      "mesh": 0
    },
    {
      "name": "cube",
      "translation": [
        0.0375,
        0.189375,
        0.0375
      ],
      "mesh": 0
    },
    {
      "name": "cube",
      "translation": [
        -0.15,
        -0.09187499999999998,
        0.05625
      ],
      "rotation": [
        0,
        0,
        -1,
        6.123233995736766e-17
      ],
      "mesh": 1
    },
    {
      "name": "cube",
      "translation": [
        0.0375,
        -0.09187499999999998,
        0.05625
      ],
      "rotation": [
        0,
        0,
        -1,
        6.123233995736766e-17
      ],
      "mesh": 1
    },
    {
      "name": "cube",
      "translation": [
        0.0375,
        -0.09187499999999998,
        -0.13125
      ],
      "rotation": [
        0,
        0,
        -1,
        6.123233995736766e-17
      ],
      "mesh": 1
    },
    {
      "name": "bone",
      "children": [
        0,
        1,
        2,
        3,
        4,
        5,
        6,
        7,
        8,
        9
      ]
    },
    {
      "name": "coin",
      "translation": [
        -0.0375,
        0.129375,
        0.00625
      ],
      "children": [
        10
      ]
    },
    {
      "children": [
        11
      ]
    }
  ],
  "animations": [
    {
      "name": "idle",
      "samplers": [
        {
          "input": 0,
          "output": 1,
          "interpolation": "LINEAR"
        },
        {
          "input": 3,
          "output": 4,
          "interpolation": "LINEAR"
        },
        {
          "input": 5,
          "output": 2,
          "interpolation": "LINEAR"
        }
      ],
      "channels": [
        {
          "sampler": 0,
          "target": {
            "node": 11,
            "path": "rotation"
          }
        },
        {
          "sampler": 1,
          "target": {
            "node": 11,
            "path": "translation"
          }
        },
        {
          "sampler": 2,
          "target": {
            "node": 10,
            "path": "translation"
          }
        }
      ]
    }
  ],
  "scenes": [
    {
      "name": "blockbench_export",
      "nodes": [
        12
      ]
    }
  ],
  "scene": 0
}