{"asset":{"version":"2.0","generator":"Blockbench 4.11.1 glTF exporter"},"scenes":[{"nodes":[3],"name":"hytopia-gltf-splitter"}],"scene":0,"nodes":[{"translation":[0,-2.8125,0.0625],"name":"head_cosmetic","children":[1,2]},{"name":"6d41b234-8e89-2e83-fe5b-62556d44fbd5"},{"translation":[-0.3125,1.46875,-0.046875],"name":"tv","mesh":0},{"children":[0]}],"bufferViews":[{"buffer":0,"byteOffset":0,"byteLength":1776,"target":34962,"byteStride":12},{"buffer":1,"byteOffset":0,"byteLength":1776,"target":34962,"byteStride":12},{"buffer":2,"byteOffset":0,"byteLength":1184,"target":34962,"byteStride":8},{"buffer":3,"byteOffset":0,"byteLength":444,"target":34963}],"buffers":[{"byteLength":1776,"uri":"data:application/octet-stream;base64,"},{"byteLength":1776,"uri":"data:application/octet-stream;base64,"},{"byteLength":1184,"uri":"data:application/octet-stream;base64,"},{"byteLength":444,"uri":"data:application/octet-stream;base64,"}],"accessors":[{"bufferView":0,"componentType":5126,"count":148,"max":[0.921875,1.759374976158142,0.4466429650783539],"min":[-0.296875,0.4283926784992218,-0.546875],"type":"VEC3"},{"bufferView":1,"componentType":5126,"count":148,"max":[1,1,1],"min":[-1,-1,-1],"type":"VEC3"},{"bufferView":2,"componentType":5126,"count":148,"max":[0.65625,0.5625],"min":[0,0],"type":"VEC2"},{"bufferView":3,"componentType":5123,"count":222,"max":[147],"min":[0],"type":"SCALAR"}],"materials":[{"pbrMetallicRoughness":{"metallicFactor":0,"roughnessFactor":1},"alphaMode":"MASK","alphaCutoff":0.05,"doubleSided":true},{"pbrMetallicRoughness":{"metallicFactor":0,"roughnessFactor":1,"baseColorTexture":{"index":0}},"alphaMode":"MASK","alphaCutoff":0.05,"doubleSided":true},{"pbrMetallicRoughness":{"metallicFactor":0,"roughnessFactor":1,"baseColorTexture":{"index":1}},"alphaMode":"MASK","alphaCutoff":0.05,"doubleSided":true}],"meshes":[{"primitives":[{"mode":4,"attributes":{"POSITION":0,"NORMAL":1,"TEXCOORD_0":2},"indices":3,"material":1}]}],"textures":[{"sampler":0,"source":0,"name":"pasted.png"},{"sampler":1,"source":1}],"samplers":[{"magFilter":9728,"minFilter":9728,"wrapS":33071,"wrapT":33071},{"magFilter":9728,"minFilter":9728,"wrapS":33071,"wrapT":33071}],"images":[{"mimeType":"image/png","uri":"data:image/png;base64,"},{"mimeType":"image/png","uri":"data:image/png;base64,"}]}