{"asset":{"version":"2.0","generator":"Blockbench 4.11.1 glTF exporter"},"scenes":[{"nodes":[5],"name":"blockbench_export"}],"scene":0,"nodes":[{"translation":[0.5,1,-0.1875],"name":"hand_right_weapon_anchor","mesh":0},{"rotation":[0,0,0.7071067811865475,0.7071067811865476],"translation":[0.5625,0.875,-0.375],"name":"nice_sword_cosmetic","mesh":1},{"rotation":[0,0,0.7071067811865475,0.7071067811865476],"translation":[0.5625,0.875,-0.375],"name":"sword_hilt","mesh":2},{"rotation":[0,0,0.7071067811865475,0.7071067811865476],"translation":[0.5625,0.875,-0.375],"name":"another_sword_piece","mesh":3},{"name":"weapon","children":[0,1,2,3]},{"children":[4]}],"bufferViews":[{"buffer":0,"byteOffset":0,"byteLength":288,"target":34962,"byteStride":12},{"buffer":0,"byteOffset":288,"byteLength":288,"target":34962,"byteStride":12},{"buffer":0,"byteOffset":576,"byteLength":192,"target":34962,"byteStride":8},{"buffer":0,"byteOffset":768,"byteLength":72,"target":34963},{"buffer":0,"byteOffset":840,"byteLength":576,"target":34962,"byteStride":12},{"buffer":0,"byteOffset":1416,"byteLength":576,"target":34962,"byteStride":12},{"buffer":0,"byteOffset":1992,"byteLength":384,"target":34962,"byteStride":8},{"buffer":0,"byteOffset":2376,"byteLength":144,"target":34963},{"buffer":0,"byteOffset":2520,"byteLength":576,"target":34962,"byteStride":12},{"buffer":0,"byteOffset":3096,"byteLength":576,"target":34962,"byteStride":12},{"buffer":0,"byteOffset":3672,"byteLength":384,"target":34962,"byteStride":8},{"buffer":0,"byteOffset":4056,"byteLength":144,"target":34963},{"buffer":0,"byteOffset":4200,"byteLength":576,"target":34962,"byteStride":12},{"buffer":0,"byteOffset":4776,"byteLength":576,"target":34962,"byteStride":12},{"buffer":0,"byteOffset":5352,"byteLength":384,"target":34962,"byteStride":8},{"buffer":0,"byteOffset":5736,"byteLength":144,"target":34963}],"buffers":[{"byteLength":5880,"uri":"data:application/octet-stream;base64,"}],"accessors":[{"bufferView":0,"componentType":5126,"count":24,"max":[0.0625,0.125,0.0625],"min":[-0.0625,0,-0.0625],"type":"VEC3"},{"bufferView":1,"componentType":5126,"count":24,"max":[1,1,1],"min":[-1,-1,-1],"type":"VEC3"},{"bufferView":2,"componentType":5126,"count":24,"max":[0.124755859375,0.062255859375],"min":[0.000244140625,0.000244140625],"type":"VEC2"},{"bufferView":3,"componentType":5123,"count":36,"max":[23],"min":[0],"type":"SCALAR"},{"bufferView":4,"componentType":5126,"count":48,"max":[0.4375,0.125,0.75],"min":[-0.0625,0,-0.8125],"type":"VEC3"},{"bufferView":5,"componentType":5126,"count":48,"max":[1,1,1],"min":[-1,-1,-1],"type":"VEC3"},{"bufferView":6,"componentType":5126,"count":48,"max":[0.484375,0.0625],"min":[-0.359375,-0.359375],"type":"VEC2"},{"bufferView":7,"componentType":5123,"count":72,"max":[47],"min":[0],"type":"SCALAR"},{"bufferView":8,"componentType":5126,"count":48,"max":[0.4375,0.125,0.75],"min":[-0.0625,0,-0.8125],"type":"VEC3"},{"bufferView":9,"componentType":5126,"count":48,"max":[1,1,1],"min":[-1,-1,-1],"type":"VEC3"},{"bufferView":10,"componentType":5126,"count":48,"max":[0.484375,0.0625],"min":[-0.359375,-0.359375],"type":"VEC2"},{"bufferView":11,"componentType":5123,"count":72,"max":[47],"min":[0],"type":"SCALAR"},{"bufferView":12,"componentType":5126,"count":48,"max":[0.4375,0.125,0.75],"min":[-0.0625,0,-0.8125],"type":"VEC3"},{"bufferView":13,"componentType":5126,"count":48,"max":[1,1,1],"min":[-1,-1,-1],"type":"VEC3"},{"bufferView":14,"componentType":5126,"count":48,"max":[0.484375,0.0625],"min":[-0.359375,-0.359375],"type":"VEC2"},{"bufferView":15,"componentType":5123,"count":72,"max":[47],"min":[0],"type":"SCALAR"}],"materials":[{"pbrMetallicRoughness":{"metallicFactor":0,"roughnessFactor":1},"alphaMode":"MASK","alphaCutoff":0.05,"doubleSided":true}],"meshes":[{"primitives":[{"mode":4,"attributes":{"POSITION":0,"NORMAL":1,"TEXCOORD_0":2},"indices":3,"material":0}]},{"primitives":[{"mode":4,"attributes":{"POSITION":4,"NORMAL":5,"TEXCOORD_0":6},"indices":7,"material":0}]},{"primitives":[{"mode":4,"attributes":{"POSITION":8,"NORMAL":9,"TEXCOORD_0":10},"indices":11,"material":0}]},{"primitives":[{"mode":4,"attributes":{"POSITION":12,"NORMAL":13,"TEXCOORD_0":14},"indices":15,"material":0}]}]}