{"asset":{"version":"2.0","generator":"Blockbench 4.12.6 glTF exporter"},"scenes":[{"nodes":[1],"name":"blockbench_export"}],"scene":0,"nodes":[{"translation":[-0.4375,0.5,0],"name":"cube","mesh":0},{"children":[0]}],"bufferViews":[{"buffer":0,"byteOffset":0,"byteLength":528,"target":34962,"byteStride":12},{"buffer":0,"byteOffset":528,"byteLength":528,"target":34962,"byteStride":12},{"buffer":0,"byteOffset":1056,"byteLength":352,"target":34962,"byteStride":8},{"buffer":0,"byteOffset":1408,"byteLength":48,"target":34963},{"buffer":0,"byteOffset":1456,"byteLength":36,"target":34963},{"buffer":0,"byteOffset":1492,"byteLength":48,"target":34963}],"buffers":[{"byteLength":1540,"uri":"data:application/octet-stream;base64,"}],"accessors":[{"bufferView":0,"componentType":5126,"count":44,"max":[0.9375,0.5,0.5],"min":[-0.0625,-0.5,-0.5],"type":"VEC3"},{"bufferView":1,"componentType":5126,"count":44,"max":[1,1,1],"min":[-1,-1,-1],"type":"VEC3"},{"bufferView":2,"componentType":5126,"count":44,"max":[0.75,0.75],"min":[0,0],"type":"VEC2"},{"bufferView":3,"componentType":5123,"count":24,"max":[15],"min":[0],"type":"SCALAR"},{"bufferView":4,"componentType":5123,"count":18,"max":[27],"min":[16],"type":"SCALAR"},{"bufferView":5,"componentType":5123,"count":24,"max":[43],"min":[28],"type":"SCALAR"}],"materials":[{"pbrMetallicRoughness":{"metallicFactor":0,"roughnessFactor":1,"baseColorTexture":{"index":0}},"alphaMode":"MASK","alphaCutoff":0.05,"doubleSided":true},{"pbrMetallicRoughness":{"metallicFactor":0,"roughnessFactor":1,"baseColorTexture":{"index":1}},"alphaMode":"MASK","alphaCutoff":0.05,"doubleSided":true}],"textures":[{"sampler":0,"source":0},{"sampler":1,"source":1}],"samplers":[{"magFilter":9728,"minFilter":9728,"wrapS":33071,"wrapT":33071},{"magFilter":9728,"minFilter":9728,"wrapS":33071,"wrapT":33071}],"images":[{"mimeType":"image/png","uri":"data:image/png;base64,"},{"mimeType":"image/png","uri":"data:image/png;base64,"}],"meshes":[{"primitives":[{"mode":4,"attributes":{"POSITION":0,"NORMAL":1,"TEXCOORD_0":2},"indices":3,"material":0},{"mode":4,"attributes":{"POSITION":0,"NORMAL":1,"TEXCOORD_0":2},"indices":4,"material":1},{"mode":4,"attributes":{"POSITION":0,"NORMAL":1,"TEXCOORD_0":2},"indices":5,"material":0}]}]}