{
  "asset": {
    "generator": "glTF-Transform v4.2.1",
    "version": "2.0"
  },
  "accessors": [
    {
      "type": "SCALAR",
      "componentType": 5126,
      "count": 46,
      "max": [
        1
      ],
      "min": [
        0
      ],
      "bufferView": 0,
      "byteOffset": 0
    },
    {
      "type": "VEC4",
      "componentType": 5126,
      "count": 46,
      "bufferView": 0,
      "byteOffset": 184
    },
    {
      "type": "SCALAR",
      "componentType": 5126,
      "count": 103,
      "max": [
        6
      ],
      "min": [
        0
      ],
      "bufferView": 0,
      "byteOffset": 920
    },
    {
      "type": "VEC4",
      "componentType": 5126,
      "count": 103,
      "bufferView": 0,
      "byteOffset": 1332
    },
    {
      "type": "SCALAR",
      "componentType": 5126,
      "count": 111,
      "max": [
        6
      ],
      "min": [
        0
      ],
      "bufferView": 0,
      "byteOffset": 2980
    },
    {
      "type": "VEC3",
      "componentType": 5126,
      "count": 111,
      "bufferView": 0,
      "byteOffset": 3424
    },
    {
      "type": "SCALAR",
      "componentType": 5126,
      "count": 195,
      "max": [
        6
      ],
      "min": [
        0
      ],
      "bufferView": 0,
      "byteOffset": 4756
    },
    {
      "type": "VEC4",
      "componentType": 5126,
      "count": 195,
      "bufferView": 0,
      "byteOffset": 5536
    },
    {
      "type": "VEC4",
      "componentType": 5126,
      "count": 195,
      "bufferView": 0,
      "byteOffset": 8656
    },
    {
      "type": "SCALAR",
      "componentType": 5126,
      "count": 112,
      "max": [
        4.708330154418945
      ],
      "min": [
        0
      ],
      "bufferView": 0,
      "byteOffset": 11776
    },
    {
      "type": "VEC4",
      "componentType": 5126,
      "count": 112,
      "bufferView": 0,
      "byteOffset": 12224
    },
    {
      "type": "SCALAR",
      "componentType": 5126,
      "count": 67,
      "max": [
        6
      ],
      "min": [
        0
      ],
      "bufferView": 0,
      "byteOffset": 14016
    },
    {
      "type": "VEC4",
      "componentType": 5126,
      "count": 67,
      "bufferView": 0,
      "byteOffset": 14284
    },
    {
      "type": "SCALAR",
      "componentType": 5126,
      "count": 166,
      "max": [
        6
      ],
      "min": [
        0
      ],
      "bufferView": 0,
      "byteOffset": 15356
    },
    {
      "type": "VEC4",
      "componentType": 5126,
      "count": 166,
      "bufferView": 0,
      "byteOffset": 16020
    },
    {
      "type": "VEC4",
      "componentType": 5126,
      "count": 67,
      "bufferView": 0,
      "byteOffset": 18676
    },
    {
      "type": "SCALAR",
      "componentType": 5126,
      "count": 44,
      "max": [
        1
      ],
      "min": [
        0
      ],
      "bufferView": 0,
      "byteOffset": 19748
    },
    {
      "type": "VEC4",
      "componentType": 5126,
      "count": 44,
      "bufferView": 0,
      "byteOffset": 19924
    },
    {
      "type": "VEC4",
      "componentType": 5126,
      "count": 44,
      "bufferView": 0,
      "byteOffset": 20628
    },
    {
      "type": "SCALAR",
      "componentType": 5126,
      "count": 43,
      "max": [
        1
      ],
      "min": [
        0
      ],
      "bufferView": 0,
      "byteOffset": 21332
    },
    {
      "type": "VEC4",
      "componentType": 5126,
      "count": 43,
      "bufferView": 0,
      "byteOffset": 21504
    },
    {
      "type": "VEC4",
      "componentType": 5126,
      "count": 43,
      "bufferView": 0,
      "byteOffset": 22192
    },
    {
      "type": "SCALAR",
      "componentType": 5126,
      "count": 44,
      "max": [
        1
      ],
      "min": [
        0
      ],
      "bufferView": 0,
      "byteOffset": 22880
    },
    {
      "type": "VEC4",
      "componentType": 5126,
      "count": 44,
      "bufferView": 0,
      "byteOffset": 23056
    },
    {
      "type": "VEC4",
      "componentType": 5126,
      "count": 43,
      "bufferView": 0,
      "byteOffset": 23760
    },
    {
      "type": "SCALAR",
      "componentType": 5123,
      "count": 36,
      "bufferView": 1,
      "byteOffset": 0
    },
    {
      "type": "SCALAR",
      "componentType": 5123,
      "count": 30,
      "bufferView": 1,
      "byteOffset": 72
    },
    {
      "type": "SCALAR",
      "componentType": 5123,
      "count": 30,
      "bufferView": 1,
      "byteOffset": 132
    },
    {
      "type": "SCALAR",
      "componentType": 5123,
      "count": 30,
      "bufferView": 1,
      "byteOffset": 192
    },
    {
      "type": "SCALAR",
      "componentType": 5123,
      "count": 66,
      "bufferView": 1,
      "byteOffset": 252
    },
    {
      "type": "VEC3",
      "componentType": 5126,
      "count": 24,
      "max": [
        0.09375,
        0.25,
        0.4375
      ],
      "min": [
        -0.09375,
        -0.0625,
        -0.125
      ],
      "bufferView": 2,
      "byteOffset": 0
    },
    {
      "type": "VEC3",
      "componentType": 5126,
      "count": 24,
      "bufferView": 2,
      "byteOffset": 12
    },
    {
      "type": "VEC2",
      "componentType": 5126,
      "count": 24,
      "bufferView": 2,
      "byteOffset": 24
    },
    {
      "type": "VEC3",
      "componentType": 5126,
      "count": 15,
      "max": [
        0.09375,
        0.125,
        0.25
      ],
      "min": [
        -0.09375,
        0.125,
        0
      ],
      "bufferView": 3,
      "byteOffset": 0
    },
    {
      "type": "VEC3",
      "componentType": 5126,
      "count": 15,
      "bufferView": 3,
      "byteOffset": 12
    },
    {
      "type": "VEC2",
      "componentType": 5126,
      "count": 15,
      "bufferView": 3,
      "byteOffset": 24
    },
    {
      "type": "VEC3",
      "componentType": 5126,
      "count": 15,
      "max": [
        0.09375,
        0.125,
        0.25
      ],
      "min": [
        -0.09375,
        0.125,
        0
      ],
      "bufferView": 4,
      "byteOffset": 0
    },
    {
      "type": "VEC2",
      "componentType": 5126,
      "count": 15,
      "bufferView": 4,
      "byteOffset": 12
    },
    {
      "type": "VEC3",
      "componentType": 5126,
      "count": 14,
      "max": [
        0,
        0.125,
        0.3125
      ],
      "min": [
        0,
        0,
        0.0625
      ],
      "bufferView": 5,
      "byteOffset": 0
    },
    {
      "type": "VEC3",
      "componentType": 5126,
      "count": 14,
      "bufferView": 5,
      "byteOffset": 12
    },
    {
      "type": "VEC2",
      "componentType": 5126,
      "count": 14,
      "bufferView": 5,
      "byteOffset": 24
    },
    {
      "type": "VEC3",
      "componentType": 5126,
      "count": 14,
      "max": [
        0,
        0,
        0.3125
      ],
      "min": [
        0,
        -0.125,
        0.0625
      ],
      "bufferView": 6,
      "byteOffset": 0
    },
    {
      "type": "VEC2",
      "componentType": 5126,
      "count": 14,
      "bufferView": 6,
      "byteOffset": 12
    },
    {
      "type": "VEC3",
      "componentType": 5126,
      "count": 38,
      "max": [
        0.046875,
        0.1875,
        0.1875
      ],
      "min": [
        -0.046875,
        -0.1875,
        -0.0625
      ],
      "bufferView": 7,
      "byteOffset": 0
    },
    {
      "type": "VEC2",
      "componentType": 5126,
      "count": 38,
      "bufferView": 7,
      "byteOffset": 12
    },
    {
      "type": "VEC3",
      "componentType": 5126,
      "count": 38,
      "bufferView": 7,
      "byteOffset": 20
    },
    {
      "type": "VEC3",
      "componentType": 5126,
      "count": 24,
      "max": [
        0.0625,
        0.203125,
        0.3125
      ],
      "min": [
        -0.0625,
        -0.015625,
        0.1875
      ],
      "bufferView": 8,
      "byteOffset": 0
    },
    {
      "type": "VEC2",
      "componentType": 5126,
      "count": 24,
      "bufferView": 8,
      "byteOffset": 12
    }
  ],
  "bufferViews": [
    {
      "buffer": 0,
      "byteOffset": 0,
      "byteLength": 24448
    },
    {
      "buffer": 0,
      "byteOffset": 24448,
      "byteLength": 384,
      "target": 34963
    },
    {
      "buffer": 0,
      "byteOffset": 24832,
      "byteLength": 768,
      "byteStride": 32,
      "target": 34962
    },
    {
      "buffer": 0,
      "byteOffset": 25600,
      "byteLength": 480,
      "byteStride": 32,
      "target": 34962
    },
    {
      "buffer": 0,
      "byteOffset": 26080,
      "byteLength": 300,
      "byteStride": 20,
      "target": 34962
    },
    {
      "buffer": 0,
      "byteOffset": 26380,
      "byteLength": 448,
      "byteStride": 32,
      "target": 34962
    },
    {
      "buffer": 0,
      "byteOffset": 26828,
      "byteLength": 280,
      "byteStride": 20,
      "target": 34962
    },
    {
      "buffer": 0,
      "byteOffset": 27108,
      "byteLength": 1216,
      "byteStride": 32,
      "target": 34962
    },
    {
      "buffer": 0,
      "byteOffset": 28324,
      "byteLength": 480,
      "byteStride": 20,
      "target": 34962
    }
  ],
  "samplers": [
    {
      "magFilter": 9728,
      "minFilter": 9728,
      "wrapS": 33071,
      "wrapT": 33071
    }
  ],
  "textures": [
    {
      "source": 0,
      "sampler": 0
    }
  ],
  "images": [
    {
      "mimeType": "image/png",
      "uri": "baseColor.png"
    }
  ],
  "buffers": [
    {
      "uri": "clownfish.bin",
      "byteLength": 28804
    }
  ],
  "materials": [
    {
      "alphaMode": "MASK",
      "alphaCutoff": 0.05,
      "doubleSided": true,
      "pbrMetallicRoughness": {
        "metallicFactor": 0,
        "baseColorTexture": {
          "index": 0
        }
      }
    }
  ],
  "meshes": [
    {
      "primitives": [
        {
          "attributes": {
            "POSITION": 30,
            "NORMAL": 31,
            "TEXCOORD_0": 32
          },
          "mode": 4,
          "material": 0,
          "indices": 25
        }
      ]
    },
    {
      "primitives": [
        {
          "attributes": {
            "POSITION": 33,
            "NORMAL": 34,
            "TEXCOORD_0": 35
          },
          "mode": 4,
          "material": 0,
          "indices": 26
        }
      ]
    },
    {
      "primitives": [
        {
          "attributes": {
            "POSITION": 36,
            "TEXCOORD_0": 37,
            "NORMAL": 34
          },
          "mode": 4,
          "material": 0,
          "indices": 27
        }
      ]
    },
    {
      "primitives": [
        {
          "attributes": {
            "POSITION": 38,
            "NORMAL": 39,
            "TEXCOORD_0": 40
          },
          "mode": 4,
          "material": 0,
          "indices": 28
        }
      ]
    },
    {
      "primitives": [
        {
          "attributes": {
            "POSITION": 41,
            "TEXCOORD_0": 42,
            "NORMAL": 39
          },
          "mode": 4,
          "material": 0,
          "indices": 28
        }
      ]
    },
    {
      "primitives": [
        {
          "attributes": {
            "POSITION": 43,
            "TEXCOORD_0": 44,
            "NORMAL": 45
          },
          "mode": 4,
          "material": 0,
          "indices": 29
        }
      ]
    },
    {
      "primitives": [
        {
          "attributes": {
            "POSITION": 46,
            "TEXCOORD_0": 47,
            "NORMAL": 31
          },
          "mode": 4,
          "material": 0,
          "indices": 25
        }
      ]
    }
  ],
  "nodes": [
    {
      "name": "cube",
      "translation": [
        0,
        -0.09375,
        -0.15625
      ],
      "mesh": 0
    },
    {
      "name": "cube",
      "translation": [
        -0.09375,
        -0.125,
        -0.125
      ],
      "mesh": 1
    },
    {
      "name": "fin",
      "translation": [
        -0.09375,
        0.03125,
        -0.09375
      ],
      "children": [
        1
      ]
    },
    {
      "name": "cube",
      "translation": [
        0.09375,
        -0.125,
        -0.125
      ],
      "mesh": 2
    },
    {
      "name": "fin2",
      "translation": [
        0.09375,
        0.03125,
        -0.09375
      ],
      "children": [
        3
      ]
    },
    {
      "name": "cube",
      "translation": [
        0,
        0,
        -0.1875
      ],
      "mesh": 3
    },
    {
      "name": "top_fin",
      "translation": [
        0,
        0.15625,
        -0.03125
      ],
      "children": [
        5
      ]
    },
    {
      "name": "cube",
      "translation": [
        0,
        0,
        -0.1875
      ],
      "mesh": 4
    },
    {
      "name": "bottom_fin",
      "translation": [
        0,
        -0.15625,
        0.03125
      ],
      "children": [
        7
      ]
    },
    {
      "name": "cube",
      "translation": [
        0,
        0,
        0.0625
      ],
      "mesh": 5
    },
    {
      "name": "tail",
      "translation": [
        0,
        0,
        0.28125
      ],
      "children": [
        9
      ]
    },
    {
      "name": "cube",
      "translation": [
        0,
        -0.09375,
        -0.375
      ],
      "mesh": 6
    },
    {
      "name": "head",
      "translation": [
        0,
        0,
        -0.21875
      ],
      "children": [
        11
      ]
    },
    {
      "name": "clownfish",
      "translation": [
        0,
        0.21875,
        -0.03125
      ],
      "children": [
        0,
        2,
        4,
        6,
        8,
        10,
        12
      ]
    },
    {
      "children": [
        13
      ]
    }
  ],
  "animations": [
    {
      "name": "idle",
      "samplers": [
        {
          "input": 2,
          "output": 3,
          "interpolation": "LINEAR"
        },
        {
          "input": 4,
          "output": 5,
          "interpolation": "LINEAR"
        },
        {
          "input": 6,
          "output": 7,
          "interpolation": "LINEAR"
        },
        {
          "input": 6,
          "output": 8,
          "interpolation": "LINEAR"
        },
        {
          "input": 9,
          "output": 10,
          "interpolation": "LINEAR"
        },
        {
          "input": 11,
          "output": 12,
          "interpolation": "LINEAR"
        },
        {
          "input": 13,
          "output": 14,
          "interpolation": "LINEAR"
        },
        {
          "input": 11,
          "output": 15,
          "interpolation": "LINEAR"
        }
      ],
      "channels": [
        {
          "sampler": 0,
          "target": {
            "node": 13,
            "path": "rotation"
          }
        },
        {
          "sampler": 1,
          "target": {
            "node": 13,
            "path": "translation"
          }
        },
        {
          "sampler": 2,
          "target": {
            "node": 2,
            "path": "rotation"
          }
        },
        {
          "sampler": 3,
          "target": {
            "node": 4,
            "path": "rotation"
          }
        },
        {
          "sampler": 4,
          "target": {
            "node": 12,
            "path": "rotation"
          }
        },
        {
          "sampler": 5,
          "target": {
            "node": 6,
            "path": "rotation"
          }
        },
        {
          "sampler": 6,
          "target": {
            "node": 10,
            "path": "rotation"
          }
        },
        {
          "sampler": 7,
          "target": {
            "node": 8,
            "path": "rotation"
          }
        }
      ]
    },
    {
      "name": "walk",
      "samplers": [
        {
          "input": 0,
          "output": 1,
          "interpolation": "LINEAR"
        },
        {
          "input": 16,
          "output": 17,
          "interpolation": "LINEAR"
        },
        {
          "input": 16,
          "output": 18,
          "interpolation": "LINEAR"
        },
        {
          "input": 19,
          "output": 20,
          "interpolation": "LINEAR"
        },
        {
          "input": 19,
          "output": 21,
          "interpolation": "LINEAR"
        },
        {
          "input": 22,
          "output": 23,
          "interpolation": "LINEAR"
        },
        {
          "input": 19,
          "output": 24,
          "interpolation": "LINEAR"
        }
      ],
      "channels": [
        {
          "sampler": 0,
          "target": {
            "node": 13,
            "path": "rotation"
          }
        },
        {
          "sampler": 1,
          "target": {
            "node": 2,
            "path": "rotation"
          }
        },
        {
          "sampler": 2,
          "target": {
            "node": 4,
            "path": "rotation"
          }
        },
        {
          "sampler": 3,
          "target": {
            "node": 12,
            "path": "rotation"
          }
        },
        {
          "sampler": 4,
          "target": {
            "node": 6,
            "path": "rotation"
          }
        },
        {
          "sampler": 5,
          "target": {
            "node": 10,
            "path": "rotation"
          }
        },
        {
          "sampler": 6,
          "target": {
            "node": 8,
            "path": "rotation"
          }
        }
      ]
    }
  ],
  "scenes": [
    {
      "name": "blockbench_export",
      "nodes": [
        14
      ]
    }
  ],
  "scene": 0
}