{"asset":{"version":"2.0","generator":"Blockbench 5.0.7 glTF exporter"},"scenes":[{"nodes":[2],"name":"blockbench_export"}],"scene":0,"nodes":[{"translation":[0,0.2222825,0],"name":"Gem","mesh":0},{"name":"bone","children":[0]},{"translation":[0,0.175,0],"name":"coin","children":[1]}],"bufferViews":[{"buffer":0,"byteOffset":0,"byteLength":1728,"target":34962,"byteStride":12},{"buffer":0,"byteOffset":1728,"byteLength":1728,"target":34962,"byteStride":12},{"buffer":0,"byteOffset":3456,"byteLength":1152,"target":34962,"byteStride":8},{"buffer":0,"byteOffset":4608,"byteLength":288,"target":34963},{"buffer":0,"byteOffset":4896,"byteLength":12},{"buffer":0,"byteOffset":4908,"byteLength":48},{"buffer":0,"byteOffset":4956,"byteLength":456},{"buffer":0,"byteOffset":5412,"byteLength":1368},{"buffer":0,"byteOffset":6780,"byteLength":4},{"buffer":0,"byteOffset":6784,"byteLength":12}],"buffers":[{"byteLength":6796,"uri":"data:application/octet-stream;base64,"}],"accessors":[{"bufferView":0,"componentType":5126,"count":144,"max":[0.22279749810695648,0.39698249101638794,0.11347624659538269],"min":[-0.22279749810695648,-0.39698249101638794,-0.11347624659538269],"type":"VEC3"},{"bufferView":1,"componentType":5126,"count":144,"max":[0.7023521065711975,0.4928258955478668,1],"min":[-0.7023521065711975,-0.4928258955478668,-1],"type":"VEC3"},{"bufferView":2,"componentType":5126,"count":144,"max":[0.5851437449455261,0.8125531077384949],"min":[0,0],"type":"VEC2"},{"bufferView":3,"componentType":5123,"count":144,"max":[143],"min":[0],"type":"SCALAR"},{"bufferView":4,"componentType":5126,"count":3,"max":[3.25],"min":[0],"type":"SCALAR"},{"bufferView":5,"componentType":5126,"count":3,"max":[0,0,0,1],"min":[0,-0.9999904632568359,0,-0.9999619126319885],"type":"VEC4"},{"bufferView":6,"componentType":5126,"count":114,"max":[3.25],"min":[0],"type":"SCALAR"},{"bufferView":7,"componentType":5126,"count":114,"max":[0,0.20624524354934692,0],"min":[0,0.14377591013908386,0],"type":"VEC3"},{"bufferView":8,"componentType":5126,"count":1,"max":[0],"min":[0],"type":"SCALAR"},{"bufferView":9,"componentType":5126,"count":1,"max":[0,0.25,0],"min":[0,0.25,0],"type":"VEC3"}],"materials":[{"pbrMetallicRoughness":{"metallicFactor":0,"roughnessFactor":1,"baseColorTexture":{"index":0}},"alphaMode":"MASK","alphaCutoff":0.05}],"textures":[{"sampler":0,"source":0,"name":"gem-blue"}],"samplers":[{"magFilter":9728,"minFilter":9728,"wrapS":33071,"wrapT":33071}],"images":[{"mimeType":"image/png","uri":"data:image/png;base64,"}],"meshes":[{"primitives":[{"mode":4,"attributes":{"POSITION":0,"NORMAL":1,"TEXCOORD_0":2},"indices":3,"material":0}]}],"animations":[{"name":"idle","samplers":[{"input":4,"output":5,"interpolation":"LINEAR"},{"input":6,"output":7,"interpolation":"LINEAR"},{"input":8,"output":9,"interpolation":"LINEAR"}],"channels":[{"sampler":0,"target":{"node":2,"path":"rotation"}},{"sampler":1,"target":{"node":2,"path":"translation"}},{"sampler":2,"target":{"node":1,"path":"translation"}}]}]}