{"asset":{"version":"2.0","generator":"Blockbench 5.0.1 glTF exporter"},"scenes":[{"nodes":[12],"name":"blockbench_export"}],"scene":0,"nodes":[{"mesh":1},{"name":"cube","mesh":0,"children":[0]},{"mesh":3},{"translation":[0,0,0.09375],"name":"cube","mesh":2,"children":[2]},{"mesh":5},{"name":"cube","mesh":4,"children":[4]},{"rotation":[0,0,-0.10886687485196457,0.9940563382223196],"translation":[-0.15258385726140905,0.2523787646090223,0.046875],"name":"cube","mesh":6},{"rotation":[0,0,-0.10886687485196457,0.9940563382223196],"translation":[-0.15258385726140905,0.2523787646090223,0.046875],"name":"cube","mesh":7},{"rotation":[0,0,-0.10886687485196457,0.9940563382223196],"translation":[-0.15258385726140905,0.2523787646090223,0.046875],"name":"cube","mesh":8},{"rotation":[0,0,0.10886687485196457,0.9940563382223196],"translation":[0.15258385726140905,0.2523787646090223,0.046875],"name":"cube","mesh":9},{"rotation":[0,0,0.10886687485196457,0.9940563382223196],"translation":[0.15258385726140905,0.2523787646090223,0.046875],"name":"cube","mesh":10},{"rotation":[0,0,0.10886687485196457,0.9940563382223196],"translation":[0.15258385726140905,0.2523787646090223,0.046875],"name":"cube","mesh":11},{"translation":[0,0.25,0.328125],"name":"bells","children":[1,3,5,6,7,8,9,10,11]}],"bufferViews":[{"buffer":0,"byteOffset":0,"byteLength":240,"target":34962,"byteStride":12},{"buffer":0,"byteOffset":240,"byteLength":240,"target":34962,"byteStride":12},{"buffer":0,"byteOffset":480,"byteLength":160,"target":34962,"byteStride":8},{"buffer":0,"byteOffset":640,"byteLength":60,"target":34963},{"buffer":0,"byteOffset":700,"byteLength":96,"target":34962,"byteStride":12},{"buffer":0,"byteOffset":796,"byteLength":240,"target":34962,"byteStride":12},{"buffer":0,"byteOffset":1036,"byteLength":240,"target":34962,"byteStride":12},{"buffer":0,"byteOffset":1276,"byteLength":160,"target":34962,"byteStride":8},{"buffer":0,"byteOffset":1436,"byteLength":60,"target":34963},{"buffer":0,"byteOffset":1496,"byteLength":96,"target":34962,"byteStride":12},{"buffer":0,"byteOffset":1592,"byteLength":240,"target":34962,"byteStride":12},{"buffer":0,"byteOffset":1832,"byteLength":240,"target":34962,"byteStride":12},{"buffer":0,"byteOffset":2072,"byteLength":160,"target":34962,"byteStride":8},{"buffer":0,"byteOffset":2232,"byteLength":60,"target":34963},{"buffer":0,"byteOffset":2292,"byteLength":96,"target":34962,"byteStride":12},{"buffer":0,"byteOffset":2388,"byteLength":288,"target":34962,"byteStride":12},{"buffer":0,"byteOffset":2676,"byteLength":288,"target":34962,"byteStride":12},{"buffer":0,"byteOffset":2964,"byteLength":192,"target":34962,"byteStride":8},{"buffer":0,"byteOffset":3156,"byteLength":72,"target":34963},{"buffer":0,"byteOffset":3228,"byteLength":288,"target":34962,"byteStride":12},{"buffer":0,"byteOffset":3516,"byteLength":288,"target":34962,"byteStride":12},{"buffer":0,"byteOffset":3804,"byteLength":192,"target":34962,"byteStride":8},{"buffer":0,"byteOffset":3996,"byteLength":72,"target":34963},{"buffer":0,"byteOffset":4068,"byteLength":288,"target":34962,"byteStride":12},{"buffer":0,"byteOffset":4356,"byteLength":288,"target":34962,"byteStride":12},{"buffer":0,"byteOffset":4644,"byteLength":192,"target":34962,"byteStride":8},{"buffer":0,"byteOffset":4836,"byteLength":72,"target":34963},{"buffer":0,"byteOffset":4908,"byteLength":288,"target":34962,"byteStride":12},{"buffer":0,"byteOffset":5196,"byteLength":288,"target":34962,"byteStride":12},{"buffer":0,"byteOffset":5484,"byteLength":192,"target":34962,"byteStride":8},{"buffer":0,"byteOffset":5676,"byteLength":72,"target":34963},{"buffer":0,"byteOffset":5748,"byteLength":288,"target":34962,"byteStride":12},{"buffer":0,"byteOffset":6036,"byteLength":288,"target":34962,"byteStride":12},{"buffer":0,"byteOffset":6324,"byteLength":192,"target":34962,"byteStride":8},{"buffer":0,"byteOffset":6516,"byteLength":72,"target":34963},{"buffer":0,"byteOffset":6588,"byteLength":288,"target":34962,"byteStride":12},{"buffer":0,"byteOffset":6876,"byteLength":288,"target":34962,"byteStride":12},{"buffer":0,"byteOffset":7164,"byteLength":192,"target":34962,"byteStride":8},{"buffer":0,"byteOffset":7356,"byteLength":72,"target":34963}],"buffers":[{"byteLength":7428,"uri":"data:application/octet-stream;base64,"}],"accessors":[{"bufferView":0,"componentType":5126,"count":20,"max":[0.25,0.59375,-0.0625],"min":[-0.25,0.1875,-0.0625],"type":"VEC3"},{"bufferView":1,"componentType":5126,"count":20,"max":[1,0,0],"min":[0,0,-1],"type":"VEC3"},{"bufferView":2,"componentType":5126,"count":20,"max":[0.25,0.203125],"min":[0,0],"type":"VEC2"},{"bufferView":3,"componentType":5123,"count":30,"max":[19],"min":[0],"type":"SCALAR"},{"bufferView":4,"componentType":5126,"count":8,"max":[0.25,0.59375,-0.0625],"min":[-0.25,0.1875,-0.0625],"type":"VEC3"},{"bufferView":5,"componentType":5126,"count":20,"max":[0.25,0.59375,0.0625],"min":[-0.25,0.1875,0.0625],"type":"VEC3"},{"bufferView":6,"componentType":5126,"count":20,"max":[1,0,1],"min":[0,0,0],"type":"VEC3"},{"bufferView":7,"componentType":5126,"count":20,"max":[0.25,0.203125],"min":[0,0],"type":"VEC2"},{"bufferView":8,"componentType":5123,"count":30,"max":[19],"min":[0],"type":"SCALAR"},{"bufferView":9,"componentType":5126,"count":8,"max":[0.25,0.59375,0.0625],"min":[-0.25,0.1875,0.0625],"type":"VEC3"},{"bufferView":10,"componentType":5126,"count":20,"max":[0.25,0.59375,-0.0625],"min":[-0.25,0.1875,-0.0625],"type":"VEC3"},{"bufferView":11,"componentType":5126,"count":20,"max":[1,0,0],"min":[0,0,-1],"type":"VEC3"},{"bufferView":12,"componentType":5126,"count":20,"max":[0.25,0.203125],"min":[0,0],"type":"VEC2"},{"bufferView":13,"componentType":5123,"count":30,"max":[19],"min":[0],"type":"SCALAR"},{"bufferView":14,"componentType":5126,"count":8,"max":[0.25,0.59375,-0.0625],"min":[-0.25,0.1875,-0.0625],"type":"VEC3"},{"bufferView":15,"componentType":5126,"count":24,"max":[0.09375,0.25,0.09375],"min":[-0.09375,0,-0.09375],"type":"VEC3"},{"bufferView":16,"componentType":5126,"count":24,"max":[1,1,1],"min":[-1,-1,-1],"type":"VEC3"},{"bufferView":17,"componentType":5126,"count":24,"max":[0.46875,0.484375],"min":[0,0],"type":"VEC2"},{"bufferView":18,"componentType":5123,"count":36,"max":[23],"min":[0],"type":"SCALAR"},{"bufferView":19,"componentType":5126,"count":24,"max":[0.125,0,0.125],"min":[-0.125,-0.09375,-0.125],"type":"VEC3"},{"bufferView":20,"componentType":5126,"count":24,"max":[1,1,1],"min":[-1,-1,-1],"type":"VEC3"},{"bufferView":21,"componentType":5126,"count":24,"max":[0.515625,0.34375],"min":[0,0.109375],"type":"VEC2"},{"bufferView":22,"componentType":5123,"count":36,"max":[23],"min":[0],"type":"SCALAR"},{"bufferView":23,"componentType":5126,"count":24,"max":[0.03125,-0.09375,0.03125],"min":[-0.03125,-0.15625,-0.03125],"type":"VEC3"},{"bufferView":24,"componentType":5126,"count":24,"max":[1,1,1],"min":[-1,-1,-1],"type":"VEC3"},{"bufferView":25,"componentType":5126,"count":24,"max":[0.421875,0.453125],"min":[0.21875,0.359375],"type":"VEC2"},{"bufferView":26,"componentType":5123,"count":36,"max":[23],"min":[0],"type":"SCALAR"},{"bufferView":27,"componentType":5126,"count":24,"max":[0.09375,0.25,0.09375],"min":[-0.09375,0,-0.09375],"type":"VEC3"},{"bufferView":28,"componentType":5126,"count":24,"max":[1,1,1],"min":[-1,-1,-1],"type":"VEC3"},{"bufferView":29,"componentType":5126,"count":24,"max":[0.46875,0.484375],"min":[0,0],"type":"VEC2"},{"bufferView":30,"componentType":5123,"count":36,"max":[23],"min":[0],"type":"SCALAR"},{"bufferView":31,"componentType":5126,"count":24,"max":[0.125,0,0.125],"min":[-0.125,-0.09375,-0.125],"type":"VEC3"},{"bufferView":32,"componentType":5126,"count":24,"max":[1,1,1],"min":[-1,-1,-1],"type":"VEC3"},{"bufferView":33,"componentType":5126,"count":24,"max":[0.515625,0.34375],"min":[0,0.109375],"type":"VEC2"},{"bufferView":34,"componentType":5123,"count":36,"max":[23],"min":[0],"type":"SCALAR"},{"bufferView":35,"componentType":5126,"count":24,"max":[0.03125,-0.09375,0.03125],"min":[-0.03125,-0.15625,-0.03125],"type":"VEC3"},{"bufferView":36,"componentType":5126,"count":24,"max":[1,1,1],"min":[-1,-1,-1],"type":"VEC3"},{"bufferView":37,"componentType":5126,"count":24,"max":[0.421875,0.453125],"min":[0.21875,0.359375],"type":"VEC2"},{"bufferView":38,"componentType":5123,"count":36,"max":[23],"min":[0],"type":"SCALAR"}],"materials":[{"pbrMetallicRoughness":{"metallicFactor":0,"roughnessFactor":1,"baseColorTexture":{"index":0}},"alphaMode":"MASK","alphaCutoff":0.05,"doubleSided":true},{"pbrMetallicRoughness":{"metallicFactor":0,"roughnessFactor":1}}],"textures":[{"sampler":0,"source":0,"name":"bells"}],"samplers":[{"magFilter":9728,"minFilter":9728,"wrapS":33071,"wrapT":33071}],"images":[{"mimeType":"image/png","uri":"data:image/png;base64,"}],"meshes":[{"primitives":[{"mode":4,"attributes":{"POSITION":0,"NORMAL":1,"TEXCOORD_0":2},"indices":3,"material":0}]},{"primitives":[{"mode":0,"attributes":{"POSITION":4},"material":1}]},{"primitives":[{"mode":4,"attributes":{"POSITION":5,"NORMAL":6,"TEXCOORD_0":7},"indices":8,"material":0}]},{"primitives":[{"mode":0,"attributes":{"POSITION":9},"material":1}]},{"primitives":[{"mode":4,"attributes":{"POSITION":10,"NORMAL":11,"TEXCOORD_0":12},"indices":13,"material":0}]},{"primitives":[{"mode":0,"attributes":{"POSITION":14},"material":1}]},{"primitives":[{"mode":4,"attributes":{"POSITION":15,"NORMAL":16,"TEXCOORD_0":17},"indices":18,"material":0}]},{"primitives":[{"mode":4,"attributes":{"POSITION":19,"NORMAL":20,"TEXCOORD_0":21},"indices":22,"material":0}]},{"primitives":[{"mode":4,"attributes":{"POSITION":23,"NORMAL":24,"TEXCOORD_0":25},"indices":26,"material":0}]},{"primitives":[{"mode":4,"attributes":{"POSITION":27,"NORMAL":28,"TEXCOORD_0":29},"indices":30,"material":0}]},{"primitives":[{"mode":4,"attributes":{"POSITION":31,"NORMAL":32,"TEXCOORD_0":33},"indices":34,"material":0}]},{"primitives":[{"mode":4,"attributes":{"POSITION":35,"NORMAL":36,"TEXCOORD_0":37},"indices":38,"material":0}]}]}