{"asset":{"version":"2.0","generator":"Blockbench 5.0.1 glTF exporter"},"scenes":[{"nodes":[7],"name":"blockbench_export"}],"scene":0,"nodes":[{"mesh":1},{"rotation":[0.19509032201612825,0,0,0.9807852804032304],"translation":[0,-0.09375,-0.0625],"name":"cube","mesh":0,"children":[0]},{"mesh":3},{"rotation":[-0.19509032201612825,0,0,0.9807852804032304],"translation":[0,0.7723870617293311,-0.2538417161825448],"name":"cube","mesh":2,"children":[2]},{"rotation":[0.19134171618254486,0.03806023374435662,0.19134171618254486,0.9619397662556434],"translation":[0.40625,-0.0625,-0.03125],"name":"cube","mesh":4},{"rotation":[0.1934212972666522,-0.02546439687174874,-0.25384590972457316,0.9473658323856458],"translation":[-0.286188601892129,-0.09928688558959642,0.06012123539097769],"name":"cube","mesh":5},{"name":"cone","children":[4,5]},{"translation":[0,0.5625,0.375],"name":"christmas_leafs","children":[1,3,6]}],"bufferViews":[{"buffer":0,"byteOffset":0,"byteLength":240,"target":34962,"byteStride":12},{"buffer":0,"byteOffset":240,"byteLength":240,"target":34962,"byteStride":12},{"buffer":0,"byteOffset":480,"byteLength":160,"target":34962,"byteStride":8},{"buffer":0,"byteOffset":640,"byteLength":60,"target":34963},{"buffer":0,"byteOffset":700,"byteLength":96,"target":34962,"byteStride":12},{"buffer":0,"byteOffset":796,"byteLength":240,"target":34962,"byteStride":12},{"buffer":0,"byteOffset":1036,"byteLength":240,"target":34962,"byteStride":12},{"buffer":0,"byteOffset":1276,"byteLength":160,"target":34962,"byteStride":8},{"buffer":0,"byteOffset":1436,"byteLength":60,"target":34963},{"buffer":0,"byteOffset":1496,"byteLength":96,"target":34962,"byteStride":12},{"buffer":0,"byteOffset":1592,"byteLength":288,"target":34962,"byteStride":12},{"buffer":0,"byteOffset":1880,"byteLength":288,"target":34962,"byteStride":12},{"buffer":0,"byteOffset":2168,"byteLength":192,"target":34962,"byteStride":8},{"buffer":0,"byteOffset":2360,"byteLength":72,"target":34963},{"buffer":0,"byteOffset":2432,"byteLength":288,"target":34962,"byteStride":12},{"buffer":0,"byteOffset":2720,"byteLength":288,"target":34962,"byteStride":12},{"buffer":0,"byteOffset":3008,"byteLength":192,"target":34962,"byteStride":8},{"buffer":0,"byteOffset":3200,"byteLength":72,"target":34963}],"buffers":[{"byteLength":3272,"uri":"data:application/octet-stream;base64,"}],"accessors":[{"bufferView":0,"componentType":5126,"count":20,"max":[0.5625,0.59375,0],"min":[-0.5625,-0.21875,0],"type":"VEC3"},{"bufferView":1,"componentType":5126,"count":20,"max":[1,0,0],"min":[0,0,-1],"type":"VEC3"},{"bufferView":2,"componentType":5126,"count":20,"max":[0.765625,0.640625],"min":[0,0],"type":"VEC2"},{"bufferView":3,"componentType":5123,"count":30,"max":[19],"min":[0],"type":"SCALAR"},{"bufferView":4,"componentType":5126,"count":8,"max":[0.5625,0.59375,0],"min":[-0.5625,-0.21875,0],"type":"VEC3"},{"bufferView":5,"componentType":5126,"count":20,"max":[0.5625,-0.46875,0],"min":[-0.5625,-1.03125,0],"type":"VEC3"},{"bufferView":6,"componentType":5126,"count":20,"max":[1,0,0],"min":[0,0,-1],"type":"VEC3"},{"bufferView":7,"componentType":5126,"count":20,"max":[0.765625,0.578125],"min":[0.03125,0],"type":"VEC2"},{"bufferView":8,"componentType":5123,"count":30,"max":[19],"min":[0],"type":"SCALAR"},{"bufferView":9,"componentType":5126,"count":8,"max":[0.5625,-0.46875,0],"min":[-0.5625,-1.03125,0],"type":"VEC3"},{"bufferView":10,"componentType":5126,"count":24,"max":[-0.15625,0.1875,0.09375],"min":[-0.34375,-0.1875,-0.09375],"type":"VEC3"},{"bufferView":11,"componentType":5126,"count":24,"max":[1,1,1],"min":[-1,-1,-1],"type":"VEC3"},{"bufferView":12,"componentType":5126,"count":24,"max":[0.46875,0.515625],"min":[0.296875,0.3125],"type":"VEC2"},{"bufferView":13,"componentType":5123,"count":36,"max":[23],"min":[0],"type":"SCALAR"},{"bufferView":14,"componentType":5126,"count":24,"max":[0.09375,0.1875,0.09375],"min":[-0.09375,-0.1875,-0.09375],"type":"VEC3"},{"bufferView":15,"componentType":5126,"count":24,"max":[1,1,1],"min":[-1,-1,-1],"type":"VEC3"},{"bufferView":16,"componentType":5126,"count":24,"max":[0.46875,0.515625],"min":[0.296875,0.3125],"type":"VEC2"},{"bufferView":17,"componentType":5123,"count":36,"max":[23],"min":[0],"type":"SCALAR"}],"materials":[{"pbrMetallicRoughness":{"metallicFactor":0,"roughnessFactor":1,"baseColorTexture":{"index":0}},"alphaMode":"MASK","alphaCutoff":0.05,"doubleSided":true},{"pbrMetallicRoughness":{"metallicFactor":0,"roughnessFactor":1}}],"textures":[{"sampler":0,"source":0,"name":"christmas_leafs"}],"samplers":[{"magFilter":9728,"minFilter":9728,"wrapS":33071,"wrapT":33071}],"images":[{"mimeType":"image/png","uri":"data:image/png;base64,"}],"meshes":[{"primitives":[{"mode":4,"attributes":{"POSITION":0,"NORMAL":1,"TEXCOORD_0":2},"indices":3,"material":0}]},{"primitives":[{"mode":0,"attributes":{"POSITION":4},"material":1}]},{"primitives":[{"mode":4,"attributes":{"POSITION":5,"NORMAL":6,"TEXCOORD_0":7},"indices":8,"material":0}]},{"primitives":[{"mode":0,"attributes":{"POSITION":9},"material":1}]},{"primitives":[{"mode":4,"attributes":{"POSITION":10,"NORMAL":11,"TEXCOORD_0":12},"indices":13,"material":0}]},{"primitives":[{"mode":4,"attributes":{"POSITION":14,"NORMAL":15,"TEXCOORD_0":16},"indices":17,"material":0}]}]}