{"asset":{"version":"2.0","generator":"Blockbench 5.0.1 glTF exporter"},"scenes":[{"nodes":[8],"name":"blockbench_export"}],"scene":0,"nodes":[{"name":"cube","mesh":0},{"name":"cube","mesh":1},{"mesh":3},{"name":"cube","mesh":2,"children":[2]},{"name":"cube","mesh":4},{"name":"cube","mesh":5},{"rotation":[-0.06540312923014306,0,0,0.9978589232386035],"translation":[0,0.4,0],"name":"cube","mesh":6},{"rotation":[0.04624699618945424,-0.04624699618945428,0.7055928112895228,0.7055928112895233],"translation":[0,0.40000000000000013,0],"name":"cube","mesh":7},{"translation":[0,0.1,0.4375000000000001],"name":"christmas_wreath","children":[0,1,3,4,5,6,7]}],"bufferViews":[{"buffer":0,"byteOffset":0,"byteLength":288,"target":34962,"byteStride":12},{"buffer":0,"byteOffset":288,"byteLength":288,"target":34962,"byteStride":12},{"buffer":0,"byteOffset":576,"byteLength":192,"target":34962,"byteStride":8},{"buffer":0,"byteOffset":768,"byteLength":72,"target":34963},{"buffer":0,"byteOffset":840,"byteLength":288,"target":34962,"byteStride":12},{"buffer":0,"byteOffset":1128,"byteLength":288,"target":34962,"byteStride":12},{"buffer":0,"byteOffset":1416,"byteLength":192,"target":34962,"byteStride":8},{"buffer":0,"byteOffset":1608,"byteLength":72,"target":34963},{"buffer":0,"byteOffset":1680,"byteLength":240,"target":34962,"byteStride":12},{"buffer":0,"byteOffset":1920,"byteLength":240,"target":34962,"byteStride":12},{"buffer":0,"byteOffset":2160,"byteLength":160,"target":34962,"byteStride":8},{"buffer":0,"byteOffset":2320,"byteLength":60,"target":34963},{"buffer":0,"byteOffset":2380,"byteLength":96,"target":34962,"byteStride":12},{"buffer":0,"byteOffset":2476,"byteLength":288,"target":34962,"byteStride":12},{"buffer":0,"byteOffset":2764,"byteLength":288,"target":34962,"byteStride":12},{"buffer":0,"byteOffset":3052,"byteLength":192,"target":34962,"byteStride":8},{"buffer":0,"byteOffset":3244,"byteLength":72,"target":34963},{"buffer":0,"byteOffset":3316,"byteLength":288,"target":34962,"byteStride":12},{"buffer":0,"byteOffset":3604,"byteLength":288,"target":34962,"byteStride":12},{"buffer":0,"byteOffset":3892,"byteLength":192,"target":34962,"byteStride":8},{"buffer":0,"byteOffset":4084,"byteLength":72,"target":34963},{"buffer":0,"byteOffset":4156,"byteLength":288,"target":34962,"byteStride":12},{"buffer":0,"byteOffset":4444,"byteLength":288,"target":34962,"byteStride":12},{"buffer":0,"byteOffset":4732,"byteLength":192,"target":34962,"byteStride":8},{"buffer":0,"byteOffset":4924,"byteLength":72,"target":34963},{"buffer":0,"byteOffset":4996,"byteLength":288,"target":34962,"byteStride":12},{"buffer":0,"byteOffset":5284,"byteLength":288,"target":34962,"byteStride":12},{"buffer":0,"byteOffset":5572,"byteLength":192,"target":34962,"byteStride":8},{"buffer":0,"byteOffset":5764,"byteLength":72,"target":34963}],"buffers":[{"byteLength":5836,"uri":"data:application/octet-stream;base64,"}],"accessors":[{"bufferView":0,"componentType":5126,"count":24,"max":[0.4000000059604645,0.20000000298023224,0.05000000074505806],"min":[-0.4000000059604645,-1.3877787807814457e-17,-0.05000000074505806],"type":"VEC3"},{"bufferView":1,"componentType":5126,"count":24,"max":[1,1,1],"min":[-1,-1,-1],"type":"VEC3"},{"bufferView":2,"componentType":5126,"count":24,"max":[0.84375,0.71875],"min":[0,0.15625],"type":"VEC2"},{"bufferView":3,"componentType":5123,"count":36,"max":[23],"min":[0],"type":"SCALAR"},{"bufferView":4,"componentType":5126,"count":24,"max":[0.4000000059604645,0.800000011920929,0.05000000074505806],"min":[-0.4000000059604645,0.6000000238418579,-0.05000000074505806],"type":"VEC3"},{"bufferView":5,"componentType":5126,"count":24,"max":[1,1,1],"min":[-1,-1,-1],"type":"VEC3"},{"bufferView":6,"componentType":5126,"count":24,"max":[0.84375,0.71875],"min":[0.09375,0],"type":"VEC2"},{"bufferView":7,"componentType":5123,"count":36,"max":[23],"min":[0],"type":"SCALAR"},{"bufferView":8,"componentType":5126,"count":20,"max":[0.4000000059604645,0.8500000238418579,-0.10000000149011612],"min":[-0.4000000059604645,0.20000000298023224,-0.10000000149011612],"type":"VEC3"},{"bufferView":9,"componentType":5126,"count":20,"max":[1,0,0],"min":[0,0,-1],"type":"VEC3"},{"bufferView":10,"componentType":5126,"count":20,"max":[0.921875,0.859375],"min":[0.265625,0],"type":"VEC2"},{"bufferView":11,"componentType":5123,"count":30,"max":[19],"min":[0],"type":"SCALAR"},{"bufferView":12,"componentType":5126,"count":8,"max":[0.4000000059604645,0.8500000238418579,-0.10000000149011612],"min":[-0.4000000059604645,0.20000000298023224,-0.10000000149011612],"type":"VEC3"},{"bufferView":13,"componentType":5126,"count":24,"max":[0.4000000059604645,0.6000000238418579,0.05000000074505806],"min":[0.20000000298023224,0.20000000298023224,-0.05000000074505806],"type":"VEC3"},{"bufferView":14,"componentType":5126,"count":24,"max":[1,1,1],"min":[-1,-1,-1],"type":"VEC3"},{"bufferView":15,"componentType":5126,"count":24,"max":[0.71875,0.75],"min":[0.1875,0.34375],"type":"VEC2"},{"bufferView":16,"componentType":5123,"count":36,"max":[23],"min":[0],"type":"SCALAR"},{"bufferView":17,"componentType":5126,"count":24,"max":[-0.20000000298023224,0.6000000238418579,0.05000000074505806],"min":[-0.4000000059604645,0.20000000298023224,-0.05000000074505806],"type":"VEC3"},{"bufferView":18,"componentType":5126,"count":24,"max":[1,1,1],"min":[-1,-1,-1],"type":"VEC3"},{"bufferView":19,"componentType":5126,"count":24,"max":[0.734375,0.75],"min":[0.40625,0.34375],"type":"VEC2"},{"bufferView":20,"componentType":5123,"count":36,"max":[23],"min":[0],"type":"SCALAR"},{"bufferView":21,"componentType":5126,"count":24,"max":[0.5,0.5,0.0000625000029685907],"min":[-0.5,-0.5,0],"type":"VEC3"},{"bufferView":22,"componentType":5126,"count":24,"max":[1,1,1],"min":[-1,-1,-1],"type":"VEC3"},{"bufferView":23,"componentType":5126,"count":24,"max":[0.984375,0.96875],"min":[0,0],"type":"VEC2"},{"bufferView":24,"componentType":5123,"count":36,"max":[23],"min":[0],"type":"SCALAR"},{"bufferView":25,"componentType":5126,"count":24,"max":[0.5,0.5,0.0000625000029685907],"min":[-0.5,-0.5,0],"type":"VEC3"},{"bufferView":26,"componentType":5126,"count":24,"max":[1,1,1],"min":[-1,-1,-1],"type":"VEC3"},{"bufferView":27,"componentType":5126,"count":24,"max":[0.984375,0.96875],"min":[0,0],"type":"VEC2"},{"bufferView":28,"componentType":5123,"count":36,"max":[23],"min":[0],"type":"SCALAR"}],"materials":[{"pbrMetallicRoughness":{"metallicFactor":0,"roughnessFactor":1,"baseColorTexture":{"index":0}},"alphaMode":"MASK","alphaCutoff":0.05,"doubleSided":true},{"pbrMetallicRoughness":{"metallicFactor":0,"roughnessFactor":1}}],"textures":[{"sampler":0,"source":0,"name":"christmas_wreath"}],"samplers":[{"magFilter":9728,"minFilter":9728,"wrapS":33071,"wrapT":33071}],"images":[{"mimeType":"image/png","uri":"data:image/png;base64,"}],"meshes":[{"primitives":[{"mode":4,"attributes":{"POSITION":0,"NORMAL":1,"TEXCOORD_0":2},"indices":3,"material":0}]},{"primitives":[{"mode":4,"attributes":{"POSITION":4,"NORMAL":5,"TEXCOORD_0":6},"indices":7,"material":0}]},{"primitives":[{"mode":4,"attributes":{"POSITION":8,"NORMAL":9,"TEXCOORD_0":10},"indices":11,"material":0}]},{"primitives":[{"mode":0,"attributes":{"POSITION":12},"material":1}]},{"primitives":[{"mode":4,"attributes":{"POSITION":13,"NORMAL":14,"TEXCOORD_0":15},"indices":16,"material":0}]},{"primitives":[{"mode":4,"attributes":{"POSITION":17,"NORMAL":18,"TEXCOORD_0":19},"indices":20,"material":0}]},{"primitives":[{"mode":4,"attributes":{"POSITION":21,"NORMAL":22,"TEXCOORD_0":23},"indices":24,"material":0}]},{"primitives":[{"mode":4,"attributes":{"POSITION":25,"NORMAL":26,"TEXCOORD_0":27},"indices":28,"material":0}]}]}