{"asset":{"version":"2.0","generator":"Blockbench 5.0.2 glTF exporter"},"scenes":[{"nodes":[27],"name":"blockbench_export"}],"scene":0,"nodes":[{"translation":[0,-0.0625,0],"name":"cube","mesh":0},{"translation":[0,-0.15625,-0.4375],"name":"cube","mesh":1},{"translation":[0,0.09375,0.4375],"name":"tail","children":[1]},{"translation":[0,0,-0.0625],"name":"cube","mesh":2},{"translation":[0,0,-0.0625],"name":"cube","mesh":3},{"rotation":[0,0,0.043619387365336,0.9990482215818578],"translation":[-0.375,0,0],"name":"cube","mesh":4},{"rotation":[0,0,-0.06540312923014306,0.9978589232386035],"translation":[-0.12499999999999978,-2.220446049250313e-16,0],"name":"cube","mesh":5},{"rotation":[0,0,0.043619387365336,0.9990482215818578],"translation":[-0.375,0,0],"name":"cube","mesh":6},{"rotation":[0,0,-0.1521233861899167,0.9883615104677607],"translation":[-0.13078538115647165,0.5249117750619661,0.0625],"name":"left_horn","children":[5,6,7]},{"rotation":[0,0,-0.043619387365336,0.9990482215818578],"translation":[0.375,0,0],"name":"cube","mesh":7},{"rotation":[0,0,0.06540312923014306,0.9978589232386035],"translation":[0.12499999999999978,-2.220446049250313e-16,0],"name":"cube","mesh":8},{"rotation":[0,0,-0.043619387365336,0.9990482215818578],"translation":[0.375,0,0],"name":"cube","mesh":9},{"rotation":[0,0,0.1521233861899167,0.9883615104677607],"translation":[0.13078538115647165,0.5249117750619661,0.0625],"name":"right_horn","children":[9,10,11]},{"translation":[0.125,-0.4375,0],"name":"cube","mesh":10},{"translation":[-0.125,0.5,-0.0625],"name":"left_ear","children":[13]},{"translation":[-0.125,-0.4375,0],"name":"cube","mesh":11},{"translation":[0.125,0.5,-0.0625],"name":"right_ear","children":[15]},{"translation":[0,0.25,-0.375],"name":"head","children":[3,4,8,12,14,16]},{"translation":[0.15625,0.125,0.3125],"name":"cube","mesh":12},{"translation":[-0.125,-0.1875,-0.3125],"name":"left_arm","children":[18]},{"translation":[0.15625,0.125,0.3125],"name":"cube","mesh":13},{"translation":[-0.125,-0.1875,0.3125],"name":"left_leg","children":[20]},{"translation":[-0.15625,0.125,0.3125],"name":"cube","mesh":14},{"translation":[0.125,-0.1875,0.3125],"name":"right_leg","children":[22]},{"translation":[-0.15625,0.125,0.3125],"name":"cube","mesh":15},{"translation":[0.125,-0.1875,-0.3125],"name":"right_arm","children":[24]},{"translation":[0,0.0625,0],"name":"body","children":[0,2,17,19,21,23,25]},{"translation":[0,0.5625,0],"name":"deer","children":[26]}],"bufferViews":[{"buffer":0,"byteOffset":0,"byteLength":288,"target":34962,"byteStride":12},{"buffer":0,"byteOffset":288,"byteLength":288,"target":34962,"byteStride":12},{"buffer":0,"byteOffset":576,"byteLength":192,"target":34962,"byteStride":8},{"buffer":0,"byteOffset":768,"byteLength":72,"target":34963},{"buffer":0,"byteOffset":840,"byteLength":288,"target":34962,"byteStride":12},{"buffer":0,"byteOffset":1128,"byteLength":288,"target":34962,"byteStride":12},{"buffer":0,"byteOffset":1416,"byteLength":192,"target":34962,"byteStride":8},{"buffer":0,"byteOffset":1608,"byteLength":72,"target":34963},{"buffer":0,"byteOffset":1680,"byteLength":288,"target":34962,"byteStride":12},{"buffer":0,"byteOffset":1968,"byteLength":288,"target":34962,"byteStride":12},{"buffer":0,"byteOffset":2256,"byteLength":192,"target":34962,"byteStride":8},{"buffer":0,"byteOffset":2448,"byteLength":72,"target":34963},{"buffer":0,"byteOffset":2520,"byteLength":288,"target":34962,"byteStride":12},{"buffer":0,"byteOffset":2808,"byteLength":288,"target":34962,"byteStride":12},{"buffer":0,"byteOffset":3096,"byteLength":192,"target":34962,"byteStride":8},{"buffer":0,"byteOffset":3288,"byteLength":72,"target":34963},{"buffer":0,"byteOffset":3360,"byteLength":288,"target":34962,"byteStride":12},{"buffer":0,"byteOffset":3648,"byteLength":288,"target":34962,"byteStride":12},{"buffer":0,"byteOffset":3936,"byteLength":192,"target":34962,"byteStride":8},{"buffer":0,"byteOffset":4128,"byteLength":72,"target":34963},{"buffer":0,"byteOffset":4200,"byteLength":288,"target":34962,"byteStride":12},{"buffer":0,"byteOffset":4488,"byteLength":288,"target":34962,"byteStride":12},{"buffer":0,"byteOffset":4776,"byteLength":192,"target":34962,"byteStride":8},{"buffer":0,"byteOffset":4968,"byteLength":72,"target":34963},{"buffer":0,"byteOffset":5040,"byteLength":240,"target":34962,"byteStride":12},{"buffer":0,"byteOffset":5280,"byteLength":240,"target":34962,"byteStride":12},{"buffer":0,"byteOffset":5520,"byteLength":160,"target":34962,"byteStride":8},{"buffer":0,"byteOffset":5680,"byteLength":60,"target":34963},{"buffer":0,"byteOffset":5740,"byteLength":288,"target":34962,"byteStride":12},{"buffer":0,"byteOffset":6028,"byteLength":288,"target":34962,"byteStride":12},{"buffer":0,"byteOffset":6316,"byteLength":192,"target":34962,"byteStride":8},{"buffer":0,"byteOffset":6508,"byteLength":72,"target":34963},{"buffer":0,"byteOffset":6580,"byteLength":288,"target":34962,"byteStride":12},{"buffer":0,"byteOffset":6868,"byteLength":288,"target":34962,"byteStride":12},{"buffer":0,"byteOffset":7156,"byteLength":192,"target":34962,"byteStride":8},{"buffer":0,"byteOffset":7348,"byteLength":72,"target":34963},{"buffer":0,"byteOffset":7420,"byteLength":240,"target":34962,"byteStride":12},{"buffer":0,"byteOffset":7660,"byteLength":240,"target":34962,"byteStride":12},{"buffer":0,"byteOffset":7900,"byteLength":160,"target":34962,"byteStride":8},{"buffer":0,"byteOffset":8060,"byteLength":60,"target":34963},{"buffer":0,"byteOffset":8120,"byteLength":288,"target":34962,"byteStride":12},{"buffer":0,"byteOffset":8408,"byteLength":288,"target":34962,"byteStride":12},{"buffer":0,"byteOffset":8696,"byteLength":192,"target":34962,"byteStride":8},{"buffer":0,"byteOffset":8888,"byteLength":72,"target":34963},{"buffer":0,"byteOffset":8960,"byteLength":288,"target":34962,"byteStride":12},{"buffer":0,"byteOffset":9248,"byteLength":288,"target":34962,"byteStride":12},{"buffer":0,"byteOffset":9536,"byteLength":192,"target":34962,"byteStride":8},{"buffer":0,"byteOffset":9728,"byteLength":72,"target":34963},{"buffer":0,"byteOffset":9800,"byteLength":288,"target":34962,"byteStride":12},{"buffer":0,"byteOffset":10088,"byteLength":288,"target":34962,"byteStride":12},{"buffer":0,"byteOffset":10376,"byteLength":192,"target":34962,"byteStride":8},{"buffer":0,"byteOffset":10568,"byteLength":72,"target":34963},{"buffer":0,"byteOffset":10640,"byteLength":288,"target":34962,"byteStride":12},{"buffer":0,"byteOffset":10928,"byteLength":288,"target":34962,"byteStride":12},{"buffer":0,"byteOffset":11216,"byteLength":192,"target":34962,"byteStride":8},{"buffer":0,"byteOffset":11408,"byteLength":72,"target":34963},{"buffer":0,"byteOffset":11480,"byteLength":288,"target":34962,"byteStride":12},{"buffer":0,"byteOffset":11768,"byteLength":288,"target":34962,"byteStride":12},{"buffer":0,"byteOffset":12056,"byteLength":192,"target":34962,"byteStride":8},{"buffer":0,"byteOffset":12248,"byteLength":72,"target":34963},{"buffer":0,"byteOffset":12320,"byteLength":288,"target":34962,"byteStride":12},{"buffer":0,"byteOffset":12608,"byteLength":288,"target":34962,"byteStride":12},{"buffer":0,"byteOffset":12896,"byteLength":192,"target":34962,"byteStride":8},{"buffer":0,"byteOffset":13088,"byteLength":72,"target":34963}],"buffers":[{"byteLength":13160,"uri":"data:application/octet-stream;base64,"}],"accessors":[{"bufferView":0,"componentType":5126,"count":24,"max":[0.25,0.375,0.4375],"min":[-0.25,-0.125,-0.4375],"type":"VEC3"},{"bufferView":1,"componentType":5126,"count":24,"max":[1,1,1],"min":[-1,-1,-1],"type":"VEC3"},{"bufferView":2,"componentType":5126,"count":24,"max":[0.609375,0.59375],"min":[0,0],"type":"VEC2"},{"bufferView":3,"componentType":5123,"count":36,"max":[23],"min":[0],"type":"SCALAR"},{"bufferView":4,"componentType":5126,"count":24,"max":[0.09375,0.25,0.625],"min":[-0.09375,0.0625,0.4375],"type":"VEC3"},{"bufferView":5,"componentType":5126,"count":24,"max":[1,1,1],"min":[-1,-1,-1],"type":"VEC3"},{"bufferView":6,"componentType":5126,"count":24,"max":[0.71875,0.734375],"min":[0,0.4375],"type":"VEC2"},{"bufferView":7,"componentType":5123,"count":36,"max":[23],"min":[0],"type":"SCALAR"},{"bufferView":8,"componentType":5126,"count":24,"max":[0.1875,0.5625,0.25],"min":[-0.1875,-0.1875,-0.125],"type":"VEC3"},{"bufferView":9,"componentType":5126,"count":24,"max":[1,1,1],"min":[-1,-1,-1],"type":"VEC3"},{"bufferView":10,"componentType":5126,"count":24,"max":[0.578125,0.625],"min":[0,0.15625],"type":"VEC2"},{"bufferView":11,"componentType":5123,"count":36,"max":[23],"min":[0],"type":"SCALAR"},{"bufferView":12,"componentType":5126,"count":24,"max":[0.125,0.5,-0.125],"min":[-0.125,0.25,-0.375],"type":"VEC3"},{"bufferView":13,"componentType":5126,"count":24,"max":[1,1,1],"min":[-1,-1,-1],"type":"VEC3"},{"bufferView":14,"componentType":5126,"count":24,"max":[0.6875,0.640625],"min":[0.59375,0],"type":"VEC2"},{"bufferView":15,"componentType":5123,"count":36,"max":[23],"min":[0],"type":"SCALAR"},{"bufferView":16,"componentType":5126,"count":24,"max":[0.140625,0.0625,0.0625],"min":[-0.234375,-0.0625,-0.0625],"type":"VEC3"},{"bufferView":17,"componentType":5126,"count":24,"max":[1,1,1],"min":[-1,-1,-1],"type":"VEC3"},{"bufferView":18,"componentType":5126,"count":24,"max":[0.71875,0.671875],"min":[0,0.234375],"type":"VEC2"},{"bufferView":19,"componentType":5123,"count":36,"max":[23],"min":[0],"type":"SCALAR"},{"bufferView":20,"componentType":5126,"count":24,"max":[0.125,0.046875,0.046875],"min":[-0.125,-0.046875,-0.046875],"type":"VEC3"},{"bufferView":21,"componentType":5126,"count":24,"max":[1,1,1],"min":[-1,-1,-1],"type":"VEC3"},{"bufferView":22,"componentType":5126,"count":24,"max":[0.765625,0.40625],"min":[0.1875,0],"type":"VEC2"},{"bufferView":23,"componentType":5123,"count":36,"max":[23],"min":[0],"type":"SCALAR"},{"bufferView":24,"componentType":5126,"count":20,"max":[0.265625,0.5625,0],"min":[-0.421875,0,0],"type":"VEC3"},{"bufferView":25,"componentType":5126,"count":20,"max":[1,0,0],"min":[0,0,-1],"type":"VEC3"},{"bufferView":26,"componentType":5126,"count":20,"max":[0.90625,0.875],"min":[0,0.265625],"type":"VEC2"},{"bufferView":27,"componentType":5123,"count":30,"max":[19],"min":[0],"type":"SCALAR"},{"bufferView":28,"componentType":5126,"count":24,"max":[0.234375,0.0625,0.0625],"min":[-0.140625,-0.0625,-0.0625],"type":"VEC3"},{"bufferView":29,"componentType":5126,"count":24,"max":[1,1,1],"min":[-1,-1,-1],"type":"VEC3"},{"bufferView":30,"componentType":5126,"count":24,"max":[0.71875,0.671875],"min":[0,0.234375],"type":"VEC2"},{"bufferView":31,"componentType":5123,"count":36,"max":[23],"min":[0],"type":"SCALAR"},{"bufferView":32,"componentType":5126,"count":24,"max":[0.125,0.046875,0.046875],"min":[-0.125,-0.046875,-0.046875],"type":"VEC3"},{"bufferView":33,"componentType":5126,"count":24,"max":[1,1,1],"min":[-1,-1,-1],"type":"VEC3"},{"bufferView":34,"componentType":5126,"count":24,"max":[0.765625,0.40625],"min":[0.1875,0],"type":"VEC2"},{"bufferView":35,"componentType":5123,"count":36,"max":[23],"min":[0],"type":"SCALAR"},{"bufferView":36,"componentType":5126,"count":20,"max":[0.421875,0.5625,0],"min":[-0.265625,0,0],"type":"VEC3"},{"bufferView":37,"componentType":5126,"count":20,"max":[1,0,0],"min":[0,0,-1],"type":"VEC3"},{"bufferView":38,"componentType":5126,"count":20,"max":[0.90625,0.875],"min":[0,0.265625],"type":"VEC2"},{"bufferView":39,"componentType":5123,"count":30,"max":[19],"min":[0],"type":"SCALAR"},{"bufferView":40,"componentType":5126,"count":24,"max":[-0.125,0.6875,0.03125],"min":[-0.3125,0.4375,-0.03125],"type":"VEC3"},{"bufferView":41,"componentType":5126,"count":24,"max":[1,1,1],"min":[-1,-1,-1],"type":"VEC3"},{"bufferView":42,"componentType":5126,"count":24,"max":[0.734375,0.75],"min":[0.1875,0.125],"type":"VEC2"},{"bufferView":43,"componentType":5123,"count":36,"max":[23],"min":[0],"type":"SCALAR"},{"bufferView":44,"componentType":5126,"count":24,"max":[0.3125,0.6875,0.03125],"min":[0.125,0.4375,-0.03125],"type":"VEC3"},{"bufferView":45,"componentType":5126,"count":24,"max":[1,1,1],"min":[-1,-1,-1],"type":"VEC3"},{"bufferView":46,"componentType":5126,"count":24,"max":[0.78125,0.765625],"min":[0.28125,0.234375],"type":"VEC2"},{"bufferView":47,"componentType":5123,"count":36,"max":[23],"min":[0],"type":"SCALAR"},{"bufferView":48,"componentType":5126,"count":24,"max":[-0.0625,-0.125,-0.21875],"min":[-0.25,-0.5625,-0.40625],"type":"VEC3"},{"bufferView":49,"componentType":5126,"count":24,"max":[1,1,1],"min":[-1,-1,-1],"type":"VEC3"},{"bufferView":50,"componentType":5126,"count":24,"max":[0.734375,0.734375],"min":[0.359375,0],"type":"VEC2"},{"bufferView":51,"componentType":5123,"count":36,"max":[23],"min":[0],"type":"SCALAR"},{"bufferView":52,"componentType":5126,"count":24,"max":[-0.0625,-0.125,-0.21875],"min":[-0.25,-0.5625,-0.40625],"type":"VEC3"},{"bufferView":53,"componentType":5126,"count":24,"max":[1,1,1],"min":[-1,-1,-1],"type":"VEC3"},{"bufferView":54,"componentType":5126,"count":24,"max":[0.734375,0.734375],"min":[0.359375,0],"type":"VEC2"},{"bufferView":55,"componentType":5123,"count":36,"max":[23],"min":[0],"type":"SCALAR"},{"bufferView":56,"componentType":5126,"count":24,"max":[0.25,-0.125,-0.21875],"min":[0.0625,-0.5625,-0.40625],"type":"VEC3"},{"bufferView":57,"componentType":5126,"count":24,"max":[1,1,1],"min":[-1,-1,-1],"type":"VEC3"},{"bufferView":58,"componentType":5126,"count":24,"max":[0.734375,0.734375],"min":[0.21875,0.296875],"type":"VEC2"},{"bufferView":59,"componentType":5123,"count":36,"max":[23],"min":[0],"type":"SCALAR"},{"bufferView":60,"componentType":5126,"count":24,"max":[0.25,-0.125,-0.21875],"min":[0.0625,-0.5625,-0.40625],"type":"VEC3"},{"bufferView":61,"componentType":5126,"count":24,"max":[1,1,1],"min":[-1,-1,-1],"type":"VEC3"},{"bufferView":62,"componentType":5126,"count":24,"max":[0.734375,0.734375],"min":[0.21875,0.296875],"type":"VEC2"},{"bufferView":63,"componentType":5123,"count":36,"max":[23],"min":[0],"type":"SCALAR"}],"materials":[{"pbrMetallicRoughness":{"metallicFactor":0,"roughnessFactor":1,"baseColorTexture":{"index":0}},"alphaMode":"MASK","alphaCutoff":0.05,"doubleSided":true}],"textures":[{"sampler":0,"source":0,"name":"deer"}],"samplers":[{"magFilter":9728,"minFilter":9728,"wrapS":33071,"wrapT":33071}],"images":[{"mimeType":"image/png","uri":"data:image/png;base64,"}],"meshes":[{"primitives":[{"mode":4,"attributes":{"POSITION":0,"NORMAL":1,"TEXCOORD_0":2},"indices":3,"material":0}]},{"primitives":[{"mode":4,"attributes":{"POSITION":4,"NORMAL":5,"TEXCOORD_0":6},"indices":7,"material":0}]},{"primitives":[{"mode":4,"attributes":{"POSITION":8,"NORMAL":9,"TEXCOORD_0":10},"indices":11,"material":0}]},{"primitives":[{"mode":4,"attributes":{"POSITION":12,"NORMAL":13,"TEXCOORD_0":14},"indices":15,"material":0}]},{"primitives":[{"mode":4,"attributes":{"POSITION":16,"NORMAL":17,"TEXCOORD_0":18},"indices":19,"material":0}]},{"primitives":[{"mode":4,"attributes":{"POSITION":20,"NORMAL":21,"TEXCOORD_0":22},"indices":23,"material":0}]},{"primitives":[{"mode":4,"attributes":{"POSITION":24,"NORMAL":25,"TEXCOORD_0":26},"indices":27,"material":0}]},{"primitives":[{"mode":4,"attributes":{"POSITION":28,"NORMAL":29,"TEXCOORD_0":30},"indices":31,"material":0}]},{"primitives":[{"mode":4,"attributes":{"POSITION":32,"NORMAL":33,"TEXCOORD_0":34},"indices":35,"material":0}]},{"primitives":[{"mode":4,"attributes":{"POSITION":36,"NORMAL":37,"TEXCOORD_0":38},"indices":39,"material":0}]},{"primitives":[{"mode":4,"attributes":{"POSITION":40,"NORMAL":41,"TEXCOORD_0":42},"indices":43,"material":0}]},{"primitives":[{"mode":4,"attributes":{"POSITION":44,"NORMAL":45,"TEXCOORD_0":46},"indices":47,"material":0}]},{"primitives":[{"mode":4,"attributes":{"POSITION":48,"NORMAL":49,"TEXCOORD_0":50},"indices":51,"material":0}]},{"primitives":[{"mode":4,"attributes":{"POSITION":52,"NORMAL":53,"TEXCOORD_0":54},"indices":55,"material":0}]},{"primitives":[{"mode":4,"attributes":{"POSITION":56,"NORMAL":57,"TEXCOORD_0":58},"indices":59,"material":0}]},{"primitives":[{"mode":4,"attributes":{"POSITION":60,"NORMAL":61,"TEXCOORD_0":62},"indices":63,"material":0}]}]}