{"asset":{"version":"2.0","generator":"Blockbench 5.0.2 glTF exporter"},"scenes":[{"nodes":[26],"name":"blockbench_export"}],"scene":0,"nodes":[{"name":"cube","mesh":0},{"translation":[0,0,-0.1875],"name":"cube","mesh":1},{"translation":[0,0,-0.1875],"name":"cube","mesh":2},{"rotation":[-0.19509032201612825,0,0,0.9807852804032304],"translation":[-0.8125,-0.12050438564959026,1.3368096978230481],"name":"cube","mesh":3},{"translation":[0,0,-0.1875],"name":"cube","mesh":4},{"translation":[0,0,-0.1875],"name":"cube","mesh":5},{"translation":[0,0,-0.1875],"name":"cube","mesh":6},{"translation":[0,0,-0.1875],"name":"cube","mesh":7},{"rotation":[-0.19509032201612825,0,0,0.9807852804032304],"translation":[0.8125,-0.12050438564959026,1.3368096978230481],"name":"cube","mesh":8},{"name":"cube","mesh":9},{"name":"cube","mesh":10},{"translation":[0,0,-0.25],"name":"cube","mesh":11},{"rotation":[0.19509032201612825,0,0,0.9807852804032304],"translation":[0,1.0581344540821855,-1.0388442003448168],"name":"cube","mesh":12},{"rotation":[0.19509032201612825,0,0,0.9807852804032304],"translation":[0,1.0581344540821855,-1.0388442003448168],"name":"cube","mesh":13},{"name":"cube","mesh":14},{"name":"cube","mesh":15},{"name":"cube","mesh":16},{"name":"cube","mesh":17},{"name":"cube","mesh":18},{"name":"bone","children":[14,15,16,17,18]},{"name":"cube","mesh":19},{"name":"cube","mesh":20},{"name":"cube","mesh":21},{"name":"cube","mesh":22},{"name":"cube","mesh":23},{"name":"bone2","children":[20,21,22,23,24]},{"translation":[0,0.25,0.125],"name":"sleigh","children":[0,1,2,3,4,5,6,7,8,9,10,11,12,13,19,25]}],"bufferViews":[{"buffer":0,"byteOffset":0,"byteLength":288,"target":34962,"byteStride":12},{"buffer":0,"byteOffset":288,"byteLength":288,"target":34962,"byteStride":12},{"buffer":0,"byteOffset":576,"byteLength":192,"target":34962,"byteStride":8},{"buffer":0,"byteOffset":768,"byteLength":72,"target":34963},{"buffer":0,"byteOffset":840,"byteLength":288,"target":34962,"byteStride":12},{"buffer":0,"byteOffset":1128,"byteLength":288,"target":34962,"byteStride":12},{"buffer":0,"byteOffset":1416,"byteLength":192,"target":34962,"byteStride":8},{"buffer":0,"byteOffset":1608,"byteLength":72,"target":34963},{"buffer":0,"byteOffset":1680,"byteLength":288,"target":34962,"byteStride":12},{"buffer":0,"byteOffset":1968,"byteLength":288,"target":34962,"byteStride":12},{"buffer":0,"byteOffset":2256,"byteLength":192,"target":34962,"byteStride":8},{"buffer":0,"byteOffset":2448,"byteLength":72,"target":34963},{"buffer":0,"byteOffset":2520,"byteLength":288,"target":34962,"byteStride":12},{"buffer":0,"byteOffset":2808,"byteLength":288,"target":34962,"byteStride":12},{"buffer":0,"byteOffset":3096,"byteLength":192,"target":34962,"byteStride":8},{"buffer":0,"byteOffset":3288,"byteLength":72,"target":34963},{"buffer":0,"byteOffset":3360,"byteLength":288,"target":34962,"byteStride":12},{"buffer":0,"byteOffset":3648,"byteLength":288,"target":34962,"byteStride":12},{"buffer":0,"byteOffset":3936,"byteLength":192,"target":34962,"byteStride":8},{"buffer":0,"byteOffset":4128,"byteLength":72,"target":34963},{"buffer":0,"byteOffset":4200,"byteLength":288,"target":34962,"byteStride":12},{"buffer":0,"byteOffset":4488,"byteLength":288,"target":34962,"byteStride":12},{"buffer":0,"byteOffset":4776,"byteLength":192,"target":34962,"byteStride":8},{"buffer":0,"byteOffset":4968,"byteLength":72,"target":34963},{"buffer":0,"byteOffset":5040,"byteLength":288,"target":34962,"byteStride":12},{"buffer":0,"byteOffset":5328,"byteLength":288,"target":34962,"byteStride":12},{"buffer":0,"byteOffset":5616,"byteLength":192,"target":34962,"byteStride":8},{"buffer":0,"byteOffset":5808,"byteLength":72,"target":34963},{"buffer":0,"byteOffset":5880,"byteLength":240,"target":34962,"byteStride":12},{"buffer":0,"byteOffset":6120,"byteLength":240,"target":34962,"byteStride":12},{"buffer":0,"byteOffset":6360,"byteLength":160,"target":34962,"byteStride":8},{"buffer":0,"byteOffset":6520,"byteLength":60,"target":34963},{"buffer":0,"byteOffset":6580,"byteLength":288,"target":34962,"byteStride":12},{"buffer":0,"byteOffset":6868,"byteLength":288,"target":34962,"byteStride":12},{"buffer":0,"byteOffset":7156,"byteLength":192,"target":34962,"byteStride":8},{"buffer":0,"byteOffset":7348,"byteLength":72,"target":34963},{"buffer":0,"byteOffset":7420,"byteLength":288,"target":34962,"byteStride":12},{"buffer":0,"byteOffset":7708,"byteLength":288,"target":34962,"byteStride":12},{"buffer":0,"byteOffset":7996,"byteLength":192,"target":34962,"byteStride":8},{"buffer":0,"byteOffset":8188,"byteLength":72,"target":34963},{"buffer":0,"byteOffset":8260,"byteLength":288,"target":34962,"byteStride":12},{"buffer":0,"byteOffset":8548,"byteLength":288,"target":34962,"byteStride":12},{"buffer":0,"byteOffset":8836,"byteLength":192,"target":34962,"byteStride":8},{"buffer":0,"byteOffset":9028,"byteLength":72,"target":34963},{"buffer":0,"byteOffset":9100,"byteLength":288,"target":34962,"byteStride":12},{"buffer":0,"byteOffset":9388,"byteLength":288,"target":34962,"byteStride":12},{"buffer":0,"byteOffset":9676,"byteLength":192,"target":34962,"byteStride":8},{"buffer":0,"byteOffset":9868,"byteLength":72,"target":34963},{"buffer":0,"byteOffset":9940,"byteLength":288,"target":34962,"byteStride":12},{"buffer":0,"byteOffset":10228,"byteLength":288,"target":34962,"byteStride":12},{"buffer":0,"byteOffset":10516,"byteLength":192,"target":34962,"byteStride":8},{"buffer":0,"byteOffset":10708,"byteLength":72,"target":34963},{"buffer":0,"byteOffset":10780,"byteLength":288,"target":34962,"byteStride":12},{"buffer":0,"byteOffset":11068,"byteLength":288,"target":34962,"byteStride":12},{"buffer":0,"byteOffset":11356,"byteLength":192,"target":34962,"byteStride":8},{"buffer":0,"byteOffset":11548,"byteLength":72,"target":34963},{"buffer":0,"byteOffset":11620,"byteLength":288,"target":34962,"byteStride":12},{"buffer":0,"byteOffset":11908,"byteLength":288,"target":34962,"byteStride":12},{"buffer":0,"byteOffset":12196,"byteLength":192,"target":34962,"byteStride":8},{"buffer":0,"byteOffset":12388,"byteLength":72,"target":34963},{"buffer":0,"byteOffset":12460,"byteLength":288,"target":34962,"byteStride":12},{"buffer":0,"byteOffset":12748,"byteLength":288,"target":34962,"byteStride":12},{"buffer":0,"byteOffset":13036,"byteLength":192,"target":34962,"byteStride":8},{"buffer":0,"byteOffset":13228,"byteLength":72,"target":34963},{"buffer":0,"byteOffset":13300,"byteLength":288,"target":34962,"byteStride":12},{"buffer":0,"byteOffset":13588,"byteLength":288,"target":34962,"byteStride":12},{"buffer":0,"byteOffset":13876,"byteLength":192,"target":34962,"byteStride":8},{"buffer":0,"byteOffset":14068,"byteLength":72,"target":34963},{"buffer":0,"byteOffset":14140,"byteLength":288,"target":34962,"byteStride":12},{"buffer":0,"byteOffset":14428,"byteLength":288,"target":34962,"byteStride":12},{"buffer":0,"byteOffset":14716,"byteLength":192,"target":34962,"byteStride":8},{"buffer":0,"byteOffset":14908,"byteLength":72,"target":34963},{"buffer":0,"byteOffset":14980,"byteLength":288,"target":34962,"byteStride":12},{"buffer":0,"byteOffset":15268,"byteLength":288,"target":34962,"byteStride":12},{"buffer":0,"byteOffset":15556,"byteLength":192,"target":34962,"byteStride":8},{"buffer":0,"byteOffset":15748,"byteLength":72,"target":34963},{"buffer":0,"byteOffset":15820,"byteLength":288,"target":34962,"byteStride":12},{"buffer":0,"byteOffset":16108,"byteLength":288,"target":34962,"byteStride":12},{"buffer":0,"byteOffset":16396,"byteLength":192,"target":34962,"byteStride":8},{"buffer":0,"byteOffset":16588,"byteLength":72,"target":34963},{"buffer":0,"byteOffset":16660,"byteLength":288,"target":34962,"byteStride":12},{"buffer":0,"byteOffset":16948,"byteLength":288,"target":34962,"byteStride":12},{"buffer":0,"byteOffset":17236,"byteLength":192,"target":34962,"byteStride":8},{"buffer":0,"byteOffset":17428,"byteLength":72,"target":34963},{"buffer":0,"byteOffset":17500,"byteLength":288,"target":34962,"byteStride":12},{"buffer":0,"byteOffset":17788,"byteLength":288,"target":34962,"byteStride":12},{"buffer":0,"byteOffset":18076,"byteLength":192,"target":34962,"byteStride":8},{"buffer":0,"byteOffset":18268,"byteLength":72,"target":34963},{"buffer":0,"byteOffset":18340,"byteLength":288,"target":34962,"byteStride":12},{"buffer":0,"byteOffset":18628,"byteLength":288,"target":34962,"byteStride":12},{"buffer":0,"byteOffset":18916,"byteLength":192,"target":34962,"byteStride":8},{"buffer":0,"byteOffset":19108,"byteLength":72,"target":34963},{"buffer":0,"byteOffset":19180,"byteLength":288,"target":34962,"byteStride":12},{"buffer":0,"byteOffset":19468,"byteLength":288,"target":34962,"byteStride":12},{"buffer":0,"byteOffset":19756,"byteLength":192,"target":34962,"byteStride":8},{"buffer":0,"byteOffset":19948,"byteLength":72,"target":34963}],"buffers":[{"byteLength":20020,"uri":"data:application/octet-stream;base64,"}],"accessors":[{"bufferView":0,"componentType":5126,"count":24,"max":[0.9375,0.125,1.125],"min":[-0.9375,0,-1.25],"type":"VEC3"},{"bufferView":1,"componentType":5126,"count":24,"max":[1,1,1],"min":[-1,-1,-1],"type":"VEC3"},{"bufferView":2,"componentType":5126,"count":24,"max":[0.4296875,0.3359375],"min":[0,0],"type":"VEC2"},{"bufferView":3,"componentType":5123,"count":36,"max":[23],"min":[0],"type":"SCALAR"},{"bufferView":4,"componentType":5126,"count":24,"max":[-0.6875,-0.125,1.375],"min":[-0.9375,-0.25,-1.5],"type":"VEC3"},{"bufferView":5,"componentType":5126,"count":24,"max":[1,1,1],"min":[-1,-1,-1],"type":"VEC3"},{"bufferView":6,"componentType":5126,"count":24,"max":[0.4609375,0.41796875],"min":[0.0390625,0.05859375],"type":"VEC2"},{"bufferView":7,"componentType":5123,"count":36,"max":[23],"min":[0],"type":"SCALAR"},{"bufferView":8,"componentType":5126,"count":24,"max":[-0.8124374747276306,0,1.375],"min":[-0.8125,-0.125,-1],"type":"VEC3"},{"bufferView":9,"componentType":5126,"count":24,"max":[1,1,1],"min":[-1,-1,-1],"type":"VEC3"},{"bufferView":10,"componentType":5126,"count":24,"max":[0.4296875,0.5234375],"min":[0.0390625,0.30859375],"type":"VEC2"},{"bufferView":11,"componentType":5123,"count":36,"max":[23],"min":[0],"type":"SCALAR"},{"bufferView":12,"componentType":5126,"count":24,"max":[0.125,0.0625,0.1875],"min":[-0.125,-0.0625,-0.1875],"type":"VEC3"},{"bufferView":13,"componentType":5126,"count":24,"max":[1,1,1],"min":[-1,-1,-1],"type":"VEC3"},{"bufferView":14,"componentType":5126,"count":24,"max":[0.3984375,0.3828125],"min":[0.0390625,0.0703125],"type":"VEC2"},{"bufferView":15,"componentType":5123,"count":36,"max":[23],"min":[0],"type":"SCALAR"},{"bufferView":16,"componentType":5126,"count":24,"max":[-0.6875,0.125,-1.375],"min":[-0.9375,-0.125,-1.625],"type":"VEC3"},{"bufferView":17,"componentType":5126,"count":24,"max":[1,1,1],"min":[-1,-1,-1],"type":"VEC3"},{"bufferView":18,"componentType":5126,"count":24,"max":[0.38671875,0.3828125],"min":[0.12890625,0.12109375],"type":"VEC2"},{"bufferView":19,"componentType":5123,"count":36,"max":[23],"min":[0],"type":"SCALAR"},{"bufferView":20,"componentType":5126,"count":24,"max":[0.9375,-0.125,1.375],"min":[0.6875,-0.25,-1.5],"type":"VEC3"},{"bufferView":21,"componentType":5126,"count":24,"max":[1,1,1],"min":[-1,-1,-1],"type":"VEC3"},{"bufferView":22,"componentType":5126,"count":24,"max":[0.4609375,0.41796875],"min":[0.0390625,0.05859375],"type":"VEC2"},{"bufferView":23,"componentType":5123,"count":36,"max":[23],"min":[0],"type":"SCALAR"},{"bufferView":24,"componentType":5126,"count":24,"max":[0.9375,0.125,-1.375],"min":[0.6875,-0.125,-1.625],"type":"VEC3"},{"bufferView":25,"componentType":5126,"count":24,"max":[1,1,1],"min":[-1,-1,-1],"type":"VEC3"},{"bufferView":26,"componentType":5126,"count":24,"max":[0.38671875,0.3828125],"min":[0.12890625,0.12109375],"type":"VEC2"},{"bufferView":27,"componentType":5123,"count":36,"max":[23],"min":[0],"type":"SCALAR"},{"bufferView":28,"componentType":5126,"count":20,"max":[0.8125,0,1.375],"min":[0.8125,-0.125,-1],"type":"VEC3"},{"bufferView":29,"componentType":5126,"count":20,"max":[1,0,0],"min":[-1,0,0],"type":"VEC3"},{"bufferView":30,"componentType":5126,"count":20,"max":[0.4296875,0.5234375],"min":[0.15625,0.30859375],"type":"VEC2"},{"bufferView":31,"componentType":5123,"count":30,"max":[19],"min":[0],"type":"SCALAR"},{"bufferView":32,"componentType":5126,"count":24,"max":[0.125,0.0625,0.1875],"min":[-0.125,-0.0625,-0.1875],"type":"VEC3"},{"bufferView":33,"componentType":5126,"count":24,"max":[1,1,1],"min":[-1,-1,-1],"type":"VEC3"},{"bufferView":34,"componentType":5126,"count":24,"max":[0.3984375,0.3828125],"min":[0.0390625,0.0703125],"type":"VEC2"},{"bufferView":35,"componentType":5123,"count":36,"max":[23],"min":[0],"type":"SCALAR"},{"bufferView":36,"componentType":5126,"count":24,"max":[0.6875,0.75,1.125],"min":[-0.6875,0.125,1.0625],"type":"VEC3"},{"bufferView":37,"componentType":5126,"count":24,"max":[1,1,1],"min":[-1,-1,-1],"type":"VEC3"},{"bufferView":38,"componentType":5126,"count":24,"max":[0.41796875,0.390625],"min":[0.1484375,0],"type":"VEC2"},{"bufferView":39,"componentType":5123,"count":36,"max":[23],"min":[0],"type":"SCALAR"},{"bufferView":40,"componentType":5126,"count":24,"max":[0.6875,1,1.125],"min":[-0.6875,0.75,0.6875],"type":"VEC3"},{"bufferView":41,"componentType":5126,"count":24,"max":[1,1,1],"min":[-1,-1,-1],"type":"VEC3"},{"bufferView":42,"componentType":5126,"count":24,"max":[0.3671875,0.35546875],"min":[0.0390625,0.140625],"type":"VEC2"},{"bufferView":43,"componentType":5123,"count":36,"max":[23],"min":[0],"type":"SCALAR"},{"bufferView":44,"componentType":5126,"count":24,"max":[0.9359375238418579,0.8734375238418579,-0.8140624761581421],"min":[-0.9359375238418579,0.12656250596046448,-0.9984375238418579],"type":"VEC3"},{"bufferView":45,"componentType":5126,"count":24,"max":[1,1,1],"min":[-1,-1,-1],"type":"VEC3"},{"bufferView":46,"componentType":5126,"count":24,"max":[0.3984375,0.37890625],"min":[0,0.15234375],"type":"VEC2"},{"bufferView":47,"componentType":5123,"count":36,"max":[23],"min":[0],"type":"SCALAR"},{"bufferView":48,"componentType":5126,"count":24,"max":[0.9375,0.25,0.0625],"min":[-0.9375,-0.25,-0.125],"type":"VEC3"},{"bufferView":49,"componentType":5126,"count":24,"max":[1,1,1],"min":[-1,-1,-1],"type":"VEC3"},{"bufferView":50,"componentType":5126,"count":24,"max":[0.3984375,0.39453125],"min":[0,0.23828125],"type":"VEC2"},{"bufferView":51,"componentType":5123,"count":36,"max":[23],"min":[0],"type":"SCALAR"},{"bufferView":52,"componentType":5126,"count":24,"max":[0.9375,0.25,-0.125],"min":[-0.9375,-0.125,-0.25],"type":"VEC3"},{"bufferView":53,"componentType":5126,"count":24,"max":[1,1,1],"min":[-1,-1,-1],"type":"VEC3"},{"bufferView":54,"componentType":5126,"count":24,"max":[0.44921875,0.3359375],"min":[0.2109375,0.0859375],"type":"VEC2"},{"bufferView":55,"componentType":5123,"count":36,"max":[23],"min":[0],"type":"SCALAR"},{"bufferView":56,"componentType":5126,"count":24,"max":[-0.65625,0.75,-0.0625],"min":[-0.96875,0.4375,-0.375],"type":"VEC3"},{"bufferView":57,"componentType":5126,"count":24,"max":[1,1,1],"min":[-1,-1,-1],"type":"VEC3"},{"bufferView":58,"componentType":5126,"count":24,"max":[0.37109375,0.37109375],"min":[0.1015625,0.01953125],"type":"VEC2"},{"bufferView":59,"componentType":5123,"count":36,"max":[23],"min":[0],"type":"SCALAR"},{"bufferView":60,"componentType":5126,"count":24,"max":[-0.6875,0.75,1.125],"min":[-0.9375,0.625,-0.0625],"type":"VEC3"},{"bufferView":61,"componentType":5126,"count":24,"max":[1,1,1],"min":[-1,-1,-1],"type":"VEC3"},{"bufferView":62,"componentType":5126,"count":24,"max":[0.40625,0.359375],"min":[0.19140625,0.09375],"type":"VEC2"},{"bufferView":63,"componentType":5123,"count":36,"max":[23],"min":[0],"type":"SCALAR"},{"bufferView":64,"componentType":5126,"count":24,"max":[-0.6875,1,1.125],"min":[-0.9375,0.75,0.1875],"type":"VEC3"},{"bufferView":65,"componentType":5126,"count":24,"max":[1,1,1],"min":[-1,-1,-1],"type":"VEC3"},{"bufferView":66,"componentType":5126,"count":24,"max":[0.390625,0.38671875],"min":[0.12890625,0],"type":"VEC2"},{"bufferView":67,"componentType":5123,"count":36,"max":[23],"min":[0],"type":"SCALAR"},{"bufferView":68,"componentType":5126,"count":24,"max":[-0.6875,1,1.375],"min":[-0.9375,0.625,1.125],"type":"VEC3"},{"bufferView":69,"componentType":5126,"count":24,"max":[1,1,1],"min":[-1,-1,-1],"type":"VEC3"},{"bufferView":70,"componentType":5126,"count":24,"max":[0.390625,0.390625],"min":[0.05859375,0.0390625],"type":"VEC2"},{"bufferView":71,"componentType":5123,"count":36,"max":[23],"min":[0],"type":"SCALAR"},{"bufferView":72,"componentType":5126,"count":24,"max":[-0.6875,0.625,1.125],"min":[-0.9375,0.125,-1.0625],"type":"VEC3"},{"bufferView":73,"componentType":5126,"count":24,"max":[1,1,1],"min":[-1,-1,-1],"type":"VEC3"},{"bufferView":74,"componentType":5126,"count":24,"max":[0.34765625,0.41015625],"min":[0,0.203125],"type":"VEC2"},{"bufferView":75,"componentType":5123,"count":36,"max":[23],"min":[0],"type":"SCALAR"},{"bufferView":76,"componentType":5126,"count":24,"max":[0.96875,0.75,-0.0625],"min":[0.65625,0.4375,-0.375],"type":"VEC3"},{"bufferView":77,"componentType":5126,"count":24,"max":[1,1,1],"min":[-1,-1,-1],"type":"VEC3"},{"bufferView":78,"componentType":5126,"count":24,"max":[0.37109375,0.37109375],"min":[0.1015625,0.01953125],"type":"VEC2"},{"bufferView":79,"componentType":5123,"count":36,"max":[23],"min":[0],"type":"SCALAR"},{"bufferView":80,"componentType":5126,"count":24,"max":[0.9375,0.75,1.125],"min":[0.6875,0.625,-0.0625],"type":"VEC3"},{"bufferView":81,"componentType":5126,"count":24,"max":[1,1,1],"min":[-1,-1,-1],"type":"VEC3"},{"bufferView":82,"componentType":5126,"count":24,"max":[0.40625,0.359375],"min":[0.19140625,0.09375],"type":"VEC2"},{"bufferView":83,"componentType":5123,"count":36,"max":[23],"min":[0],"type":"SCALAR"},{"bufferView":84,"componentType":5126,"count":24,"max":[0.9375,1,1.125],"min":[0.6875,0.75,0.1875],"type":"VEC3"},{"bufferView":85,"componentType":5126,"count":24,"max":[1,1,1],"min":[-1,-1,-1],"type":"VEC3"},{"bufferView":86,"componentType":5126,"count":24,"max":[0.390625,0.38671875],"min":[0.12890625,0],"type":"VEC2"},{"bufferView":87,"componentType":5123,"count":36,"max":[23],"min":[0],"type":"SCALAR"},{"bufferView":88,"componentType":5126,"count":24,"max":[0.9375,1,1.375],"min":[0.6875,0.625,1.125],"type":"VEC3"},{"bufferView":89,"componentType":5126,"count":24,"max":[1,1,1],"min":[-1,-1,-1],"type":"VEC3"},{"bufferView":90,"componentType":5126,"count":24,"max":[0.390625,0.390625],"min":[0.05859375,0.0390625],"type":"VEC2"},{"bufferView":91,"componentType":5123,"count":36,"max":[23],"min":[0],"type":"SCALAR"},{"bufferView":92,"componentType":5126,"count":24,"max":[0.9375,0.625,1.125],"min":[0.6875,0.125,-1.0625],"type":"VEC3"},{"bufferView":93,"componentType":5126,"count":24,"max":[1,1,1],"min":[-1,-1,-1],"type":"VEC3"},{"bufferView":94,"componentType":5126,"count":24,"max":[0.34765625,0.41015625],"min":[0,0.203125],"type":"VEC2"},{"bufferView":95,"componentType":5123,"count":36,"max":[23],"min":[0],"type":"SCALAR"}],"materials":[{"pbrMetallicRoughness":{"metallicFactor":0,"roughnessFactor":1,"baseColorTexture":{"index":0}},"alphaMode":"MASK","alphaCutoff":0.05,"doubleSided":true}],"textures":[{"sampler":0,"source":0,"name":"sleigh"}],"samplers":[{"magFilter":9728,"minFilter":9728,"wrapS":33071,"wrapT":33071}],"images":[{"mimeType":"image/png","uri":"data:image/png;base64,"}],"meshes":[{"primitives":[{"mode":4,"attributes":{"POSITION":0,"NORMAL":1,"TEXCOORD_0":2},"indices":3,"material":0}]},{"primitives":[{"mode":4,"attributes":{"POSITION":4,"NORMAL":5,"TEXCOORD_0":6},"indices":7,"material":0}]},{"primitives":[{"mode":4,"attributes":{"POSITION":8,"NORMAL":9,"TEXCOORD_0":10},"indices":11,"material":0}]},{"primitives":[{"mode":4,"attributes":{"POSITION":12,"NORMAL":13,"TEXCOORD_0":14},"indices":15,"material":0}]},{"primitives":[{"mode":4,"attributes":{"POSITION":16,"NORMAL":17,"TEXCOORD_0":18},"indices":19,"material":0}]},{"primitives":[{"mode":4,"attributes":{"POSITION":20,"NORMAL":21,"TEXCOORD_0":22},"indices":23,"material":0}]},{"primitives":[{"mode":4,"attributes":{"POSITION":24,"NORMAL":25,"TEXCOORD_0":26},"indices":27,"material":0}]},{"primitives":[{"mode":4,"attributes":{"POSITION":28,"NORMAL":29,"TEXCOORD_0":30},"indices":31,"material":0}]},{"primitives":[{"mode":4,"attributes":{"POSITION":32,"NORMAL":33,"TEXCOORD_0":34},"indices":35,"material":0}]},{"primitives":[{"mode":4,"attributes":{"POSITION":36,"NORMAL":37,"TEXCOORD_0":38},"indices":39,"material":0}]},{"primitives":[{"mode":4,"attributes":{"POSITION":40,"NORMAL":41,"TEXCOORD_0":42},"indices":43,"material":0}]},{"primitives":[{"mode":4,"attributes":{"POSITION":44,"NORMAL":45,"TEXCOORD_0":46},"indices":47,"material":0}]},{"primitives":[{"mode":4,"attributes":{"POSITION":48,"NORMAL":49,"TEXCOORD_0":50},"indices":51,"material":0}]},{"primitives":[{"mode":4,"attributes":{"POSITION":52,"NORMAL":53,"TEXCOORD_0":54},"indices":55,"material":0}]},{"primitives":[{"mode":4,"attributes":{"POSITION":56,"NORMAL":57,"TEXCOORD_0":58},"indices":59,"material":0}]},{"primitives":[{"mode":4,"attributes":{"POSITION":60,"NORMAL":61,"TEXCOORD_0":62},"indices":63,"material":0}]},{"primitives":[{"mode":4,"attributes":{"POSITION":64,"NORMAL":65,"TEXCOORD_0":66},"indices":67,"material":0}]},{"primitives":[{"mode":4,"attributes":{"POSITION":68,"NORMAL":69,"TEXCOORD_0":70},"indices":71,"material":0}]},{"primitives":[{"mode":4,"attributes":{"POSITION":72,"NORMAL":73,"TEXCOORD_0":74},"indices":75,"material":0}]},{"primitives":[{"mode":4,"attributes":{"POSITION":76,"NORMAL":77,"TEXCOORD_0":78},"indices":79,"material":0}]},{"primitives":[{"mode":4,"attributes":{"POSITION":80,"NORMAL":81,"TEXCOORD_0":82},"indices":83,"material":0}]},{"primitives":[{"mode":4,"attributes":{"POSITION":84,"NORMAL":85,"TEXCOORD_0":86},"indices":87,"material":0}]},{"primitives":[{"mode":4,"attributes":{"POSITION":88,"NORMAL":89,"TEXCOORD_0":90},"indices":91,"material":0}]},{"primitives":[{"mode":4,"attributes":{"POSITION":92,"NORMAL":93,"TEXCOORD_0":94},"indices":95,"material":0}]}]}