{"asset":{"version":"2.0","generator":"Blockbench 4.11.2 glTF exporter"},"scenes":[{"nodes":[4],"name":"blockbench_export"}],"scene":0,"nodes":[{"rotation":[0.7071067811865475,0,0,0.7071067811865476],"translation":[0,0.21874999999999997,0],"name":"plane","mesh":0},{"name":"grass_swaying","children":[0]},{"rotation":[0.7071067811865475,0,0,0.7071067811865476],"translation":[0,0.14374999999999996,-0.025],"name":"plane","mesh":1},{"name":"grass_swaying2","children":[2]},{"children":[1,3]}],"bufferViews":[{"buffer":0,"byteOffset":0,"byteLength":48,"target":34962,"byteStride":12},{"buffer":0,"byteOffset":48,"byteLength":48,"target":34962,"byteStride":12},{"buffer":0,"byteOffset":96,"byteLength":32,"target":34962,"byteStride":8},{"buffer":0,"byteOffset":128,"byteLength":12,"target":34963},{"buffer":0,"byteOffset":140,"byteLength":48,"target":34962,"byteStride":12},{"buffer":0,"byteOffset":188,"byteLength":48,"target":34962,"byteStride":12},{"buffer":0,"byteOffset":236,"byteLength":32,"target":34962,"byteStride":8},{"buffer":0,"byteOffset":268,"byteLength":12,"target":34963},{"buffer":0,"byteOffset":280,"byteLength":40},{"buffer":0,"byteOffset":320,"byteLength":160},{"buffer":0,"byteOffset":480,"byteLength":12},{"buffer":0,"byteOffset":492,"byteLength":36},{"buffer":0,"byteOffset":528,"byteLength":40},{"buffer":0,"byteOffset":568,"byteLength":160},{"buffer":0,"byteOffset":728,"byteLength":12},{"buffer":0,"byteOffset":740,"byteLength":36}],"buffers":[{"byteLength":776,"uri":"data:application/octet-stream;base64,"}],"accessors":[{"bufferView":0,"componentType":5126,"count":4,"max":[0.46875,0,0.21875],"min":[-0.46875,0,-0.21875],"type":"VEC3"},{"bufferView":1,"componentType":5126,"count":4,"max":[0,1,0],"min":[0,1,0],"type":"VEC3"},{"bufferView":2,"componentType":5126,"count":4,"max":[0.9375,0.4375],"min":[0,0],"type":"VEC2"},{"bufferView":3,"componentType":5123,"count":6,"max":[3],"min":[0],"type":"SCALAR"},{"bufferView":4,"componentType":5126,"count":4,"max":[0.3125,0,0.15625],"min":[-0.3125,0,-0.15625],"type":"VEC3"},{"bufferView":5,"componentType":5126,"count":4,"max":[0,1,0],"min":[0,1,0],"type":"VEC3"},{"bufferView":6,"componentType":5126,"count":4,"max":[0.9375,0.4375],"min":[0,0],"type":"VEC2"},{"bufferView":7,"componentType":5123,"count":6,"max":[3],"min":[0],"type":"SCALAR"},{"bufferView":8,"componentType":5126,"count":10,"max":[11.916666984558105],"min":[0],"type":"SCALAR"},{"bufferView":9,"componentType":5126,"count":10,"max":[0,0,0.004101512022316456,1],"min":[0,0,-0.026176948100328445,0.9996573328971863],"type":"VEC4"},{"bufferView":10,"componentType":5126,"count":3,"max":[11.916666984558105],"min":[0],"type":"SCALAR"},{"bufferView":11,"componentType":5126,"count":3,"max":[1,1,1],"min":[1,0.9750000238418579,1],"type":"VEC3"},{"bufferView":12,"componentType":5126,"count":10,"max":[11.916666984558105],"min":[0],"type":"SCALAR"},{"bufferView":13,"componentType":5126,"count":10,"max":[0,0,0.004101512022316456,1],"min":[0,0,-0.026176948100328445,0.9996573328971863],"type":"VEC4"},{"bufferView":14,"componentType":5126,"count":3,"max":[11.916666984558105],"min":[1.9166666269302368],"type":"SCALAR"},{"bufferView":15,"componentType":5126,"count":3,"max":[1,1,1],"min":[1,0.9750000238418579,1],"type":"VEC3"}],"materials":[{"pbrMetallicRoughness":{"metallicFactor":0,"roughnessFactor":1,"baseColorTexture":{"index":0}},"alphaMode":"MASK","alphaCutoff":0.05,"doubleSided":true}],"textures":[{"sampler":0,"source":0,"name":"environment_wheat_grass_texture"}],"samplers":[{"magFilter":9728,"minFilter":9728,"wrapS":33071,"wrapT":33071}],"images":[{"mimeType":"image/png","uri":"data:image/png;base64,"}],"meshes":[{"primitives":[{"mode":4,"attributes":{"POSITION":0,"NORMAL":1,"TEXCOORD_0":2},"indices":3,"material":0}]},{"primitives":[{"mode":4,"attributes":{"POSITION":4,"NORMAL":5,"TEXCOORD_0":6},"indices":7,"material":0}]}],"animations":[{"name":"idle","samplers":[{"input":8,"output":9,"interpolation":"LINEAR"},{"input":10,"output":11,"interpolation":"LINEAR"},{"input":12,"output":13,"interpolation":"LINEAR"},{"input":14,"output":15,"interpolation":"LINEAR"}],"channels":[{"sampler":0,"target":{"node":1,"path":"rotation"}},{"sampler":1,"target":{"node":1,"path":"scale"}},{"sampler":2,"target":{"node":3,"path":"rotation"}},{"sampler":3,"target":{"node":3,"path":"scale"}}]}]}