{"asset":{"version":"2.0","generator":"Blockbench 4.11.1 glTF exporter"},"scenes":[{"nodes":[2],"name":"hytopia-gltf-splitter"}],"scene":0,"nodes":[{"name":"back_cosmetic","children":[1],"translation":[0,-1.5,-0.25]},{"translation":[0,0.6875,0],"name":"cyberplant","mesh":0},{"children":[0]}],"bufferViews":[{"buffer":0,"byteOffset":0,"byteLength":1584,"target":34962,"byteStride":12},{"buffer":1,"byteOffset":0,"byteLength":1584,"target":34962,"byteStride":12},{"buffer":2,"byteOffset":0,"byteLength":1056,"target":34962,"byteStride":8},{"buffer":3,"byteOffset":0,"byteLength":396,"target":34963}],"buffers":[{"byteLength":1584,"uri":"data:application/octet-stream;base64,"},{"byteLength":1584,"uri":"data:application/octet-stream;base64,"},{"byteLength":1056,"uri":"data:application/octet-stream;base64,"},{"byteLength":396,"uri":"data:application/octet-stream;base64,"}],"accessors":[{"bufferView":0,"componentType":5126,"count":132,"max":[0.34375,1.46875,0.8812500238418579],"min":[-0.34375,0.34375,0.2562499940395355],"type":"VEC3"},{"bufferView":1,"componentType":5126,"count":132,"max":[1,1,1],"min":[-1,-1,-1],"type":"VEC3"},{"bufferView":2,"componentType":5126,"count":132,"max":[0.3125,0.53125],"min":[0,0],"type":"VEC2"},{"bufferView":3,"componentType":5123,"count":198,"max":[131],"min":[0],"type":"SCALAR"}],"materials":[{"pbrMetallicRoughness":{"metallicFactor":0,"roughnessFactor":1},"alphaMode":"MASK","alphaCutoff":0.05,"doubleSided":true},{"pbrMetallicRoughness":{"metallicFactor":0,"roughnessFactor":1,"baseColorTexture":{"index":0}},"alphaMode":"MASK","alphaCutoff":0.05,"doubleSided":true},{"pbrMetallicRoughness":{"metallicFactor":0,"roughnessFactor":1,"baseColorTexture":{"index":1}},"alphaMode":"MASK","alphaCutoff":0.05,"doubleSided":true}],"meshes":[{"primitives":[{"mode":4,"attributes":{"POSITION":0,"NORMAL":1,"TEXCOORD_0":2},"indices":3,"material":2}]}],"textures":[{"sampler":0,"source":0},{"sampler":1,"source":1,"name":"cyber_plant.png"}],"samplers":[{"magFilter":9728,"minFilter":9728,"wrapS":33071,"wrapT":33071},{"magFilter":9728,"minFilter":9728,"wrapS":33071,"wrapT":33071}],"images":[{"mimeType":"image/png","uri":"data:image/png;base64,"},{"mimeType":"image/png","uri":"data:image/png;base64,"}]}