{
  "asset": {
    "generator": "glTF-Transform v4.2.1",
    "version": "2.0"
  },
  "accessors": [
    {
      "type": "SCALAR",
      "componentType": 5126,
      "count": 18,
      "max": [
        0.520829975605011
      ],
      "min": [
        0
      ],
      "bufferView": 0,
      "byteOffset": 0
    },
    {
      "type": "VEC4",
      "componentType": 5126,
      "count": 18,
      "bufferView": 0,
      "byteOffset": 72
    },
    {
      "type": "VEC4",
      "componentType": 5126,
      "count": 18,
      "bufferView": 0,
      "byteOffset": 360
    },
    {
      "type": "VEC4",
      "componentType": 5126,
      "count": 18,
      "bufferView": 0,
      "byteOffset": 648
    },
    {
      "type": "VEC4",
      "componentType": 5126,
      "count": 18,
      "bufferView": 0,
      "byteOffset": 936
    },
    {
      "type": "VEC4",
      "componentType": 5126,
      "count": 18,
      "bufferView": 0,
      "byteOffset": 1224
    },
    {
      "type": "SCALAR",
      "componentType": 5126,
      "count": 13,
      "max": [
        0.3333300054073334
      ],
      "min": [
        0
      ],
      "bufferView": 0,
      "byteOffset": 1512
    },
    {
      "type": "VEC4",
      "componentType": 5126,
      "count": 13,
      "bufferView": 0,
      "byteOffset": 1564
    },
    {
      "type": "VEC4",
      "componentType": 5126,
      "count": 13,
      "bufferView": 0,
      "byteOffset": 1772
    },
    {
      "type": "VEC4",
      "componentType": 5126,
      "count": 13,
      "bufferView": 0,
      "byteOffset": 1980
    },
    {
      "type": "VEC4",
      "componentType": 5126,
      "count": 13,
      "bufferView": 0,
      "byteOffset": 2188
    },
    {
      "type": "VEC4",
      "componentType": 5126,
      "count": 13,
      "bufferView": 0,
      "byteOffset": 2396
    },
    {
      "type": "SCALAR",
      "componentType": 5126,
      "count": 13,
      "max": [
        1.6666666269302368
      ],
      "min": [
        0
      ],
      "bufferView": 0,
      "byteOffset": 2604
    },
    {
      "type": "VEC3",
      "componentType": 5126,
      "count": 13,
      "bufferView": 0,
      "byteOffset": 2656
    },
    {
      "type": "SCALAR",
      "componentType": 5126,
      "count": 33,
      "max": [
        1.6666666269302368
      ],
      "min": [
        0
      ],
      "bufferView": 0,
      "byteOffset": 2812
    },
    {
      "type": "VEC4",
      "componentType": 5126,
      "count": 33,
      "bufferView": 0,
      "byteOffset": 2944
    },
    {
      "type": "SCALAR",
      "componentType": 5126,
      "count": 28,
      "max": [
        1.6666666269302368
      ],
      "min": [
        0
      ],
      "bufferView": 0,
      "byteOffset": 3472
    },
    {
      "type": "VEC4",
      "componentType": 5126,
      "count": 28,
      "bufferView": 0,
      "byteOffset": 3584
    },
    {
      "type": "VEC4",
      "componentType": 5126,
      "count": 28,
      "bufferView": 0,
      "byteOffset": 4032
    },
    {
      "type": "VEC4",
      "componentType": 5126,
      "count": 28,
      "bufferView": 0,
      "byteOffset": 4480
    },
    {
      "type": "VEC4",
      "componentType": 5126,
      "count": 28,
      "bufferView": 0,
      "byteOffset": 4928
    },
    {
      "type": "SCALAR",
      "componentType": 5126,
      "count": 17,
      "max": [
        1.6666666269302368
      ],
      "min": [
        0
      ],
      "bufferView": 0,
      "byteOffset": 5376
    },
    {
      "type": "VEC4",
      "componentType": 5126,
      "count": 17,
      "bufferView": 0,
      "byteOffset": 5444
    },
    {
      "type": "SCALAR",
      "componentType": 5126,
      "count": 17,
      "max": [
        0.520829975605011
      ],
      "min": [
        0
      ],
      "bufferView": 0,
      "byteOffset": 5716
    },
    {
      "type": "VEC4",
      "componentType": 5126,
      "count": 17,
      "bufferView": 0,
      "byteOffset": 5784
    },
    {
      "type": "SCALAR",
      "componentType": 5126,
      "count": 12,
      "max": [
        0.520829975605011
      ],
      "min": [
        0
      ],
      "bufferView": 0,
      "byteOffset": 6056
    },
    {
      "type": "VEC3",
      "componentType": 5126,
      "count": 12,
      "bufferView": 0,
      "byteOffset": 6104
    },
    {
      "type": "VEC4",
      "componentType": 5126,
      "count": 17,
      "bufferView": 0,
      "byteOffset": 6248
    },
    {
      "type": "SCALAR",
      "componentType": 5126,
      "count": 12,
      "max": [
        0.3333300054073334
      ],
      "min": [
        0
      ],
      "bufferView": 0,
      "byteOffset": 6520
    },
    {
      "type": "VEC4",
      "componentType": 5126,
      "count": 12,
      "bufferView": 0,
      "byteOffset": 6568
    },
    {
      "type": "VEC3",
      "componentType": 5126,
      "count": 12,
      "bufferView": 0,
      "byteOffset": 6760
    },
    {
      "type": "VEC4",
      "componentType": 5126,
      "count": 12,
      "bufferView": 0,
      "byteOffset": 6904
    },
    {
      "type": "SCALAR",
      "componentType": 5123,
      "count": 36,
      "bufferView": 1,
      "byteOffset": 0
    },
    {
      "type": "VEC3",
      "componentType": 5126,
      "count": 24,
      "max": [
        0.125,
        0.1875,
        0.375
      ],
      "min": [
        -0.125,
        0,
        -0.1875
      ],
      "bufferView": 2,
      "byteOffset": 0
    },
    {
      "type": "VEC3",
      "componentType": 5126,
      "count": 24,
      "bufferView": 2,
      "byteOffset": 12
    },
    {
      "type": "VEC2",
      "componentType": 5126,
      "count": 24,
      "bufferView": 2,
      "byteOffset": 24
    },
    {
      "type": "VEC3",
      "componentType": 5126,
      "count": 24,
      "max": [
        0.15625,
        0.1875,
        0.125
      ],
      "min": [
        -0.15625,
        0,
        -0.1875
      ],
      "bufferView": 3,
      "byteOffset": 0
    },
    {
      "type": "VEC2",
      "componentType": 5126,
      "count": 24,
      "bufferView": 3,
      "byteOffset": 12
    },
    {
      "type": "VEC3",
      "componentType": 5126,
      "count": 24,
      "max": [
        -0.03125,
        0.1875,
        0.0625
      ],
      "min": [
        -0.15625,
        0,
        -0.125
      ],
      "bufferView": 4,
      "byteOffset": 0
    },
    {
      "type": "VEC2",
      "componentType": 5126,
      "count": 24,
      "bufferView": 4,
      "byteOffset": 12
    },
    {
      "type": "VEC3",
      "componentType": 5126,
      "count": 24,
      "max": [
        0.15625,
        0.1875,
        0.0625
      ],
      "min": [
        0.03125,
        0,
        -0.125
      ],
      "bufferView": 5,
      "byteOffset": 0
    },
    {
      "type": "VEC2",
      "componentType": 5126,
      "count": 24,
      "bufferView": 5,
      "byteOffset": 12
    },
    {
      "type": "VEC3",
      "componentType": 5126,
      "count": 24,
      "max": [
        0.0625,
        0.125062495470047,
        0.125
      ],
      "min": [
        -0.1875,
        0.125,
        -0.0625
      ],
      "bufferView": 6,
      "byteOffset": 0
    },
    {
      "type": "VEC2",
      "componentType": 5126,
      "count": 24,
      "bufferView": 6,
      "byteOffset": 12
    },
    {
      "type": "VEC3",
      "componentType": 5126,
      "count": 24,
      "max": [
        0.1875,
        0.125062495470047,
        0.125
      ],
      "min": [
        -0.0625,
        0.125,
        -0.0625
      ],
      "bufferView": 7,
      "byteOffset": 0
    },
    {
      "type": "VEC2",
      "componentType": 5126,
      "count": 24,
      "bufferView": 7,
      "byteOffset": 12
    },
    {
      "type": "VEC3",
      "componentType": 5126,
      "count": 24,
      "max": [
        0.0625,
        0.125,
        0.3125
      ],
      "min": [
        -0.0625,
        0,
        -0.0625
      ],
      "bufferView": 8,
      "byteOffset": 0
    },
    {
      "type": "VEC2",
      "componentType": 5126,
      "count": 24,
      "bufferView": 8,
      "byteOffset": 12
    }
  ],
  "bufferViews": [
    {
      "buffer": 0,
      "byteOffset": 0,
      "byteLength": 7096
    },
    {
      "buffer": 0,
      "byteOffset": 7096,
      "byteLength": 72,
      "target": 34963
    },
    {
      "buffer": 0,
      "byteOffset": 7168,
      "byteLength": 768,
      "byteStride": 32,
      "target": 34962
    },
    {
      "buffer": 0,
      "byteOffset": 7936,
      "byteLength": 480,
      "byteStride": 20,
      "target": 34962
    },
    {
      "buffer": 0,
      "byteOffset": 8416,
      "byteLength": 480,
      "byteStride": 20,
      "target": 34962
    },
    {
      "buffer": 0,
      "byteOffset": 8896,
      "byteLength": 480,
      "byteStride": 20,
      "target": 34962
    },
    {
      "buffer": 0,
      "byteOffset": 9376,
      "byteLength": 480,
      "byteStride": 20,
      "target": 34962
    },
    {
      "buffer": 0,
      "byteOffset": 9856,
      "byteLength": 480,
      "byteStride": 20,
      "target": 34962
    },
    {
      "buffer": 0,
      "byteOffset": 10336,
      "byteLength": 480,
      "byteStride": 20,
      "target": 34962
    }
  ],
  "samplers": [
    {
      "magFilter": 9728,
      "minFilter": 9728,
      "wrapS": 33071,
      "wrapT": 33071
    }
  ],
  "textures": [
    {
      "source": 0,
      "sampler": 0
    }
  ],
  "images": [
    {
      "mimeType": "image/png",
      "uri": "baseColor.png"
    }
  ],
  "buffers": [
    {
      "uri": "lizard-named-nodes.bin",
      "byteLength": 10816
    }
  ],
  "materials": [
    {
      "alphaMode": "MASK",
      "alphaCutoff": 0.05,
      "doubleSided": true,
      "pbrMetallicRoughness": {
        "metallicFactor": 0,
        "baseColorTexture": {
          "index": 0
        }
      }
    }
  ],
  "meshes": [
    {
      "primitives": [
        {
          "attributes": {
            "POSITION": 33,
            "NORMAL": 34,
            "TEXCOORD_0": 35
          },
          "mode": 4,
          "material": 0,
          "indices": 32
        }
      ]
    },
    {
      "primitives": [
        {
          "attributes": {
            "POSITION": 36,
            "TEXCOORD_0": 37,
            "NORMAL": 34
          },
          "mode": 4,
          "material": 0,
          "indices": 32
        }
      ]
    },
    {
      "primitives": [
        {
          "attributes": {
            "POSITION": 38,
            "TEXCOORD_0": 39,
            "NORMAL": 34
          },
          "mode": 4,
          "material": 0,
          "indices": 32
        }
      ]
    },
    {
      "primitives": [
        {
          "attributes": {
            "POSITION": 40,
            "TEXCOORD_0": 41,
            "NORMAL": 34
          },
          "mode": 4,
          "material": 0,
          "indices": 32
        }
      ]
    },
    {
      "primitives": [
        {
          "attributes": {
            "POSITION": 42,
            "TEXCOORD_0": 43,
            "NORMAL": 34
          },
          "mode": 4,
          "material": 0,
          "indices": 32
        }
      ]
    },
    {
      "primitives": [
        {
          "attributes": {
            "POSITION": 44,
            "TEXCOORD_0": 45,
            "NORMAL": 34
          },
          "mode": 4,
          "material": 0,
          "indices": 32
        }
      ]
    },
    {
      "primitives": [
        {
          "attributes": {
            "POSITION": 42,
            "NORMAL": 34,
            "TEXCOORD_0": 43
          },
          "mode": 4,
          "material": 0,
          "indices": 32
        }
      ]
    },
    {
      "primitives": [
        {
          "attributes": {
            "POSITION": 44,
            "NORMAL": 34,
            "TEXCOORD_0": 45
          },
          "mode": 4,
          "material": 0,
          "indices": 32
        }
      ]
    },
    {
      "primitives": [
        {
          "attributes": {
            "POSITION": 46,
            "TEXCOORD_0": 47,
            "NORMAL": 34
          },
          "mode": 4,
          "material": 0,
          "indices": 32
        }
      ]
    }
  ],
  "nodes": [
    {
      "name": "cube",
      "translation": [
        0,
        0,
        -0.09375
      ],
      "mesh": 0
    },
    {
      "name": "cube",
      "translation": [
        0,
        -0.0625,
        -0.125
      ],
      "mesh": 1
    },
    {
      "name": "cube",
      "translation": [
        -0.0625,
        0,
        -0.125
      ],
      "mesh": 2
    },
    {
      "name": "cube",
      "translation": [
        0.0625,
        0,
        -0.125
      ],
      "mesh": 3
    },
    {
      "name": "head",
      "translation": [
        0,
        0.125,
        -0.21875
      ],
      "children": [
        1,
        2,
        3
      ]
    },
    {
      "name": "cube",
      "translation": [
        -0.0625,
        -0.125,
        -0.03125
      ],
      "mesh": 4
    },
    {
      "name": "leftArm",
      "translation": [
        -0.125,
        0.0640625,
        -0.15625
      ],
      "children": [
        5
      ]
    },
    {
      "name": "cube",
      "translation": [
        0.0625,
        -0.125,
        -0.03125
      ],
      "mesh": 5
    },
    {
      "name": "rightArm",
      "translation": [
        0.125,
        0.0640625,
        -0.15625
      ],
      "children": [
        7
      ]
    },
    {
      "name": "cube",
      "translation": [
        -0.0625,
        -0.125,
        -0.03125
      ],
      "mesh": 6
    },
    {
      "name": "leftLeg",
      "translation": [
        -0.125,
        0.0640625,
        0.15625
      ],
      "children": [
        9
      ]
    },
    {
      "name": "cube",
      "translation": [
        0.0625,
        -0.125,
        -0.03125
      ],
      "mesh": 7
    },
    {
      "name": "rightLeg",
      "translation": [
        0.125,
        0.0640625,
        0.15625
      ],
      "children": [
        11
      ]
    },
    {
      "name": "cube",
      "translation": [
        0,
        -0.09375,
        0.0625
      ],
      "mesh": 8
    },
    {
      "name": "tail",
      "translation": [
        0,
        0.09375,
        0.28125
      ],
      "children": [
        13
      ]
    },
    {
      "name": "root",
      "translation": [
        0,
        0,
        0.03125
      ],
      "children": [
        0,
        4,
        6,
        8,
        10,
        12,
        14
      ]
    },
    {
      "children": [
        15
      ]
    }
  ],
  "animations": [
    {
      "name": "idle",
      "samplers": [
        {
          "input": 12,
          "output": 13,
          "interpolation": "LINEAR"
        },
        {
          "input": 14,
          "output": 15,
          "interpolation": "LINEAR"
        },
        {
          "input": 16,
          "output": 17,
          "interpolation": "LINEAR"
        },
        {
          "input": 16,
          "output": 18,
          "interpolation": "LINEAR"
        },
        {
          "input": 16,
          "output": 19,
          "interpolation": "LINEAR"
        },
        {
          "input": 16,
          "output": 20,
          "interpolation": "LINEAR"
        },
        {
          "input": 21,
          "output": 22,
          "interpolation": "LINEAR"
        }
      ],
      "channels": [
        {
          "sampler": 0,
          "target": {
            "node": 15,
            "path": "translation"
          }
        },
        {
          "sampler": 1,
          "target": {
            "node": 4,
            "path": "rotation"
          }
        },
        {
          "sampler": 2,
          "target": {
            "node": 6,
            "path": "rotation"
          }
        },
        {
          "sampler": 3,
          "target": {
            "node": 8,
            "path": "rotation"
          }
        },
        {
          "sampler": 4,
          "target": {
            "node": 10,
            "path": "rotation"
          }
        },
        {
          "sampler": 5,
          "target": {
            "node": 12,
            "path": "rotation"
          }
        },
        {
          "sampler": 6,
          "target": {
            "node": 14,
            "path": "rotation"
          }
        }
      ]
    },
    {
      "name": "walk",
      "samplers": [
        {
          "input": 23,
          "output": 24,
          "interpolation": "LINEAR"
        },
        {
          "input": 25,
          "output": 26,
          "interpolation": "LINEAR"
        },
        {
          "input": 23,
          "output": 27,
          "interpolation": "LINEAR"
        },
        {
          "input": 0,
          "output": 1,
          "interpolation": "LINEAR"
        },
        {
          "input": 0,
          "output": 2,
          "interpolation": "LINEAR"
        },
        {
          "input": 0,
          "output": 3,
          "interpolation": "LINEAR"
        },
        {
          "input": 0,
          "output": 4,
          "interpolation": "LINEAR"
        },
        {
          "input": 0,
          "output": 5,
          "interpolation": "LINEAR"
        }
      ],
      "channels": [
        {
          "sampler": 0,
          "target": {
            "node": 15,
            "path": "rotation"
          }
        },
        {
          "sampler": 1,
          "target": {
            "node": 15,
            "path": "translation"
          }
        },
        {
          "sampler": 2,
          "target": {
            "node": 4,
            "path": "rotation"
          }
        },
        {
          "sampler": 3,
          "target": {
            "node": 6,
            "path": "rotation"
          }
        },
        {
          "sampler": 4,
          "target": {
            "node": 8,
            "path": "rotation"
          }
        },
        {
          "sampler": 5,
          "target": {
            "node": 10,
            "path": "rotation"
          }
        },
        {
          "sampler": 6,
          "target": {
            "node": 12,
            "path": "rotation"
          }
        },
        {
          "sampler": 7,
          "target": {
            "node": 14,
            "path": "rotation"
          }
        }
      ]
    },
    {
      "name": "run",
      "samplers": [
        {
          "input": 28,
          "output": 29,
          "interpolation": "LINEAR"
        },
        {
          "input": 28,
          "output": 30,
          "interpolation": "LINEAR"
        },
        {
          "input": 28,
          "output": 31,
          "interpolation": "LINEAR"
        },
        {
          "input": 6,
          "output": 7,
          "interpolation": "LINEAR"
        },
        {
          "input": 6,
          "output": 8,
          "interpolation": "LINEAR"
        },
        {
          "input": 6,
          "output": 9,
          "interpolation": "LINEAR"
        },
        {
          "input": 6,
          "output": 10,
          "interpolation": "LINEAR"
        },
        {
          "input": 6,
          "output": 11,
          "interpolation": "LINEAR"
        }
      ],
      "channels": [
        {
          "sampler": 0,
          "target": {
            "node": 15,
            "path": "rotation"
          }
        },
        {
          "sampler": 1,
          "target": {
            "node": 15,
            "path": "translation"
          }
        },
        {
          "sampler": 2,
          "target": {
            "node": 4,
            "path": "rotation"
          }
        },
        {
          "sampler": 3,
          "target": {
            "node": 6,
            "path": "rotation"
          }
        },
        {
          "sampler": 4,
          "target": {
            "node": 8,
            "path": "rotation"
          }
        },
        {
          "sampler": 5,
          "target": {
            "node": 10,
            "path": "rotation"
          }
        },
        {
          "sampler": 6,
          "target": {
            "node": 12,
            "path": "rotation"
          }
        },
        {
          "sampler": 7,
          "target": {
            "node": 14,
            "path": "rotation"
          }
        }
      ]
    }
  ],
  "scenes": [
    {
      "name": "blockbench_export",
      "nodes": [
        16
      ]
    }
  ],
  "scene": 0
}