{
  "asset": {
    "generator": "glTF-Transform v4.2.1",
    "version": "2.0"
  },
  "accessors": [
    {
      "type": "SCALAR",
      "componentType": 5123,
      "count": 126,
      "bufferView": 0,
      "byteOffset": 0
    },
    {
      "type": "SCALAR",
      "componentType": 5123,
      "count": 372,
      "bufferView": 0,
      "byteOffset": 252
    },
    {
      "type": "SCALAR",
      "componentType": 5123,
      "count": 336,
      "bufferView": 0,
      "byteOffset": 996
    },
    {
      "type": "SCALAR",
      "componentType": 5123,
      "count": 396,
      "bufferView": 0,
      "byteOffset": 1668
    },
    {
      "type": "SCALAR",
      "componentType": 5123,
      "count": 552,
      "bufferView": 0,
      "byteOffset": 2460
    },
    {
      "type": "SCALAR",
      "componentType": 5123,
      "count": 864,
      "bufferView": 0,
      "byteOffset": 3564
    },
    {
      "type": "SCALAR",
      "componentType": 5123,
      "count": 384,
      "bufferView": 0,
      "byteOffset": 5292
    },
    {
      "type": "SCALAR",
      "componentType": 5123,
      "count": 2700,
      "bufferView": 0,
      "byteOffset": 6060
    },
    {
      "type": "VEC3",
      "componentType": 5126,
      "count": 72,
      "max": [
        0.4375,
        0.06562499701976776,
        2.0179662704467773
      ],
      "min": [
        -0.4521053731441498,
        0,
        1.0355511903762817
      ],
      "bufferView": 1,
      "byteOffset": 0
    },
    {
      "type": "VEC3",
      "componentType": 5126,
      "count": 72,
      "bufferView": 1,
      "byteOffset": 12
    },
    {
      "type": "VEC2",
      "componentType": 5126,
      "count": 72,
      "bufferView": 1,
      "byteOffset": 24
    },
    {
      "type": "VEC3",
      "componentType": 5126,
      "count": 232,
      "max": [
        0.4375,
        0.4046795964241028,
        -1
      ],
      "min": [
        -0.4375,
        0,
        -1.9375
      ],
      "bufferView": 2,
      "byteOffset": 0
    },
    {
      "type": "VEC2",
      "componentType": 5126,
      "count": 232,
      "bufferView": 2,
      "byteOffset": 12
    },
    {
      "type": "VEC3",
      "componentType": 5126,
      "count": 232,
      "bufferView": 2,
      "byteOffset": 20
    },
    {
      "type": "VEC3",
      "componentType": 5126,
      "count": 208,
      "max": [
        0.4375,
        0.8125,
        0.4375
      ],
      "min": [
        -0.4375,
        0,
        -0.4375
      ],
      "bufferView": 3,
      "byteOffset": 0
    },
    {
      "type": "VEC2",
      "componentType": 5126,
      "count": 208,
      "bufferView": 3,
      "byteOffset": 12
    },
    {
      "type": "VEC3",
      "componentType": 5126,
      "count": 208,
      "bufferView": 3,
      "byteOffset": 20
    },
    {
      "type": "VEC3",
      "componentType": 5126,
      "count": 240,
      "max": [
        1.9027777910232544,
        0.0625,
        3.625
      ],
      "min": [
        -0.25,
        0,
        0
      ],
      "bufferView": 4,
      "byteOffset": 0
    },
    {
      "type": "VEC2",
      "componentType": 5126,
      "count": 240,
      "bufferView": 4,
      "byteOffset": 12
    },
    {
      "type": "VEC3",
      "componentType": 5126,
      "count": 240,
      "bufferView": 4,
      "byteOffset": 20
    },
    {
      "type": "VEC3",
      "componentType": 5126,
      "count": 352,
      "max": [
        0.125,
        1.5625,
        1.7374999523162842
      ],
      "min": [
        -0.125,
        0,
        -0.125
      ],
      "bufferView": 5,
      "byteOffset": 0
    },
    {
      "type": "VEC2",
      "componentType": 5126,
      "count": 352,
      "bufferView": 5,
      "byteOffset": 12
    },
    {
      "type": "VEC3",
      "componentType": 5126,
      "count": 352,
      "bufferView": 5,
      "byteOffset": 20
    },
    {
      "type": "VEC3",
      "componentType": 5126,
      "count": 576,
      "max": [
        2.043402671813965,
        0.34375,
        2.984375
      ],
      "min": [
        0.234375,
        0,
        0.046875
      ],
      "bufferView": 6,
      "byteOffset": 0
    },
    {
      "type": "VEC2",
      "componentType": 5126,
      "count": 576,
      "bufferView": 6,
      "byteOffset": 12
    },
    {
      "type": "VEC3",
      "componentType": 5126,
      "count": 576,
      "bufferView": 6,
      "byteOffset": 20
    },
    {
      "type": "VEC3",
      "componentType": 5126,
      "count": 244,
      "max": [
        1.25,
        0.75,
        1.46875
      ],
      "min": [
        -1.125,
        -0.125,
        -2.53125
      ],
      "bufferView": 7,
      "byteOffset": 0
    },
    {
      "type": "VEC2",
      "componentType": 5126,
      "count": 244,
      "bufferView": 7,
      "byteOffset": 12
    },
    {
      "type": "VEC3",
      "componentType": 5126,
      "count": 244,
      "bufferView": 7,
      "byteOffset": 20
    },
    {
      "type": "VEC3",
      "componentType": 5126,
      "count": 1728,
      "max": [
        0.859375,
        1.5625,
        2.25
      ],
      "min": [
        -3.4781250953674316,
        0,
        -1.5
      ],
      "bufferView": 8,
      "byteOffset": 0
    },
    {
      "type": "VEC2",
      "componentType": 5126,
      "count": 1728,
      "bufferView": 8,
      "byteOffset": 12
    },
    {
      "type": "VEC3",
      "componentType": 5126,
      "count": 1728,
      "bufferView": 8,
      "byteOffset": 20
    }
  ],
  "bufferViews": [
    {
      "buffer": 0,
      "byteOffset": 0,
      "byteLength": 11460,
      "target": 34963
    },
    {
      "buffer": 0,
      "byteOffset": 11460,
      "byteLength": 2304,
      "byteStride": 32,
      "target": 34962
    },
    {
      "buffer": 0,
      "byteOffset": 13764,
      "byteLength": 7424,
      "byteStride": 32,
      "target": 34962
    },
    {
      "buffer": 0,
      "byteOffset": 21188,
      "byteLength": 6656,
      "byteStride": 32,
      "target": 34962
    },
    {
      "buffer": 0,
      "byteOffset": 27844,
      "byteLength": 7680,
      "byteStride": 32,
      "target": 34962
    },
    {
      "buffer": 0,
      "byteOffset": 35524,
      "byteLength": 11264,
      "byteStride": 32,
      "target": 34962
    },
    {
      "buffer": 0,
      "byteOffset": 46788,
      "byteLength": 18432,
      "byteStride": 32,
      "target": 34962
    },
    {
      "buffer": 0,
      "byteOffset": 65220,
      "byteLength": 7808,
      "byteStride": 32,
      "target": 34962
    },
    {
      "buffer": 0,
      "byteOffset": 73028,
      "byteLength": 55296,
      "byteStride": 32,
      "target": 34962
    }
  ],
  "samplers": [
    {
      "magFilter": 9728,
      "minFilter": 9728,
      "wrapS": 33071,
      "wrapT": 33071
    }
  ],
  "textures": [
    {
      "source": 0,
      "sampler": 0
    },
    {
      "source": 1,
      "sampler": 0
    },
    {
      "source": 2,
      "sampler": 0
    },
    {
      "source": 3,
      "sampler": 0
    },
    {
      "source": 4,
      "sampler": 0
    },
    {
      "source": 5,
      "sampler": 0
    },
    {
      "source": 6,
      "sampler": 0
    },
    {
      "source": 7,
      "sampler": 0
    }
  ],
  "images": [
    {
      "mimeType": "image/png",
      "uri": "baseColor_1.png"
    },
    {
      "mimeType": "image/png",
      "uri": "baseColor_2.png"
    },
    {
      "mimeType": "image/png",
      "uri": "baseColor_3.png"
    },
    {
      "mimeType": "image/png",
      "uri": "baseColor_4.png"
    },
    {
      "mimeType": "image/png",
      "uri": "baseColor_5.png"
    },
    {
      "mimeType": "image/png",
      "uri": "baseColor_6.png"
    },
    {
      "mimeType": "image/png",
      "uri": "baseColor_7.png"
    },
    {
      "mimeType": "image/png",
      "uri": "baseColor_8.png"
    }
  ],
  "buffers": [
    {
      "uri": "christmas-table.bin",
      "byteLength": 128324
    }
  ],
  "materials": [
    {
      "alphaMode": "MASK",
      "alphaCutoff": 0.05,
      "doubleSided": true,
      "pbrMetallicRoughness": {
        "metallicFactor": 0,
        "baseColorTexture": {
          "index": 0
        }
      }
    },
    {
      "alphaMode": "MASK",
      "alphaCutoff": 0.05,
      "doubleSided": true,
      "pbrMetallicRoughness": {
        "metallicFactor": 0,
        "baseColorTexture": {
          "index": 1
        }
      }
    },
    {
      "alphaMode": "MASK",
      "alphaCutoff": 0.05,
      "doubleSided": true,
      "pbrMetallicRoughness": {
        "metallicFactor": 0,
        "baseColorTexture": {
          "index": 2
        }
      }
    },
    {
      "alphaMode": "MASK",
      "alphaCutoff": 0.05,
      "doubleSided": true,
      "pbrMetallicRoughness": {
        "metallicFactor": 0,
        "baseColorTexture": {
          "index": 3
        }
      }
    },
    {
      "alphaMode": "MASK",
      "alphaCutoff": 0.05,
      "doubleSided": true,
      "pbrMetallicRoughness": {
        "metallicFactor": 0,
        "baseColorTexture": {
          "index": 4
        }
      }
    },
    {
      "alphaMode": "MASK",
      "alphaCutoff": 0.05,
      "doubleSided": true,
      "pbrMetallicRoughness": {
        "metallicFactor": 0,
        "baseColorTexture": {
          "index": 5
        }
      }
    },
    {
      "alphaMode": "MASK",
      "alphaCutoff": 0.05,
      "doubleSided": true,
      "pbrMetallicRoughness": {
        "metallicFactor": 0,
        "baseColorTexture": {
          "index": 6
        }
      }
    },
    {
      "alphaMode": "MASK",
      "alphaCutoff": 0.05,
      "doubleSided": true,
      "pbrMetallicRoughness": {
        "metallicFactor": 0,
        "baseColorTexture": {
          "index": 7
        }
      }
    }
  ],
  "meshes": [
    {
      "primitives": [
        {
          "attributes": {
            "POSITION": 8,
            "NORMAL": 9,
            "TEXCOORD_0": 10
          },
          "mode": 4,
          "material": 0,
          "indices": 0
        }
      ]
    },
    {
      "primitives": [
        {
          "attributes": {
            "POSITION": 11,
            "TEXCOORD_0": 12,
            "NORMAL": 13
          },
          "mode": 4,
          "material": 1,
          "indices": 1
        }
      ]
    },
    {
      "primitives": [
        {
          "attributes": {
            "POSITION": 14,
            "TEXCOORD_0": 15,
            "NORMAL": 16
          },
          "mode": 4,
          "material": 2,
          "indices": 2
        }
      ]
    },
    {
      "primitives": [
        {
          "attributes": {
            "POSITION": 17,
            "TEXCOORD_0": 18,
            "NORMAL": 19
          },
          "mode": 4,
          "material": 3,
          "indices": 3
        }
      ]
    },
    {
      "primitives": [
        {
          "attributes": {
            "POSITION": 20,
            "TEXCOORD_0": 21,
            "NORMAL": 22
          },
          "mode": 4,
          "material": 4,
          "indices": 4
        }
      ]
    },
    {
      "primitives": [
        {
          "attributes": {
            "POSITION": 23,
            "TEXCOORD_0": 24,
            "NORMAL": 25
          },
          "mode": 4,
          "material": 5,
          "indices": 5
        }
      ]
    },
    {
      "primitives": [
        {
          "attributes": {
            "POSITION": 26,
            "TEXCOORD_0": 27,
            "NORMAL": 28
          },
          "mode": 4,
          "material": 6,
          "indices": 6
        }
      ]
    },
    {
      "primitives": [
        {
          "attributes": {
            "POSITION": 29,
            "TEXCOORD_0": 30,
            "NORMAL": 31
          },
          "mode": 4,
          "material": 7,
          "indices": 7
        }
      ]
    }
  ],
  "nodes": [
    {
      "name": "cube",
      "translation": [
        -0.0022097089546257304,
        0.875,
        2.634178070115567e-9
      ],
      "mesh": 0
    },
    {
      "name": "cube",
      "translation": [
        -0.0022097089546257304,
        0.875,
        2.634178070115567e-9
      ],
      "mesh": 1
    },
    {
      "name": "cube",
      "translation": [
        -0.0022097089546257304,
        0.875,
        2.634178070115567e-9
      ],
      "mesh": 2
    },
    {
      "name": "cube",
      "translation": [
        -0.8263888888888888,
        0.875,
        -1.6875
      ],
      "mesh": 3
    },
    {
      "name": "cube",
      "translation": [
        -0.002777777777777768,
        0.8875,
        -0.8062499999999999
      ],
      "mesh": 4
    },
    {
      "name": "cube",
      "translation": [
        -1.1388888888888888,
        0.875,
        -1.921875
      ],
      "mesh": 5
    },
    {
      "name": "cube",
      "translation": [
        -0.0763888888888889,
        0.125,
        0.53125
      ],
      "mesh": 6
    },
    {
      "name": "cube",
      "translation": [
        1.309374999254942,
        0,
        -0.375
      ],
      "mesh": 7
    }
  ],
  "scenes": [
    {
      "name": "blockbench_export",
      "nodes": [
        0,
        1,
        2,
        3,
        4,
        5,
        6,
        7
      ]
    }
  ],
  "scene": 0
}