{"asset":{"version":"2.0","generator":"Blockbench 4.11.2 glTF exporter"},"scenes":[{"nodes":[13],"name":"blockbench_export"}],"scene":0,"nodes":[{"translation":[0.375,-1.125,0.375],"name":"cube","mesh":0},{"translation":[-0.375,-1.125,0.375],"name":"cube","mesh":1},{"translation":[-0.375,-1.125,-0.375],"name":"cube","mesh":2},{"translation":[0.375,-1.125,-0.375],"name":"cube","mesh":3},{"translation":[0.4062499999999999,-1,-0.3437500000000001],"name":"cube","mesh":4},{"translation":[-0.3437500000000001,-1,-0.3437500000000001],"name":"cube","mesh":5},{"translation":[-0.3437500000000001,-1,0.4062499999999999],"name":"cube","mesh":6},{"translation":[0.4062499999999999,-1,0.4062499999999999],"name":"cube","mesh":7},{"translation":[0,-1.375,0],"name":"cube","mesh":8},{"rotation":[4.329780281177466e-17,0.7071067811865475,-0.7071067811865476,4.329780281177467e-17],"translation":[-0.40625,0.3125,-0.375],"name":"plane","mesh":9},{"translation":[0.40625,-0.3125,0.375],"name":"aura_image_splash","children":[9]},{"translation":[-1.1449174941446927e-16,-0.6875,0.03124999999999989],"name":"aura_spin","children":[10]},{"translation":[0,1.6875,0],"name":"root","children":[0,1,2,3,4,5,6,7,8,11]},{"children":[12]}],"bufferViews":[{"buffer":0,"byteOffset":0,"byteLength":288,"target":34962,"byteStride":12},{"buffer":0,"byteOffset":288,"byteLength":288,"target":34962,"byteStride":12},{"buffer":0,"byteOffset":576,"byteLength":192,"target":34962,"byteStride":8},{"buffer":0,"byteOffset":768,"byteLength":72,"target":34963},{"buffer":0,"byteOffset":840,"byteLength":288,"target":34962,"byteStride":12},{"buffer":0,"byteOffset":1128,"byteLength":288,"target":34962,"byteStride":12},{"buffer":0,"byteOffset":1416,"byteLength":192,"target":34962,"byteStride":8},{"buffer":0,"byteOffset":1608,"byteLength":72,"target":34963},{"buffer":0,"byteOffset":1680,"byteLength":288,"target":34962,"byteStride":12},{"buffer":0,"byteOffset":1968,"byteLength":288,"target":34962,"byteStride":12},{"buffer":0,"byteOffset":2256,"byteLength":192,"target":34962,"byteStride":8},{"buffer":0,"byteOffset":2448,"byteLength":72,"target":34963},{"buffer":0,"byteOffset":2520,"byteLength":288,"target":34962,"byteStride":12},{"buffer":0,"byteOffset":2808,"byteLength":288,"target":34962,"byteStride":12},{"buffer":0,"byteOffset":3096,"byteLength":192,"target":34962,"byteStride":8},{"buffer":0,"byteOffset":3288,"byteLength":72,"target":34963},{"buffer":0,"byteOffset":3360,"byteLength":288,"target":34962,"byteStride":12},{"buffer":0,"byteOffset":3648,"byteLength":288,"target":34962,"byteStride":12},{"buffer":0,"byteOffset":3936,"byteLength":192,"target":34962,"byteStride":8},{"buffer":0,"byteOffset":4128,"byteLength":72,"target":34963},{"buffer":0,"byteOffset":4200,"byteLength":288,"target":34962,"byteStride":12},{"buffer":0,"byteOffset":4488,"byteLength":288,"target":34962,"byteStride":12},{"buffer":0,"byteOffset":4776,"byteLength":192,"target":34962,"byteStride":8},{"buffer":0,"byteOffset":4968,"byteLength":72,"target":34963},{"buffer":0,"byteOffset":5040,"byteLength":288,"target":34962,"byteStride":12},{"buffer":0,"byteOffset":5328,"byteLength":288,"target":34962,"byteStride":12},{"buffer":0,"byteOffset":5616,"byteLength":192,"target":34962,"byteStride":8},{"buffer":0,"byteOffset":5808,"byteLength":72,"target":34963},{"buffer":0,"byteOffset":5880,"byteLength":288,"target":34962,"byteStride":12},{"buffer":0,"byteOffset":6168,"byteLength":288,"target":34962,"byteStride":12},{"buffer":0,"byteOffset":6456,"byteLength":192,"target":34962,"byteStride":8},{"buffer":0,"byteOffset":6648,"byteLength":72,"target":34963},{"buffer":0,"byteOffset":6720,"byteLength":1824,"target":34962,"byteStride":12},{"buffer":0,"byteOffset":8544,"byteLength":1824,"target":34962,"byteStride":12},{"buffer":0,"byteOffset":10368,"byteLength":1216,"target":34962,"byteStride":8},{"buffer":0,"byteOffset":11584,"byteLength":456,"target":34963},{"buffer":0,"byteOffset":12040,"byteLength":48,"target":34962,"byteStride":12},{"buffer":0,"byteOffset":12088,"byteLength":48,"target":34962,"byteStride":12},{"buffer":0,"byteOffset":12136,"byteLength":32,"target":34962,"byteStride":8},{"buffer":0,"byteOffset":12168,"byteLength":12,"target":34963},{"buffer":0,"byteOffset":12180,"byteLength":620},{"buffer":0,"byteOffset":12800,"byteLength":1860},{"buffer":0,"byteOffset":14660,"byteLength":632},{"buffer":0,"byteOffset":15292,"byteLength":2528},{"buffer":0,"byteOffset":17820,"byteLength":620},{"buffer":0,"byteOffset":18440,"byteLength":1860},{"buffer":0,"byteOffset":20300,"byteLength":620},{"buffer":0,"byteOffset":20920,"byteLength":1860},{"buffer":0,"byteOffset":22780,"byteLength":620},{"buffer":0,"byteOffset":23400,"byteLength":1860}],"buffers":[{"byteLength":25260,"uri":"data:application/octet-stream;base64,"}],"accessors":[{"bufferView":0,"componentType":5126,"count":24,"max":[0.0625,0.125,0.0625],"min":[-0.0625,0,-0.0625],"type":"VEC3"},{"bufferView":1,"componentType":5126,"count":24,"max":[1,1,1],"min":[-1,-1,-1],"type":"VEC3"},{"bufferView":2,"componentType":5126,"count":24,"max":[0.546875,0.609375],"min":[0.28125,0.5625],"type":"VEC2"},{"bufferView":3,"componentType":5123,"count":36,"max":[23],"min":[0],"type":"SCALAR"},{"bufferView":4,"componentType":5126,"count":24,"max":[0.0625,0.125,0.0625],"min":[-0.0625,0,-0.0625],"type":"VEC3"},{"bufferView":5,"componentType":5126,"count":24,"max":[1,1,1],"min":[-1,-1,-1],"type":"VEC3"},{"bufferView":6,"componentType":5126,"count":24,"max":[0.59375,0.625],"min":[0,0.578125],"type":"VEC2"},{"bufferView":7,"componentType":5123,"count":36,"max":[23],"min":[0],"type":"SCALAR"},{"bufferView":8,"componentType":5126,"count":24,"max":[0.0625,0.125,0.0625],"min":[-0.0625,0,-0.0625],"type":"VEC3"},{"bufferView":9,"componentType":5126,"count":24,"max":[1,1,1],"min":[-1,-1,-1],"type":"VEC3"},{"bufferView":10,"componentType":5126,"count":24,"max":[0.640625,0.65625],"min":[0.234375,0.46875],"type":"VEC2"},{"bufferView":11,"componentType":5123,"count":36,"max":[23],"min":[0],"type":"SCALAR"},{"bufferView":12,"componentType":5126,"count":24,"max":[0.0625,0.125,0.0625],"min":[-0.0625,0,-0.0625],"type":"VEC3"},{"bufferView":13,"componentType":5126,"count":24,"max":[1,1,1],"min":[-1,-1,-1],"type":"VEC3"},{"bufferView":14,"componentType":5126,"count":24,"max":[0.640625,0.671875],"min":[0,0.625],"type":"VEC2"},{"bufferView":15,"componentType":5123,"count":36,"max":[23],"min":[0],"type":"SCALAR"},{"bufferView":16,"componentType":5126,"count":24,"max":[0,0.125,0],"min":[-0.0625,0,-0.0625],"type":"VEC3"},{"bufferView":17,"componentType":5126,"count":24,"max":[1,1,1],"min":[-1,-1,-1],"type":"VEC3"},{"bufferView":18,"componentType":5126,"count":24,"max":[0.671875,0.6875],"min":[0.265625,0.140625],"type":"VEC2"},{"bufferView":19,"componentType":5123,"count":36,"max":[23],"min":[0],"type":"SCALAR"},{"bufferView":20,"componentType":5126,"count":24,"max":[0,0.125,0],"min":[-0.0625,0,-0.0625],"type":"VEC3"},{"bufferView":21,"componentType":5126,"count":24,"max":[1,1,1],"min":[-1,-1,-1],"type":"VEC3"},{"bufferView":22,"componentType":5126,"count":24,"max":[0.671875,0.671875],"min":[0.234375,0.09375],"type":"VEC2"},{"bufferView":23,"componentType":5123,"count":36,"max":[23],"min":[0],"type":"SCALAR"},{"bufferView":24,"componentType":5126,"count":24,"max":[0,0.125,0],"min":[-0.0625,0,-0.0625],"type":"VEC3"},{"bufferView":25,"componentType":5126,"count":24,"max":[1,1,1],"min":[-1,-1,-1],"type":"VEC3"},{"bufferView":26,"componentType":5126,"count":24,"max":[0.609375,0.671875],"min":[0.109375,0.28125],"type":"VEC2"},{"bufferView":27,"componentType":5123,"count":36,"max":[23],"min":[0],"type":"SCALAR"},{"bufferView":28,"componentType":5126,"count":24,"max":[0,0.125,0],"min":[-0.0625,0,-0.0625],"type":"VEC3"},{"bufferView":29,"componentType":5126,"count":24,"max":[1,1,1],"min":[-1,-1,-1],"type":"VEC3"},{"bufferView":30,"componentType":5126,"count":24,"max":[0.359375,0.671875],"min":[0.046875,0.046875],"type":"VEC2"},{"bufferView":31,"componentType":5123,"count":36,"max":[23],"min":[0],"type":"SCALAR"},{"bufferView":32,"componentType":5126,"count":152,"max":[0.4375,0.25,0.4375],"min":[-0.4375,-0.3125,-0.4375],"type":"VEC3"},{"bufferView":33,"componentType":5126,"count":152,"max":[1,1,1],"min":[-1,-1,-1],"type":"VEC3"},{"bufferView":34,"componentType":5126,"count":152,"max":[0.6875,0.578125],"min":[0,0],"type":"VEC2"},{"bufferView":35,"componentType":5123,"count":228,"max":[151],"min":[0],"type":"SCALAR"},{"bufferView":36,"componentType":5126,"count":4,"max":[0.46875,0,0.46875],"min":[-0.46875,0,-0.46875],"type":"VEC3"},{"bufferView":37,"componentType":5126,"count":4,"max":[0,1,0],"min":[0,1,0],"type":"VEC3"},{"bufferView":38,"componentType":5126,"count":4,"max":[1,1],"min":[0,0],"type":"VEC2"},{"bufferView":39,"componentType":5123,"count":6,"max":[3],"min":[0],"type":"SCALAR"},{"bufferView":40,"componentType":5126,"count":155,"max":[8],"min":[0],"type":"SCALAR"},{"bufferView":41,"componentType":5126,"count":155,"max":[0.40625,-0.25,0.375],"min":[0.40625,-0.3125,0.375],"type":"VEC3"},{"bufferView":42,"componentType":5126,"count":158,"max":[8],"min":[0],"type":"SCALAR"},{"bufferView":43,"componentType":5126,"count":158,"max":[0,0,0,1],"min":[0,-1,0,-1],"type":"VEC4"},{"bufferView":44,"componentType":5126,"count":155,"max":[8],"min":[0],"type":"SCALAR"},{"bufferView":45,"componentType":5126,"count":155,"max":[0.40625,-0.25,0.375],"min":[0.40625,-0.3125,0.375],"type":"VEC3"},{"bufferView":46,"componentType":5126,"count":155,"max":[8],"min":[0],"type":"SCALAR"},{"bufferView":47,"componentType":5126,"count":155,"max":[0.40625,-0.25,0.375],"min":[0.40625,-0.3125,0.375],"type":"VEC3"},{"bufferView":48,"componentType":5126,"count":155,"max":[8],"min":[0],"type":"SCALAR"},{"bufferView":49,"componentType":5126,"count":155,"max":[0.40625,-0.25,0.375],"min":[0.40625,-0.3125,0.375],"type":"VEC3"}],"materials":[{"pbrMetallicRoughness":{"metallicFactor":0,"roughnessFactor":1,"baseColorTexture":{"index":0}},"alphaMode":"MASK","alphaCutoff":0.05,"doubleSided":true},{"pbrMetallicRoughness":{"metallicFactor":0,"roughnessFactor":1,"baseColorTexture":{"index":1}},"alphaMode":"MASK","alphaCutoff":0.05,"doubleSided":true}],"textures":[{"sampler":0,"source":0,"name":"aura_tower_texture"},{"sampler":1,"source":1}],"samplers":[{"magFilter":9728,"minFilter":9728,"wrapS":33071,"wrapT":33071},{"magFilter":9728,"minFilter":9728,"wrapS":33071,"wrapT":33071}],"images":[{"mimeType":"image/png","uri":"data:image/png;base64,"},{"mimeType":"image/png","uri":"data:image/png;base64,"}],"meshes":[{"primitives":[{"mode":4,"attributes":{"POSITION":0,"NORMAL":1,"TEXCOORD_0":2},"indices":3,"material":0}]},{"primitives":[{"mode":4,"attributes":{"POSITION":4,"NORMAL":5,"TEXCOORD_0":6},"indices":7,"material":0}]},{"primitives":[{"mode":4,"attributes":{"POSITION":8,"NORMAL":9,"TEXCOORD_0":10},"indices":11,"material":0}]},{"primitives":[{"mode":4,"attributes":{"POSITION":12,"NORMAL":13,"TEXCOORD_0":14},"indices":15,"material":0}]},{"primitives":[{"mode":4,"attributes":{"POSITION":16,"NORMAL":17,"TEXCOORD_0":18},"indices":19,"material":0}]},{"primitives":[{"mode":4,"attributes":{"POSITION":20,"NORMAL":21,"TEXCOORD_0":22},"indices":23,"material":0}]},{"primitives":[{"mode":4,"attributes":{"POSITION":24,"NORMAL":25,"TEXCOORD_0":26},"indices":27,"material":0}]},{"primitives":[{"mode":4,"attributes":{"POSITION":28,"NORMAL":29,"TEXCOORD_0":30},"indices":31,"material":0}]},{"primitives":[{"mode":4,"attributes":{"POSITION":32,"NORMAL":33,"TEXCOORD_0":34},"indices":35,"material":0}]},{"primitives":[{"mode":4,"attributes":{"POSITION":36,"NORMAL":37,"TEXCOORD_0":38},"indices":39,"material":1}]}],"animations":[{"name":"idle","samplers":[{"input":40,"output":41,"interpolation":"LINEAR"},{"input":42,"output":43,"interpolation":"LINEAR"},{"input":44,"output":45,"interpolation":"LINEAR"},{"input":46,"output":47,"interpolation":"LINEAR"},{"input":48,"output":49,"interpolation":"LINEAR"}],"channels":[{"sampler":0,"target":{"path":"translation"}},{"sampler":1,"target":{"node":11,"path":"rotation"}},{"sampler":2,"target":{"path":"translation"}},{"sampler":3,"target":{"node":10,"path":"translation"}},{"sampler":4,"target":{"path":"translation"}}]}]}