{"asset":{"version":"2.0","generator":"Blockbench 4.11.2 glTF exporter"},"scenes":[{"nodes":[11],"name":"blockbench_export"}],"scene":0,"nodes":[{"name":"cube","mesh":0},{"rotation":[0.5,-0.4999999999999999,0.5,0.5000000000000001],"name":"plane","mesh":1},{"translation":[0,1.8125,0],"name":"main_orb","children":[1]},{"translation":[-0.25,1.375,0.4375],"name":"sphere","mesh":2},{"translation":[0.5,1.0625,-0.0625],"name":"sphere","mesh":3},{"rotation":[0.5,-0.4999999999999999,0.5,0.5000000000000001],"translation":[-0.0625,2.3125,-0.25],"name":"plane","mesh":4},{"name":"orbs_1","children":[3,4,5]},{"translation":[-0.4375,1.0625,-0.25],"name":"sphere","mesh":5},{"translation":[0.1875,1.5625,0.375],"name":"sphere","mesh":6},{"rotation":[0.5,-0.4999999999999999,0.5,0.5000000000000001],"translation":[0.25,1.5,-0.4375],"name":"plane","mesh":7},{"name":"orbs_2","children":[7,8,9]},{"children":[0,2,6,10]}],"bufferViews":[{"buffer":0,"byteOffset":0,"byteLength":4416,"target":34962,"byteStride":12},{"buffer":0,"byteOffset":4416,"byteLength":4416,"target":34962,"byteStride":12},{"buffer":0,"byteOffset":8832,"byteLength":2944,"target":34962,"byteStride":8},{"buffer":0,"byteOffset":11776,"byteLength":1092,"target":34963},{"buffer":0,"byteOffset":12868,"byteLength":3264,"target":34962,"byteStride":12},{"buffer":0,"byteOffset":16132,"byteLength":3264,"target":34962,"byteStride":12},{"buffer":0,"byteOffset":19396,"byteLength":2176,"target":34962,"byteStride":8},{"buffer":0,"byteOffset":21572,"byteLength":24,"target":34963},{"buffer":0,"byteOffset":21596,"byteLength":720,"target":34963},{"buffer":0,"byteOffset":22316,"byteLength":3264,"target":34962,"byteStride":12},{"buffer":0,"byteOffset":25580,"byteLength":3264,"target":34962,"byteStride":12},{"buffer":0,"byteOffset":28844,"byteLength":2176,"target":34962,"byteStride":8},{"buffer":0,"byteOffset":31020,"byteLength":720,"target":34963},{"buffer":0,"byteOffset":31740,"byteLength":24,"target":34963},{"buffer":0,"byteOffset":31764,"byteLength":3264,"target":34962,"byteStride":12},{"buffer":0,"byteOffset":35028,"byteLength":3264,"target":34962,"byteStride":12},{"buffer":0,"byteOffset":38292,"byteLength":2176,"target":34962,"byteStride":8},{"buffer":0,"byteOffset":40468,"byteLength":720,"target":34963},{"buffer":0,"byteOffset":41188,"byteLength":24,"target":34963},{"buffer":0,"byteOffset":41212,"byteLength":3264,"target":34962,"byteStride":12},{"buffer":0,"byteOffset":44476,"byteLength":3264,"target":34962,"byteStride":12},{"buffer":0,"byteOffset":47740,"byteLength":2176,"target":34962,"byteStride":8},{"buffer":0,"byteOffset":49916,"byteLength":24,"target":34963},{"buffer":0,"byteOffset":49940,"byteLength":720,"target":34963},{"buffer":0,"byteOffset":50660,"byteLength":3264,"target":34962,"byteStride":12},{"buffer":0,"byteOffset":53924,"byteLength":3264,"target":34962,"byteStride":12},{"buffer":0,"byteOffset":57188,"byteLength":2176,"target":34962,"byteStride":8},{"buffer":0,"byteOffset":59364,"byteLength":720,"target":34963},{"buffer":0,"byteOffset":60084,"byteLength":24,"target":34963},{"buffer":0,"byteOffset":60108,"byteLength":3264,"target":34962,"byteStride":12},{"buffer":0,"byteOffset":63372,"byteLength":3264,"target":34962,"byteStride":12},{"buffer":0,"byteOffset":66636,"byteLength":2176,"target":34962,"byteStride":8},{"buffer":0,"byteOffset":68812,"byteLength":720,"target":34963},{"buffer":0,"byteOffset":69532,"byteLength":24,"target":34963},{"buffer":0,"byteOffset":69556,"byteLength":3264,"target":34962,"byteStride":12},{"buffer":0,"byteOffset":72820,"byteLength":3264,"target":34962,"byteStride":12},{"buffer":0,"byteOffset":76084,"byteLength":2176,"target":34962,"byteStride":8},{"buffer":0,"byteOffset":78260,"byteLength":24,"target":34963},{"buffer":0,"byteOffset":78284,"byteLength":720,"target":34963},{"buffer":0,"byteOffset":79004,"byteLength":16},{"buffer":0,"byteOffset":79020,"byteLength":64},{"buffer":0,"byteOffset":79084,"byteLength":16},{"buffer":0,"byteOffset":79100,"byteLength":64},{"buffer":0,"byteOffset":79164,"byteLength":12},{"buffer":0,"byteOffset":79176,"byteLength":48},{"buffer":0,"byteOffset":79224,"byteLength":256},{"buffer":0,"byteOffset":79480,"byteLength":768},{"buffer":0,"byteOffset":80248,"byteLength":256},{"buffer":0,"byteOffset":80504,"byteLength":768}],"buffers":[{"byteLength":81272,"uri":"data:application/octet-stream;base64,"}],"accessors":[{"bufferView":0,"componentType":5126,"count":368,"max":[0.35624995827674866,2.306537628173828,0.3125],"min":[-0.38900890946388245,0,-0.3125],"type":"VEC3"},{"bufferView":1,"componentType":5126,"count":368,"max":[1,1,1],"min":[-1,-1,-1],"type":"VEC3"},{"bufferView":2,"componentType":5126,"count":368,"max":[1,0.8571428656578064],"min":[0,0],"type":"VEC2"},{"bufferView":3,"componentType":5123,"count":546,"max":[367],"min":[0],"type":"SCALAR"},{"bufferView":4,"componentType":5126,"count":272,"max":[0.3125,0.3125,0.3125],"min":[-0.3125,-0.3125,-0.3125],"type":"VEC3"},{"bufferView":5,"componentType":5126,"count":272,"max":[0.9659258127212524,1,0.9659258127212524],"min":[-1,-0.9659258127212524,-0.9659258127212524],"type":"VEC3"},{"bufferView":6,"componentType":5126,"count":272,"max":[0.6288265585899353,0.6288264989852905],"min":[0,0],"type":"VEC2"},{"bufferView":7,"componentType":5123,"count":12,"max":[7],"min":[0],"type":"SCALAR"},{"bufferView":8,"componentType":5123,"count":360,"max":[271],"min":[8],"type":"SCALAR"},{"bufferView":9,"componentType":5126,"count":272,"max":[0.1875,0.1875,0.1875],"min":[-0.1875,-0.1875,-0.1875],"type":"VEC3"},{"bufferView":10,"componentType":5126,"count":272,"max":[0.9659258127212524,0.9659258127212524,0.9659258127212524],"min":[-1,-0.9659258127212524,-1],"type":"VEC3"},{"bufferView":11,"componentType":5126,"count":272,"max":[0.6288265585899353,0.6288264989852905],"min":[0,0],"type":"VEC2"},{"bufferView":12,"componentType":5123,"count":360,"max":[263],"min":[0],"type":"SCALAR"},{"bufferView":13,"componentType":5123,"count":12,"max":[271],"min":[264],"type":"SCALAR"},{"bufferView":14,"componentType":5126,"count":272,"max":[0.125,0.125,0.125],"min":[-0.125,-0.125,-0.125],"type":"VEC3"},{"bufferView":15,"componentType":5126,"count":272,"max":[0.9659258127212524,0.9659258127212524,0.9659258127212524],"min":[-1,-0.9659258127212524,-1],"type":"VEC3"},{"bufferView":16,"componentType":5126,"count":272,"max":[0.6288265585899353,0.6288264989852905],"min":[0,0],"type":"VEC2"},{"bufferView":17,"componentType":5123,"count":360,"max":[263],"min":[0],"type":"SCALAR"},{"bufferView":18,"componentType":5123,"count":12,"max":[271],"min":[264],"type":"SCALAR"},{"bufferView":19,"componentType":5126,"count":272,"max":[0.125,0.125,0.125],"min":[-0.125,-0.125,-0.125],"type":"VEC3"},{"bufferView":20,"componentType":5126,"count":272,"max":[0.9659258127212524,1,0.9659258127212524],"min":[-1,-0.9659258127212524,-0.9659258127212524],"type":"VEC3"},{"bufferView":21,"componentType":5126,"count":272,"max":[0.6288265585899353,0.6288264989852905],"min":[0,0],"type":"VEC2"},{"bufferView":22,"componentType":5123,"count":12,"max":[7],"min":[0],"type":"SCALAR"},{"bufferView":23,"componentType":5123,"count":360,"max":[271],"min":[8],"type":"SCALAR"},{"bufferView":24,"componentType":5126,"count":272,"max":[0.125,0.125,0.125],"min":[-0.125,-0.125,-0.125],"type":"VEC3"},{"bufferView":25,"componentType":5126,"count":272,"max":[0.9659258127212524,0.9659258127212524,0.9659258127212524],"min":[-1,-0.9659258127212524,-1],"type":"VEC3"},{"bufferView":26,"componentType":5126,"count":272,"max":[0.6288265585899353,0.6288264989852905],"min":[0,0],"type":"VEC2"},{"bufferView":27,"componentType":5123,"count":360,"max":[263],"min":[0],"type":"SCALAR"},{"bufferView":28,"componentType":5123,"count":12,"max":[271],"min":[264],"type":"SCALAR"},{"bufferView":29,"componentType":5126,"count":272,"max":[0.125,0.125,0.125],"min":[-0.125,-0.125,-0.125],"type":"VEC3"},{"bufferView":30,"componentType":5126,"count":272,"max":[0.9659258127212524,0.9659258127212524,0.9659258127212524],"min":[-1,-0.9659258127212524,-1],"type":"VEC3"},{"bufferView":31,"componentType":5126,"count":272,"max":[0.6488248109817505,0.6530612111091614],"min":[0,0],"type":"VEC2"},{"bufferView":32,"componentType":5123,"count":360,"max":[263],"min":[0],"type":"SCALAR"},{"bufferView":33,"componentType":5123,"count":12,"max":[271],"min":[264],"type":"SCALAR"},{"bufferView":34,"componentType":5126,"count":272,"max":[0.15625,0.15625,0.15625],"min":[-0.15625,-0.15625,-0.15625],"type":"VEC3"},{"bufferView":35,"componentType":5126,"count":272,"max":[0.9659258127212524,1,0.9659258127212524],"min":[-1,-0.9659258127212524,-0.9659258127212524],"type":"VEC3"},{"bufferView":36,"componentType":5126,"count":272,"max":[0.6288265585899353,0.6288264989852905],"min":[0,0],"type":"VEC2"},{"bufferView":37,"componentType":5123,"count":12,"max":[7],"min":[0],"type":"SCALAR"},{"bufferView":38,"componentType":5123,"count":360,"max":[271],"min":[8],"type":"SCALAR"},{"bufferView":39,"componentType":5126,"count":4,"max":[4],"min":[0],"type":"SCALAR"},{"bufferView":40,"componentType":5126,"count":4,"max":[0,0,0,1],"min":[0,-0.8660253882408142,0,-1],"type":"VEC4"},{"bufferView":41,"componentType":5126,"count":4,"max":[4],"min":[0],"type":"SCALAR"},{"bufferView":42,"componentType":5126,"count":4,"max":[0,0.8660253882408142,0,1],"min":[0,0,0,-1],"type":"VEC4"},{"bufferView":43,"componentType":5126,"count":3,"max":[4],"min":[0],"type":"SCALAR"},{"bufferView":44,"componentType":5126,"count":3,"max":[0,0,0,1],"min":[0,0,0,1],"type":"VEC4"},{"bufferView":45,"componentType":5126,"count":64,"max":[4],"min":[0],"type":"SCALAR"},{"bufferView":46,"componentType":5126,"count":64,"max":[0,1.875,0],"min":[0,1.75,0],"type":"VEC3"},{"bufferView":47,"componentType":5126,"count":64,"max":[4],"min":[0],"type":"SCALAR"},{"bufferView":48,"componentType":5126,"count":64,"max":[1.2999999523162842,1.2999999523162842,1.2999999523162842],"min":[1,1,1],"type":"VEC3"}],"materials":[{"pbrMetallicRoughness":{"metallicFactor":0,"roughnessFactor":1,"baseColorTexture":{"index":0}},"alphaMode":"MASK","alphaCutoff":0.05,"doubleSided":true},{"pbrMetallicRoughness":{"metallicFactor":0,"roughnessFactor":1,"baseColorTexture":{"index":1}},"alphaMode":"MASK","alphaCutoff":0.05,"doubleSided":true},{"pbrMetallicRoughness":{"metallicFactor":0,"roughnessFactor":1,"baseColorTexture":{"index":2}},"alphaMode":"MASK","alphaCutoff":0.05,"doubleSided":true}],"textures":[{"sampler":0,"source":0,"name":"spire_texture.png"},{"sampler":1,"source":1,"name":"orb_glow.png"},{"sampler":2,"source":2,"name":"floating_orb.png"}],"samplers":[{"magFilter":9728,"minFilter":9728,"wrapS":33071,"wrapT":33071},{"magFilter":9728,"minFilter":9728,"wrapS":33071,"wrapT":33071},{"magFilter":9728,"minFilter":9728,"wrapS":33071,"wrapT":33071}],"images":[{"mimeType":"image/png","uri":"data:image/png;base64,"},{"mimeType":"image/png","uri":"data:image/png;base64,"},{"mimeType":"image/png","uri":"data:image/png;base64,"}],"meshes":[{"primitives":[{"mode":4,"attributes":{"POSITION":0,"NORMAL":1,"TEXCOORD_0":2},"indices":3,"material":0}]},{"primitives":[{"mode":4,"attributes":{"POSITION":4,"NORMAL":5,"TEXCOORD_0":6},"indices":7,"material":1},{"mode":4,"attributes":{"POSITION":4,"NORMAL":5,"TEXCOORD_0":6},"indices":8,"material":2}]},{"primitives":[{"mode":4,"attributes":{"POSITION":9,"NORMAL":10,"TEXCOORD_0":11},"indices":12,"material":2},{"mode":4,"attributes":{"POSITION":9,"NORMAL":10,"TEXCOORD_0":11},"indices":13,"material":1}]},{"primitives":[{"mode":4,"attributes":{"POSITION":14,"NORMAL":15,"TEXCOORD_0":16},"indices":17,"material":2},{"mode":4,"attributes":{"POSITION":14,"NORMAL":15,"TEXCOORD_0":16},"indices":18,"material":1}]},{"primitives":[{"mode":4,"attributes":{"POSITION":19,"NORMAL":20,"TEXCOORD_0":21},"indices":22,"material":1},{"mode":4,"attributes":{"POSITION":19,"NORMAL":20,"TEXCOORD_0":21},"indices":23,"material":2}]},{"primitives":[{"mode":4,"attributes":{"POSITION":24,"NORMAL":25,"TEXCOORD_0":26},"indices":27,"material":2},{"mode":4,"attributes":{"POSITION":24,"NORMAL":25,"TEXCOORD_0":26},"indices":28,"material":1}]},{"primitives":[{"mode":4,"attributes":{"POSITION":29,"NORMAL":30,"TEXCOORD_0":31},"indices":32,"material":2},{"mode":4,"attributes":{"POSITION":29,"NORMAL":30,"TEXCOORD_0":31},"indices":33,"material":1}]},{"primitives":[{"mode":4,"attributes":{"POSITION":34,"NORMAL":35,"TEXCOORD_0":36},"indices":37,"material":1},{"mode":4,"attributes":{"POSITION":34,"NORMAL":35,"TEXCOORD_0":36},"indices":38,"material":2}]}],"animations":[{"name":"idle","samplers":[{"input":39,"output":40,"interpolation":"LINEAR"},{"input":41,"output":42,"interpolation":"LINEAR"},{"input":43,"output":44,"interpolation":"LINEAR"},{"input":45,"output":46,"interpolation":"LINEAR"},{"input":47,"output":48,"interpolation":"LINEAR"}],"channels":[{"sampler":0,"target":{"node":6,"path":"rotation"}},{"sampler":1,"target":{"node":10,"path":"rotation"}},{"sampler":2,"target":{"node":2,"path":"rotation"}},{"sampler":3,"target":{"node":2,"path":"translation"}},{"sampler":4,"target":{"node":2,"path":"scale"}}]}]}