{"asset":{"version":"2.0","generator":"Blockbench 4.11.2 glTF exporter"},"scenes":[{"nodes":[15],"name":"blockbench_export"}],"scene":0,"nodes":[{"translation":[0,-1.8125,0],"name":"cube","mesh":0},{"translation":[0,0.0625,0],"name":"pyramid","mesh":1},{"translation":[0.03125,-0.4375,0.03125],"name":"cube","mesh":2},{"rotation":[-0.2419218955996677,0,0,0.9702957262759965],"translation":[0.03125,-0.25,0.03125],"name":"cube","mesh":3},{"rotation":[0.25881904510252074,0,0,0.9659258262890683],"translation":[0.03125,-0.14375000000000115,-0.05625],"name":"cube","mesh":4},{"rotation":[0,0.3826834323650898,0,0.9238795325112867],"translation":[0.03180719018405974,-0.00970813036811946,0.22505552172801993],"name":"cube","mesh":5},{"rotation":[0.3826834323650898,0,0,0.9238795325112867],"translation":[0.044307190184059736,-0.13470813036811946,0.10630552172801991],"name":"cube","mesh":6},{"rotation":[0.2705980500730985,0.6532814824381882,-0.27059805007309845,0.6532814824381883],"translation":[0.10680719018405975,-0.13470813036811946,-0.01869447827198011],"name":"cube","mesh":7},{"rotation":[0,0.3826834323650898,0,0.9238795325112867],"translation":[0.23493219018405972,-0.00970813036811946,0.006305521728019917],"name":"cube","mesh":8},{"rotation":[0,0.3826834323650898,0,0.9238795325112867],"translation":[0.03180719018405974,-0.00970813036811946,-0.24369447827198007],"name":"cube","mesh":9},{"rotation":[-0.3826834323650898,0,0,0.9238795325112867],"translation":[0.044307190184059736,-0.07220813036811946,-0.08119447827198009],"name":"cube","mesh":10},{"rotation":[0,0.3826834323650898,0,0.9238795325112867],"translation":[-0.21819280981594028,-0.00970813036811946,0.006305521728019917],"name":"cube","mesh":11},{"rotation":[-0.2705980500730985,0.6532814824381882,0.27059805007309845,0.6532814824381883],"translation":[-0.08069280981594025,-0.07220813036811946,-0.01869447827198011],"name":"cube","mesh":12},{"translation":[0.005692809815940269,-0.36529186963188054,-0.00005552172801989372],"name":"tower_spiral","children":[5,6,7,8,9,10,11,12]},{"translation":[0,1.6875,0],"name":"root","children":[0,1,2,3,4,13]},{"children":[14]}],"bufferViews":[{"buffer":0,"byteOffset":0,"byteLength":1440,"target":34962,"byteStride":12},{"buffer":0,"byteOffset":1440,"byteLength":1440,"target":34962,"byteStride":12},{"buffer":0,"byteOffset":2880,"byteLength":960,"target":34962,"byteStride":8},{"buffer":0,"byteOffset":3840,"byteLength":360,"target":34963},{"buffer":0,"byteOffset":4200,"byteLength":192,"target":34962,"byteStride":12},{"buffer":0,"byteOffset":4392,"byteLength":192,"target":34962,"byteStride":12},{"buffer":0,"byteOffset":4584,"byteLength":128,"target":34962,"byteStride":8},{"buffer":0,"byteOffset":4712,"byteLength":36,"target":34963},{"buffer":0,"byteOffset":4748,"byteLength":288,"target":34962,"byteStride":12},{"buffer":0,"byteOffset":5036,"byteLength":288,"target":34962,"byteStride":12},{"buffer":0,"byteOffset":5324,"byteLength":192,"target":34962,"byteStride":8},{"buffer":0,"byteOffset":5516,"byteLength":72,"target":34963},{"buffer":0,"byteOffset":5588,"byteLength":288,"target":34962,"byteStride":12},{"buffer":0,"byteOffset":5876,"byteLength":288,"target":34962,"byteStride":12},{"buffer":0,"byteOffset":6164,"byteLength":192,"target":34962,"byteStride":8},{"buffer":0,"byteOffset":6356,"byteLength":72,"target":34963},{"buffer":0,"byteOffset":6428,"byteLength":288,"target":34962,"byteStride":12},{"buffer":0,"byteOffset":6716,"byteLength":288,"target":34962,"byteStride":12},{"buffer":0,"byteOffset":7004,"byteLength":192,"target":34962,"byteStride":8},{"buffer":0,"byteOffset":7196,"byteLength":72,"target":34963},{"buffer":0,"byteOffset":7268,"byteLength":288,"target":34962,"byteStride":12},{"buffer":0,"byteOffset":7556,"byteLength":288,"target":34962,"byteStride":12},{"buffer":0,"byteOffset":7844,"byteLength":192,"target":34962,"byteStride":8},{"buffer":0,"byteOffset":8036,"byteLength":72,"target":34963},{"buffer":0,"byteOffset":8108,"byteLength":288,"target":34962,"byteStride":12},{"buffer":0,"byteOffset":8396,"byteLength":288,"target":34962,"byteStride":12},{"buffer":0,"byteOffset":8684,"byteLength":192,"target":34962,"byteStride":8},{"buffer":0,"byteOffset":8876,"byteLength":72,"target":34963},{"buffer":0,"byteOffset":8948,"byteLength":288,"target":34962,"byteStride":12},{"buffer":0,"byteOffset":9236,"byteLength":288,"target":34962,"byteStride":12},{"buffer":0,"byteOffset":9524,"byteLength":192,"target":34962,"byteStride":8},{"buffer":0,"byteOffset":9716,"byteLength":72,"target":34963},{"buffer":0,"byteOffset":9788,"byteLength":288,"target":34962,"byteStride":12},{"buffer":0,"byteOffset":10076,"byteLength":288,"target":34962,"byteStride":12},{"buffer":0,"byteOffset":10364,"byteLength":192,"target":34962,"byteStride":8},{"buffer":0,"byteOffset":10556,"byteLength":72,"target":34963},{"buffer":0,"byteOffset":10628,"byteLength":288,"target":34962,"byteStride":12},{"buffer":0,"byteOffset":10916,"byteLength":288,"target":34962,"byteStride":12},{"buffer":0,"byteOffset":11204,"byteLength":192,"target":34962,"byteStride":8},{"buffer":0,"byteOffset":11396,"byteLength":72,"target":34963},{"buffer":0,"byteOffset":11468,"byteLength":288,"target":34962,"byteStride":12},{"buffer":0,"byteOffset":11756,"byteLength":288,"target":34962,"byteStride":12},{"buffer":0,"byteOffset":12044,"byteLength":192,"target":34962,"byteStride":8},{"buffer":0,"byteOffset":12236,"byteLength":72,"target":34963},{"buffer":0,"byteOffset":12308,"byteLength":288,"target":34962,"byteStride":12},{"buffer":0,"byteOffset":12596,"byteLength":288,"target":34962,"byteStride":12},{"buffer":0,"byteOffset":12884,"byteLength":192,"target":34962,"byteStride":8},{"buffer":0,"byteOffset":13076,"byteLength":72,"target":34963},{"buffer":0,"byteOffset":13148,"byteLength":288,"target":34962,"byteStride":12},{"buffer":0,"byteOffset":13436,"byteLength":288,"target":34962,"byteStride":12},{"buffer":0,"byteOffset":13724,"byteLength":192,"target":34962,"byteStride":8},{"buffer":0,"byteOffset":13916,"byteLength":72,"target":34963},{"buffer":0,"byteOffset":13988,"byteLength":16},{"buffer":0,"byteOffset":14004,"byteLength":64}],"buffers":[{"byteLength":14068,"uri":"data:application/octet-stream;base64,"}],"accessors":[{"bufferView":0,"componentType":5126,"count":120,"max":[0.1875,1.375,0.1875],"min":[-0.1875,0.125,-0.1875],"type":"VEC3"},{"bufferView":1,"componentType":5126,"count":120,"max":[1,1,1],"min":[-1,-1,-1],"type":"VEC3"},{"bufferView":2,"componentType":5126,"count":120,"max":[0.765625,0.703125],"min":[0,0],"type":"VEC2"},{"bufferView":3,"componentType":5123,"count":180,"max":[119],"min":[0],"type":"SCALAR"},{"bufferView":4,"componentType":5126,"count":16,"max":[0.125,0.1875,0.125],"min":[-0.125,-0.0625,-0.125],"type":"VEC3"},{"bufferView":5,"componentType":5126,"count":16,"max":[0.8944271802902222,0.4472135901451111,0.8944271802902222],"min":[-0.8944271802902222,-1,-0.8944271802902222],"type":"VEC3"},{"bufferView":6,"componentType":5126,"count":16,"max":[0.5768417119979858,0.6980795860290527],"min":[0.140625,0],"type":"VEC2"},{"bufferView":7,"componentType":5123,"count":18,"max":[15],"min":[0],"type":"SCALAR"},{"bufferView":8,"componentType":5126,"count":24,"max":[0,0.1875,0],"min":[-0.0625,0,-0.0625],"type":"VEC3"},{"bufferView":9,"componentType":5126,"count":24,"max":[1,1,1],"min":[-1,-1,-1],"type":"VEC3"},{"bufferView":10,"componentType":5126,"count":24,"max":[0.40625,0.296875],"min":[0.28125,0.2578125],"type":"VEC2"},{"bufferView":11,"componentType":5123,"count":36,"max":[23],"min":[0],"type":"SCALAR"},{"bufferView":12,"componentType":5126,"count":24,"max":[0,0.1875,0],"min":[-0.0625,0,-0.0625],"type":"VEC3"},{"bufferView":13,"componentType":5126,"count":24,"max":[1,1,1],"min":[-1,-1,-1],"type":"VEC3"},{"bufferView":14,"componentType":5126,"count":24,"max":[0.40625,0.296875],"min":[0.28125,0.2578125],"type":"VEC2"},{"bufferView":15,"componentType":5123,"count":36,"max":[23],"min":[0],"type":"SCALAR"},{"bufferView":16,"componentType":5126,"count":24,"max":[0,0.1875,6.938893903907228e-18],"min":[-0.0625,0,-0.0625],"type":"VEC3"},{"bufferView":17,"componentType":5126,"count":24,"max":[1,1,1],"min":[-1,-1,-1],"type":"VEC3"},{"bufferView":18,"componentType":5126,"count":24,"max":[0.40625,0.296875],"min":[0.28125,0.2578125],"type":"VEC2"},{"bufferView":19,"componentType":5123,"count":36,"max":[23],"min":[0],"type":"SCALAR"},{"bufferView":20,"componentType":5126,"count":24,"max":[0.03125,0.09375,0.03125],"min":[-0.0625,0,-0.0625],"type":"VEC3"},{"bufferView":21,"componentType":5126,"count":24,"max":[1,1,1],"min":[-1,-1,-1],"type":"VEC3"},{"bufferView":22,"componentType":5126,"count":24,"max":[0.234375,0.8984375],"min":[0,0.7421875],"type":"VEC2"},{"bufferView":23,"componentType":5123,"count":36,"max":[23],"min":[0],"type":"SCALAR"},{"bufferView":24,"componentType":5126,"count":24,"max":[-6.938893903907228e-18,0.1875,0],"min":[-0.0625,0,-0.0625],"type":"VEC3"},{"bufferView":25,"componentType":5126,"count":24,"max":[1,1,1],"min":[-1,-1,-1],"type":"VEC3"},{"bufferView":26,"componentType":5126,"count":24,"max":[0.40625,0.296875],"min":[0.28125,0.2578125],"type":"VEC2"},{"bufferView":27,"componentType":5123,"count":36,"max":[23],"min":[0],"type":"SCALAR"},{"bufferView":28,"componentType":5126,"count":24,"max":[0,0.1875,0],"min":[-0.0625,0,-0.0625],"type":"VEC3"},{"bufferView":29,"componentType":5126,"count":24,"max":[1,1,1],"min":[-1,-1,-1],"type":"VEC3"},{"bufferView":30,"componentType":5126,"count":24,"max":[0.40625,0.296875],"min":[0.28125,0.2578125],"type":"VEC2"},{"bufferView":31,"componentType":5123,"count":36,"max":[23],"min":[0],"type":"SCALAR"},{"bufferView":32,"componentType":5126,"count":24,"max":[0.03125,0.09375,0.03125],"min":[-0.0625,0,-0.0625],"type":"VEC3"},{"bufferView":33,"componentType":5126,"count":24,"max":[1,1,1],"min":[-1,-1,-1],"type":"VEC3"},{"bufferView":34,"componentType":5126,"count":24,"max":[0.234375,0.8984375],"min":[0,0.7421875],"type":"VEC2"},{"bufferView":35,"componentType":5123,"count":36,"max":[23],"min":[0],"type":"SCALAR"},{"bufferView":36,"componentType":5126,"count":24,"max":[0.03125,0.09375,0.03125],"min":[-0.0625,0,-0.0625],"type":"VEC3"},{"bufferView":37,"componentType":5126,"count":24,"max":[1,1,1],"min":[-1,-1,-1],"type":"VEC3"},{"bufferView":38,"componentType":5126,"count":24,"max":[0.234375,0.8984375],"min":[0,0.7421875],"type":"VEC2"},{"bufferView":39,"componentType":5123,"count":36,"max":[23],"min":[0],"type":"SCALAR"},{"bufferView":40,"componentType":5126,"count":24,"max":[-6.938893903907228e-18,0.1875,0],"min":[-0.0625,0,-0.0625],"type":"VEC3"},{"bufferView":41,"componentType":5126,"count":24,"max":[1,1,1],"min":[-1,-1,-1],"type":"VEC3"},{"bufferView":42,"componentType":5126,"count":24,"max":[0.40625,0.296875],"min":[0.28125,0.2578125],"type":"VEC2"},{"bufferView":43,"componentType":5123,"count":36,"max":[23],"min":[0],"type":"SCALAR"},{"bufferView":44,"componentType":5126,"count":24,"max":[0.03125,0.09375,0.03125],"min":[-0.0625,0,-0.0625],"type":"VEC3"},{"bufferView":45,"componentType":5126,"count":24,"max":[1,1,1],"min":[-1,-1,-1],"type":"VEC3"},{"bufferView":46,"componentType":5126,"count":24,"max":[0.234375,0.8984375],"min":[0,0.7421875],"type":"VEC2"},{"bufferView":47,"componentType":5123,"count":36,"max":[23],"min":[0],"type":"SCALAR"},{"bufferView":48,"componentType":5126,"count":24,"max":[0,0.1875,0],"min":[-0.0625,0,-0.0625],"type":"VEC3"},{"bufferView":49,"componentType":5126,"count":24,"max":[1,1,1],"min":[-1,-1,-1],"type":"VEC3"},{"bufferView":50,"componentType":5126,"count":24,"max":[0.40625,0.296875],"min":[0.28125,0.2578125],"type":"VEC2"},{"bufferView":51,"componentType":5123,"count":36,"max":[23],"min":[0],"type":"SCALAR"},{"bufferView":52,"componentType":5126,"count":4,"max":[4],"min":[0],"type":"SCALAR"},{"bufferView":53,"componentType":5126,"count":4,"max":[0,0,0,1],"min":[0,-0.8660253882408142,0,-1],"type":"VEC4"}],"materials":[{"pbrMetallicRoughness":{"metallicFactor":0,"roughnessFactor":1,"baseColorTexture":{"index":0}},"alphaMode":"MASK","alphaCutoff":0.05,"doubleSided":true}],"textures":[{"sampler":0,"source":0,"name":"lightning_tower_texture.png"}],"samplers":[{"magFilter":9728,"minFilter":9728,"wrapS":33071,"wrapT":33071}],"images":[{"mimeType":"image/png","uri":"data:image/png;base64,"}],"meshes":[{"primitives":[{"mode":4,"attributes":{"POSITION":0,"NORMAL":1,"TEXCOORD_0":2},"indices":3,"material":0}]},{"primitives":[{"mode":4,"attributes":{"POSITION":4,"NORMAL":5,"TEXCOORD_0":6},"indices":7,"material":0}]},{"primitives":[{"mode":4,"attributes":{"POSITION":8,"NORMAL":9,"TEXCOORD_0":10},"indices":11,"material":0}]},{"primitives":[{"mode":4,"attributes":{"POSITION":12,"NORMAL":13,"TEXCOORD_0":14},"indices":15,"material":0}]},{"primitives":[{"mode":4,"attributes":{"POSITION":16,"NORMAL":17,"TEXCOORD_0":18},"indices":19,"material":0}]},{"primitives":[{"mode":4,"attributes":{"POSITION":20,"NORMAL":21,"TEXCOORD_0":22},"indices":23,"material":0}]},{"primitives":[{"mode":4,"attributes":{"POSITION":24,"NORMAL":25,"TEXCOORD_0":26},"indices":27,"material":0}]},{"primitives":[{"mode":4,"attributes":{"POSITION":28,"NORMAL":29,"TEXCOORD_0":30},"indices":31,"material":0}]},{"primitives":[{"mode":4,"attributes":{"POSITION":32,"NORMAL":33,"TEXCOORD_0":34},"indices":35,"material":0}]},{"primitives":[{"mode":4,"attributes":{"POSITION":36,"NORMAL":37,"TEXCOORD_0":38},"indices":39,"material":0}]},{"primitives":[{"mode":4,"attributes":{"POSITION":40,"NORMAL":41,"TEXCOORD_0":42},"indices":43,"material":0}]},{"primitives":[{"mode":4,"attributes":{"POSITION":44,"NORMAL":45,"TEXCOORD_0":46},"indices":47,"material":0}]},{"primitives":[{"mode":4,"attributes":{"POSITION":48,"NORMAL":49,"TEXCOORD_0":50},"indices":51,"material":0}]}],"animations":[{"name":"idle","samplers":[{"input":52,"output":53,"interpolation":"LINEAR"}],"channels":[{"sampler":0,"target":{"node":13,"path":"rotation"}}]}]}