{"asset":{"version":"2.0","generator":"Blockbench 4.12.6 glTF exporter"},"scenes":[{"nodes":[16],"name":"blockbench_export"}],"scene":0,"nodes":[{"translation":[-5.551115123125783e-17,-0.1574459046848528,-0.4313467130161722],"name":"cube","mesh":0},{"translation":[-5.551115123125783e-17,-0.1574459046848528,0.5686532869838277],"name":"cube","mesh":1},{"rotation":[0.21643961393810288,0,0,0.9762960071199334],"translation":[-5.551115123125783e-17,0.09255409531514719,-0.05634671301617222],"name":"cube","mesh":2},{"rotation":[-0.2798290140309921,0,0,0.9600498543859287],"translation":[-5.551115123125783e-17,-0.2511959046848528,0.22490328698382772],"name":"cube","mesh":3},{"rotation":[-0.2798290140309921,0,0,0.9600498543859287],"translation":[-5.551115123125783e-17,-0.2511959046848528,0.22490328698382772],"name":"cube","mesh":4},{"rotation":[0.2798290140309921,0,0,0.9600498543859287],"translation":[-5.551115123125783e-17,0.06130409531514719,0.22490328698382772],"name":"cube","mesh":5},{"rotation":[0.2798290140309921,0,0,0.9600498543859287],"translation":[-5.551115123125783e-17,0.06130409531514719,0.22490328698382772],"name":"cube","mesh":6},{"translation":[0.12499999999999994,-0.0625,0.2187500000000001],"name":"cube","mesh":7},{"translation":[-0.125,-0.09494590468485281,-0.6500967130161723],"name":"left_arm","children":[7]},{"translation":[-0.12499999999999994,-0.0625,0.2187500000000001],"name":"cube","mesh":8},{"translation":[0.125,-0.09494590468485281,-0.6500967130161723],"name":"right_arm","children":[9]},{"translation":[-8.326672684688674e-17,-0.046875,-0.625],"name":"cube","mesh":9},{"translation":[-8.326672684688674e-17,0.015625,-0.625],"name":"cube","mesh":10},{"translation":[-8.326672684688674e-17,0.015625,-0.375],"name":"cube","mesh":11},{"translation":[2.7755575615628914e-17,-0.07932090468485281,-0.8063467130161723],"name":"head","children":[11,12,13]},{"translation":[0,0.4699459046848528,0.3561144035944081],"name":"barracuda","children":[0,1,2,3,4,5,6,8,10,14]},{"children":[15]}],"bufferViews":[{"buffer":0,"byteOffset":0,"byteLength":288,"target":34962,"byteStride":12},{"buffer":0,"byteOffset":288,"byteLength":288,"target":34962,"byteStride":12},{"buffer":0,"byteOffset":576,"byteLength":192,"target":34962,"byteStride":8},{"buffer":0,"byteOffset":768,"byteLength":72,"target":34963},{"buffer":0,"byteOffset":840,"byteLength":288,"target":34962,"byteStride":12},{"buffer":0,"byteOffset":1128,"byteLength":288,"target":34962,"byteStride":12},{"buffer":0,"byteOffset":1416,"byteLength":192,"target":34962,"byteStride":8},{"buffer":0,"byteOffset":1608,"byteLength":72,"target":34963},{"buffer":0,"byteOffset":1680,"byteLength":288,"target":34962,"byteStride":12},{"buffer":0,"byteOffset":1968,"byteLength":288,"target":34962,"byteStride":12},{"buffer":0,"byteOffset":2256,"byteLength":192,"target":34962,"byteStride":8},{"buffer":0,"byteOffset":2448,"byteLength":72,"target":34963},{"buffer":0,"byteOffset":2520,"byteLength":240,"target":34962,"byteStride":12},{"buffer":0,"byteOffset":2760,"byteLength":240,"target":34962,"byteStride":12},{"buffer":0,"byteOffset":3000,"byteLength":160,"target":34962,"byteStride":8},{"buffer":0,"byteOffset":3160,"byteLength":60,"target":34963},{"buffer":0,"byteOffset":3220,"byteLength":288,"target":34962,"byteStride":12},{"buffer":0,"byteOffset":3508,"byteLength":288,"target":34962,"byteStride":12},{"buffer":0,"byteOffset":3796,"byteLength":192,"target":34962,"byteStride":8},{"buffer":0,"byteOffset":3988,"byteLength":72,"target":34963},{"buffer":0,"byteOffset":4060,"byteLength":288,"target":34962,"byteStride":12},{"buffer":0,"byteOffset":4348,"byteLength":288,"target":34962,"byteStride":12},{"buffer":0,"byteOffset":4636,"byteLength":192,"target":34962,"byteStride":8},{"buffer":0,"byteOffset":4828,"byteLength":72,"target":34963},{"buffer":0,"byteOffset":4900,"byteLength":240,"target":34962,"byteStride":12},{"buffer":0,"byteOffset":5140,"byteLength":240,"target":34962,"byteStride":12},{"buffer":0,"byteOffset":5380,"byteLength":160,"target":34962,"byteStride":8},{"buffer":0,"byteOffset":5540,"byteLength":60,"target":34963},{"buffer":0,"byteOffset":5600,"byteLength":288,"target":34962,"byteStride":12},{"buffer":0,"byteOffset":5888,"byteLength":288,"target":34962,"byteStride":12},{"buffer":0,"byteOffset":6176,"byteLength":192,"target":34962,"byteStride":8},{"buffer":0,"byteOffset":6368,"byteLength":72,"target":34963},{"buffer":0,"byteOffset":6440,"byteLength":288,"target":34962,"byteStride":12},{"buffer":0,"byteOffset":6728,"byteLength":288,"target":34962,"byteStride":12},{"buffer":0,"byteOffset":7016,"byteLength":192,"target":34962,"byteStride":8},{"buffer":0,"byteOffset":7208,"byteLength":72,"target":34963},{"buffer":0,"byteOffset":7280,"byteLength":288,"target":34962,"byteStride":12},{"buffer":0,"byteOffset":7568,"byteLength":288,"target":34962,"byteStride":12},{"buffer":0,"byteOffset":7856,"byteLength":192,"target":34962,"byteStride":8},{"buffer":0,"byteOffset":8048,"byteLength":72,"target":34963},{"buffer":0,"byteOffset":8120,"byteLength":288,"target":34962,"byteStride":12},{"buffer":0,"byteOffset":8408,"byteLength":288,"target":34962,"byteStride":12},{"buffer":0,"byteOffset":8696,"byteLength":192,"target":34962,"byteStride":8},{"buffer":0,"byteOffset":8888,"byteLength":72,"target":34963},{"buffer":0,"byteOffset":8960,"byteLength":288,"target":34962,"byteStride":12},{"buffer":0,"byteOffset":9248,"byteLength":288,"target":34962,"byteStride":12},{"buffer":0,"byteOffset":9536,"byteLength":192,"target":34962,"byteStride":8},{"buffer":0,"byteOffset":9728,"byteLength":72,"target":34963}],"buffers":[{"byteLength":9800,"uri":"data:application/octet-stream;base64,"}],"accessors":[{"bufferView":0,"componentType":5126,"count":24,"max":[0.125,0.1875,0.5],"min":[-0.125,-0.0625,-0.375],"type":"VEC3"},{"bufferView":1,"componentType":5126,"count":24,"max":[1,1,1],"min":[-1,-1,-1],"type":"VEC3"},{"bufferView":2,"componentType":5126,"count":24,"max":[0.296875,0.375],"min":[0,0],"type":"VEC2"},{"bufferView":3,"componentType":5123,"count":36,"max":[23],"min":[0],"type":"SCALAR"},{"bufferView":4,"componentType":5126,"count":24,"max":[0.0625,0.15625,-0.3125],"min":[-0.0625,-0.03125,-0.5],"type":"VEC3"},{"bufferView":5,"componentType":5126,"count":24,"max":[1,1,1],"min":[-1,-1,-1],"type":"VEC3"},{"bufferView":6,"componentType":5126,"count":24,"max":[0.4375,0.46875],"min":[0,0],"type":"VEC2"},{"bufferView":7,"componentType":5123,"count":36,"max":[23],"min":[0],"type":"SCALAR"},{"bufferView":8,"componentType":5126,"count":24,"max":[0.0625,0.0625,-0.0625],"min":[-0.0625,-0.25,-0.25],"type":"VEC3"},{"bufferView":9,"componentType":5126,"count":24,"max":[1,1,1],"min":[-1,-1,-1],"type":"VEC3"},{"bufferView":10,"componentType":5126,"count":24,"max":[0.4375,0.4375],"min":[0.15625,0.125],"type":"VEC2"},{"bufferView":11,"componentType":5123,"count":36,"max":[23],"min":[0],"type":"SCALAR"},{"bufferView":12,"componentType":5126,"count":20,"max":[0,0.15625,0.15625],"min":[0,-0.15625,0.09375],"type":"VEC3"},{"bufferView":13,"componentType":5126,"count":20,"max":[1,0,0],"min":[-1,0,0],"type":"VEC3"},{"bufferView":14,"componentType":5126,"count":20,"max":[0.31255000829696655,0.546875],"min":[0.125,0.125],"type":"VEC2"},{"bufferView":15,"componentType":5123,"count":30,"max":[19],"min":[0],"type":"SCALAR"},{"bufferView":16,"componentType":5126,"count":24,"max":[0.03125,0.15625,0.09375],"min":[-0.03125,-0.15625,-0.09375],"type":"VEC3"},{"bufferView":17,"componentType":5126,"count":24,"max":[1,1,1],"min":[-1,-1,-1],"type":"VEC3"},{"bufferView":18,"componentType":5126,"count":24,"max":[0.46875,0.53125],"min":[0,0.15625],"type":"VEC2"},{"bufferView":19,"componentType":5123,"count":36,"max":[23],"min":[0],"type":"SCALAR"},{"bufferView":20,"componentType":5126,"count":24,"max":[0.03125,0.15625,0.09375],"min":[-0.03125,-0.15625,-0.09375],"type":"VEC3"},{"bufferView":21,"componentType":5126,"count":24,"max":[1,1,1],"min":[-1,-1,-1],"type":"VEC3"},{"bufferView":22,"componentType":5126,"count":24,"max":[0.46875,0.53125],"min":[0,0.15625],"type":"VEC2"},{"bufferView":23,"componentType":5123,"count":36,"max":[23],"min":[0],"type":"SCALAR"},{"bufferView":24,"componentType":5126,"count":20,"max":[0,0.15625,0.15625],"min":[0,-0.15625,0.09375],"type":"VEC3"},{"bufferView":25,"componentType":5126,"count":20,"max":[1,0,0],"min":[-1,0,0],"type":"VEC3"},{"bufferView":26,"componentType":5126,"count":20,"max":[0.31255000829696655,0.546875],"min":[0.125,0.125],"type":"VEC2"},{"bufferView":27,"componentType":5123,"count":30,"max":[19],"min":[0],"type":"SCALAR"},{"bufferView":28,"componentType":5126,"count":24,"max":[-0.125,0.09375,-0.125],"min":[-0.375,0.03125,-0.3125],"type":"VEC3"},{"bufferView":29,"componentType":5126,"count":24,"max":[1,1,1],"min":[-1,-1,-1],"type":"VEC3"},{"bufferView":30,"componentType":5126,"count":24,"max":[0.515625,0.359375],"min":[0.3125,0],"type":"VEC2"},{"bufferView":31,"componentType":5123,"count":36,"max":[23],"min":[0],"type":"SCALAR"},{"bufferView":32,"componentType":5126,"count":24,"max":[0.375,0.09375,-0.125],"min":[0.125,0.03125,-0.3125],"type":"VEC3"},{"bufferView":33,"componentType":5126,"count":24,"max":[1,1,1],"min":[-1,-1,-1],"type":"VEC3"},{"bufferView":34,"componentType":5126,"count":24,"max":[0.515625,0.359375],"min":[0.3125,0],"type":"VEC2"},{"bufferView":35,"componentType":5123,"count":36,"max":[23],"min":[0],"type":"SCALAR"},{"bufferView":36,"componentType":5126,"count":24,"max":[0.125,0.0625,0.5],"min":[-0.125,-0.0625,0.25],"type":"VEC3"},{"bufferView":37,"componentType":5126,"count":24,"max":[1,1,1],"min":[-1,-1,-1],"type":"VEC3"},{"bufferView":38,"componentType":5126,"count":24,"max":[0.46875,0.296875],"min":[0.15625,0.0625],"type":"VEC2"},{"bufferView":39,"componentType":5123,"count":36,"max":[23],"min":[0],"type":"SCALAR"},{"bufferView":40,"componentType":5126,"count":24,"max":[0.09375,0.0625,0.5],"min":[-0.09375,0,0.25],"type":"VEC3"},{"bufferView":41,"componentType":5126,"count":24,"max":[1,1,1],"min":[-1,-1,-1],"type":"VEC3"},{"bufferView":42,"componentType":5126,"count":24,"max":[0.515625,0.484375],"min":[0.0625,0.0625],"type":"VEC2"},{"bufferView":43,"componentType":5123,"count":36,"max":[23],"min":[0],"type":"SCALAR"},{"bufferView":44,"componentType":5126,"count":24,"max":[0.09375,0.09375,0.375],"min":[-0.09375,-0.125,0.25],"type":"VEC3"},{"bufferView":45,"componentType":5126,"count":24,"max":[1,1,1],"min":[-1,-1,-1],"type":"VEC3"},{"bufferView":46,"componentType":5126,"count":24,"max":[0.40625,0.46875],"min":[0.0625,0.34375],"type":"VEC2"},{"bufferView":47,"componentType":5123,"count":36,"max":[23],"min":[0],"type":"SCALAR"}],"materials":[{"pbrMetallicRoughness":{"metallicFactor":0,"roughnessFactor":1,"baseColorTexture":{"index":0}},"alphaMode":"MASK","alphaCutoff":0.05,"doubleSided":true}],"textures":[{"sampler":0,"source":0,"name":"baddacuda"}],"samplers":[{"magFilter":9728,"minFilter":9728,"wrapS":33071,"wrapT":33071}],"images":[{"mimeType":"image/png","uri":"data:image/png;base64,"}],"meshes":[{"primitives":[{"mode":4,"attributes":{"POSITION":0,"NORMAL":1,"TEXCOORD_0":2},"indices":3,"material":0}]},{"primitives":[{"mode":4,"attributes":{"POSITION":4,"NORMAL":5,"TEXCOORD_0":6},"indices":7,"material":0}]},{"primitives":[{"mode":4,"attributes":{"POSITION":8,"NORMAL":9,"TEXCOORD_0":10},"indices":11,"material":0}]},{"primitives":[{"mode":4,"attributes":{"POSITION":12,"NORMAL":13,"TEXCOORD_0":14},"indices":15,"material":0}]},{"primitives":[{"mode":4,"attributes":{"POSITION":16,"NORMAL":17,"TEXCOORD_0":18},"indices":19,"material":0}]},{"primitives":[{"mode":4,"attributes":{"POSITION":20,"NORMAL":21,"TEXCOORD_0":22},"indices":23,"material":0}]},{"primitives":[{"mode":4,"attributes":{"POSITION":24,"NORMAL":25,"TEXCOORD_0":26},"indices":27,"material":0}]},{"primitives":[{"mode":4,"attributes":{"POSITION":28,"NORMAL":29,"TEXCOORD_0":30},"indices":31,"material":0}]},{"primitives":[{"mode":4,"attributes":{"POSITION":32,"NORMAL":33,"TEXCOORD_0":34},"indices":35,"material":0}]},{"primitives":[{"mode":4,"attributes":{"POSITION":36,"NORMAL":37,"TEXCOORD_0":38},"indices":39,"material":0}]},{"primitives":[{"mode":4,"attributes":{"POSITION":40,"NORMAL":41,"TEXCOORD_0":42},"indices":43,"material":0}]},{"primitives":[{"mode":4,"attributes":{"POSITION":44,"NORMAL":45,"TEXCOORD_0":46},"indices":47,"material":0}]}]}