{"asset":{"version":"2.0","generator":"Blockbench 4.12.6 glTF exporter"},"scenes":[{"nodes":[11],"name":"blockbench_export"}],"scene":0,"nodes":[{"translation":[-0.09375,-0.125,-0.125],"name":"cube","mesh":0},{"translation":[-0.09375,0.25,0.0625],"name":"left_arm","children":[0]},{"translation":[0.09375,-0.125,-0.125],"name":"cube","mesh":1},{"translation":[0.09375,0.25,0.0625],"name":"right_arm","children":[2]},{"translation":[0,-0.09375,-0.375],"name":"cube","mesh":2},{"translation":[0,0.21875,-0.0625],"name":"head","children":[4]},{"translation":[0,0.125,0],"name":"cube","mesh":3},{"translation":[0,0.375,-0.125],"name":"cube","mesh":4},{"translation":[0,0.21875,0.5],"name":"cube","mesh":5},{"translation":[0,0.21875,0.5],"name":"cube","mesh":6},{"translation":[0,0,-0.1875],"name":"blue_tang","children":[1,3,5,6,7,8,9]},{"children":[10]}],"bufferViews":[{"buffer":0,"byteOffset":0,"byteLength":240,"target":34962,"byteStride":12},{"buffer":0,"byteOffset":240,"byteLength":240,"target":34962,"byteStride":12},{"buffer":0,"byteOffset":480,"byteLength":160,"target":34962,"byteStride":8},{"buffer":0,"byteOffset":640,"byteLength":60,"target":34963},{"buffer":0,"byteOffset":700,"byteLength":240,"target":34962,"byteStride":12},{"buffer":0,"byteOffset":940,"byteLength":240,"target":34962,"byteStride":12},{"buffer":0,"byteOffset":1180,"byteLength":160,"target":34962,"byteStride":8},{"buffer":0,"byteOffset":1340,"byteLength":60,"target":34963},{"buffer":0,"byteOffset":1400,"byteLength":288,"target":34962,"byteStride":12},{"buffer":0,"byteOffset":1688,"byteLength":288,"target":34962,"byteStride":12},{"buffer":0,"byteOffset":1976,"byteLength":192,"target":34962,"byteStride":8},{"buffer":0,"byteOffset":2168,"byteLength":72,"target":34963},{"buffer":0,"byteOffset":2240,"byteLength":288,"target":34962,"byteStride":12},{"buffer":0,"byteOffset":2528,"byteLength":288,"target":34962,"byteStride":12},{"buffer":0,"byteOffset":2816,"byteLength":192,"target":34962,"byteStride":8},{"buffer":0,"byteOffset":3008,"byteLength":72,"target":34963},{"buffer":0,"byteOffset":3080,"byteLength":240,"target":34962,"byteStride":12},{"buffer":0,"byteOffset":3320,"byteLength":240,"target":34962,"byteStride":12},{"buffer":0,"byteOffset":3560,"byteLength":160,"target":34962,"byteStride":8},{"buffer":0,"byteOffset":3720,"byteLength":60,"target":34963},{"buffer":0,"byteOffset":3780,"byteLength":240,"target":34962,"byteStride":12},{"buffer":0,"byteOffset":4020,"byteLength":240,"target":34962,"byteStride":12},{"buffer":0,"byteOffset":4260,"byteLength":160,"target":34962,"byteStride":8},{"buffer":0,"byteOffset":4420,"byteLength":60,"target":34963},{"buffer":0,"byteOffset":4480,"byteLength":288,"target":34962,"byteStride":12},{"buffer":0,"byteOffset":4768,"byteLength":288,"target":34962,"byteStride":12},{"buffer":0,"byteOffset":5056,"byteLength":192,"target":34962,"byteStride":8},{"buffer":0,"byteOffset":5248,"byteLength":72,"target":34963}],"buffers":[{"byteLength":5320,"uri":"data:application/octet-stream;base64,"}],"accessors":[{"bufferView":0,"componentType":5126,"count":20,"max":[0.09375,0.125,0.25],"min":[-0.09375,0.125,0],"type":"VEC3"},{"bufferView":1,"componentType":5126,"count":20,"max":[1,1,0],"min":[0,0,0],"type":"VEC3"},{"bufferView":2,"componentType":5126,"count":20,"max":[0.09375,0.625],"min":[0,0],"type":"VEC2"},{"bufferView":3,"componentType":5123,"count":30,"max":[19],"min":[0],"type":"SCALAR"},{"bufferView":4,"componentType":5126,"count":20,"max":[0.09375,0.125,0.25],"min":[-0.09375,0.125,0],"type":"VEC3"},{"bufferView":5,"componentType":5126,"count":20,"max":[1,1,0],"min":[0,0,0],"type":"VEC3"},{"bufferView":6,"componentType":5126,"count":20,"max":[0.09375,0.625],"min":[0,0],"type":"VEC2"},{"bufferView":7,"componentType":5123,"count":30,"max":[19],"min":[0],"type":"SCALAR"},{"bufferView":8,"componentType":5126,"count":24,"max":[0.0625,0.25,0.3125],"min":[-0.0625,-0.015625,0.1875],"type":"VEC3"},{"bufferView":9,"componentType":5126,"count":24,"max":[1,1,1],"min":[-1,-1,-1],"type":"VEC3"},{"bufferView":10,"componentType":5126,"count":24,"max":[0.6875,0.71875],"min":[0,0.5],"type":"VEC2"},{"bufferView":11,"componentType":5123,"count":36,"max":[23],"min":[0],"type":"SCALAR"},{"bufferView":12,"componentType":5126,"count":24,"max":[0.09375,0.25,0.4375],"min":[-0.09375,-0.0625,-0.125],"type":"VEC3"},{"bufferView":13,"componentType":5126,"count":24,"max":[1,1,1],"min":[-1,-1,-1],"type":"VEC3"},{"bufferView":14,"componentType":5126,"count":24,"max":[0.53125,0.59375],"min":[0,0],"type":"VEC2"},{"bufferView":15,"componentType":5123,"count":36,"max":[23],"min":[0],"type":"SCALAR"},{"bufferView":16,"componentType":5126,"count":20,"max":[0,0.1875,0.5625],"min":[0,0,0],"type":"VEC3"},{"bufferView":17,"componentType":5126,"count":20,"max":[1,0,0],"min":[-1,0,0],"type":"VEC3"},{"bufferView":18,"componentType":5126,"count":20,"max":[0.28125,0.46875],"min":[0,0],"type":"VEC2"},{"bufferView":19,"componentType":5123,"count":30,"max":[19],"min":[0],"type":"SCALAR"},{"bufferView":20,"componentType":5126,"count":20,"max":[0,0.09375,0.25],"min":[0,-0.09375,-0.0625],"type":"VEC3"},{"bufferView":21,"componentType":5126,"count":20,"max":[1,0,0],"min":[-1,0,0],"type":"VEC3"},{"bufferView":22,"componentType":5126,"count":20,"max":[0.59375,0.46875],"min":[0,0],"type":"VEC2"},{"bufferView":23,"componentType":5123,"count":30,"max":[19],"min":[0],"type":"SCALAR"},{"bufferView":24,"componentType":5126,"count":24,"max":[0.046875,0.09375,0.0625],"min":[-0.046875,-0.09375,-0.0625],"type":"VEC3"},{"bufferView":25,"componentType":5126,"count":24,"max":[1,1,1],"min":[-1,-1,-1],"type":"VEC3"},{"bufferView":26,"componentType":5126,"count":24,"max":[0.6875,0.71875],"min":[0.3125,0],"type":"VEC2"},{"bufferView":27,"componentType":5123,"count":36,"max":[23],"min":[0],"type":"SCALAR"}],"materials":[{"pbrMetallicRoughness":{"metallicFactor":0,"roughnessFactor":1,"baseColorTexture":{"index":0}},"alphaMode":"MASK","alphaCutoff":0.05,"doubleSided":true}],"textures":[{"sampler":0,"source":0,"name":"blue_tang"}],"samplers":[{"magFilter":9728,"minFilter":9728,"wrapS":33071,"wrapT":33071}],"images":[{"mimeType":"image/png","uri":"data:image/png;base64,"}],"meshes":[{"primitives":[{"mode":4,"attributes":{"POSITION":0,"NORMAL":1,"TEXCOORD_0":2},"indices":3,"material":0}]},{"primitives":[{"mode":4,"attributes":{"POSITION":4,"NORMAL":5,"TEXCOORD_0":6},"indices":7,"material":0}]},{"primitives":[{"mode":4,"attributes":{"POSITION":8,"NORMAL":9,"TEXCOORD_0":10},"indices":11,"material":0}]},{"primitives":[{"mode":4,"attributes":{"POSITION":12,"NORMAL":13,"TEXCOORD_0":14},"indices":15,"material":0}]},{"primitives":[{"mode":4,"attributes":{"POSITION":16,"NORMAL":17,"TEXCOORD_0":18},"indices":19,"material":0}]},{"primitives":[{"mode":4,"attributes":{"POSITION":20,"NORMAL":21,"TEXCOORD_0":22},"indices":23,"material":0}]},{"primitives":[{"mode":4,"attributes":{"POSITION":24,"NORMAL":25,"TEXCOORD_0":26},"indices":27,"material":0}]}]}