{"asset":{"version":"2.0","generator":"Blockbench 5.0.3 glTF exporter"},"scenes":[{"nodes":[22],"name":"blockbench_export"}],"scene":0,"nodes":[{"translation":[-0.8384875,-0.20335562500000004,0],"name":"cube","mesh":0},{"rotation":[0,0,0.06540312923014306,0.9978589232386035],"translation":[-0.7134875,-0.04710562500000004,0],"name":"cube","mesh":1},{"rotation":[0,0,-0.06540312923014306,0.9978589232386035],"translation":[-0.897851875,-0.32417937500000005,0],"name":"cube","mesh":2},{"translation":[-0.951415625,0.03727687499999999,0],"name":"cube","mesh":3},{"translation":[-2.201415625,0.03727687499999999,0],"name":"cube","mesh":4},{"name":"cube","mesh":5},{"rotation":[0,0,-0.13052619222005157,0.9914448613738104],"translation":[-0.15625,-0.15625,0],"name":"cube","mesh":6},{"name":"cube","mesh":7},{"name":"cube","mesh":8},{"name":"cube","mesh":9},{"name":"cube","mesh":10},{"translation":[0.117334375,0.03727687499999999,-0.5140625000000001],"name":"cube","mesh":11},{"translation":[0.117334375,0.03727687499999999,-0.5140625000000001],"name":"cube","mesh":12},{"translation":[0.117334375,0.03727687499999999,-0.5140625000000001],"name":"cube","mesh":13},{"translation":[0.117334375,0.03727687499999999,-0.5140625000000001],"name":"cube","mesh":14},{"translation":[0.117334375,0.03727687499999999,-0.5140625000000001],"name":"cube_selection","mesh":15},{"translation":[0.117334375,0.03727687499999999,-0.5140625000000001],"name":"cube","mesh":16},{"translation":[0.117334375,0.03727687499999999,-0.5140625000000001],"name":"cube","mesh":17},{"translation":[0.117334375,0.03727687499999999,0.5140625],"name":"cube","mesh":18},{"rotation":[0,0,0.7071067811865475,0.7071067811865476],"translation":[-0.8046875,0.577894375,0],"name":"plane","mesh":19},{"translation":[-0.9086475,-0.272301875,0.507915],"name":"cube","mesh":20},{"translation":[0.040388125,-0.337723125,-0.513671875],"name":"magazine2","children":[20]},{"rotation":[0,0.7071067811865475,0,0.7071067811865476],"translation":[0.004687500000000001,0.890855625,-0.5625],"name":"mp7","children":[0,1,2,3,4,5,6,7,8,9,10,11,12,13,14,15,16,17,18,19,21]}],"bufferViews":[{"buffer":0,"byteOffset":0,"byteLength":960,"target":34962,"byteStride":12},{"buffer":0,"byteOffset":960,"byteLength":960,"target":34962,"byteStride":12},{"buffer":0,"byteOffset":1920,"byteLength":640,"target":34962,"byteStride":8},{"buffer":0,"byteOffset":2560,"byteLength":240,"target":34963},{"buffer":0,"byteOffset":2800,"byteLength":480,"target":34962,"byteStride":12},{"buffer":0,"byteOffset":3280,"byteLength":480,"target":34962,"byteStride":12},{"buffer":0,"byteOffset":3760,"byteLength":320,"target":34962,"byteStride":8},{"buffer":0,"byteOffset":4080,"byteLength":120,"target":34963},{"buffer":0,"byteOffset":4200,"byteLength":672,"target":34962,"byteStride":12},{"buffer":0,"byteOffset":4872,"byteLength":672,"target":34962,"byteStride":12},{"buffer":0,"byteOffset":5544,"byteLength":448,"target":34962,"byteStride":8},{"buffer":0,"byteOffset":5992,"byteLength":168,"target":34963},{"buffer":0,"byteOffset":6160,"byteLength":1056,"target":34962,"byteStride":12},{"buffer":0,"byteOffset":7216,"byteLength":1056,"target":34962,"byteStride":12},{"buffer":0,"byteOffset":8272,"byteLength":704,"target":34962,"byteStride":8},{"buffer":0,"byteOffset":8976,"byteLength":264,"target":34963},{"buffer":0,"byteOffset":9240,"byteLength":1056,"target":34962,"byteStride":12},{"buffer":0,"byteOffset":10296,"byteLength":1056,"target":34962,"byteStride":12},{"buffer":0,"byteOffset":11352,"byteLength":704,"target":34962,"byteStride":8},{"buffer":0,"byteOffset":12056,"byteLength":264,"target":34963},{"buffer":0,"byteOffset":12320,"byteLength":288,"target":34962,"byteStride":12},{"buffer":0,"byteOffset":12608,"byteLength":288,"target":34962,"byteStride":12},{"buffer":0,"byteOffset":12896,"byteLength":192,"target":34962,"byteStride":8},{"buffer":0,"byteOffset":13088,"byteLength":72,"target":34963},{"buffer":0,"byteOffset":13160,"byteLength":1248,"target":34962,"byteStride":12},{"buffer":0,"byteOffset":14408,"byteLength":1248,"target":34962,"byteStride":12},{"buffer":0,"byteOffset":15656,"byteLength":832,"target":34962,"byteStride":8},{"buffer":0,"byteOffset":16488,"byteLength":312,"target":34963},{"buffer":0,"byteOffset":16800,"byteLength":288,"target":34962,"byteStride":12},{"buffer":0,"byteOffset":17088,"byteLength":288,"target":34962,"byteStride":12},{"buffer":0,"byteOffset":17376,"byteLength":192,"target":34962,"byteStride":8},{"buffer":0,"byteOffset":17568,"byteLength":72,"target":34963},{"buffer":0,"byteOffset":17640,"byteLength":480,"target":34962,"byteStride":12},{"buffer":0,"byteOffset":18120,"byteLength":480,"target":34962,"byteStride":12},{"buffer":0,"byteOffset":18600,"byteLength":320,"target":34962,"byteStride":8},{"buffer":0,"byteOffset":18920,"byteLength":120,"target":34963},{"buffer":0,"byteOffset":19040,"byteLength":768,"target":34962,"byteStride":12},{"buffer":0,"byteOffset":19808,"byteLength":768,"target":34962,"byteStride":12},{"buffer":0,"byteOffset":20576,"byteLength":512,"target":34962,"byteStride":8},{"buffer":0,"byteOffset":21088,"byteLength":192,"target":34963},{"buffer":0,"byteOffset":21280,"byteLength":768,"target":34962,"byteStride":12},{"buffer":0,"byteOffset":22048,"byteLength":768,"target":34962,"byteStride":12},{"buffer":0,"byteOffset":22816,"byteLength":512,"target":34962,"byteStride":8},{"buffer":0,"byteOffset":23328,"byteLength":192,"target":34963},{"buffer":0,"byteOffset":23520,"byteLength":288,"target":34962,"byteStride":12},{"buffer":0,"byteOffset":23808,"byteLength":288,"target":34962,"byteStride":12},{"buffer":0,"byteOffset":24096,"byteLength":192,"target":34962,"byteStride":8},{"buffer":0,"byteOffset":24288,"byteLength":72,"target":34963},{"buffer":0,"byteOffset":24360,"byteLength":288,"target":34962,"byteStride":12},{"buffer":0,"byteOffset":24648,"byteLength":288,"target":34962,"byteStride":12},{"buffer":0,"byteOffset":24936,"byteLength":192,"target":34962,"byteStride":8},{"buffer":0,"byteOffset":25128,"byteLength":72,"target":34963},{"buffer":0,"byteOffset":25200,"byteLength":672,"target":34962,"byteStride":12},{"buffer":0,"byteOffset":25872,"byteLength":672,"target":34962,"byteStride":12},{"buffer":0,"byteOffset":26544,"byteLength":448,"target":34962,"byteStride":8},{"buffer":0,"byteOffset":26992,"byteLength":168,"target":34963},{"buffer":0,"byteOffset":27160,"byteLength":288,"target":34962,"byteStride":12},{"buffer":0,"byteOffset":27448,"byteLength":288,"target":34962,"byteStride":12},{"buffer":0,"byteOffset":27736,"byteLength":192,"target":34962,"byteStride":8},{"buffer":0,"byteOffset":27928,"byteLength":72,"target":34963},{"buffer":0,"byteOffset":28000,"byteLength":192,"target":34962,"byteStride":12},{"buffer":0,"byteOffset":28192,"byteLength":192,"target":34962,"byteStride":12},{"buffer":0,"byteOffset":28384,"byteLength":128,"target":34962,"byteStride":8},{"buffer":0,"byteOffset":28512,"byteLength":48,"target":34963},{"buffer":0,"byteOffset":28560,"byteLength":240,"target":34962,"byteStride":12},{"buffer":0,"byteOffset":28800,"byteLength":240,"target":34962,"byteStride":12},{"buffer":0,"byteOffset":29040,"byteLength":160,"target":34962,"byteStride":8},{"buffer":0,"byteOffset":29200,"byteLength":60,"target":34963},{"buffer":0,"byteOffset":29260,"byteLength":288,"target":34962,"byteStride":12},{"buffer":0,"byteOffset":29548,"byteLength":288,"target":34962,"byteStride":12},{"buffer":0,"byteOffset":29836,"byteLength":192,"target":34962,"byteStride":8},{"buffer":0,"byteOffset":30028,"byteLength":72,"target":34963},{"buffer":0,"byteOffset":30100,"byteLength":288,"target":34962,"byteStride":12},{"buffer":0,"byteOffset":30388,"byteLength":288,"target":34962,"byteStride":12},{"buffer":0,"byteOffset":30676,"byteLength":192,"target":34962,"byteStride":8},{"buffer":0,"byteOffset":30868,"byteLength":72,"target":34963},{"buffer":0,"byteOffset":30940,"byteLength":48,"target":34962,"byteStride":12},{"buffer":0,"byteOffset":30988,"byteLength":48,"target":34962,"byteStride":12},{"buffer":0,"byteOffset":31036,"byteLength":32,"target":34962,"byteStride":8},{"buffer":0,"byteOffset":31068,"byteLength":12,"target":34963},{"buffer":0,"byteOffset":31080,"byteLength":480,"target":34962,"byteStride":12},{"buffer":0,"byteOffset":31560,"byteLength":480,"target":34962,"byteStride":12},{"buffer":0,"byteOffset":32040,"byteLength":320,"target":34962,"byteStride":8},{"buffer":0,"byteOffset":32360,"byteLength":120,"target":34963}],"buffers":[{"byteLength":32480,"uri":"data:application/octet-stream;base64,"}],"accessors":[{"bufferView":0,"componentType":5126,"count":80,"max":[0.40625,0.25,0.046875],"min":[0.078125,0.046875,-0.046875],"type":"VEC3"},{"bufferView":1,"componentType":5126,"count":80,"max":[1,1,1],"min":[-1,-1,-1],"type":"VEC3"},{"bufferView":2,"componentType":5126,"count":80,"max":[0.90625,0.9140625],"min":[0.048664845526218414,0.265625],"type":"VEC2"},{"bufferView":3,"componentType":5123,"count":120,"max":[79],"min":[0],"type":"SCALAR"},{"bufferView":4,"componentType":5126,"count":40,"max":[0.08845187723636627,0.08437500149011612,0.015625],"min":[0.02812499925494194,-0.05815562605857849,-0.015625],"type":"VEC3"},{"bufferView":5,"componentType":5126,"count":40,"max":[1,1,1],"min":[-1,-1,-1],"type":"VEC3"},{"bufferView":6,"componentType":5126,"count":40,"max":[0.9140625,0.9431625008583069],"min":[0.046875,0],"type":"VEC2"},{"bufferView":7,"componentType":5123,"count":60,"max":[39],"min":[0],"type":"SCALAR"},{"bufferView":8,"componentType":5126,"count":56,"max":[0.14702437818050385,0.38795313239097595,0.078125],"min":[-0.13234125077724457,-0.20579686760902405,-0.078125],"type":"VEC3"},{"bufferView":9,"componentType":5126,"count":56,"max":[1,1,1],"min":[-1,-0.9889190793037415,-1],"type":"VEC3"},{"bufferView":10,"componentType":5126,"count":56,"max":[0.90625,0.875],"min":[0,0],"type":"VEC2"},{"bufferView":11,"componentType":5123,"count":84,"max":[55],"min":[0],"type":"SCALAR"},{"bufferView":12,"componentType":5126,"count":88,"max":[1.1875,0.375,0.125],"min":[0.0625,0,-0.125],"type":"VEC3"},{"bufferView":13,"componentType":5126,"count":88,"max":[0.9889369606971741,1,1],"min":[-1,-1,-1],"type":"VEC3"},{"bufferView":14,"componentType":5126,"count":88,"max":[0.8814929723739624,0.5166749954223633],"min":[0,0],"type":"VEC2"},{"bufferView":15,"componentType":5123,"count":132,"max":[87],"min":[0],"type":"SCALAR"},{"bufferView":16,"componentType":5126,"count":88,"max":[1.3125,0.375,0.15625],"min":[0.78125,0,-0.15625],"type":"VEC3"},{"bufferView":17,"componentType":5126,"count":88,"max":[1,1,1],"min":[-1,-1,-1],"type":"VEC3"},{"bufferView":18,"componentType":5126,"count":88,"max":[0.9076172113418579,0.765625],"min":[0,0.15625],"type":"VEC2"},{"bufferView":19,"componentType":5123,"count":132,"max":[87],"min":[0],"type":"SCALAR"},{"bufferView":20,"componentType":5126,"count":24,"max":[0.125,0.1875,0.15625],"min":[-0.375,0,-0.15625],"type":"VEC3"},{"bufferView":21,"componentType":5126,"count":24,"max":[0.986393928527832,1,1],"min":[-0.986393928527832,-1,-1],"type":"VEC3"},{"bufferView":22,"componentType":5126,"count":24,"max":[0.671875,0.6875],"min":[0,0.265625],"type":"VEC2"},{"bufferView":23,"componentType":5123,"count":36,"max":[23],"min":[0],"type":"SCALAR"},{"bufferView":24,"componentType":5126,"count":104,"max":[0.109375,0.21875,0.0625],"min":[-0.09375,-0.21875,-0.0625],"type":"VEC3"},{"bufferView":25,"componentType":5126,"count":104,"max":[1,1,1],"min":[-1,-1,-1],"type":"VEC3"},{"bufferView":26,"componentType":5126,"count":104,"max":[0.921875,0.921875],"min":[0,0.578125],"type":"VEC2"},{"bufferView":27,"componentType":5123,"count":156,"max":[103],"min":[0],"type":"SCALAR"},{"bufferView":28,"componentType":5126,"count":24,"max":[0.3125,0.25,0.0625],"min":[0.125,0.125,-0.0625],"type":"VEC3"},{"bufferView":29,"componentType":5126,"count":24,"max":[1,1,1],"min":[-1,-1,-1],"type":"VEC3"},{"bufferView":30,"componentType":5126,"count":24,"max":[0.859375,0.859375],"min":[0.53125,0.1875],"type":"VEC2"},{"bufferView":31,"componentType":5123,"count":36,"max":[23],"min":[0],"type":"SCALAR"},{"bufferView":32,"componentType":5126,"count":40,"max":[-2.421875,0.3125,0.078125],"min":[-2.484375,-0.0625,-0.078125],"type":"VEC3"},{"bufferView":33,"componentType":5126,"count":40,"max":[1,1,0.9980525970458984],"min":[-1,-1,-0.9980525970458984],"type":"VEC3"},{"bufferView":34,"componentType":5126,"count":40,"max":[0.890625,0.87890625],"min":[0.0625,0.15625],"type":"VEC2"},{"bufferView":35,"componentType":5123,"count":60,"max":[39],"min":[0],"type":"SCALAR"},{"bufferView":36,"componentType":5126,"count":64,"max":[-1.421875,0.28125,0.046875],"min":[-2.421875,0.1875,-0.046875],"type":"VEC3"},{"bufferView":37,"componentType":5126,"count":64,"max":[1,0.8944271802902222,0.8944271802902222],"min":[-1,-0.8944271802902222,-0.8944271802902222],"type":"VEC3"},{"bufferView":38,"componentType":5126,"count":64,"max":[0.8984375,0.625],"min":[0.46875,0.09375],"type":"VEC2"},{"bufferView":39,"componentType":5123,"count":96,"max":[63],"min":[0],"type":"SCALAR"},{"bufferView":40,"componentType":5126,"count":64,"max":[1.125,0.296875,0.109375],"min":[0.3125,0.078125,-0.109375],"type":"VEC3"},{"bufferView":41,"componentType":5126,"count":64,"max":[1,0.986393928527832,0.986393928527832],"min":[-1,-0.986393928527832,-0.986393928527832],"type":"VEC3"},{"bufferView":42,"componentType":5126,"count":64,"max":[0.7421875,0.39453125],"min":[0.140625,0],"type":"VEC2"},{"bufferView":43,"componentType":5123,"count":96,"max":[63],"min":[0],"type":"SCALAR"},{"bufferView":44,"componentType":5126,"count":24,"max":[0.03125,0.390625,0.6078125238418579],"min":[-0.21875,0.34375,0.4203124940395355],"type":"VEC3"},{"bufferView":45,"componentType":5126,"count":24,"max":[1,1,1],"min":[-1,-1,-1],"type":"VEC3"},{"bufferView":46,"componentType":5126,"count":24,"max":[0.921875,0.88671875],"min":[0.296875,0.3125],"type":"VEC2"},{"bufferView":47,"componentType":5123,"count":36,"max":[23],"min":[0],"type":"SCALAR"},{"bufferView":48,"componentType":5126,"count":24,"max":[-0.84375,0.625,0.4203124940395355],"min":[-0.96875,0.40625,0.3578124940395355],"type":"VEC3"},{"bufferView":49,"componentType":5126,"count":24,"max":[1,1,1],"min":[-1,-1,-0.9899494647979736],"type":"VEC3"},{"bufferView":50,"componentType":5126,"count":24,"max":[0.921875,0.90625],"min":[0.109375,0.609375],"type":"VEC2"},{"bufferView":51,"componentType":5123,"count":36,"max":[23],"min":[0],"type":"SCALAR"},{"bufferView":52,"componentType":5126,"count":56,"max":[-0.84375,0.6875,0.6703125238418579],"min":[-0.96875,0.625,0.3578124940395355],"type":"VEC3"},{"bufferView":53,"componentType":5126,"count":56,"max":[1,1,1],"min":[-1,-1,-1],"type":"VEC3"},{"bufferView":54,"componentType":5126,"count":56,"max":[0.921875,0.90625],"min":[0,0.234375],"type":"VEC2"},{"bufferView":55,"componentType":5123,"count":84,"max":[55],"min":[0],"type":"SCALAR"},{"bufferView":56,"componentType":5126,"count":24,"max":[-0.84375,0.46875,0.6078125238418579],"min":[-0.96875,0.34375,0.4203124940395355],"type":"VEC3"},{"bufferView":57,"componentType":5126,"count":24,"max":[1,1,1],"min":[-1,-1,-1],"type":"VEC3"},{"bufferView":58,"componentType":5126,"count":24,"max":[0.921875,0.890625],"min":[0,0.09375],"type":"VEC2"},{"bufferView":59,"componentType":5123,"count":36,"max":[23],"min":[0],"type":"SCALAR"},{"bufferView":60,"componentType":5126,"count":16,"max":[-0.84375,0.40625,0.6390625238418579],"min":[-1.09375,0.34375,0.3890624940395355],"type":"VEC3"},{"bufferView":61,"componentType":5126,"count":16,"max":[1,0,0.8944271802902222],"min":[-1,-0.4472135901451111,-0.8944271802902222],"type":"VEC3"},{"bufferView":62,"componentType":5126,"count":16,"max":[0.90625,0.859375],"min":[0.34375,0.640625],"type":"VEC2"},{"bufferView":63,"componentType":5123,"count":24,"max":[15],"min":[0],"type":"SCALAR"},{"bufferView":64,"componentType":5126,"count":20,"max":[-0.96875,0.4375,0.6390625238418579],"min":[-1.09375,0.40625,0.3890624940395355],"type":"VEC3"},{"bufferView":65,"componentType":5126,"count":20,"max":[0.7071067690849304,1,1],"min":[-1,0,-1],"type":"VEC3"},{"bufferView":66,"componentType":5126,"count":20,"max":[0.90625,0.859375],"min":[0.203125,0.1875],"type":"VEC2"},{"bufferView":67,"componentType":5123,"count":30,"max":[19],"min":[0],"type":"SCALAR"},{"bufferView":68,"componentType":5126,"count":24,"max":[-1.21875,0.390625,0.6078125238418579],"min":[-1.46875,0.34375,0.4203124940395355],"type":"VEC3"},{"bufferView":69,"componentType":5126,"count":24,"max":[1,1,1],"min":[-1,-1,-1],"type":"VEC3"},{"bufferView":70,"componentType":5126,"count":24,"max":[0.921875,0.88671875],"min":[0,0.34375],"type":"VEC2"},{"bufferView":71,"componentType":5123,"count":36,"max":[23],"min":[0],"type":"SCALAR"},{"bufferView":72,"componentType":5126,"count":24,"max":[-0.84375,0.625,-0.3578124940395355],"min":[-0.96875,0.40625,-0.4203124940395355],"type":"VEC3"},{"bufferView":73,"componentType":5126,"count":24,"max":[1,1,0.9899494647979736],"min":[-1,-1,-1],"type":"VEC3"},{"bufferView":74,"componentType":5126,"count":24,"max":[0.921875,0.90625],"min":[0.109375,0.609375],"type":"VEC2"},{"bufferView":75,"componentType":5123,"count":36,"max":[23],"min":[0],"type":"SCALAR"},{"bufferView":76,"componentType":5126,"count":4,"max":[0.09375,0,0.09375],"min":[-0.09375,0,-0.09375],"type":"VEC3"},{"bufferView":77,"componentType":5126,"count":4,"max":[0,1,0],"min":[0,1,0],"type":"VEC3"},{"bufferView":78,"componentType":5126,"count":4,"max":[0.75,0.75],"min":[0,0],"type":"VEC2"},{"bufferView":79,"componentType":5123,"count":6,"max":[3],"min":[0],"type":"SCALAR"},{"bufferView":80,"componentType":5126,"count":40,"max":[0.125,0.3125,0.0625],"min":[-0.125,-0.25,-0.0625],"type":"VEC3"},{"bufferView":81,"componentType":5126,"count":40,"max":[1,1,1],"min":[-1,-1,-1],"type":"VEC3"},{"bufferView":82,"componentType":5126,"count":40,"max":[0.78125,0.84375],"min":[0.15625,0.421875],"type":"VEC2"},{"bufferView":83,"componentType":5123,"count":60,"max":[39],"min":[0],"type":"SCALAR"}],"materials":[{"pbrMetallicRoughness":{"metallicFactor":0,"roughnessFactor":1,"baseColorTexture":{"index":0}},"alphaMode":"MASK","alphaCutoff":0.05,"doubleSided":true},{"pbrMetallicRoughness":{"metallicFactor":0,"roughnessFactor":1,"baseColorTexture":{"index":1}},"alphaMode":"MASK","alphaCutoff":0.05,"doubleSided":true}],"textures":[{"sampler":0,"source":0,"name":"mp7"},{"sampler":1,"source":1,"name":"red-dot"}],"samplers":[{"magFilter":9728,"minFilter":9728,"wrapS":10497,"wrapT":10497},{"magFilter":9728,"minFilter":9728,"wrapS":10497,"wrapT":10497}],"images":[{"mimeType":"image/png","uri":"data:image/png;base64,"},{"mimeType":"image/png","uri":"data:image/png;base64,"}],"meshes":[{"primitives":[{"mode":4,"attributes":{"POSITION":0,"NORMAL":1,"TEXCOORD_0":2},"indices":3,"material":0}]},{"primitives":[{"mode":4,"attributes":{"POSITION":4,"NORMAL":5,"TEXCOORD_0":6},"indices":7,"material":0}]},{"primitives":[{"mode":4,"attributes":{"POSITION":8,"NORMAL":9,"TEXCOORD_0":10},"indices":11,"material":0}]},{"primitives":[{"mode":4,"attributes":{"POSITION":12,"NORMAL":13,"TEXCOORD_0":14},"indices":15,"material":0}]},{"primitives":[{"mode":4,"attributes":{"POSITION":16,"NORMAL":17,"TEXCOORD_0":18},"indices":19,"material":0}]},{"primitives":[{"mode":4,"attributes":{"POSITION":20,"NORMAL":21,"TEXCOORD_0":22},"indices":23,"material":0}]},{"primitives":[{"mode":4,"attributes":{"POSITION":24,"NORMAL":25,"TEXCOORD_0":26},"indices":27,"material":0}]},{"primitives":[{"mode":4,"attributes":{"POSITION":28,"NORMAL":29,"TEXCOORD_0":30},"indices":31,"material":0}]},{"primitives":[{"mode":4,"attributes":{"POSITION":32,"NORMAL":33,"TEXCOORD_0":34},"indices":35,"material":0}]},{"primitives":[{"mode":4,"attributes":{"POSITION":36,"NORMAL":37,"TEXCOORD_0":38},"indices":39,"material":0}]},{"primitives":[{"mode":4,"attributes":{"POSITION":40,"NORMAL":41,"TEXCOORD_0":42},"indices":43,"material":0}]},{"primitives":[{"mode":4,"attributes":{"POSITION":44,"NORMAL":45,"TEXCOORD_0":46},"indices":47,"material":0}]},{"primitives":[{"mode":4,"attributes":{"POSITION":48,"NORMAL":49,"TEXCOORD_0":50},"indices":51,"material":0}]},{"primitives":[{"mode":4,"attributes":{"POSITION":52,"NORMAL":53,"TEXCOORD_0":54},"indices":55,"material":0}]},{"primitives":[{"mode":4,"attributes":{"POSITION":56,"NORMAL":57,"TEXCOORD_0":58},"indices":59,"material":0}]},{"primitives":[{"mode":4,"attributes":{"POSITION":60,"NORMAL":61,"TEXCOORD_0":62},"indices":63,"material":0}]},{"primitives":[{"mode":4,"attributes":{"POSITION":64,"NORMAL":65,"TEXCOORD_0":66},"indices":67,"material":0}]},{"primitives":[{"mode":4,"attributes":{"POSITION":68,"NORMAL":69,"TEXCOORD_0":70},"indices":71,"material":0}]},{"primitives":[{"mode":4,"attributes":{"POSITION":72,"NORMAL":73,"TEXCOORD_0":74},"indices":75,"material":0}]},{"primitives":[{"mode":4,"attributes":{"POSITION":76,"NORMAL":77,"TEXCOORD_0":78},"indices":79,"material":1}]},{"primitives":[{"mode":4,"attributes":{"POSITION":80,"NORMAL":81,"TEXCOORD_0":82},"indices":83,"material":0}]}]}