{
  "asset": {
    "generator": "glTF-Transform v4.2.1",
    "version": "2.0"
  },
  "accessors": [
    {
      "type": "SCALAR",
      "componentType": 5126,
      "count": 46,
      "max": [
        1
      ],
      "min": [
        0
      ],
      "bufferView": 0,
      "byteOffset": 0
    },
    {
      "type": "VEC4",
      "componentType": 5126,
      "count": 46,
      "bufferView": 0,
      "byteOffset": 184
    },
    {
      "type": "VEC4",
      "componentType": 5126,
      "count": 46,
      "bufferView": 0,
      "byteOffset": 920
    },
    {
      "type": "VEC3",
      "componentType": 5126,
      "count": 1,
      "bufferView": 0,
      "byteOffset": 1656
    },
    {
      "type": "SCALAR",
      "componentType": 5126,
      "count": 43,
      "max": [
        2
      ],
      "min": [
        0
      ],
      "bufferView": 0,
      "byteOffset": 1668
    },
    {
      "type": "VEC4",
      "componentType": 5126,
      "count": 43,
      "bufferView": 0,
      "byteOffset": 1840
    },
    {
      "type": "SCALAR",
      "componentType": 5126,
      "count": 51,
      "max": [
        2
      ],
      "min": [
        0
      ],
      "bufferView": 0,
      "byteOffset": 2528
    },
    {
      "type": "VEC3",
      "componentType": 5126,
      "count": 51,
      "bufferView": 0,
      "byteOffset": 2732
    },
    {
      "type": "SCALAR",
      "componentType": 5126,
      "count": 73,
      "max": [
        2
      ],
      "min": [
        0
      ],
      "bufferView": 0,
      "byteOffset": 3344
    },
    {
      "type": "VEC4",
      "componentType": 5126,
      "count": 73,
      "bufferView": 0,
      "byteOffset": 3636
    },
    {
      "type": "VEC4",
      "componentType": 5126,
      "count": 73,
      "bufferView": 0,
      "byteOffset": 4804
    },
    {
      "type": "SCALAR",
      "componentType": 5126,
      "count": 37,
      "max": [
        1
      ],
      "min": [
        0
      ],
      "bufferView": 0,
      "byteOffset": 5972
    },
    {
      "type": "VEC4",
      "componentType": 5126,
      "count": 37,
      "bufferView": 0,
      "byteOffset": 6120
    },
    {
      "type": "SCALAR",
      "componentType": 5126,
      "count": 33,
      "max": [
        1
      ],
      "min": [
        0
      ],
      "bufferView": 0,
      "byteOffset": 6712
    },
    {
      "type": "VEC3",
      "componentType": 5126,
      "count": 33,
      "bufferView": 0,
      "byteOffset": 6844
    },
    {
      "type": "SCALAR",
      "componentType": 5126,
      "count": 60,
      "max": [
        1.6666699647903442
      ],
      "min": [
        0
      ],
      "bufferView": 0,
      "byteOffset": 7240
    },
    {
      "type": "VEC4",
      "componentType": 5126,
      "count": 60,
      "bufferView": 0,
      "byteOffset": 7480
    },
    {
      "type": "SCALAR",
      "componentType": 5126,
      "count": 53,
      "max": [
        1.3333300352096558
      ],
      "min": [
        0
      ],
      "bufferView": 0,
      "byteOffset": 8440
    },
    {
      "type": "VEC3",
      "componentType": 5126,
      "count": 53,
      "bufferView": 0,
      "byteOffset": 8652
    },
    {
      "type": "SCALAR",
      "componentType": 5126,
      "count": 57,
      "max": [
        1.5
      ],
      "min": [
        0
      ],
      "bufferView": 0,
      "byteOffset": 9288
    },
    {
      "type": "VEC4",
      "componentType": 5126,
      "count": 57,
      "bufferView": 0,
      "byteOffset": 9516
    },
    {
      "type": "VEC4",
      "componentType": 5126,
      "count": 57,
      "bufferView": 0,
      "byteOffset": 10428
    },
    {
      "type": "SCALAR",
      "componentType": 5126,
      "count": 1,
      "max": [
        0
      ],
      "min": [
        0
      ]
    },
    {
      "type": "SCALAR",
      "componentType": 5123,
      "count": 36,
      "bufferView": 1,
      "byteOffset": 0
    },
    {
      "type": "SCALAR",
      "componentType": 5123,
      "count": 396,
      "bufferView": 1,
      "byteOffset": 72
    },
    {
      "type": "VEC3",
      "componentType": 5126,
      "count": 24,
      "max": [
        0.375,
        0.1875,
        0.0625
      ],
      "min": [
        0.0625,
        -0.0625,
        -0.0625
      ],
      "bufferView": 2,
      "byteOffset": 0
    },
    {
      "type": "VEC3",
      "componentType": 5126,
      "count": 24,
      "bufferView": 2,
      "byteOffset": 12
    },
    {
      "type": "VEC2",
      "componentType": 5126,
      "count": 24,
      "bufferView": 2,
      "byteOffset": 24
    },
    {
      "type": "VEC3",
      "componentType": 5126,
      "count": 24,
      "max": [
        -0.0625,
        0.1875,
        0.0625
      ],
      "min": [
        -0.375,
        -0.0625,
        -0.0625
      ],
      "bufferView": 3,
      "byteOffset": 0
    },
    {
      "type": "VEC2",
      "componentType": 5126,
      "count": 24,
      "bufferView": 3,
      "byteOffset": 12
    },
    {
      "type": "VEC3",
      "componentType": 5126,
      "count": 216,
      "max": [
        0.5000237226486206,
        0.5625,
        0.42289334535598755
      ],
      "min": [
        -0.5000237226486206,
        -0.4375,
        -0.42289334535598755
      ],
      "bufferView": 4,
      "byteOffset": 0
    },
    {
      "type": "VEC2",
      "componentType": 5126,
      "count": 216,
      "bufferView": 4,
      "byteOffset": 12
    },
    {
      "type": "VEC3",
      "componentType": 5126,
      "count": 216,
      "bufferView": 4,
      "byteOffset": 20
    }
  ],
  "bufferViews": [
    {
      "buffer": 0,
      "byteOffset": 0,
      "byteLength": 11340
    },
    {
      "buffer": 0,
      "byteOffset": 11340,
      "byteLength": 864,
      "target": 34963
    },
    {
      "buffer": 0,
      "byteOffset": 12204,
      "byteLength": 768,
      "byteStride": 32,
      "target": 34962
    },
    {
      "buffer": 0,
      "byteOffset": 12972,
      "byteLength": 480,
      "byteStride": 20,
      "target": 34962
    },
    {
      "buffer": 0,
      "byteOffset": 13452,
      "byteLength": 6912,
      "byteStride": 32,
      "target": 34962
    }
  ],
  "samplers": [
    {
      "magFilter": 9728,
      "minFilter": 9728,
      "wrapS": 33071,
      "wrapT": 33071
    }
  ],
  "textures": [
    {
      "source": 0,
      "sampler": 0
    }
  ],
  "images": [
    {
      "mimeType": "image/png",
      "uri": "baseColor.png"
    }
  ],
  "buffers": [
    {
      "uri": "pufferfish.bin",
      "byteLength": 20364
    }
  ],
  "materials": [
    {
      "alphaMode": "MASK",
      "alphaCutoff": 0.05,
      "doubleSided": true,
      "pbrMetallicRoughness": {
        "metallicFactor": 0,
        "baseColorTexture": {
          "index": 0
        }
      }
    }
  ],
  "meshes": [
    {
      "primitives": [
        {
          "attributes": {
            "POSITION": 25,
            "NORMAL": 26,
            "TEXCOORD_0": 27
          },
          "mode": 4,
          "material": 0,
          "indices": 23
        }
      ]
    },
    {
      "primitives": [
        {
          "attributes": {
            "POSITION": 28,
            "TEXCOORD_0": 29,
            "NORMAL": 26
          },
          "mode": 4,
          "material": 0,
          "indices": 23
        }
      ]
    },
    {
      "primitives": [
        {
          "attributes": {
            "POSITION": 30,
            "TEXCOORD_0": 31,
            "NORMAL": 32
          },
          "mode": 4,
          "material": 0,
          "indices": 24
        }
      ]
    }
  ],
  "nodes": [
    {
      "name": "cube",
      "translation": [
        -0.375,
        -0.0625,
        0
      ],
      "mesh": 0
    },
    {
      "name": "arm",
      "translation": [
        -0.375,
        0.0625,
        -0.125
      ],
      "children": [
        0
      ]
    },
    {
      "name": "cube",
      "translation": [
        0.375,
        -0.0625,
        0
      ],
      "mesh": 1
    },
    {
      "name": "arm2",
      "translation": [
        0.375,
        0.0625,
        -0.125
      ],
      "children": [
        2
      ]
    },
    {
      "name": "cube",
      "mesh": 2
    },
    {
      "name": "pufferfish",
      "translation": [
        0,
        0.375,
        0
      ],
      "children": [
        1,
        3,
        4
      ]
    },
    {
      "children": [
        5
      ]
    }
  ],
  "animations": [
    {
      "name": "idle",
      "samplers": [
        {
          "input": 4,
          "output": 5,
          "interpolation": "LINEAR"
        },
        {
          "input": 6,
          "output": 7,
          "interpolation": "LINEAR"
        },
        {
          "input": 8,
          "output": 9,
          "interpolation": "LINEAR"
        },
        {
          "input": 8,
          "output": 10,
          "interpolation": "LINEAR"
        }
      ],
      "channels": [
        {
          "sampler": 0,
          "target": {
            "node": 5,
            "path": "rotation"
          }
        },
        {
          "sampler": 1,
          "target": {
            "node": 5,
            "path": "translation"
          }
        },
        {
          "sampler": 2,
          "target": {
            "node": 1,
            "path": "rotation"
          }
        },
        {
          "sampler": 3,
          "target": {
            "node": 3,
            "path": "rotation"
          }
        }
      ]
    },
    {
      "name": "walk",
      "samplers": [
        {
          "input": 11,
          "output": 12,
          "interpolation": "LINEAR"
        },
        {
          "input": 13,
          "output": 14,
          "interpolation": "LINEAR"
        },
        {
          "input": 0,
          "output": 1,
          "interpolation": "LINEAR"
        },
        {
          "input": 0,
          "output": 2,
          "interpolation": "LINEAR"
        }
      ],
      "channels": [
        {
          "sampler": 0,
          "target": {
            "node": 5,
            "path": "rotation"
          }
        },
        {
          "sampler": 1,
          "target": {
            "node": 5,
            "path": "translation"
          }
        },
        {
          "sampler": 2,
          "target": {
            "node": 1,
            "path": "rotation"
          }
        },
        {
          "sampler": 3,
          "target": {
            "node": 3,
            "path": "rotation"
          }
        }
      ]
    },
    {
      "name": "attack",
      "samplers": [
        {
          "input": 15,
          "output": 16,
          "interpolation": "LINEAR"
        },
        {
          "input": 22,
          "output": 3,
          "interpolation": "LINEAR"
        },
        {
          "input": 17,
          "output": 18,
          "interpolation": "LINEAR"
        },
        {
          "input": 19,
          "output": 20,
          "interpolation": "LINEAR"
        },
        {
          "input": 19,
          "output": 21,
          "interpolation": "LINEAR"
        }
      ],
      "channels": [
        {
          "sampler": 0,
          "target": {
            "node": 5,
            "path": "rotation"
          }
        },
        {
          "sampler": 1,
          "target": {
            "node": 5,
            "path": "translation"
          }
        },
        {
          "sampler": 2,
          "target": {
            "node": 5,
            "path": "scale"
          }
        },
        {
          "sampler": 3,
          "target": {
            "node": 1,
            "path": "rotation"
          }
        },
        {
          "sampler": 4,
          "target": {
            "node": 3,
            "path": "rotation"
          }
        }
      ]
    }
  ],
  "scenes": [
    {
      "name": "blockbench_export",
      "nodes": [
        6
      ]
    }
  ],
  "scene": 0
}